<svg preserveAspectRatio="none" width="100%" height="100%" overflow="visible" style="display: block;" viewBox="0 0 21 16" fill="none" xmlns="http://www.w3.org/2000/svg">
<path id="Vector" d="M0 1.26316C0 0.928148 0.13275 0.606858 0.369045 0.36997C0.605341 0.133082 0.925827 0 1.26 0H19.74C20.0742 0 20.3947 0.133082 20.631 0.36997C20.8672 0.606858 21 0.928148 21 1.26316C21 1.59817 20.8672 1.91946 20.631 2.15635C20.3947 2.39323 20.0742 2.52632 19.74 2.52632H1.26C0.925827 2.52632 0.605341 2.39323 0.369045 2.15635C0.13275 1.91946 0 1.59817 0 1.26316ZM3.36 8C3.36 7.66499 3.49275 7.3437 3.72905 7.10681C3.96534 6.86992 4.28583 6.73684 4.62 6.73684H16.38C16.7142 6.73684 17.0347 6.86992 17.271 7.10681C17.5072 7.3437 17.64 7.66499 17.64 8C17.64 8.33501 17.5072 8.6563 17.271 8.89319C17.0347 9.13007 16.7142 9.26316 16.38 9.26316H4.62C4.28583 9.26316 3.96534 9.13007 3.72905 8.89319C3.49275 8.6563 3.36 8.33501 3.36 8ZM6.72 14.7368C6.72 14.4018 6.85275 14.0805 7.08905 13.8437C7.32534 13.6068 7.64583 13.4737 7.98 13.4737H13.02C13.3542 13.4737 13.6747 13.6068 13.911 13.8437C14.1472 14.0805 14.28 14.4018 14.28 14.7368C14.28 15.0719 14.1472 15.3931 13.911 15.63C13.6747 15.8669 13.3542 16 13.02 16H7.98C7.64583 16 7.32534 15.8669 7.08905 15.63C6.85275 15.3931 6.72 15.0719 6.72 14.7368Z" fill="var(--fill-0, white)"/>
</svg>
