<svg preserveAspectRatio="none" width="100%" height="100%" overflow="visible" style="display: block;" viewBox="0 0 16.5357 17.013" fill="none" xmlns="http://www.w3.org/2000/svg">
<g id="Group 29379">
<path id="Path 197372" d="M16.041 11.5652C16.3723 11.1705 16.548 10.6683 16.535 10.1532C16.5106 9.70734 16.3493 9.27991 16.073 8.92915C16.2384 8.56346 16.2838 8.15477 16.2026 7.76169C16.1214 7.36862 15.9178 7.01137 15.621 6.74115C14.7931 6.15281 13.7695 5.90802 12.765 6.05815C12.1767 6.08652 11.5915 6.16143 11.015 6.28215C10.837 6.31415 10.649 6.35315 10.456 6.39615C10.485 5.68677 10.6355 4.98763 10.901 4.32915C11.401 2.81415 11.371 1.65415 10.809 0.87815C10.595 0.601355 10.3197 0.377996 10.0048 0.225642C9.68983 0.0732888 9.34382 -0.00390044 8.99399 0.000151676C8.86357 -0.00101147 8.73447 0.0264066 8.61578 0.0804816C8.4971 0.134557 8.3917 0.213975 8.30699 0.313151C7.99896 0.822756 7.892 1.4289 8.00699 2.01315C7.53699 3.27215 6.22099 6.36015 5.10699 7.21315C5.08637 7.22787 5.06727 7.24462 5.04999 7.26315C4.76045 7.57074 4.52392 7.9242 4.34999 8.30915C4.13512 8.19244 3.89451 8.13126 3.64999 8.13115H1.48C1.08756 8.13142 0.711258 8.28743 0.433762 8.56493C0.156265 8.84242 0.000264893 9.21871 0 9.61115V15.3922C0.000264893 15.7846 0.156265 16.1609 0.433762 16.4384C0.711258 16.7159 1.08756 16.8719 1.48 16.8722H3.65199C3.95774 16.8727 4.25614 16.7784 4.506 16.6022L5.342 16.7022C6.91517 16.8936 8.49932 16.9805 10.084 16.9622C10.507 16.9942 10.906 17.0122 11.276 17.0122C11.831 17.0201 12.3853 16.9702 12.93 16.8632C13.3758 16.8084 13.8043 16.6572 14.1858 16.4201C14.5673 16.183 14.8926 15.8657 15.139 15.4902C15.3656 15.0745 15.4506 14.5964 15.381 14.1282C15.6486 13.9034 15.8606 13.6198 16.0006 13.2996C16.1406 12.9794 16.2047 12.6312 16.188 12.2822C16.1759 12.037 16.1264 11.7952 16.041 11.5652ZM1.48099 15.9122C1.34342 15.9119 1.21158 15.8571 1.1143 15.7598C1.01703 15.6626 0.962255 15.5307 0.96199 15.3932V9.60915C0.962255 9.47159 1.01703 9.33973 1.1143 9.24245C1.21158 9.14518 1.34342 9.09042 1.48099 9.09015H3.65199C3.78956 9.09042 3.92142 9.14518 4.01869 9.24245C4.11597 9.33973 4.17073 9.47159 4.17099 9.60915V15.3902C4.17073 15.5277 4.11597 15.6596 4.01869 15.7568C3.92142 15.8541 3.78956 15.9089 3.65199 15.9092H1.48199L1.48099 15.9122ZM15.13 11.1492C15.0568 11.2252 15.0108 11.3233 14.9992 11.4283C14.9876 11.5332 15.0111 11.639 15.066 11.7292C15.1617 11.9135 15.2176 12.1158 15.23 12.3232C15.234 12.5686 15.1746 12.8109 15.0574 13.0266C14.9401 13.2423 14.7691 13.424 14.561 13.5542C14.4791 13.6163 14.4191 13.7029 14.3896 13.8014C14.3601 13.8999 14.3627 14.0052 14.397 14.1022C14.4814 14.4097 14.4457 14.738 14.297 15.0202C14.1127 15.272 13.8775 15.4823 13.6067 15.6374C13.3359 15.7924 13.0355 15.8888 12.725 15.9202C11.8685 16.0662 10.9958 16.0925 10.132 15.9982H10.082C8.53676 16.0157 6.99208 15.9311 5.45799 15.7452L5.099 15.7022C5.12054 15.5992 5.13127 15.4943 5.131 15.3892V9.60515C5.13034 9.45559 5.10741 9.30696 5.06299 9.16415C5.18427 8.71093 5.41112 8.29287 5.72499 7.94415C7.32499 6.67815 8.88399 2.40515 8.95099 2.22015C8.97926 2.14415 8.98652 2.06193 8.972 1.98215C8.90605 1.63931 8.9218 1.28576 9.01799 0.950152C9.21005 0.949743 9.39973 0.992694 9.57288 1.0758C9.74602 1.15892 9.89818 1.28004 10.018 1.43015C10.2021 1.83766 10.2937 2.28087 10.2863 2.72797C10.2788 3.17507 10.1725 3.61499 9.97499 4.01615C9.37499 5.82715 9.32799 6.78015 9.80099 7.20015C9.90598 7.29044 10.0332 7.35096 10.1695 7.3754C10.3058 7.39985 10.4462 7.38733 10.576 7.33915C10.793 7.28915 10.999 7.24715 11.195 7.21415L11.241 7.20315C12.333 6.96515 14.29 6.81915 14.969 7.43815C15.1375 7.6068 15.2417 7.82899 15.2638 8.06634C15.2859 8.30369 15.2244 8.54131 15.09 8.73815C15.0271 8.83423 15.0011 8.94979 15.0167 9.06355C15.0323 9.1773 15.0885 9.28158 15.175 9.35715C15.3996 9.57874 15.5394 9.87211 15.57 10.1862C15.5669 10.3682 15.5262 10.5476 15.4505 10.7131C15.3748 10.8787 15.2657 11.0278 15.13 11.1492Z" fill="var(--fill-0, #24B502)"/>
</g>
</svg>
