<svg preserveAspectRatio="none" width="100%" height="100%" overflow="visible" style="display: block;" viewBox="0 0 30 30" fill="none" xmlns="http://www.w3.org/2000/svg">
<g id="Group 34167">
<path id="Ellipse 12006" d="M15 30C23.2843 30 30 23.2843 30 15C30 6.71573 23.2843 0 15 0C6.71573 0 0 6.71573 0 15C0 23.2843 6.71573 30 15 30Z" fill="var(--fill-0, #25B7D3)"/>
<path id="Path 197622" fill-rule="evenodd" clip-rule="evenodd" d="M18.0279 15.5671L9.81218 21.5469C9.73153 21.6056 9.63624 21.6408 9.53681 21.6487C9.43739 21.6566 9.33772 21.6369 9.24881 21.5917C9.15991 21.5465 9.08524 21.4776 9.03306 21.3926C8.98087 21.3076 8.95321 21.2098 8.95312 21.11V9.15037C8.95321 9.05063 8.98087 8.95286 9.03306 8.86786C9.08524 8.78287 9.15991 8.71395 9.24881 8.66874C9.33772 8.62352 9.43739 8.60377 9.53681 8.61167C9.63624 8.61957 9.73153 8.65481 9.81218 8.71349L18.0279 14.6933C18.0969 14.7435 18.153 14.8093 18.1918 14.8853C18.2305 14.9613 18.2506 15.0454 18.2506 15.1307C18.2506 15.216 18.2305 15.3001 18.1918 15.3762C18.153 15.4522 18.0969 15.5169 18.0279 15.5671ZM19.4131 8.60742H21.3276C21.4926 8.60906 21.6503 8.67531 21.7669 8.79195C21.8836 8.90858 21.9498 9.0663 21.9515 9.23124V21.0281C21.9498 21.1931 21.8836 21.3508 21.7669 21.4674C21.6503 21.5841 21.4926 21.6503 21.3276 21.652H19.4131C19.2482 21.6503 19.0905 21.5841 18.9738 21.4674C18.8572 21.3508 18.7909 21.1931 18.7893 21.0281V9.23124C18.7909 9.0663 18.8572 8.90858 18.9738 8.79195C19.0905 8.67531 19.2482 8.60906 19.4131 8.60742Z" fill="var(--fill-0, white)"/>
</g>
</svg>
