<svg preserveAspectRatio="none" width="100%" height="100%" overflow="visible" style="display: block;" viewBox="0 0 30 30" fill="none" xmlns="http://www.w3.org/2000/svg">
<g id="&#229;&#155;&#190;&#229;&#177;&#130;_1">
<path id="Path 197624" fill-rule="evenodd" clip-rule="evenodd" d="M15 0C17.9667 0 20.8668 0.879735 23.3335 2.52796C25.8003 4.17618 27.7229 6.51886 28.8582 9.25975C29.9935 12.0006 30.2906 15.0166 29.7118 17.9264C29.133 20.8361 27.7044 23.5088 25.6066 25.6066C23.5088 27.7044 20.8361 29.133 17.9264 29.7118C15.0166 30.2906 12.0006 29.9935 9.25975 28.8582C6.51886 27.7229 4.17618 25.8003 2.52796 23.3335C0.879735 20.8668 0 17.9667 0 15C0.000278866 11.0218 1.58072 7.20669 4.39371 4.39371C7.20669 1.58072 11.0218 0.000278866 15 0Z" fill="var(--fill-0, #F59E0B)"/>
<path id="Path 197727" d="M5.06641 15H24.9321" stroke="var(--stroke-0, white)" stroke-width="3"/>
</g>
</svg>
