<svg preserveAspectRatio="none" width="100%" height="100%" overflow="visible" style="display: block;" viewBox="0 0 30 30" fill="none" xmlns="http://www.w3.org/2000/svg">
<g id="&#229;&#155;&#190;&#229;&#177;&#130;_1">
<path id="Path 197624" fill-rule="evenodd" clip-rule="evenodd" d="M15 0C17.9667 0 20.8668 0.879735 23.3335 2.52796C25.8003 4.17618 27.7229 6.51886 28.8582 9.25975C29.9935 12.0006 30.2906 15.0166 29.7118 17.9264C29.133 20.8361 27.7044 23.5088 25.6066 25.6066C23.5088 27.7044 20.8361 29.133 17.9264 29.7118C15.0166 30.2906 12.0006 29.9935 9.25975 28.8582C6.51886 27.7229 4.17618 25.8003 2.52796 23.3335C0.879735 20.8668 0 17.9667 0 15C0.000278866 11.0218 1.58072 7.20669 4.39371 4.39371C7.20669 1.58072 11.0218 0.000278866 15 0ZM7.41797 20.4294L12.8474 15L7.41797 9.56954C7.26822 9.41934 7.18413 9.21589 7.18413 9.00378C7.18413 8.79168 7.26822 8.58823 7.41797 8.43802L8.43908 7.41692C8.58928 7.26717 8.79273 7.18308 9.00484 7.18308C9.21694 7.18308 9.42039 7.26717 9.57059 7.41692L15 12.8463L20.4294 7.41692C20.5796 7.26717 20.7831 7.18308 20.9952 7.18308C21.2073 7.18308 21.4107 7.26717 21.5609 7.41692L22.582 8.43802C22.7318 8.58823 22.8159 8.79168 22.8159 9.00378C22.8159 9.21589 22.7318 9.41934 22.582 9.56954L17.1516 15L22.581 20.4294C22.7307 20.5796 22.8148 20.7831 22.8148 20.9952C22.8148 21.2073 22.7307 21.4107 22.581 21.5609L21.5599 22.582C21.4097 22.7318 21.2062 22.8159 20.9941 22.8159C20.782 22.8159 20.5786 22.7318 20.4283 22.582L15 17.1516L9.56954 22.581C9.41934 22.7307 9.21589 22.8148 9.00378 22.8148C8.79168 22.8148 8.58823 22.7307 8.43802 22.581L7.41797 21.5578C7.26918 21.4077 7.1857 21.2049 7.1857 20.9936C7.1857 20.7822 7.26918 20.5795 7.41797 20.4294Z" fill="var(--fill-0, #F95959)"/>
</g>
</svg>
