<svg preserveAspectRatio="none" width="100%" height="100%" overflow="visible" style="display: block;" viewBox="0 0 30 30" fill="none" xmlns="http://www.w3.org/2000/svg">
<g id="&#229;&#155;&#190;&#229;&#177;&#130;_1">
<path id="Ellipse 12007" d="M15 30C23.2843 30 30 23.2843 30 15C30 6.71573 23.2843 0 15 0C6.71573 0 0 6.71573 0 15C0 23.2843 6.71573 30 15 30Z" fill="var(--fill-0, #00BA00)"/>
<path id="Path 197623" fill-rule="evenodd" clip-rule="evenodd" d="M10.3567 22.4776L5.01624 16.5787C4.84158 16.3856 4.70551 16.1589 4.61579 15.9116C4.52608 15.6643 4.48447 15.4012 4.49336 15.1373C4.51132 14.6044 4.73383 14.1006 5.11197 13.7368C5.4901 13.3731 5.99288 13.1791 6.50969 13.1976C7.0265 13.2161 7.51501 13.4456 7.86776 13.8355L11.9902 18.3861L18.5161 12.0985C18.5741 12.0425 18.6353 11.9903 18.6995 11.942L21.7679 8.98573C22.146 8.62197 22.6488 8.42801 23.1656 8.44653C23.6824 8.46504 24.1709 8.6945 24.5237 9.08444C24.8764 9.47438 25.0645 9.99286 25.0466 10.5258C25.0286 11.0588 24.8061 11.5625 24.4279 11.9263L15.0587 20.958L15.0485 20.9475L11.8059 24.0718L10.3669 22.4839L10.3567 22.4776Z" fill="var(--fill-0, white)"/>
</g>
</svg>
