<svg preserveAspectRatio="none" width="100%" height="100%" overflow="visible" style="display: block;" viewBox="0 0 15.5014 15.4985" fill="none" xmlns="http://www.w3.org/2000/svg">
<g id="Icon feather-copy">
<path id="Path 197429" d="M7.04873 5.64844H13.3511C13.7225 5.64844 14.0786 5.79597 14.3412 6.05857C14.6039 6.32118 14.7514 6.67734 14.7514 7.04872V13.3511C14.7506 13.722 14.6027 14.0774 14.3402 14.3394C14.0777 14.6013 13.722 14.7485 13.3511 14.7485H7.05091C6.67965 14.749 6.32336 14.6022 6.06037 14.3401C5.79738 14.0781 5.64921 13.7223 5.64844 13.3511V7.0509C5.64815 6.86683 5.68416 6.68451 5.75441 6.51437C5.82465 6.34422 5.92775 6.1896 6.0578 6.05934C6.18786 5.92908 6.34232 5.82574 6.51236 5.75524C6.68239 5.68473 6.86465 5.64844 7.04873 5.64844Z" stroke="var(--stroke-0, #E8E8E8)" stroke-width="1.5" stroke-linecap="round" stroke-linejoin="round"/>
<path id="Path 197430" d="M2.85007 9.85003H2.15029C1.77941 9.85003 1.42368 9.7029 1.16116 9.44093C0.898641 9.17895 0.750771 8.82353 0.750002 8.45266V2.15028C0.750002 1.77891 0.897531 1.42274 1.16014 1.16013C1.42274 0.89753 1.77891 0.75 2.15029 0.75H8.45266C8.82404 0.75 9.1802 0.89753 9.44281 1.16013C9.70541 1.42274 9.85294 1.77891 9.85294 2.15028V2.85006" stroke="var(--stroke-0, #E8E8E8)" stroke-width="1.5" stroke-linecap="round" stroke-linejoin="round"/>
</g>
</svg>
