<svg preserveAspectRatio="none" width="100%" height="100%" overflow="visible" style="display: block;" viewBox="0 0 20.9443 20" fill="none" xmlns="http://www.w3.org/2000/svg">
<g id="Group 35725">
<path id="Vector" d="M16.29 20H4.65427C3.41115 20 2.24237 19.5377 1.36323 18.6982C0.484137 17.8588 0 16.7427 0 15.5555V14.4444C0 13.8307 0.520922 13.3332 1.16358 13.3332C1.80624 13.3332 2.32716 13.8307 2.32716 14.4444V15.5555C2.32716 16.1491 2.56925 16.7071 3.00871 17.1268C3.4483 17.5466 4.03267 17.7778 4.65427 17.7778H16.29C16.9115 17.7778 17.4959 17.5466 17.9355 17.1268C18.375 16.7071 18.6171 16.149 18.6171 15.5555V14.4444C18.6171 13.8307 19.1381 13.3332 19.7807 13.3332C20.4233 13.3332 20.9443 13.8307 20.9443 14.4444V15.5555C20.9443 16.7426 20.4602 17.8587 19.581 18.6982C18.7019 19.5377 17.5331 20 16.29 20ZM10.4721 15.5555C10.3112 15.5555 10.1579 15.5243 10.0185 15.4679C9.88845 15.4154 9.76622 15.3392 9.65928 15.2395C9.65933 15.2395 9.65924 15.2394 9.65928 15.2395C9.65851 15.2388 9.65766 15.238 9.65689 15.2372C9.65709 15.2374 9.65668 15.2371 9.65689 15.2372C9.65624 15.2367 9.65502 15.2355 9.65441 15.2349C9.654 15.2345 9.65363 15.2342 9.65323 15.2338C9.65282 15.2334 9.65229 15.2329 9.65193 15.2326C9.65111 15.2318 9.65022 15.2309 9.64941 15.2302L4.99509 10.7856C4.54071 10.3517 4.54071 9.64821 4.99509 9.21428C5.44948 8.78038 6.18627 8.78034 6.64065 9.21428L9.30859 11.7619V1.11112C9.30855 0.497435 9.82947 0 10.4721 0C11.1148 0 11.6357 0.497435 11.6357 1.11112V11.7619L14.3036 9.21428C14.758 8.78038 15.4949 8.78038 15.9492 9.21428C16.4036 9.64817 16.4036 10.3517 15.9492 10.7856L11.2949 15.2301C11.2941 15.2309 11.2932 15.2317 11.2924 15.2325C11.2919 15.2329 11.2914 15.2334 11.2911 15.2337C11.2907 15.2341 11.2903 15.2344 11.2899 15.2348C11.2893 15.2354 11.2887 15.236 11.2881 15.2365C11.2883 15.2364 11.2879 15.2367 11.2881 15.2365C11.2874 15.2373 11.2859 15.2386 11.2851 15.2393C11.2852 15.2393 11.2851 15.2393 11.2851 15.2393C11.2723 15.2512 11.2593 15.2629 11.246 15.2741C11.1486 15.3571 11.0401 15.4218 10.9253 15.468C10.9249 15.4682 10.9246 15.4683 10.9242 15.4685C10.9237 15.4686 10.9234 15.4689 10.9229 15.469C10.7842 15.5248 10.632 15.5555 10.4721 15.5555Z" fill="var(--fill-0, #684B8A)"/>
</g>
</svg>
