<svg preserveAspectRatio="none" width="100%" height="100%" overflow="visible" style="display: block;" viewBox="0 0 36 36" fill="none" xmlns="http://www.w3.org/2000/svg">
<g id="Group 1410117449">
<g id="Rectangle 21388" opacity="0.1">
</g>
<g id="Group">
<path id="Vector" d="M25.7354 19.9345C26.8033 19.9345 27.6691 19.0689 27.6691 18.001C27.6691 16.9331 26.8033 16.0674 25.7354 16.0674C24.6675 16.0674 23.8018 16.9331 23.8018 18.001C23.8018 19.0689 24.6675 19.9345 25.7354 19.9345Z" fill="var(--fill-0, #684B8A)"/>
<path id="Vector_2" d="M10.2657 19.9345C11.3336 19.9345 12.1993 19.0689 12.1993 18.001C12.1993 16.9331 11.3336 16.0674 10.2657 16.0674C9.19776 16.0674 8.33203 16.9331 8.33203 18.001C8.33203 19.0689 9.19776 19.9345 10.2657 19.9345Z" fill="var(--fill-0, #684B8A)"/>
<path id="Vector_3" d="M18.0001 27.6689C19.068 27.6689 19.9337 26.8032 19.9337 25.7353C19.9337 24.6675 19.068 23.8018 18.0001 23.8018C16.9321 23.8018 16.0664 24.6675 16.0664 25.7353C16.0664 26.8032 16.9321 27.6689 18.0001 27.6689Z" fill="var(--fill-0, #684B8A)"/>
<path id="Vector_4" d="M18 12.2C19.0679 12.2 19.9337 11.3343 19.9337 10.2664C19.9337 9.19854 19.0679 8.33284 18 8.33284C16.9321 8.33284 16.0664 9.19854 16.0664 10.2664C16.0664 11.3343 16.9321 12.2 18 12.2Z" fill="var(--fill-0, #684B8A)"/>
<path id="Vector_5" d="M13.8174 8.81064C13.5983 8.04464 13.473 7.50444 13.4687 7.48932C13.3837 7.14879 13.0406 6.9373 12.702 7.01662C12.3608 7.0934 12.143 7.4289 12.2117 7.77192C12.3409 8.41323 12.6394 9.38577 12.6019 9.25532C13.2502 11.5165 14.4809 13.5704 16.1443 15.2337L18 17.0894L19.8558 15.2337C21.5191 13.5704 22.7498 11.5165 23.3981 9.25532C23.4356 9.12448 23.6573 8.42212 23.7884 7.77192C23.857 7.4289 23.6392 7.0934 23.2981 7.01662C22.9556 6.93794 22.6164 7.14879 22.5314 7.48932C22.527 7.50444 22.4023 8.0434 22.1839 8.80686C21.6244 10.546 20.3315 13.4891 18 13.4891C15.6698 13.4891 14.3782 10.5497 13.8174 8.81064Z" fill="var(--fill-0, #684B8A)"/>
<path id="Vector_6" d="M18.9111 18.0003L20.7669 19.856C22.4303 21.5193 24.4842 22.7499 26.7455 23.3982C26.8764 23.4357 27.5788 23.6574 28.229 23.7885C28.572 23.8615 28.9075 23.6399 28.9843 23.2982C29.0611 22.9564 28.8515 22.6159 28.5116 22.5315C28.4965 22.5271 28.0005 22.4025 27.237 22.1841C25.4978 21.6245 22.5116 20.3317 22.5116 18.0003C22.5116 15.6702 25.494 14.3786 27.2332 13.8178C27.9992 13.5988 28.4965 13.4735 28.5116 13.4691C28.8515 13.3841 29.0611 13.0442 28.9843 12.7025C28.9075 12.3607 28.572 12.1392 28.229 12.2122C27.5876 12.3414 26.658 12.6398 26.7885 12.6024C24.5272 13.2507 22.4303 14.4813 20.7669 16.1446L18.9111 18.0003Z" fill="var(--fill-0, #684B8A)"/>
<path id="Vector_7" d="M7.01584 23.2982C7.09263 23.6399 7.42814 23.8615 7.77117 23.7885C8.4125 23.6591 9.38508 23.3608 9.25462 23.3982C11.5159 22.7499 13.5698 21.5193 15.2333 19.856L17.089 18.0003L15.2333 16.1446C13.5699 14.4813 11.5159 13.2507 9.25462 12.6024C9.12378 12.5649 8.42139 12.3433 7.77117 12.2122C7.42814 12.1392 7.09263 12.3607 7.01584 12.7025C6.93905 13.0442 7.14866 13.3848 7.48855 13.4691C7.50368 13.4735 8.04265 13.5982 8.80614 13.8166C10.5453 14.3761 13.4886 15.6689 13.4886 18.0003C13.4886 20.3305 10.5491 21.622 8.80993 22.1828C8.0439 22.4019 7.50368 22.5271 7.48855 22.5315C7.14866 22.6165 6.93905 22.9564 7.01584 23.2982Z" fill="var(--fill-0, #684B8A)"/>
<path id="Vector_8" d="M22.1827 27.1911C22.4017 27.9571 22.527 28.4973 22.5314 28.5124C22.6157 28.8529 22.9544 29.0593 23.2981 28.9851C23.6392 28.9083 23.857 28.5728 23.7884 28.2298C23.7727 28.1518 23.4009 26.756 23.3981 26.7464C22.7498 24.4851 21.5191 22.4313 19.8558 20.768L18 18.9123L16.1443 20.768C14.4809 22.4313 13.2502 24.4851 12.6019 26.7464C12.5992 26.7559 12.2274 28.1518 12.2117 28.2298C12.143 28.5728 12.3608 28.9083 12.702 28.9851C13.0427 29.0613 13.3835 28.8537 13.4687 28.5124C13.4731 28.4973 13.5977 27.9583 13.8161 27.1948C14.3757 25.4557 15.6685 22.5126 18 22.5126C20.3302 22.5126 21.6218 25.452 22.1827 27.1911Z" fill="var(--fill-0, #684B8A)"/>
</g>
</g>
</svg>
