<svg preserveAspectRatio="none" width="100%" height="100%" overflow="visible" style="display: block;" viewBox="0 0 25.0022 25" fill="none" xmlns="http://www.w3.org/2000/svg">
<g id="Group 35709">
<path id="Path 198309" d="M22.9135 20.3164C23.9319 19.1485 24.4959 17.653 24.5022 16.1035C24.5022 12.4737 21.3159 9.4226 17.1684 8.97137C17.2564 8.55432 17.301 8.12928 17.3014 7.70305C17.3014 3.73067 13.533 0.5 8.901 0.5C4.26896 0.5 0.500586 3.73067 0.500586 7.70083C0.506574 9.12609 0.986729 10.5088 1.86536 11.6311L0.526085 15.1589C0.498102 15.2325 0.492488 15.3128 0.509946 15.3897C0.527405 15.4665 0.567159 15.5365 0.624225 15.5908C0.681291 15.6452 0.753129 15.6815 0.830733 15.6951C0.908338 15.7088 0.988255 15.6993 1.06047 15.6677L4.83882 14.0047C5.78249 14.448 6.79477 14.7273 7.83224 14.8307C7.74454 15.2482 7.70033 15.6736 7.70031 16.1001C7.70031 20.0703 11.4698 23.301 16.1007 23.301C17.3834 23.3039 18.6536 23.049 19.8358 22.5515L23.9324 24.4628C24.0058 24.4969 24.0878 24.5079 24.1676 24.4944C24.2474 24.4809 24.3212 24.4435 24.3793 24.3872C24.4374 24.3309 24.4771 24.2583 24.4931 24.179C24.5091 24.0996 24.5007 24.0173 24.469 23.9429L22.9135 20.3164ZM4.68804 13.1987L1.60926 14.5513L2.69243 11.6976C2.71726 11.6319 2.72439 11.5609 2.71311 11.4916C2.70182 11.4224 2.67251 11.3573 2.62813 11.3029C1.77741 10.2924 1.30678 9.0162 1.29772 7.69528C1.29994 4.17192 4.71354 1.30046 8.901 1.30046C13.0885 1.30046 16.5021 4.17192 16.5021 7.70083C16.5005 8.21216 16.4258 8.72064 16.2803 9.21084C15.4566 12.0934 12.4188 14.1012 8.89656 14.1012C8.71585 14.1012 8.53846 14.1012 8.3511 14.0823C7.19424 14.0223 6.0621 13.725 5.02508 13.2087C4.97249 13.1823 4.91472 13.1678 4.85589 13.1663C4.79706 13.1647 4.73861 13.1762 4.68472 13.1998L4.68804 13.1987ZM20.0132 21.751C19.961 21.7272 19.9043 21.7148 19.8469 21.7148C19.7895 21.7148 19.7328 21.7272 19.6806 21.751C18.5551 22.251 17.3367 22.5076 16.1052 22.5038C11.9144 22.5038 8.50409 19.6324 8.50409 16.1035C8.50421 15.6986 8.54995 15.2951 8.64046 14.9005C8.72804 14.9005 8.81563 14.9005 8.90432 14.9005C9.14306 14.9005 9.3792 14.892 9.61276 14.875C9.69259 14.8695 9.76909 14.8573 9.8478 14.8507C10.0008 14.8362 10.1549 14.8218 10.3068 14.8008C10.3999 14.7875 10.4908 14.7675 10.5829 14.752C10.717 14.7287 10.8512 14.7076 10.9831 14.6788C11.0806 14.6577 11.176 14.63 11.2724 14.6067C11.3955 14.5757 11.5186 14.5469 11.6394 14.5114C11.7381 14.4826 11.8334 14.4482 11.931 14.4161C12.0419 14.3784 12.1616 14.3418 12.2736 14.2996C12.3856 14.2575 12.4654 14.222 12.5607 14.1821C12.6561 14.1422 12.7769 14.0945 12.8811 14.0458C12.9853 13.997 13.0685 13.9526 13.1616 13.9061C13.2548 13.8595 13.3634 13.8052 13.4621 13.752C13.5607 13.6987 13.6428 13.6411 13.7326 13.5923C13.8224 13.5435 13.9211 13.4814 14.012 13.4205C14.1029 13.3595 14.1849 13.3007 14.2703 13.2409C14.3557 13.181 14.4444 13.1167 14.5286 13.0524C14.6129 12.9881 14.6916 12.9205 14.7725 12.8528C14.8535 12.7852 14.9322 12.7187 15.0098 12.6488C15.0874 12.579 15.1617 12.5047 15.2315 12.4271C15.3014 12.3495 15.3779 12.2819 15.4533 12.2054C15.5286 12.1289 15.5929 12.0513 15.6606 11.9725C15.7282 11.8938 15.7925 11.8173 15.8557 11.7375C15.9189 11.6577 15.981 11.5734 16.0408 11.4892C16.1007 11.4049 16.1606 11.324 16.2149 11.2386C16.2692 11.1532 16.3258 11.0668 16.3746 10.9781C16.4233 10.8894 16.4777 10.8018 16.5253 10.7109C16.573 10.62 16.6185 10.5313 16.6617 10.4404C16.7049 10.3494 16.7493 10.2519 16.7892 10.1565C16.8291 10.0612 16.8646 9.9725 16.9001 9.87604C16.9178 9.82837 16.94 9.78292 16.9555 9.73413C20.766 10.0945 23.7051 12.8384 23.7051 16.0946C23.6956 17.5349 23.141 18.9181 22.153 19.9661C22.1013 20.0228 22.067 20.0932 22.0542 20.1689C22.0415 20.2446 22.0507 20.3223 22.0809 20.3929L23.3237 23.2899L20.0132 21.751Z" fill="var(--fill-0, #684B8A)" stroke="var(--stroke-0, #684B8A)" stroke-linecap="round"/>
<path id="A" d="M13.4706 19.8828C13.4233 19.8828 13.379 19.8651 13.3376 19.8296C13.3021 19.7941 13.2844 19.7498 13.2844 19.6966C13.2844 19.6729 13.2903 19.6463 13.3021 19.6167L15.4394 13.8965C15.4572 13.8374 15.4897 13.7871 15.537 13.7458C15.5902 13.6985 15.6611 13.6748 15.7498 13.6748H16.7165C16.8052 13.6748 16.8732 13.6985 16.9205 13.7458C16.9678 13.7871 17.0032 13.8374 17.0269 13.8965L19.1642 19.6167C19.1701 19.6463 19.1731 19.6729 19.1731 19.6966C19.1731 19.7498 19.1554 19.7941 19.1199 19.8296C19.0844 19.8651 19.043 19.8828 18.9957 19.8828H18.2242C18.1414 19.8828 18.0793 19.8651 18.0379 19.8296C18.0024 19.7882 17.9788 19.7498 17.967 19.7143L17.5501 18.6323H14.9162L14.4994 19.7143C14.4875 19.7498 14.4609 19.7882 14.4195 19.8296C14.3841 19.8651 14.3249 19.8828 14.2422 19.8828H13.4706ZM15.2266 17.6124H17.2397L16.2287 14.8721L15.2266 17.6124Z" fill="var(--fill-0, #684B8A)" stroke="var(--stroke-0, #684B8A)" stroke-width="0.2"/>
<path id="A (Stroke)" fill-rule="evenodd" clip-rule="evenodd" d="M15.7597 13.7793C15.6912 13.7793 15.6488 13.7971 15.6205 13.8223C15.5886 13.8502 15.5671 13.8833 15.5555 13.922L15.5534 13.9291L13.4149 19.6516C13.4066 19.6723 13.4051 19.6846 13.4051 19.6902C13.4051 19.7142 13.4115 19.7293 13.4231 19.742C13.446 19.7606 13.4644 19.7656 13.4805 19.7656H14.252C14.3236 19.7656 14.3464 19.7495 14.351 19.7449C14.3864 19.7095 14.3999 19.6854 14.4041 19.6729L14.4057 19.6681L14.85 18.5151H17.6361L18.0821 19.6729C18.0874 19.6887 18.0998 19.7121 18.1252 19.7431C18.1408 19.7537 18.1725 19.7656 18.234 19.7656H19.0056C19.0216 19.7656 19.0353 19.7609 19.0514 19.7449C19.0647 19.7315 19.0721 19.716 19.0721 19.6902C19.0721 19.6773 19.0706 19.6608 19.067 19.6404L16.9334 13.9303C16.9162 13.8877 16.891 13.8523 16.8573 13.8229L16.8518 13.818C16.8314 13.7976 16.7956 13.7793 16.7264 13.7793H15.7597ZM15.4735 13.6563C15.5516 13.587 15.6509 13.5576 15.7597 13.5576H16.7264C16.8332 13.5576 16.9321 13.5861 17.006 13.6583C17.0653 13.711 17.1101 13.775 17.1397 13.849L17.1406 13.8514L19.2811 19.5799L19.2828 19.5887C19.2898 19.6235 19.2938 19.6576 19.2938 19.6902C19.2938 19.7709 19.2658 19.844 19.2081 19.9016C19.1533 19.9565 19.0842 19.9873 19.0056 19.9873H18.234C18.138 19.9873 18.0453 19.9671 17.9756 19.9074L17.9692 19.9019L17.9636 19.8954C17.9234 19.8485 17.8907 19.7985 17.8726 19.7457L17.4839 18.7369H15.0021L14.6135 19.7457C14.5937 19.8031 14.5544 19.855 14.5078 19.9016C14.4415 19.9679 14.3461 19.9873 14.252 19.9873H13.4805C13.4027 19.9873 13.3335 19.9573 13.2753 19.9074L13.2688 19.9019C13.2112 19.8442 13.1834 19.7709 13.1834 19.6902C13.1834 19.649 13.1935 19.6085 13.2085 19.5705L15.3443 13.8546C15.3683 13.7769 15.412 13.7102 15.4735 13.6563ZM16.2381 14.5442L17.4087 17.717H15.0779L16.2381 14.5442ZM16.2391 15.1872L15.395 17.4953H17.0906L16.2391 15.1872Z" fill="var(--fill-0, #684B8A)" stroke="var(--stroke-0, #684B8A)" stroke-width="0.2"/>
<path id="Q" d="M11.0388 11.0844C11.0802 11.1435 11.1009 11.2322 11.1009 11.3505C11.1009 11.4983 11.0329 11.6284 10.8969 11.7407C10.7609 11.853 10.6042 11.9092 10.4268 11.9092C10.2554 11.9092 10.1283 11.8323 10.0455 11.6786L9.62868 10.978C9.34489 11.0608 9.04631 11.1022 8.73296 11.1022C8.15946 11.1022 7.66282 10.978 7.24304 10.7297C6.82917 10.4814 6.5099 10.1237 6.28523 9.65658C6.06648 9.1895 5.9571 8.63374 5.9571 7.98929C5.9571 7.3212 6.07535 6.74178 6.31184 6.25106C6.54833 5.76033 6.88238 5.38194 7.31399 5.11588C7.7515 4.84983 8.26588 4.7168 8.85711 4.7168C9.4247 4.7168 9.91543 4.84096 10.3293 5.08928C10.7432 5.3376 11.0595 5.69529 11.2782 6.16237C11.5029 6.62945 11.6152 7.18521 11.6152 7.82966C11.6152 8.38542 11.5295 8.88502 11.358 9.32844C11.1925 9.76596 10.953 10.1296 10.6397 10.4193L11.0388 11.0844ZM8.74182 10.0645C8.85416 10.0645 8.96354 10.0557 9.06996 10.0379L8.52898 9.12447C8.48168 9.04761 8.45803 8.95892 8.45803 8.85841C8.45803 8.7106 8.52602 8.58053 8.66201 8.4682C8.79799 8.35586 8.95467 8.29969 9.13204 8.29969C9.3035 8.29969 9.43357 8.37655 9.52226 8.53028L10.0189 9.37279C10.2377 9.00622 10.347 8.49184 10.347 7.82966C10.347 6.44616 9.84448 5.75442 8.83938 5.75442C8.31318 5.75442 7.91409 5.94361 7.64212 6.322C7.37015 6.69448 7.23417 7.24433 7.23417 7.97156C7.23417 9.36687 7.73672 10.0645 8.74182 10.0645Z" fill="var(--fill-0, #684B8A)" stroke="var(--stroke-0, #684B8A)" stroke-width="0.2"/>
<g id="Q (Stroke)">
<path fill-rule="evenodd" clip-rule="evenodd" d="M8.85922 4.82914C8.28523 4.82914 7.79153 4.95807 7.37398 5.21191C6.96189 5.46601 6.64177 5.82765 6.41381 6.30067C6.186 6.77337 6.07006 7.33564 6.07006 7.99078C6.07006 8.62268 6.17728 9.16147 6.38749 9.61053C6.60342 10.0592 6.90825 10.3997 7.30184 10.6359C7.70168 10.8724 8.17801 10.9928 8.73506 10.9928C9.03854 10.9928 9.32662 10.9527 9.59974 10.8731L9.68216 10.849L10.1453 11.6275C10.179 11.69 10.2185 11.7317 10.2624 11.7582C10.3061 11.7846 10.3603 11.7998 10.429 11.7998C10.5807 11.7998 10.7124 11.7525 10.8284 11.6567C10.9443 11.5609 10.9921 11.4602 10.9921 11.352C10.9921 11.2432 10.9725 11.1815 10.9501 11.1495L10.9456 11.1431L10.5004 10.4005L10.5665 10.3394C10.8661 10.0624 11.0964 9.71371 11.2565 9.2907C11.4222 8.86198 11.5065 8.3755 11.5065 7.83114C11.5065 7.19938 11.3964 6.6608 11.1804 6.21191L11.1799 6.21087C10.9699 5.76233 10.668 5.422 10.2744 5.18582C9.88055 4.94953 9.41029 4.82914 8.85922 4.82914ZM7.25849 5.02265C7.71591 4.74449 8.25086 4.60742 8.85922 4.60742C9.44332 4.60742 9.95451 4.73535 10.3884 4.9957C10.8224 5.25606 11.1531 5.63096 11.3805 6.11632C11.6137 6.60147 11.7282 7.17424 11.7282 7.83114C11.7282 8.39815 11.6407 8.91149 11.4637 9.36953C11.3042 9.79078 11.0774 10.1482 10.7824 10.4397L11.1341 11.0258C11.1927 11.1117 11.2138 11.2259 11.2138 11.352C11.2138 11.5393 11.1256 11.6988 10.9696 11.8276C10.8136 11.9565 10.6319 12.0215 10.429 12.0215C10.3262 12.0215 10.2311 11.9983 10.1477 11.9479C10.065 11.8979 10.0002 11.825 9.95118 11.7348L9.57877 11.1089C9.30939 11.1794 9.02804 11.2145 8.73506 11.2145C8.14523 11.2145 7.62837 11.0867 7.1887 10.8266C6.75487 10.5663 6.42077 10.1912 6.18744 9.70612L6.18694 9.70508C5.95979 9.22009 5.84834 8.64753 5.84834 7.99078C5.84834 7.30971 5.9689 6.71316 6.21408 6.20441C6.45905 5.69609 6.80751 5.30065 7.25849 5.02265ZM7.55445 6.25845C7.85017 5.84724 8.28507 5.64504 8.84148 5.64504C9.37243 5.64504 9.78593 5.82968 10.0619 6.20955C10.3331 6.58285 10.46 7.12927 10.46 7.83114C10.46 8.50323 10.3494 9.04035 10.1162 9.43108L10.0204 9.59158L9.42886 8.58805C9.35912 8.46716 9.2643 8.41203 9.13414 8.41203C8.98238 8.41203 8.85071 8.45932 8.73471 8.55514C8.61877 8.65093 8.57099 8.75163 8.57099 8.85989C8.57099 8.94229 8.59014 9.0104 8.62549 9.06785L8.62648 9.06945L9.24991 10.1222L9.09029 10.1488C8.9776 10.1675 8.86212 10.1769 8.74393 10.1769C8.21261 10.1769 7.79906 9.99048 7.52324 9.60757C7.25225 9.23138 7.12542 8.68068 7.12542 7.97304C7.12542 7.23511 7.26286 6.65802 7.55445 6.25845ZM8.84148 5.86676C8.34564 5.86676 7.98246 6.04284 7.73424 6.38819C7.48206 6.73356 7.34713 7.25673 7.34713 7.97304C7.34713 8.66071 7.47157 9.1565 7.70314 9.47798C7.92986 9.79272 8.27014 9.95516 8.74393 9.95516C8.79335 9.95516 8.84207 9.95335 8.89012 9.94974L8.43616 9.18322C8.37726 9.08715 8.34928 8.97818 8.34928 8.85989C8.34928 8.67254 8.43748 8.5131 8.59351 8.38421C8.74948 8.25536 8.93116 8.19032 9.13414 8.19032C9.34672 8.19032 9.51247 8.28964 9.62011 8.47588C9.6202 8.47604 9.62002 8.47573 9.62011 8.47588L10.0148 9.14539C10.1614 8.81697 10.2383 8.38117 10.2383 7.83114C10.2383 7.14952 10.1139 6.65832 9.88253 6.33987C9.65596 6.02799 9.31563 5.86676 8.84148 5.86676Z" fill="var(--fill-0, #684B8A)"/>
<path d="M9.62011 8.47588C9.51247 8.28964 9.34672 8.19032 9.13414 8.19032C8.93116 8.19032 8.74948 8.25536 8.59351 8.38421C8.43748 8.5131 8.34928 8.67254 8.34928 8.85989C8.34928 8.97818 8.37726 9.08715 8.43616 9.18322L8.89012 9.94974C8.84207 9.95335 8.79335 9.95516 8.74393 9.95516C8.27014 9.95516 7.92986 9.79272 7.70314 9.47798C7.47157 9.1565 7.34713 8.66071 7.34713 7.97304C7.34713 7.25673 7.48206 6.73356 7.73424 6.38819C7.98246 6.04284 8.34564 5.86676 8.84148 5.86676C9.31563 5.86676 9.65596 6.02799 9.88253 6.33987C10.1139 6.65832 10.2383 7.14952 10.2383 7.83114C10.2383 8.38117 10.1614 8.81697 10.0148 9.14539L9.62011 8.47588ZM9.62011 8.47588C9.62002 8.47573 9.6202 8.47604 9.62011 8.47588ZM7.37398 5.21191C7.79153 4.95807 8.28523 4.82914 8.85922 4.82914C9.41029 4.82914 9.88055 4.94953 10.2744 5.18582C10.668 5.422 10.9699 5.76233 11.1799 6.21087L11.1804 6.21191C11.3964 6.6608 11.5065 7.19938 11.5065 7.83114C11.5065 8.3755 11.4222 8.86198 11.2565 9.2907C11.0964 9.71371 10.8661 10.0624 10.5665 10.3394L10.5004 10.4005L10.9456 11.1431L10.9501 11.1495C10.9725 11.1815 10.9921 11.2432 10.9921 11.352C10.9921 11.4602 10.9443 11.5609 10.8284 11.6567C10.7124 11.7525 10.5807 11.7998 10.429 11.7998C10.3603 11.7998 10.3061 11.7846 10.2624 11.7582C10.2185 11.7317 10.179 11.69 10.1453 11.6275L9.68216 10.849L9.59974 10.8731C9.32662 10.9527 9.03854 10.9928 8.73506 10.9928C8.17801 10.9928 7.70168 10.8724 7.30184 10.6359C6.90825 10.3997 6.60342 10.0592 6.38749 9.61053C6.17728 9.16147 6.07006 8.62268 6.07006 7.99078C6.07006 7.33564 6.186 6.77337 6.41381 6.30067C6.64177 5.82765 6.96189 5.46601 7.37398 5.21191ZM8.85922 4.60742C8.25086 4.60742 7.71591 4.74449 7.25849 5.02265C6.80751 5.30065 6.45905 5.69609 6.21408 6.20441C5.9689 6.71316 5.84834 7.30971 5.84834 7.99078C5.84834 8.64753 5.95979 9.22009 6.18694 9.70508L6.18744 9.70612C6.42077 10.1912 6.75487 10.5663 7.1887 10.8266C7.62837 11.0867 8.14523 11.2145 8.73506 11.2145C9.02804 11.2145 9.30939 11.1794 9.57877 11.1089L9.95118 11.7348C10.0002 11.825 10.065 11.8979 10.1477 11.9479C10.2311 11.9983 10.3262 12.0215 10.429 12.0215C10.6319 12.0215 10.8136 11.9565 10.9696 11.8276C11.1256 11.6988 11.2138 11.5393 11.2138 11.352C11.2138 11.2259 11.1927 11.1117 11.1341 11.0258L10.7824 10.4397C11.0774 10.1482 11.3042 9.79078 11.4637 9.36953C11.6407 8.91149 11.7282 8.39815 11.7282 7.83114C11.7282 7.17424 11.6137 6.60147 11.3805 6.11632C11.1531 5.63096 10.8224 5.25606 10.3884 4.9957C9.95451 4.73535 9.44332 4.60742 8.85922 4.60742ZM8.84148 5.64504C8.28507 5.64504 7.85017 5.84724 7.55445 6.25845C7.26286 6.65802 7.12542 7.23511 7.12542 7.97304C7.12542 8.68068 7.25225 9.23138 7.52324 9.60757C7.79906 9.99048 8.21261 10.1769 8.74393 10.1769C8.86212 10.1769 8.9776 10.1675 9.09029 10.1488L9.24991 10.1222L8.62648 9.06945L8.62549 9.06785C8.59014 9.0104 8.57099 8.94229 8.57099 8.85989C8.57099 8.75163 8.61877 8.65093 8.73471 8.55514C8.85071 8.45932 8.98238 8.41203 9.13414 8.41203C9.2643 8.41203 9.35912 8.46716 9.42886 8.58805L10.0204 9.59158L10.1162 9.43108C10.3494 9.04035 10.46 8.50323 10.46 7.83114C10.46 7.12927 10.3331 6.58285 10.0619 6.20955C9.78593 5.82968 9.37243 5.64504 8.84148 5.64504Z" stroke="var(--stroke-0, #684B8A)" stroke-width="0.2"/>
</g>
</g>
</svg>
