<svg preserveAspectRatio="none" width="100%" height="100%" overflow="visible" style="display: block;" viewBox="0 0 28 28" fill="none" xmlns="http://www.w3.org/2000/svg">
<g id="Group 1410117463">
<rect id="Rectangle 4" width="28" height="28" rx="14" fill="var(--fill-0, #F5EDFF)"/>
<path id="Icon material-notifications-active" d="M14.7598 22.9043C14.7276 22.9393 14.6936 22.9725 14.6572 23.0029C14.5233 23.1151 14.3666 23.1923 14.2002 23.2285L14.1973 23.2295C14.1361 23.2431 14.0732 23.2491 14.0107 23.248L13.9502 23.2461C13.6933 23.2318 13.4465 23.1238 13.2588 22.9326C13.25 22.9236 13.2419 22.9136 13.2334 22.9043H14.7598ZM13.999 6.75C14.1536 6.75012 14.3054 6.8126 14.4199 6.92969C14.5351 7.0475 14.6025 7.21106 14.6025 7.38477V8.59668L15.1758 8.73633C17.3363 9.26184 18.665 11.2588 18.665 13.8428V18.7666L18.8789 18.9854L20.3438 20.4824H7.65527L9.11816 18.9883L9.33203 18.7695V13.8477C9.33203 11.2535 10.6526 9.26671 12.8213 8.74121L13.3945 8.60254V7.38477C13.3945 7.21106 13.4619 7.0475 13.5771 6.92969C13.6918 6.81245 13.8443 6.75 13.999 6.75ZM19.3301 7.16211C20.1132 7.87516 20.7689 8.72601 21.2588 9.68066C21.7323 10.6035 22.0398 11.6031 22.1768 12.6328H21.8701C21.7275 11.6042 21.407 10.6077 20.9141 9.69336C20.4455 8.82432 19.8321 8.0477 19.1055 7.39355L19.3301 7.16211ZM8.89746 7.39258C8.16919 8.0443 7.55538 8.82028 7.08594 9.68848C6.59115 10.6037 6.26938 11.6024 6.12793 12.6328H5.82031C5.95471 11.6021 6.26153 10.6012 6.73535 9.67773C7.2258 8.72191 7.88292 7.86974 8.66895 7.1582L8.89746 7.39258Z" stroke="var(--stroke-0, #55347B)" stroke-width="1.5"/>
</g>
</svg>
