<svg preserveAspectRatio="none" width="100%" height="100%" overflow="visible" style="display: block;" viewBox="0 0 28 28" fill="none" xmlns="http://www.w3.org/2000/svg">
<g id="Group 1410117509">
<circle id="Ellipse 12038" cx="14" cy="14" r="13.75" fill="var(--fill-0, white)" stroke="var(--stroke-0, #25AFEE)" stroke-width="0.5"/>
<g id="Group 1410117459">
<path id="Vector" d="M11.5256 19.6068C11.5256 20.2792 11.6329 20.9355 11.831 21.5439C8.66128 20.4793 6.26748 17.6538 6.01985 14.348C5.77221 10.8341 7.86059 7.55234 11.2367 6.1756C12.1116 5.82341 12.5574 6.07955 12.7472 6.26365C12.9288 6.43974 13.1847 6.86397 12.8215 7.67241C12.4501 8.50486 12.2685 9.38533 12.2685 10.2978C12.2767 11.9307 12.9371 13.4435 14.0102 14.6041C12.4996 15.7728 11.5256 17.5817 11.5256 19.6068Z" fill="var(--fill-0, #25AFEE)"/>
<path id="Vector_2" d="M21.606 18.5822C19.9717 20.7353 17.3798 22 14.6145 22C14.4824 22 14.3504 21.992 14.2183 21.984C13.3929 21.952 12.5922 21.7999 11.8328 21.5438C11.6347 20.9354 11.5273 20.2791 11.5273 19.6067C11.5273 17.5816 12.5014 15.7726 14.0119 14.604C15.2253 15.9247 16.967 16.7812 18.8903 16.8612C19.4104 16.8852 19.9304 16.8452 20.4422 16.7572C21.3667 16.5971 21.7381 16.9333 21.8702 17.1494C22.0105 17.3655 22.1591 17.8378 21.606 18.5822Z" fill="var(--fill-0, #25AFEE)"/>
</g>
</g>
</svg>
