<svg preserveAspectRatio="none" width="100%" height="100%" overflow="visible" style="display: block;" viewBox="0 0 16.3632 20" fill="none" xmlns="http://www.w3.org/2000/svg">
<g id="Group 1410117461">
<path id="Path 197564" d="M8.18185 0.75C9.42866 0.75345 10.6234 1.25028 11.5051 2.13184C12.332 2.95873 12.8207 4.06128 12.8811 5.22363L12.8879 5.45605C12.8876 6.38592 12.6116 7.29518 12.0949 8.06836C11.578 8.8419 10.8431 9.44473 9.98361 9.80078C9.12413 10.1568 8.17826 10.2498 7.26583 10.0684C6.35335 9.88686 5.51455 9.43907 4.85666 8.78125C4.19873 8.12333 3.75107 7.28464 3.56955 6.37207C3.38804 5.45953 3.48108 4.51389 3.83712 3.6543C4.19318 2.79469 4.79593 2.05989 5.56955 1.54297C6.34283 1.02628 7.25185 0.750253 8.18185 0.75Z" stroke="var(--stroke-0, #55347B)" stroke-width="1.5"/>
<path id="Path 197565" d="M4.73438 11.6671C5.72906 12.4495 6.93648 12.877 8.18262 12.8771C9.4205 12.8771 10.6204 12.4552 11.6113 11.6828C11.634 11.6662 11.6533 11.6637 11.667 11.6652C12.3737 11.7743 13.0548 12.042 13.665 12.4552C14.2784 12.8706 14.8075 13.4238 15.2148 14.0812L15.2246 14.0968C15.3594 14.3028 15.4751 14.5234 15.5723 14.754C15.4295 15.0132 15.2723 15.2623 15.1006 15.4992L15.0947 15.507C14.8256 15.8888 14.5304 16.248 14.2119 16.5812L14.2051 16.589C13.9315 16.8831 13.6398 17.1563 13.332 17.4064C11.8309 18.6071 10.0176 19.2501 8.16211 19.2501C6.42276 19.2501 4.72099 18.685 3.27832 17.6251L2.99316 17.4064C2.68647 17.1469 2.39182 16.8708 2.11035 16.5792L2.10449 16.5724C1.78662 16.2504 1.49549 15.8971 1.23633 15.5167L1.23242 15.5109L1.22754 15.504C1.06553 15.2767 0.916456 15.039 0.777344 14.7941C0.88195 14.5473 1.00605 14.3112 1.14746 14.088L1.15234 14.0792C1.55753 13.4206 2.08608 12.8665 2.69922 12.4513C3.31209 12.0364 3.99676 11.7687 4.70703 11.6632L4.7207 11.6613L4.72559 11.6603L4.73438 11.6671Z" stroke="var(--stroke-0, #55347B)" stroke-width="1.5"/>
</g>
</svg>
