<svg preserveAspectRatio="none" width="100%" height="100%" overflow="visible" style="display: block;" viewBox="0 0 22.0019 22.0004" fill="none" xmlns="http://www.w3.org/2000/svg">
<g id="Review">
<path id="Vector" d="M13.9768 9.55078C13.9768 9.17922 13.6793 8.87793 13.3124 8.87793H6.00378C5.63687 8.87793 5.33936 9.17922 5.33936 9.55078C5.33936 9.92234 5.63687 10.2236 6.00378 10.2236H13.3124C13.6793 10.2236 13.9768 9.92234 13.9768 9.55078Z" fill="var(--fill-0, #F27C57)"/>
<path id="Vector_2" d="M6.00183 12.2754C5.63492 12.2754 5.33741 12.5767 5.33741 12.9482C5.33741 13.3198 5.63492 13.6211 6.00183 13.6211H9.87686C10.2438 13.6211 10.5413 13.3198 10.5413 12.9482C10.5413 12.5767 10.2438 12.2754 9.87686 12.2754H6.00183Z" fill="var(--fill-0, #F27C57)"/>
<path id="Vector_3" d="M18.3528 9.58855C17.9859 9.58855 17.6884 9.88984 17.6884 10.2614V15.7033C17.6884 16.7215 16.8704 17.5499 15.865 17.5499H11.4207C11.2768 17.5499 11.1365 17.597 11.0214 17.6852L7.18398 20.6076C7.08653 20.6816 6.99499 20.651 6.94922 20.6256C6.90271 20.6016 6.82594 20.5426 6.82889 20.4222L6.90271 18.2467C6.90862 18.0642 6.84144 17.8871 6.71668 17.7562C6.59191 17.6246 6.41916 17.5506 6.23903 17.5506H3.15245C2.14696 17.5506 1.32899 16.723 1.32899 15.704V6.80743C1.32899 5.78545 2.14696 4.9541 3.15245 4.9541H11.3395C11.7064 4.9541 12.004 4.65281 12.004 4.28125C12.004 3.90969 11.7064 3.6084 11.3395 3.6084H3.15245C1.41463 3.6084 0.000157195 5.04382 0.000157195 6.80818V15.704C0.000157195 17.4639 1.41463 18.8971 3.15245 18.8971H5.55099L5.50079 20.3789C5.48307 20.9874 5.80273 21.5406 6.33648 21.821C6.5646 21.9414 6.81043 22.0004 7.05405 22.0004C7.38109 22.0004 7.70518 21.8935 7.98128 21.6849L11.6422 18.8971H15.8642C17.602 18.8971 19.0165 17.4647 19.0165 15.704V10.2622C19.0173 9.88984 18.7197 9.58855 18.3528 9.58855Z" fill="var(--fill-0, #F27C57)"/>
<path id="Vector_4" d="M21.9462 3.17941C21.8259 2.8056 21.5299 2.526 21.1541 2.4318L19.4562 2.00342L18.5289 0.500714C18.1177 -0.167652 17.0443 -0.166157 16.6339 0.500714L15.7066 2.00342L14.0087 2.4318C13.6329 2.526 13.3361 2.8056 13.2165 3.17941C13.0969 3.55322 13.1737 3.95618 13.4233 4.25747L14.5483 5.61364L14.4258 7.381C14.3985 7.77274 14.5697 8.14431 14.8835 8.37532C15.0784 8.51886 15.3072 8.59288 15.5391 8.59288C15.6801 8.59288 15.8225 8.56521 15.9591 8.50914L17.5818 7.84526L19.2037 8.50914C19.5632 8.65717 19.9648 8.60633 20.2793 8.37607C20.5931 8.14506 20.7643 7.77349 20.7377 7.381L20.6152 5.61364L21.7403 4.25672C21.9891 3.95618 22.0666 3.55322 21.9462 3.17941ZM19.4244 4.95649C19.3137 5.09031 19.2583 5.26226 19.2709 5.4372L19.389 7.13428L17.8313 6.49657C17.7516 6.46367 17.6667 6.44723 17.5825 6.44723C17.4983 6.44723 17.4134 6.46367 17.3337 6.49657L15.7768 7.13428L15.8941 5.4372C15.906 5.26301 15.8506 5.09031 15.7406 4.95649L14.6605 3.65415L16.2906 3.24221C16.4574 3.1996 16.6021 3.09418 16.6929 2.94616L17.5832 1.50401L18.4736 2.94616C18.5651 3.09418 18.7091 3.20034 18.8759 3.24221L20.5059 3.65415L19.4244 4.95649Z" fill="var(--fill-0, #F27C57)"/>
</g>
</svg>
