<svg preserveAspectRatio="none" width="100%" height="100%" overflow="visible" style="display: block;" viewBox="0 0 26.0011 21.9998" fill="none" xmlns="http://www.w3.org/2000/svg">
<g id="Icon Graphic">
<path id="Vector" d="M9.6165 20.4608H3.4382C2.40849 20.4608 1.57075 19.645 1.57075 18.6433V7.3544H24.4252V10.3503C24.4252 10.7743 24.7769 11.1182 25.2106 11.1182C25.6443 11.1182 25.996 10.7743 25.996 10.3503V3.35338C25.996 1.50433 24.4575 0 22.5665 0H3.4382C1.54283 0 0 1.50433 0 3.35338V18.6441C0 20.4932 1.54283 21.9975 3.4382 21.9975H9.6165C10.0502 21.9975 10.4019 21.6536 10.4019 21.2296C10.4019 20.8055 10.0502 20.4608 9.6165 20.4608ZM3.4382 1.53505H22.5665C23.5918 1.53505 24.4252 2.35078 24.4252 3.35253V5.81765H1.57075V3.35338C1.57075 2.35078 2.40849 1.53505 3.4382 1.53505Z" fill="var(--fill-0, #FC5A5A)"/>
<path id="Vector_2" d="M4.53325 4.40891C4.9495 4.40891 5.28721 4.07869 5.28721 3.67168C5.28721 3.26467 4.9495 2.93359 4.53325 2.93359C4.117 2.93359 3.77929 3.26381 3.77929 3.67083C3.77929 4.07784 4.11613 4.40891 4.53325 4.40891Z" fill="var(--fill-0, #FC5A5A)"/>
<path id="Vector_3" d="M7.19189 4.40891C7.60814 4.40891 7.94585 4.07869 7.94585 3.67168C7.94585 3.26467 7.60814 2.93359 7.19189 2.93359C6.77564 2.93359 6.43793 3.26381 6.43793 3.67083C6.43793 4.07784 6.77477 4.40891 7.19189 4.40891Z" fill="var(--fill-0, #FC5A5A)"/>
<path id="Vector_4" d="M9.84858 4.40903C10.2648 4.40903 10.6025 4.07882 10.6025 3.6718C10.6025 3.26479 10.2648 2.93457 9.84858 2.93457C9.43233 2.93457 9.09462 3.26479 9.09462 3.6718C9.09462 4.07882 9.43146 4.40903 9.84858 4.40903Z" fill="var(--fill-0, #FC5A5A)"/>
<path id="Vector_5" d="M25.5561 13.6061C24.6974 12.8484 23.4539 12.4141 22.1458 12.4141C21 12.4141 19.9005 12.7511 19.0715 13.3373C18.2425 12.7503 17.143 12.4141 15.9972 12.4141C14.6891 12.4141 13.4456 12.8484 12.5878 13.6052C12.305 13.8535 12.1436 14.2187 12.1436 14.6061V20.0526C12.1436 20.5313 12.3923 20.9631 12.8094 21.2088C13.2379 21.4614 13.7624 21.4742 14.2091 21.2412C14.7301 20.9716 15.3488 20.8291 15.9981 20.8291C17.0068 20.8291 17.9414 21.1764 18.4999 21.7575C18.6483 21.9119 18.856 21.9998 19.0724 21.9998C19.2888 21.9998 19.4965 21.9119 19.6448 21.7575C20.2033 21.1755 21.1379 20.8291 22.1467 20.8291C22.7959 20.8291 23.4146 20.9716 23.9356 21.2412C24.3841 21.4733 24.9068 21.4614 25.3353 21.2088C25.7524 20.9631 26.0011 20.5313 26.0011 20.0526V14.6061C26.0003 14.2187 25.8379 13.8544 25.5561 13.6061ZM13.7135 19.7685V14.6838C14.2859 14.217 15.1115 13.9508 15.9972 13.9508C16.8951 13.9508 17.7189 14.2375 18.2861 14.7085V19.7821C17.5985 19.4724 16.8114 19.2957 15.9972 19.2957C15.1882 19.294 14.4046 19.4579 13.7135 19.7685ZM24.4295 19.7685C23.042 19.1439 21.24 19.1857 19.8569 19.7907V14.7077C20.4241 14.2367 21.2479 13.95 22.1458 13.95C23.0307 13.95 23.8562 14.2162 24.4295 14.6829V19.7685Z" fill="var(--fill-0, #FC5A5A)"/>
</g>
</svg>
