<svg preserveAspectRatio="none" width="100%" height="100%" overflow="visible" style="display: block;" viewBox="0 0 36 36" fill="none" xmlns="http://www.w3.org/2000/svg">
<g id="Icon Graphic">
<rect id="Icon Background" opacity="0.1" width="36" height="36" rx="5" fill="var(--fill-0, #9F7CE8)"/>
<path id="Vector" d="M24.5448 7H11.4539C10.8029 7 10.1786 7.24834 9.71828 7.69039C9.25796 8.13244 8.99936 8.73199 8.99936 9.35714V26.6429C8.99936 27.268 9.25796 27.8676 9.71828 28.3096C10.1786 28.7517 10.8029 29 11.4539 29H24.5448C25.1958 29 25.8201 28.7517 26.2804 28.3096C26.7408 27.8676 26.9994 27.268 26.9994 26.6429V9.35714C26.9994 8.73199 26.7408 8.13244 26.2804 7.69039C25.8201 7.24834 25.1958 7 24.5448 7ZM25.363 26.6429C25.363 26.8512 25.2768 27.0511 25.1234 27.1984C24.9699 27.3458 24.7618 27.4286 24.5448 27.4286H11.4539C11.2369 27.4286 11.0288 27.3458 10.8754 27.1984C10.7219 27.0511 10.6357 26.8512 10.6357 26.6429V9.35714C10.6357 9.14876 10.7219 8.94891 10.8754 8.80156C11.0288 8.65421 11.2369 8.57143 11.4539 8.57143H24.5448C24.7618 8.57143 24.9699 8.65421 25.1234 8.80156C25.2768 8.94891 25.363 9.14876 25.363 9.35714V26.6429ZM17.7621 14.2993C17.8388 14.3723 17.8996 14.4592 17.9412 14.555C17.9827 14.6507 18.0041 14.7534 18.0041 14.8571C18.0041 14.9609 17.9827 15.0636 17.9412 15.1593C17.8996 15.2551 17.8388 15.342 17.7621 15.415L15.3075 17.7721C15.2315 17.8458 15.141 17.9042 15.0413 17.9441C14.9416 17.984 14.8346 18.0046 14.7266 18.0046C14.6186 18.0046 14.5117 17.984 14.412 17.9441C14.3123 17.9042 14.2218 17.8458 14.1457 17.7721L12.5094 16.2007C12.3553 16.0528 12.2687 15.8521 12.2687 15.6429C12.2687 15.4336 12.3553 15.233 12.5094 15.085C12.6634 14.937 12.8724 14.8539 13.0903 14.8539C13.3081 14.8539 13.5171 14.937 13.6712 15.085L14.7266 16.1064L16.6003 14.2993C16.6763 14.2256 16.7668 14.1672 16.8665 14.1273C16.9662 14.0874 17.0732 14.0669 17.1812 14.0669C17.2892 14.0669 17.3961 14.0874 17.4958 14.1273C17.5955 14.1672 17.686 14.2256 17.7621 14.2993ZM16.9439 22.4864L15.8803 23.5L16.9439 24.5136C17.0206 24.5866 17.0815 24.6735 17.123 24.7693C17.1645 24.865 17.1859 24.9677 17.1859 25.0714C17.1859 25.1752 17.1645 25.2778 17.123 25.3736C17.0815 25.4693 17.0206 25.5562 16.9439 25.6293C16.8678 25.7029 16.7773 25.7614 16.6776 25.8013C16.5779 25.8412 16.471 25.8617 16.363 25.8617C16.255 25.8617 16.148 25.8412 16.0483 25.8013C15.9486 25.7614 15.8581 25.7029 15.7821 25.6293L14.7266 24.6079L13.6712 25.6293C13.5951 25.7029 13.5046 25.7614 13.4049 25.8013C13.3052 25.8412 13.1983 25.8617 13.0903 25.8617C12.9823 25.8617 12.8753 25.8412 12.7756 25.8013C12.6759 25.7614 12.5854 25.7029 12.5094 25.6293C12.4327 25.5562 12.3718 25.4693 12.3303 25.3736C12.2887 25.2778 12.2673 25.1752 12.2673 25.0714C12.2673 24.9677 12.2887 24.865 12.3303 24.7693C12.3718 24.6735 12.4327 24.5866 12.5094 24.5136L13.573 23.5L12.5094 22.4864C12.4331 22.4132 12.3726 22.3262 12.3313 22.2305C12.29 22.1348 12.2687 22.0322 12.2687 21.9286C12.2687 21.825 12.29 21.7224 12.3313 21.6267C12.3726 21.5309 12.4331 21.444 12.5094 21.3707C12.6634 21.2228 12.8724 21.1396 13.0903 21.1396C13.1982 21.1396 13.305 21.16 13.4047 21.1997C13.5043 21.2393 13.5949 21.2975 13.6712 21.3707L14.7266 22.3921L15.7821 21.3707C15.8584 21.2975 15.9489 21.2393 16.0486 21.1997C16.1483 21.16 16.2551 21.1396 16.363 21.1396C16.4709 21.1396 16.5777 21.16 16.6774 21.1997C16.7771 21.2393 16.8676 21.2975 16.9439 21.3707C17.0202 21.444 17.0807 21.5309 17.122 21.6267C17.1633 21.7224 17.1845 21.825 17.1845 21.9286C17.1845 22.0322 17.1633 22.1348 17.122 22.2305C17.0807 22.3262 17.0202 22.4132 16.9439 22.4864ZM22.0903 24.2857C22.0903 24.4941 22.0041 24.6939 21.8506 24.8413C21.6972 24.9886 21.4891 25.0714 21.2721 25.0714H19.6357C19.4187 25.0714 19.2106 24.9886 19.0572 24.8413C18.9037 24.6939 18.8175 24.4941 18.8175 24.2857C18.8175 24.0773 18.9037 23.8775 19.0572 23.7301C19.2106 23.5828 19.4187 23.5 19.6357 23.5H21.2721C21.4891 23.5 21.6972 23.5828 21.8506 23.7301C22.0041 23.8775 22.0903 24.0773 22.0903 24.2857ZM23.7266 21.9286C23.7266 22.137 23.6404 22.3368 23.487 22.4842C23.3336 22.6315 23.1254 22.7143 22.9084 22.7143H19.6357C19.4187 22.7143 19.2106 22.6315 19.0572 22.4842C18.9037 22.3368 18.8175 22.137 18.8175 21.9286C18.8175 21.7202 18.9037 21.5203 19.0572 21.373C19.2106 21.2256 19.4187 21.1429 19.6357 21.1429H22.9084C23.1254 21.1429 23.3336 21.2256 23.487 21.373C23.6404 21.5203 23.7266 21.7202 23.7266 21.9286ZM18.8175 17.2143C18.8175 17.0059 18.9037 16.8061 19.0572 16.6587C19.2106 16.5114 19.4187 16.4286 19.6357 16.4286H21.2721C21.4891 16.4286 21.6972 16.5114 21.8506 16.6587C22.0041 16.8061 22.0903 17.0059 22.0903 17.2143C22.0903 17.4227 22.0041 17.6225 21.8506 17.7699C21.6972 17.9172 21.4891 18 21.2721 18H19.6357C19.4187 18 19.2106 17.9172 19.0572 17.7699C18.9037 17.6225 18.8175 17.4227 18.8175 17.2143ZM23.7266 14.8571C23.7266 15.0655 23.6404 15.2654 23.487 15.4127C23.3336 15.5601 23.1254 15.6429 22.9084 15.6429H19.6357C19.4187 15.6429 19.2106 15.5601 19.0572 15.4127C18.9037 15.2654 18.8175 15.0655 18.8175 14.8571C18.8175 14.6488 18.9037 14.4489 19.0572 14.3016C19.2106 14.1542 19.4187 14.0714 19.6357 14.0714H22.9084C23.1254 14.0714 23.3336 14.1542 23.487 14.3016C23.6404 14.4489 23.7266 14.6488 23.7266 14.8571ZM23.7266 10.9286C23.7266 11.137 23.6404 11.3368 23.487 11.4842C23.3336 11.6315 23.1254 11.7143 22.9084 11.7143H13.0903C12.8733 11.7143 12.6652 11.6315 12.5117 11.4842C12.3583 11.3368 12.2721 11.137 12.2721 10.9286C12.2721 10.7202 12.3583 10.5203 12.5117 10.373C12.6652 10.2256 12.8733 10.1429 13.0903 10.1429H22.9084C23.1254 10.1429 23.3336 10.2256 23.487 10.373C23.6404 10.5203 23.7266 10.7202 23.7266 10.9286Z" fill="var(--fill-0, #9F7CE8)"/>
</g>
</svg>
