<svg preserveAspectRatio="none" width="100%" height="100%" overflow="visible" style="display: block;" viewBox="0 0 22 22" fill="none" xmlns="http://www.w3.org/2000/svg">
<g id="g24043">
<path id="ellipse22466" d="M2 0C0.900652 0 0 0.900652 0 2V5H1H21V15C21 15.5626 20.5626 16 20 16H12.4922C12.4968 15.9145 12.5 15.8288 12.5 15.7432C12.5 13.9204 11.4554 12.2857 9.86523 11.4961C10.2613 11.0201 10.5 10.4091 10.5 9.74512C10.5 8.23469 9.26405 7 7.75293 7C6.24181 7 5.00488 8.23469 5.00488 9.74512C5.00488 10.4092 5.24428 11.0201 5.64062 11.4961C4.05053 12.2859 3.00488 13.9204 3.00488 15.7432C3.00488 15.8289 3.00794 15.9145 3.0127 16H2C1.43735 16 1 15.5626 1 15V6H0V15C0 16.0993 0.900652 17 2 17H20C21.0993 17 22 16.0993 22 15V2C22 0.900652 21.0993 0 20 0H2ZM2 1H20C20.5626 1 21 1.43735 21 2V4H1V2C1 1.43735 1.43735 1 2 1ZM7.75293 8C8.72415 8 9.5 8.77567 9.5 9.74512C9.5 10.7146 8.72415 11.4902 7.75293 11.4902C6.78171 11.4902 6.00488 10.7146 6.00488 9.74512C6.00488 8.77567 6.78171 8 7.75293 8ZM6.53516 12.2041C6.90279 12.3872 7.31628 12.4902 7.75293 12.4902C8.18958 12.4902 8.60319 12.3872 8.9707 12.2041C10.4787 12.7208 11.5 14.1355 11.5 15.7432C11.5 15.8289 11.4962 15.9145 11.4902 16H4.01465C4.00868 15.9145 4.00488 15.829 4.00488 15.7432C4.00488 14.1352 5.02707 12.7206 6.53516 12.2041Z" fill="var(--fill-0, #FC5A5A)"/>
<path id="path20772" d="M5 18C4.07405 18 3.29056 18.641 3.06641 19.5H0V20.5H3.06641C3.29056 21.359 4.07405 22 5 22C5.92623 22 6.71166 21.3594 6.93555 20.5H22V19.5H6.93555C6.71166 18.6406 5.92623 18 5 18ZM5 19C5.55821 19 6 19.4418 6 20C6 20.5582 5.55821 21 5 21C4.44179 21 4 20.5582 4 20C4 19.4418 4.44179 19 5 19Z" fill="var(--fill-0, #FC5A5A)"/>
<path id="path22033" d="M14.7432 7.06308C14.667 7.02071 14.5811 6.99898 14.494 7.00004C14.4068 7.0011 14.3215 7.02491 14.2464 7.06913C14.1713 7.11334 14.109 7.17641 14.0658 7.25209C14.0226 7.32777 13.9999 7.41343 14 7.50058V12.5006C13.9999 12.5877 14.0226 12.6734 14.0658 12.7491C14.109 12.8247 14.1713 12.8878 14.2464 12.932C14.3215 12.9762 14.4068 13.0001 14.494 13.0011C14.5811 13.0022 14.667 12.9804 14.7432 12.9381L19.2432 10.4381C19.3213 10.3948 19.3864 10.3314 19.4318 10.2545C19.4771 10.1776 19.5011 10.0899 19.5011 10.0006C19.5011 9.91127 19.4771 9.82359 19.4318 9.74665C19.3864 9.66972 19.3213 9.60633 19.2432 9.56308L14.7432 7.06308ZM15 8.35116L17.9697 10.0006L15 11.651V8.35116Z" fill="var(--fill-0, #FC5A5A)"/>
<path id="path22037" d="M19 2V3H20V2H19Z" fill="var(--fill-0, #FC5A5A)"/>
<path id="path22039" d="M17 2V3H18V2H17Z" fill="var(--fill-0, #FC5A5A)"/>
<path id="path22041" d="M15 2V3H16V2H15Z" fill="var(--fill-0, #FC5A5A)"/>
<path id="path22463" d="M13 2V3H14V2H13Z" fill="var(--fill-0, #FC5A5A)"/>
</g>
</svg>
