<svg preserveAspectRatio="none" width="100%" height="100%" overflow="visible" style="display: block;" viewBox="0 0 36 36" fill="none" xmlns="http://www.w3.org/2000/svg">
<g id="Icon Graphic">
<rect id="Icon Background" opacity="0.1" width="36" height="36" rx="5" fill="var(--fill-0, #00BA00)"/>
<path id="Vector" d="M30.2371 22.8684H29.367V10.5658C29.367 9.16353 28.3102 8 26.9735 8H9.02406C7.71085 8 6.63058 9.13811 6.63058 10.5658V22.8684H5.7605C5.33983 22.8684 4.99878 23.234 4.99878 23.685V25.4342C4.99878 26.8362 6.05523 28 7.39225 28H28.6053C29.9183 28 30.9988 26.8623 30.9988 25.4342V23.685C30.9988 23.234 30.6577 22.8684 30.2371 22.8684ZM8.15397 10.5658C8.15397 10.0519 8.54184 9.6331 9.02401 9.6331H26.9735C27.4539 9.6331 27.8435 10.0499 27.8435 10.5658V22.8684H24.0161C23.7452 20.5621 22.3429 18.6283 20.4257 17.7273C22.5407 15.4636 21.02 11.4907 17.9987 11.4985C14.9775 11.4907 13.4568 15.4642 15.5718 17.7273C13.6547 18.6283 12.2523 20.5621 11.9816 22.8684H8.15397V10.5658ZM17.9988 18.8165C20.2435 18.8165 22.1127 20.5714 22.4761 22.8684H20.4464C20.2444 22.8684 20.0506 22.9544 19.9078 23.1076C19.7903 23.2335 19.6276 23.3058 19.4616 23.3058H16.536C16.3699 23.3058 16.2073 23.2335 16.0896 23.1075C15.9468 22.9544 15.7531 22.8684 15.5511 22.8684H13.5215C13.8849 20.5714 15.7541 18.8165 17.9988 18.8165ZM16.1089 15.1575C16.1089 14.0404 16.9566 13.1316 17.9988 13.1316C20.5026 13.2334 20.5019 17.082 17.9988 17.1835C16.9567 17.1835 16.1089 16.2746 16.1089 15.1575ZM29.4753 25.4342C29.4753 25.9481 29.0875 26.3669 28.6053 26.3669H7.39225C6.91186 26.3669 6.52222 25.95 6.52222 25.4342V24.5015H15.2737C15.6387 24.7855 16.0764 24.9389 16.5359 24.9389H19.4616C19.9212 24.9389 20.3589 24.7856 20.7239 24.5015H29.4753V25.4342Z" fill="var(--fill-0, #00BA00)"/>
</g>
</svg>
