<svg preserveAspectRatio="none" width="100%" height="100%" overflow="visible" style="display: block;" viewBox="0 0 36 36" fill="none" xmlns="http://www.w3.org/2000/svg">
<g id="Scan OMR">
<path id="Rectangle 21061" opacity="0.1" d="M28.8 0H7.2C3.22355 0 0 3.22355 0 7.2V28.8C0 32.7765 3.22355 36 7.2 36H28.8C32.7765 36 36 32.7765 36 28.8V7.2C36 3.22355 32.7765 0 28.8 0Z" fill="var(--fill-0, #E06DB1)"/>
<g id="Icon Graphic">
<path id="Ellipse 12033" d="M12.1148 17.2334C14.9407 17.2334 17.2315 14.9425 17.2315 12.1167C17.2315 9.29082 14.9407 7 12.1148 7C9.28895 7 6.99814 9.29082 6.99814 12.1167C6.99814 14.9425 9.28895 17.2334 12.1148 17.2334Z" fill="var(--fill-0, #616161)"/>
<g id="Ellipse 12034">
<g id="Vector">
</g>
<path id="Vector_2" d="M23.8808 16.7217C26.4241 16.7217 28.4858 14.66 28.4858 12.1167C28.4858 9.57345 26.4241 7.51172 23.8808 7.51172C21.3376 7.51172 19.2758 9.57345 19.2758 12.1167C19.2758 14.66 21.3376 16.7217 23.8808 16.7217Z" stroke="var(--stroke-0, #EC008D)"/>
</g>
<g id="Ellipse 12035">
<g id="Vector_3">
</g>
<path id="Vector_4" d="M23.8808 28.4893C26.4241 28.4893 28.4858 26.4276 28.4858 23.8843C28.4858 21.341 26.4241 19.2793 23.8808 19.2793C21.3376 19.2793 19.2758 21.341 19.2758 23.8843C19.2758 26.4276 21.3376 28.4893 23.8808 28.4893Z" stroke="var(--stroke-0, #EC008D)"/>
</g>
<g id="Ellipse 12036">
<g id="Vector_5">
</g>
<path id="Vector_6" d="M12.113 28.4893C14.6562 28.4893 16.718 26.4276 16.718 23.8843C16.718 21.341 14.6562 19.2793 12.113 19.2793C9.56969 19.2793 7.50796 21.341 7.50796 23.8843C7.50796 26.4276 9.56969 28.4893 12.113 28.4893Z" stroke="var(--stroke-0, #EC008D)"/>
</g>
</g>
</g>
</svg>
