<svg preserveAspectRatio="none" width="100%" height="100%" overflow="visible" style="display: block;" viewBox="0 0 36 36" fill="none" xmlns="http://www.w3.org/2000/svg">
<g id="Icon">
<rect id="Icon Background" opacity="0.1" width="36" height="36" rx="5" fill="var(--fill-0, #0064BB)"/>
<path id="Exclusion 1" d="M16.2661 28.9902C14.4634 28.9902 14.4284 28.9748 14.3128 28.9233L14.2724 28.9057C14.0033 28.9915 13.7192 29.0192 13.4387 28.9869H12.8188H12.4849C12.0538 28.9869 11.518 28.9869 10.812 28.9869C10.1572 28.9869 9.46098 28.9869 8.72983 28.9924C8.45739 28.9933 8.19109 28.9111 7.96609 28.7566C7.7411 28.6021 7.56799 28.3826 7.46962 28.1271C7.37126 27.8716 7.35227 27.5921 7.41517 27.3255C7.47806 27.0589 7.61988 26.8178 7.82189 26.6339C7.6842 26.5072 7.57424 26.3531 7.49902 26.1814C7.42379 26.0096 7.38494 25.824 7.38494 25.6363C7.38494 25.4486 7.42379 25.263 7.49902 25.0913C7.57424 24.9195 7.6842 24.7654 7.82189 24.6387C7.62202 24.4545 7.48215 24.2138 7.4206 23.9483C7.35905 23.6828 7.37869 23.4047 7.47695 23.1506C7.57521 22.8965 7.74751 22.6782 7.97127 22.5242C8.19503 22.3703 8.45981 22.2879 8.73092 22.2879H9.74143C8.78725 21.8827 8.00178 21.158 7.51823 20.2369C7.03467 19.3157 6.8828 18.2547 7.08835 17.2337C7.2939 16.2128 7.84423 15.2947 8.64601 14.6353C9.4478 13.9758 10.4517 13.6156 11.4875 13.6156C12.5232 13.6156 13.5271 13.9758 14.3289 14.6353C15.1307 15.2947 15.681 16.2128 15.8866 17.2337C16.0921 18.2547 15.9403 19.3157 15.4567 20.2369C14.9732 21.158 14.1877 21.8827 13.2335 22.2879H13.8228C14.18 22.2885 14.5225 22.4315 14.7751 22.6855C15.0277 22.9396 15.1699 23.284 15.1705 23.6433C15.1709 23.8663 15.1157 24.0859 15.0101 24.282H15.5819V23.7585C15.5825 22.5408 15.9314 21.349 16.5869 20.3252C17.2425 19.3015 18.177 18.489 19.2791 17.9847C18.1752 17.4837 17.2389 16.6725 16.5829 15.6487C15.927 14.6248 15.5793 13.4321 15.5819 12.2141V10.5119C15.3605 10.4991 15.1522 10.402 14.9994 10.2404C14.8466 10.0787 14.7607 9.86467 14.7591 9.64163V7.87798C14.7591 7.64513 14.8511 7.42181 15.0148 7.25716C15.1785 7.0925 15.4006 7 15.6321 7H28.1261C28.3576 7 28.5796 7.0925 28.7434 7.25716C28.9071 7.42181 28.9991 7.64513 28.9991 7.87798V9.64493C28.9966 9.86847 28.9094 10.0826 28.7553 10.2437C28.6011 10.4049 28.3917 10.5008 28.1697 10.5119V12.2141C28.1694 13.4319 27.8203 14.6238 27.164 15.6472C26.5077 16.6706 25.5721 17.4821 24.4692 17.9847C25.5725 18.4877 26.5083 19.2998 27.1645 20.3238C27.8208 21.3478 28.1698 22.5403 28.1697 23.7585V25.4563C28.392 25.4671 28.6017 25.5637 28.755 25.726C28.9082 25.8883 28.9933 26.1039 28.9925 26.3277V28.0936C28.9925 28.3264 28.9005 28.5497 28.7368 28.7144C28.5731 28.879 28.351 28.9716 28.1195 28.9716C24.2204 28.9716 21.4071 28.9836 19.5454 28.988C18.0798 28.988 17.0158 28.9902 16.2661 28.9902ZM15.0068 26.9906C15.114 27.1868 15.1702 27.4071 15.1702 27.631C15.1702 27.8549 15.114 28.0751 15.0068 28.2714H19.8084C19.9727 28.2645 20.128 28.1941 20.2419 28.0747C20.3558 27.9554 20.4193 27.7964 20.4193 27.631C20.4193 27.4656 20.3558 27.3066 20.2419 27.1872C20.128 27.0679 19.9727 26.9974 19.8084 26.9906H15.0068ZM8.72983 26.9906C8.56551 26.9974 8.41018 27.0679 8.29633 27.1872C8.18247 27.3066 8.11889 27.4656 8.11889 27.631C8.11889 27.7964 8.18247 27.9554 8.29633 28.0747C8.41018 28.1941 8.56551 28.2645 8.72983 28.2714H13.8217C13.9075 28.2749 13.9932 28.261 14.0736 28.2304C14.1539 28.1999 14.2273 28.1533 14.2893 28.0935C14.3513 28.0336 14.4006 27.9618 14.4343 27.8824C14.468 27.8029 14.4854 27.7174 14.4854 27.631C14.4854 27.5446 14.468 27.4591 14.4343 27.3796C14.4006 27.3001 14.3513 27.2283 14.2893 27.1685C14.2273 27.1087 14.1539 27.0621 14.0736 27.0315C13.9932 27.0009 13.9075 26.987 13.8217 26.9906H8.72983ZM15.0101 24.9987C15.1089 25.1795 15.1625 25.3817 15.1661 25.588C15.168 25.6044 15.168 25.621 15.1661 25.6374C15.1658 25.8618 15.1096 26.0826 15.0024 26.2794H19.804C19.9683 26.2726 20.1237 26.2021 20.2375 26.0828C20.3514 25.9634 20.415 25.8044 20.415 25.6391C20.415 25.4737 20.3514 25.3147 20.2375 25.1953C20.1237 25.076 19.9683 25.0055 19.804 24.9987H15.0101ZM8.72983 24.9987C8.56551 25.0055 8.41018 25.076 8.29633 25.1953C8.18247 25.3147 8.11889 25.4737 8.11889 25.6391C8.11889 25.8044 8.18247 25.9634 8.29633 26.0828C8.41018 26.2021 8.56551 26.2726 8.72983 26.2794H13.8217C13.9075 26.283 13.9932 26.2691 14.0736 26.2385C14.1539 26.2079 14.2273 26.1614 14.2893 26.1015C14.3513 26.0417 14.4006 25.9699 14.4343 25.8904C14.468 25.811 14.4854 25.7255 14.4854 25.6391C14.4854 25.5527 14.468 25.4671 14.4343 25.3877C14.4006 25.3082 14.3513 25.2364 14.2893 25.1766C14.2273 25.1168 14.1539 25.0702 14.0736 25.0396C13.9932 25.009 13.9075 24.9951 13.8217 24.9987H8.72983ZM20.2864 24.3742C20.5081 24.4576 20.7038 24.5986 20.8535 24.7829C21.0033 24.9673 21.1017 25.1883 21.1387 25.4234H27.468V23.7574C27.4658 22.5222 27.06 21.322 26.3131 20.3414C25.5662 19.3608 24.5196 18.6542 23.3343 18.3304C23.2578 18.3107 23.1903 18.2654 23.1429 18.202C23.0955 18.1385 23.071 18.0607 23.0735 17.9814C23.0726 17.903 23.0983 17.8266 23.1462 17.7647C23.1942 17.7029 23.2617 17.6593 23.3376 17.6412C24.523 17.318 25.5697 16.6113 26.3161 15.6302C27.0624 14.6491 27.4668 13.4483 27.4669 12.213V10.5514H16.2912V12.2141C16.2911 13.45 16.6955 14.6515 17.442 15.6332C18.1885 16.6149 19.2357 17.3221 20.4217 17.6456C20.4971 17.6635 20.5641 17.7068 20.6117 17.7683C20.6593 17.8297 20.6847 17.9057 20.6836 17.9836C20.6861 18.0632 20.6614 18.1413 20.6138 18.2049C20.5662 18.2686 20.4984 18.314 20.4217 18.3337C19.2363 18.6567 18.1896 19.3632 17.4433 20.344C16.697 21.3249 16.2925 22.5256 16.2923 23.7607V24.2853H17.5364C17.4638 24.2303 17.4069 24.1569 17.3715 24.0727C17.336 23.9886 17.3233 23.8964 17.3345 23.8057C17.3357 23.7926 17.3357 23.7793 17.3345 23.7662C17.3223 23.0178 17.4935 22.2779 17.8332 21.6118C18.1116 21.0889 18.4956 20.6303 18.9605 20.2652C19.5304 19.8199 20.1819 19.4917 20.8778 19.2995L20.9171 19.2885C21.0657 19.2483 21.1987 19.1639 21.2988 19.0464C21.3989 18.9289 21.4613 18.7838 21.478 18.63C21.5151 18.2863 21.5341 17.9408 21.5348 17.5951C21.5341 17.3859 21.4649 17.1827 21.3379 17.0171C21.2108 16.8514 21.033 16.7325 20.832 16.6787C20.7371 16.6403 20.6432 16.603 20.5374 16.5623C19.4561 16.2415 18.5368 15.5187 17.9663 14.5408C17.9238 14.4668 17.9014 14.3828 17.9014 14.2973C17.9014 14.2118 17.9237 14.1278 17.9662 14.0537C18.0087 13.9797 18.0697 13.9182 18.1433 13.8754C18.2169 13.8326 18.3004 13.81 18.3854 13.8099H25.3695C25.4551 13.8093 25.5393 13.8319 25.6134 13.8751C25.6875 13.9183 25.7487 13.9807 25.7907 14.0557C25.8333 14.1282 25.8557 14.2108 25.8557 14.2949C25.8557 14.3791 25.8333 14.4617 25.7907 14.5342C25.1916 15.567 24.211 16.32 23.0626 16.6293C22.86 16.6835 22.681 16.8035 22.5533 16.9706C22.4256 17.1377 22.3564 17.3426 22.3565 17.5534C22.358 17.9201 22.3791 18.2864 22.4198 18.6508C22.4362 18.8041 22.498 18.9488 22.5973 19.0663C22.6965 19.1837 22.8286 19.2684 22.9764 19.3093C23.7112 19.4959 24.3905 19.8577 24.957 20.364C25.3977 20.7701 25.7486 21.2648 25.9872 21.816C26.2682 22.4617 26.4167 23.1579 26.4237 23.8628C26.4237 23.8792 26.4237 23.888 26.4237 23.8902C26.4234 24.019 26.3723 24.1424 26.2817 24.2333C26.1911 24.3242 26.0683 24.3753 25.9402 24.3753L20.2864 24.3742ZM8.73092 23.0013C8.5619 23.0013 8.3998 23.0688 8.28028 23.189C8.16076 23.3092 8.09362 23.4722 8.09362 23.6422C8.09362 23.8122 8.16076 23.9752 8.28028 24.0954C8.3998 24.2156 8.5619 24.2831 8.73092 24.2831H13.8217C13.9054 24.2831 13.9883 24.2665 14.0656 24.2343C14.1429 24.2021 14.2132 24.1549 14.2723 24.0954C14.3315 24.0359 14.3785 23.9652 14.4105 23.8875C14.4425 23.8097 14.459 23.7264 14.459 23.6422C14.459 23.558 14.4425 23.4747 14.4105 23.3969C14.3785 23.3192 14.3315 23.2485 14.2723 23.189C14.2132 23.1295 14.1429 23.0823 14.0656 23.05C13.9883 23.0178 13.9054 23.0013 13.8217 23.0013H8.73092ZM10.5053 18H10.5883C10.5883 18.1559 10.5883 18.315 10.5883 18.4785C10.5769 18.8368 10.5893 19.1953 10.6254 19.5519C10.6909 19.9021 10.8744 20.2189 11.1448 20.4491C11.4153 20.6794 11.7563 20.809 12.1106 20.8162H12.1193C12.3371 20.8181 12.5528 20.7732 12.752 20.6844C12.9511 20.5956 13.129 20.4651 13.2739 20.3015C13.4279 20.1259 13.5434 19.9196 13.6128 19.696C13.6822 19.4725 13.7039 19.2368 13.6766 19.0042C13.6802 18.9102 13.6649 18.8164 13.6315 18.7285C13.5982 18.6406 13.5474 18.5604 13.4823 18.4928C13.4121 18.4227 13.3289 18.3672 13.2373 18.3295C13.1457 18.2918 13.0476 18.2727 12.9487 18.2733C12.7976 18.2708 12.6499 18.3179 12.5278 18.4074C12.4057 18.4969 12.3159 18.624 12.2721 18.7694C12.2439 18.8554 12.233 18.9462 12.2401 19.0364C12.2472 19.1267 12.2722 19.2146 12.3136 19.2951C12.3967 19.4609 12.5419 19.5869 12.7173 19.6452C12.6588 19.7419 12.5764 19.8218 12.4781 19.8772C12.3798 19.9326 12.269 19.9615 12.1564 19.9612C12.0602 19.9608 11.9651 19.9412 11.8764 19.9035C11.7878 19.8659 11.7076 19.8109 11.6402 19.7417C11.573 19.6723 11.5204 19.59 11.4855 19.4997C11.4507 19.4094 11.4342 19.3129 11.4373 19.2161V18.0022H12.128H12.2699C12.5285 18.0022 12.7752 17.9583 12.8352 17.6368C12.8523 17.5343 12.8313 17.4291 12.7761 17.3412C12.721 17.2533 12.6355 17.189 12.5362 17.1605C12.4579 17.1447 12.3781 17.1374 12.2983 17.1385H11.4384C11.4384 17.0112 11.4384 16.8795 11.4384 16.7566C11.4384 16.5239 11.4384 16.2836 11.4264 16.0443C11.3996 15.8039 11.2861 15.5817 11.1073 15.4198C10.9284 15.258 10.6968 15.1678 10.4562 15.1663H10.3907C10.1406 15.1815 9.90568 15.2922 9.73405 15.4758C9.56242 15.6594 9.46707 15.9021 9.46753 16.1541C9.46709 16.2101 9.47766 16.2656 9.4986 16.3175C9.51955 16.3694 9.55048 16.4167 9.58961 16.4565C9.62874 16.4964 9.6753 16.5281 9.72663 16.5498C9.77797 16.5716 9.83306 16.5829 9.88876 16.5832C9.99747 16.5842 10.1024 16.543 10.1817 16.4682C10.2609 16.3934 10.3085 16.2907 10.3144 16.1815C10.3198 16.0806 10.37 16.0224 10.4508 16.0224H10.4802C10.5099 16.0267 10.537 16.0414 10.557 16.0639C10.5769 16.0864 10.5884 16.1152 10.5894 16.1453C10.5894 16.3725 10.5894 16.604 10.5894 16.8279V16.8806C10.5894 16.9655 10.5894 17.05 10.5894 17.1341H10.4802H10.4682H10.3405C10.0677 17.1341 9.77417 17.1682 9.74907 17.5731C9.75104 17.6848 9.79609 17.7912 9.87469 17.8701C9.9533 17.9489 10.0593 17.994 10.1703 17.9957H10.5042L10.5053 18Z" fill="var(--fill-0, #0064BB)"/>
</g>
</svg>
