<svg preserveAspectRatio="none" width="100%" height="100%" overflow="visible" style="display: block;" viewBox="0 0 24.3999 22.4" fill="none" xmlns="http://www.w3.org/2000/svg">
<g id="Group">
<path id="Vector" d="M2.54739 1.85332C2.83422 1.7344 3.17119 1.87396 3.29055 2.15898V2.15996C3.40849 2.44656 3.27051 2.78106 2.98294 2.9002C2.69711 3.01842 2.35875 2.88044 2.23977 2.59453C2.12056 2.30765 2.26103 1.97212 2.54739 1.85332Z" fill="var(--fill-0, #C1B124)" stroke="var(--stroke-0, #C1B124)" stroke-width="0.2"/>
<path id="Vector_2" d="M4.1515 1.85332C4.43711 1.73536 4.77647 1.87273 4.89467 2.15996L4.9269 2.26934C4.97608 2.52719 4.83659 2.79657 4.58705 2.9002C4.30032 3.01913 3.96255 2.87965 3.84389 2.59355C3.72512 2.30701 3.86474 1.97188 4.1515 1.85332Z" fill="var(--fill-0, #C1B124)" stroke="var(--stroke-0, #C1B124)" stroke-width="0.2"/>
<path id="Vector_3" d="M5.84884 1.85332C6.13423 1.73588 6.47374 1.87241 6.592 2.15996L6.62423 2.26934C6.67333 2.52714 6.53391 2.79664 6.28438 2.9002C5.9977 3.01906 5.65998 2.87956 5.54122 2.59355C5.42262 2.30744 5.56172 1.97169 5.84884 1.85332Z" fill="var(--fill-0, #C1B124)" stroke="var(--stroke-0, #C1B124)" stroke-width="0.2"/>
<path id="Vector_4" d="M19.1697 0.100391C20.4611 0.100638 21.5123 1.1469 21.5125 2.43438L21.5115 8.03691C21.5115 8.35041 21.2568 8.60423 20.9432 8.6043C20.6294 8.6043 20.3738 8.35045 20.3738 8.03691V4.6541H1.23711V17.3875C1.23711 18.0492 1.77808 18.5887 2.44316 18.5887H17.1316L15.866 14.6268C15.7281 14.1953 16.148 13.7768 16.5809 13.9139L20.3738 15.117V12.1502C20.3738 11.8367 20.6294 11.5828 20.9432 11.5828C21.2568 11.5829 21.5115 11.8367 21.5115 12.1502V15.4773L23.8855 16.2313C24.1199 16.3056 24.2828 16.5278 24.282 16.7732C24.2811 17.0189 24.1166 17.2408 23.8816 17.3133L22.1775 17.8387L24.1326 19.7869C24.3547 19.9997 24.3545 20.3761 24.1336 20.5896L24.1346 20.5906L22.5945 22.1248C22.3724 22.3461 22.013 22.346 21.7908 22.1248L19.8279 20.1688L19.2762 21.9041C19.202 22.1375 18.9793 22.2994 18.7342 22.2996C18.4891 22.2997 18.2668 22.1383 18.1922 21.9051L17.4949 19.7225H2.44316C1.1514 19.7224 0.100391 18.6754 0.100391 17.3875V2.43438C0.100596 1.14676 1.15162 0.100411 2.44316 0.100391H19.1697ZM18.7322 19.8611L19.0262 18.9383C19.1531 18.5396 19.6733 18.4126 19.9705 18.7088L22.1922 20.9217L22.9275 20.1893L20.7059 17.9764C20.4073 17.6784 20.5382 17.1581 20.9402 17.034L21.8123 16.7635L17.284 15.3279L18.7322 19.8611ZM2.44316 1.23418C1.77835 1.2342 1.23829 1.77297 1.23809 2.43438V3.51934H20.3748V2.43438C20.3746 1.7731 19.8343 1.2344 19.1697 1.23418H2.44316Z" fill="var(--fill-0, #C1B124)" stroke="var(--stroke-0, #C1B124)" stroke-width="0.2"/>
<path id="Vector_5" d="M5.31392 5.39922C5.44148 5.39922 5.57344 5.40797 5.70553 5.42559C6.01654 5.46702 6.23533 5.75167 6.19381 6.0623C6.15211 6.37305 5.86587 6.59117 5.55514 6.54961C5.47215 6.53857 5.39077 6.53301 5.31392 6.53301C4.32302 6.53316 3.51705 7.33668 3.51705 8.32305C3.51723 9.30927 4.32313 10.112 5.31392 10.1121C6.1651 10.1121 6.90566 9.5101 7.07467 8.68145C7.13727 8.37418 7.43815 8.176 7.74557 8.23809C8.05299 8.30053 8.2525 8.5999 8.1899 8.90703C7.91362 10.2633 6.70359 11.2469 5.31392 11.2469C3.69648 11.2467 2.38051 9.93542 2.38033 8.32305C2.38033 6.71052 3.69637 5.3994 5.31392 5.39922Z" fill="var(--fill-0, #C1B124)" stroke="var(--stroke-0, #C1B124)" stroke-width="0.2"/>
<path id="Vector_6" d="M5.31392 11.9432C6.93164 11.9432 8.2485 13.2543 8.2485 14.867C8.24834 16.4795 6.93155 17.7908 5.31392 17.7908C3.69646 17.7906 2.38048 16.4794 2.38033 14.867C2.38033 13.2544 3.69637 11.9433 5.31392 11.9432ZM5.31392 13.077C4.32304 13.0771 3.51705 13.8806 3.51705 14.867C3.51723 15.8532 4.32315 16.6559 5.31392 16.6561C6.30481 16.6561 7.11062 15.8533 7.1108 14.867C7.1108 13.8805 6.30491 13.077 5.31392 13.077Z" fill="var(--fill-0, #C1B124)" stroke="var(--stroke-0, #C1B124)" stroke-width="0.2"/>
<path id="Vector_7" d="M17.3874 6.57305C17.7011 6.57305 17.9556 6.82604 17.9558 7.13945C17.9558 7.45299 17.7012 7.70684 17.3874 7.70684H9.73996C9.42624 7.70683 9.1716 7.45298 9.1716 7.13945C9.17174 6.82604 9.42632 6.57306 9.73996 6.57305H17.3874Z" fill="var(--fill-0, #C1B124)" stroke="var(--stroke-0, #C1B124)" stroke-width="0.2"/>
<path id="Vector_8" d="M17.3874 8.81719C17.7011 8.81719 17.9556 9.07018 17.9558 9.38359C17.9558 9.69713 17.7012 9.95098 17.3874 9.95098H9.73996C9.42624 9.95097 9.1716 9.69712 9.1716 9.38359C9.17174 9.07018 9.42632 8.8172 9.73996 8.81719H17.3874Z" fill="var(--fill-0, #C1B124)" stroke="var(--stroke-0, #C1B124)" stroke-width="0.2"/>
<path id="Vector_9" d="M14.0564 13.2078C14.37 13.2078 14.6246 13.4608 14.6247 13.7742C14.6247 14.0877 14.3701 14.3416 14.0564 14.3416H9.73996C9.42624 14.3416 9.1716 14.0877 9.1716 13.7742C9.17174 13.4608 9.42632 13.2078 9.73996 13.2078H14.0564Z" fill="var(--fill-0, #C1B124)" stroke="var(--stroke-0, #C1B124)" stroke-width="0.2"/>
<path id="Vector_10" d="M14.5251 15.452C14.8388 15.452 15.0943 15.7049 15.0945 16.0184C15.0945 16.3319 14.8388 16.5857 14.5251 16.5857H9.73996C9.42624 16.5857 9.1716 16.3319 9.1716 16.0184C9.17174 15.705 9.42632 15.452 9.73996 15.452H14.5251Z" fill="var(--fill-0, #C1B124)" stroke="var(--stroke-0, #C1B124)" stroke-width="0.2"/>
<path id="Vector_11" d="M7.22229 6.09355C7.44454 5.8725 7.80497 5.87328 8.02698 6.09453C8.24878 6.31597 8.24894 6.67495 8.02698 6.89629L5.74964 9.16582C5.52754 9.38699 5.16709 9.38689 4.94495 9.16582L4.2262 8.44902C4.00435 8.22755 4.00421 7.86863 4.2262 7.64727C4.44836 7.42603 4.80876 7.42601 5.03089 7.64727L5.34729 7.9627L7.22229 6.09453V6.09355Z" fill="var(--fill-0, #C1B124)" stroke="var(--stroke-0, #C1B124)" stroke-width="0.2"/>
<path id="Vector_12" d="M20.7941 9.54375C21.0253 9.47971 21.2834 9.57243 21.4171 9.7752H21.4181C21.5618 9.98998 21.5402 10.2827 21.3644 10.4734C21.0091 10.8585 20.3368 10.5784 20.3781 10.0477C20.3966 9.81061 20.5645 9.6075 20.7941 9.54375Z" fill="var(--fill-0, #C1B124)" stroke="var(--stroke-0, #C1B124)" stroke-width="0.2"/>
</g>
</svg>
