<svg preserveAspectRatio="none" width="100%" height="100%" overflow="visible" style="display: block;" viewBox="0 0 21.9954 22" fill="none" xmlns="http://www.w3.org/2000/svg">
<g id="Icon Graphic">
<path id="Vector" d="M8.78534 19.7539V21.9875L8.24666 21.5513C8.16343 21.4838 6.18309 19.8717 4.17489 17.56C1.40467 14.371 8.85847e-05 11.5085 8.85847e-05 9.05208V8.80861C8.85847e-05 3.95153 3.94113 0 8.78534 0C13.6295 0 17.5706 3.95153 17.5706 8.80861V9.05208C17.5706 9.25837 17.5597 9.46785 17.5399 9.67985L15.8218 8.10833C15.4699 4.52646 12.4487 1.71875 8.78534 1.71875C4.88641 1.71875 1.71428 4.89932 1.71428 8.80861V9.05208C1.71428 13.203 7.04833 18.228 8.78534 19.7539ZM14.0565 18.5194H16.6277V15.9414H14.0565V18.5194ZM8.78534 5.15625C10.7939 5.15625 12.428 6.79474 12.428 8.80861C12.428 10.8225 10.7939 12.461 8.78534 12.461C6.77681 12.461 5.14266 10.8225 5.14266 8.80861C5.14266 6.79474 6.77681 5.15625 8.78534 5.15625ZM8.78534 6.875C7.72192 6.875 6.85685 7.74237 6.85685 8.80861C6.85685 9.87469 7.72192 10.7422 8.78534 10.7422C9.84859 10.7422 10.7138 9.87469 10.7138 8.80861C10.7138 7.74237 9.84859 6.875 8.78534 6.875ZM20.8402 17.3516L20.3583 16.9107V19.67C20.3583 20.9548 19.3157 22 18.0343 22H12.6071C11.3257 22 10.2831 20.9548 10.2831 19.67V16.9107L9.8011 17.3516L8.64589 16.0819L15.3206 9.97632L21.9954 16.0819L20.8402 17.3516ZM18.6441 15.3427L15.3206 12.3028L11.9972 15.3427V19.6698C11.9972 20.007 12.2708 20.2813 12.6071 20.2813H18.0343C18.3705 20.2813 18.6441 20.007 18.6441 19.6698V15.3427Z" fill="var(--fill-0, #D9000D)"/>
</g>
</svg>
