<svg preserveAspectRatio="none" width="100%" height="100%" overflow="visible" style="display: block;" viewBox="0 0 22.0001 22.0007" fill="none" xmlns="http://www.w3.org/2000/svg">
<g id="Group">
<path id="Vector" d="M18.7381 12.9345C19.806 12.9345 20.6717 12.0689 20.6717 11.001C20.6717 9.93308 19.806 9.06738 18.7381 9.06738C17.6702 9.06738 16.8044 9.93308 16.8044 11.001C16.8044 12.0689 17.6702 12.9345 18.7381 12.9345Z" fill="var(--fill-0, #2496C1)"/>
<path id="Vector_2" d="M3.26569 12.9345C4.33362 12.9345 5.19934 12.0689 5.19934 11.001C5.19934 9.93308 4.33362 9.06738 3.26569 9.06738C2.19776 9.06738 1.33204 9.93308 1.33204 11.001C1.33204 12.0689 2.19776 12.9345 3.26569 12.9345Z" fill="var(--fill-0, #2496C1)"/>
<path id="Vector_3" d="M11.0019 20.6689C12.0698 20.6689 12.9355 19.8032 12.9355 18.7353C12.9355 17.6675 12.0698 16.8018 11.0019 16.8018C9.93396 16.8018 9.06823 17.6675 9.06823 18.7353C9.06823 19.8032 9.93396 20.6689 11.0019 20.6689Z" fill="var(--fill-0, #2496C1)"/>
<path id="Vector_4" d="M11.0019 5.20017C12.0698 5.20017 12.9355 4.33448 12.9355 3.26659C12.9355 2.1987 12.0698 1.33301 11.0019 1.33301C9.93396 1.33301 9.06823 2.1987 9.06823 3.26659C9.06823 4.33448 9.93396 5.20017 11.0019 5.20017Z" fill="var(--fill-0, #2496C1)"/>
<path id="Vector_5" d="M6.81944 1.81068C6.60038 1.04468 6.47512 0.504483 6.47074 0.489358C6.38574 0.148833 6.04271 -0.0626581 5.70407 0.0166618C5.36293 0.0934465 5.14511 0.428945 5.21373 0.771962C5.34299 1.41327 5.64146 2.38582 5.60399 2.25536C6.25232 4.51658 7.48298 6.57044 9.14635 8.23379L11.0021 10.0895L12.8579 8.23379C14.5212 6.57048 15.7519 4.51658 16.4002 2.25536C16.4376 2.12453 16.6594 1.42216 16.7905 0.771962C16.8591 0.428945 16.6413 0.0934465 16.3001 0.0166618C15.9577 -0.0620136 15.6185 0.148833 15.5335 0.489358C15.529 0.504483 15.4044 1.04344 15.186 1.8069C14.6265 3.54601 13.3336 6.48918 11.0021 6.48918C8.67188 6.48914 7.38028 3.54975 6.81944 1.81068Z" fill="var(--fill-0, #2496C1)"/>
<path id="Vector_6" d="M11.9111 11.0003L13.7669 12.856C15.4303 14.5193 17.4842 15.7499 19.7455 16.3982C19.8764 16.4357 20.5788 16.6574 21.229 16.7885C21.572 16.8615 21.9075 16.6399 21.9843 16.2982C22.0611 15.9564 21.8515 15.6159 21.5116 15.5315C21.4965 15.5271 21.0005 15.4025 20.237 15.1841C18.4978 14.6245 15.5116 13.3317 15.5116 11.0003C15.5116 8.67018 18.494 7.37864 20.2332 6.81781C20.9992 6.59876 21.4965 6.4735 21.5116 6.46912C21.8515 6.38413 22.0611 6.04425 21.9843 5.70248C21.9075 5.36071 21.572 5.13916 21.229 5.21216C20.5876 5.34141 19.658 5.63979 19.7885 5.6024C17.5272 6.25071 15.4303 7.48129 13.7669 9.14464L11.9111 11.0003Z" fill="var(--fill-0, #2496C1)"/>
<path id="Vector_7" d="M0.0159966 16.2982C0.0927841 16.6399 0.428294 16.8615 0.771324 16.7885C1.41265 16.6591 2.38524 16.3608 2.25478 16.3982C4.51608 15.7499 6.57 14.5193 8.23342 12.856L10.0892 11.0003L8.23342 9.14464C6.57005 7.48133 4.51608 6.25071 2.25478 5.6024C2.12394 5.56489 1.42155 5.34326 0.771324 5.21216C0.428294 5.13916 0.0927841 5.36071 0.0159966 5.70248C-0.0607909 6.04425 0.148817 6.38477 0.48871 6.46912C0.503836 6.47355 1.04281 6.59816 1.8063 6.81657C3.54547 7.3761 6.48875 8.66894 6.48875 11.0003C6.48875 13.3305 3.54925 14.622 1.81008 15.1828C1.04406 15.4019 0.503836 15.5271 0.48871 15.5315C0.148817 15.6165 -0.0607909 15.9564 0.0159966 16.2982Z" fill="var(--fill-0, #2496C1)"/>
<path id="Vector_8" d="M15.1848 20.1909C15.4038 20.9569 15.5291 21.4971 15.5335 21.5122C15.6178 21.8527 15.9565 22.0592 16.3001 21.9849C16.6413 21.9081 16.8591 21.5726 16.7905 21.2296C16.7747 21.1516 16.403 19.7558 16.4002 19.7462C15.7519 17.485 14.5212 15.4311 12.8579 13.7678L11.0021 11.9121L9.14635 13.7678C7.48298 15.4311 6.25232 17.4849 5.60399 19.7462C5.60124 19.7558 5.2295 21.1516 5.21373 21.2296C5.14511 21.5726 5.36293 21.9081 5.70407 21.9849C6.04482 22.0611 6.38561 21.8535 6.47074 21.5122C6.47516 21.4971 6.59978 20.9581 6.81819 20.1947C7.37775 18.4556 8.67063 15.5124 11.0021 15.5124C13.3323 15.5124 14.6239 18.4518 15.1848 20.1909Z" fill="var(--fill-0, #2496C1)"/>
</g>
</svg>
