<svg preserveAspectRatio="none" width="100%" height="100%" overflow="visible" style="display: block;" viewBox="0 0 36 36" fill="none" xmlns="http://www.w3.org/2000/svg">
<g id="Icon Graphic">
<rect id="Icon Background" opacity="0.1" width="36" height="36" rx="5" fill="var(--fill-0, #3D93FD)"/>
<path id="Vector" d="M23.7356 28H12.0999C10.8568 28 9.68799 27.5377 8.80885 26.6982C7.92976 25.8588 7.44562 24.7427 7.44562 23.5555V22.4444C7.44562 21.8307 7.96654 21.3332 8.6092 21.3332C9.25185 21.3332 9.77278 21.8307 9.77278 22.4444V23.5555C9.77278 24.1491 10.0149 24.7071 10.4543 25.1268C10.8939 25.5466 11.4783 25.7778 12.0999 25.7778H23.7356C24.3572 25.7778 24.9415 25.5466 25.3811 25.1268C25.8206 24.7071 26.0628 24.149 26.0628 23.5555V22.4444C26.0628 21.8307 26.5837 21.3332 27.2263 21.3332C27.8689 21.3332 28.3899 21.8307 28.3899 22.4444V23.5555C28.3899 24.7426 27.9058 25.8587 27.0266 26.6982C26.1475 27.5377 24.9787 28 23.7356 28ZM17.9177 23.5555C17.7568 23.5555 17.6036 23.5243 17.4641 23.4679C17.3341 23.4154 17.2118 23.3392 17.1049 23.2395C17.1049 23.2395 17.1049 23.2394 17.1049 23.2395C17.1041 23.2388 17.1033 23.238 17.1025 23.2372C17.1027 23.2374 17.1023 23.2371 17.1025 23.2372C17.1019 23.2367 17.1006 23.2355 17.1 23.2349C17.0996 23.2345 17.0993 23.2342 17.0988 23.2338C17.0984 23.2334 17.0979 23.2329 17.0975 23.2326C17.0967 23.2318 17.0958 23.2309 17.095 23.2302L12.4407 18.7856C11.9863 18.3517 11.9863 17.6482 12.4407 17.2143C12.8951 16.7804 13.6319 16.7803 14.0863 17.2143L16.7542 19.7619V9.11112C16.7542 8.49744 17.2751 8 17.9177 8C18.5604 8 19.0814 8.49744 19.0814 9.11112V19.7619L21.7493 17.2143C22.2036 16.7804 22.9405 16.7804 23.3948 17.2143C23.8492 17.6482 23.8492 18.3517 23.3948 18.7856L18.7405 23.2301C18.7397 23.2309 18.7388 23.2317 18.738 23.2325C18.7375 23.2329 18.7371 23.2334 18.7367 23.2337C18.7363 23.2341 18.7359 23.2344 18.7355 23.2348C18.7349 23.2354 18.7343 23.236 18.7337 23.2365C18.7339 23.2364 18.7335 23.2367 18.7337 23.2365C18.733 23.2373 18.7315 23.2386 18.7308 23.2393C18.7308 23.2393 18.7307 23.2393 18.7308 23.2393C18.7179 23.2512 18.7049 23.2629 18.6916 23.2741C18.5942 23.3571 18.4857 23.4218 18.371 23.468C18.3705 23.4682 18.3702 23.4683 18.3698 23.4685C18.3694 23.4686 18.369 23.4689 18.3686 23.469C18.2299 23.5248 18.0776 23.5555 17.9177 23.5555Z" fill="var(--fill-0, #2585FD)"/>
</g>
</svg>
