<svg preserveAspectRatio="none" width="100%" height="100%" overflow="visible" style="display: block;" viewBox="0 0 36 36" fill="none" xmlns="http://www.w3.org/2000/svg">
<g id="Icon Graphic">
<rect id="Icon Background" opacity="0.1" width="36" height="36" rx="5" fill="var(--fill-0, #C18224)"/>
<path id="Vector" d="M13.4471 24.12V28.7753C13.4471 28.899 13.3393 29 13.2071 29H10.8953C10.7631 29 10.6553 28.899 10.6553 28.7753V24.12C10.6553 23.9963 10.7631 23.8954 10.8953 23.8954H13.2071C13.3393 23.8954 13.4471 23.9963 13.4471 24.12ZM11.8157 20.9063C11.6491 21.028 11.6196 21.253 11.7497 21.4089C11.8797 21.5648 12.1202 21.5924 12.2868 21.4707L17.31 17.8102L22.3023 19.3244C22.4439 19.367 22.5926 19.3282 22.6908 19.2359L27.0125 15.1569L26.9516 15.4802C26.9152 15.6755 27.0549 15.8616 27.2637 15.8957C27.4725 15.9299 27.6713 15.7991 27.7077 15.6037L27.9813 14.1522C28.0279 13.9027 27.7888 13.6868 27.5237 13.7394L25.822 14.0824C25.6149 14.1235 25.4825 14.3139 25.5265 14.5078C25.5704 14.7017 25.7739 14.8255 25.9811 14.7844L26.423 14.6953L22.3133 18.5743L17.3524 17.0696C17.2316 17.0335 17.0997 17.0555 16.9998 17.1286L11.8157 20.9063ZM18.3911 20.6605H16.0793C15.9472 20.6605 15.8393 20.7614 15.8393 20.8852V28.7754C15.8393 28.8991 15.9471 29 16.0793 29H18.3911C18.5233 29 18.6312 28.8991 18.6312 28.7754V20.8852C18.6312 20.7614 18.5233 20.6605 18.3911 20.6605ZM28.759 17.2332H26.4473C26.315 17.2332 26.2072 17.3341 26.2072 17.4579V28.7753C26.2072 28.899 26.315 29 26.4473 29H28.759C28.8912 29 28.9991 28.899 28.9991 28.7753V17.4579C28.9991 17.3341 28.8912 17.2332 28.759 17.2332ZM23.5751 21.7495C22.8045 21.7495 22.0339 21.7495 21.2633 21.7495C21.1311 21.7495 21.0232 21.8505 21.0233 21.9742V28.7753C21.0233 28.899 21.1311 29 21.2633 29H23.5751C23.7073 29 23.8151 28.899 23.8151 28.7753C23.8151 25.9849 23.8151 24.7646 23.8151 21.9742C23.8152 21.8505 23.7074 21.7495 23.5751 21.7495ZM13.16 15.4057L13.6825 15.9854L14.7978 14.62C14.6634 14.5675 14.5265 14.5196 14.3871 14.4768L13.16 15.4057ZM8.89824 8.16959L12.4918 9.0629C12.5763 9.08392 12.6538 9.08392 12.7382 9.0629L15.6707 8.33389V10.2957C15.6156 10.3254 15.5672 10.3533 15.5672 10.4293V11.473C15.5672 11.5842 15.7028 11.6476 15.7978 11.5807C16.0801 11.3821 16.0293 11.382 16.3116 11.5807C16.4066 11.6476 16.5422 11.5843 16.5422 11.473V10.4294C16.5422 10.3533 16.4937 10.3254 16.4388 10.2957V8.03934C16.4388 7.97738 16.3958 7.925 16.3317 7.90905L12.7382 7.01574C12.6537 6.99475 12.5762 6.99475 12.4918 7.01574L8.89824 7.90905C8.75589 7.94445 8.75589 8.13418 8.89824 8.16959ZM13.7204 11.5898C12.8149 11.7415 12.4152 11.7415 11.5097 11.5898C10.9273 11.4922 10.3288 11.3899 9.75013 11.2773C9.8606 12.6677 11.101 13.7638 12.615 13.7638C14.129 13.7638 15.3694 12.6678 15.4799 11.2773C14.9012 11.3899 14.3027 11.4922 13.7204 11.5898ZM16.5278 16.5614C16.7115 16.4275 16.9314 16.3506 17.1575 16.3361C16.7077 15.7769 16.1429 15.3034 15.4958 14.9465L14.0017 16.7756C13.852 16.9589 13.5561 16.9599 13.4011 16.7857L12.615 15.9134C12.4998 16.0412 11.8393 16.7901 11.7654 16.843C11.5972 16.9631 11.3567 16.933 11.2282 16.7756L9.73415 14.9465C8.30073 15.7372 7.27053 17.0997 7.00207 18.699C6.97907 18.8361 7.09108 18.9586 7.23923 18.9586H13.2382L16.5278 16.5614ZM15.5147 9.11645L12.9354 9.75767C12.722 9.81073 12.5079 9.81073 12.2945 9.75767L9.71518 9.11645V10.3536C9.71518 10.4629 9.7968 10.5547 9.91173 10.5745C13.0707 11.1217 12.1592 11.1217 15.3182 10.5745C15.4331 10.5547 15.5147 10.463 15.5147 10.3536V9.11645ZM11.5474 15.9854L12.0699 15.4057L10.8427 14.4769C10.7033 14.5197 10.5664 14.5676 10.432 14.62L11.5474 15.9854Z" fill="var(--fill-0, #C18224)"/>
</g>
</svg>
