<svg preserveAspectRatio="none" width="100%" height="100%" overflow="visible" style="display: block;" viewBox="0 0 19.9469 22.7556" fill="none" xmlns="http://www.w3.org/2000/svg">
<g id="Icon Graphic">
<path id="Vector" d="M17.509 0H2.43796C1.09367 0 0 1.09658 0 2.44444V20.3111C0 21.659 1.09367 22.7556 2.43796 22.7556H17.509C18.8533 22.7556 19.9469 21.659 19.9469 20.3111V2.44444C19.9469 1.09658 18.8533 0 17.509 0ZM18.6172 20.3111C18.6172 20.9238 18.12 21.4222 17.509 21.4222H2.43796C1.82692 21.4222 1.3298 20.9238 1.3298 20.3111V2.44444C1.3298 1.83178 1.82692 1.33333 2.43796 1.33333H17.509C18.12 1.33333 18.6172 1.83178 18.6172 2.44444V20.3111Z" fill="var(--fill-0, #6262D9)"/>
<path id="Vector_2" d="M3.32353 16.4548H8.64272C9.00992 16.4548 9.30762 16.1563 9.30762 15.7881V10.4548C9.30762 10.0866 9.00992 9.78809 8.64272 9.78809H3.32353C2.95633 9.78809 2.65864 10.0866 2.65864 10.4548V15.7881C2.65864 16.1563 2.95633 16.4548 3.32353 16.4548ZM3.98843 11.1214H7.97782V15.1214H3.98843V11.1214Z" fill="var(--fill-0, #6262D9)"/>
<path id="Vector_3" d="M16.3116 9.78809H11.4801C11.1128 9.78809 10.8152 10.0866 10.8152 10.4548C10.8152 10.8229 11.1128 11.1214 11.4801 11.1214H16.3116C16.6788 11.1214 16.9765 10.8229 16.9765 10.4548C16.9765 10.0866 16.6788 9.78809 16.3116 9.78809Z" fill="var(--fill-0, #6262D9)"/>
<path id="Vector_4" d="M16.3116 12.4551H11.4801C11.1128 12.4551 10.8152 12.7536 10.8152 13.1217C10.8152 13.4899 11.1128 13.7884 11.4801 13.7884H16.3116C16.6788 13.7884 16.9765 13.4899 16.9765 13.1217C16.9765 12.7536 16.6788 12.4551 16.3116 12.4551Z" fill="var(--fill-0, #6262D9)"/>
<path id="Vector_5" d="M16.3116 15.1221H11.4801C11.1128 15.1221 10.8152 15.4206 10.8152 15.7887C10.8152 16.1569 11.1128 16.4554 11.4801 16.4554H16.3116C16.6788 16.4554 16.9765 16.1569 16.9765 15.7887C16.9765 15.4206 16.6788 15.1221 16.3116 15.1221Z" fill="var(--fill-0, #6262D9)"/>
<path id="Vector_6" d="M16.3112 17.7881H3.32353C2.95633 17.7881 2.65864 18.0866 2.65864 18.4548C2.65864 18.8229 2.95633 19.1214 3.32353 19.1214H16.3112C16.6784 19.1214 16.9761 18.8229 16.9761 18.4548C16.9761 18.0866 16.6784 17.7881 16.3112 17.7881Z" fill="var(--fill-0, #6262D9)"/>
<path id="Vector_7" d="M3.17456 7.59623H3.33099C3.52674 7.59623 3.68507 7.43646 3.68383 7.24019L3.66969 5.02921L5.22298 7.43472C5.28801 7.53543 5.39953 7.59623 5.51917 7.59623H5.88251C6.07737 7.59623 6.23535 7.43783 6.23535 7.24246V4.1653C6.23535 3.96992 6.07737 3.81152 5.88251 3.81152H5.72617C5.53043 3.81152 5.37209 3.9713 5.37334 4.16757L5.38748 6.35659L3.87222 3.97503C3.80741 3.87317 3.69527 3.81152 3.57474 3.81152H3.17461C2.97975 3.81152 2.82177 3.96992 2.82177 4.1653V7.24246C2.82172 7.43783 2.9797 7.59623 3.17456 7.59623Z" fill="var(--fill-0, #6262D9)"/>
<path id="Vector_8" d="M7.05866 7.59623H8.84755C9.04241 7.59623 9.20039 7.43783 9.20039 7.24246V7.23148C9.20039 7.0361 9.04241 6.8777 8.84755 6.8777H7.58659V6.00006H8.71084C8.9057 6.00006 9.06368 5.84166 9.06368 5.64628C9.06368 5.4509 8.9057 5.2925 8.71084 5.2925H7.58659V4.51908H8.79835C8.9932 4.51908 9.15118 4.36068 9.15118 4.1653C9.15118 3.96992 8.9932 3.81152 8.79835 3.81152H7.05866C6.8638 3.81152 6.70582 3.96992 6.70582 4.1653V7.24246C6.70582 7.43783 6.8638 7.59623 7.05866 7.59623Z" fill="var(--fill-0, #6262D9)"/>
<path id="Vector_9" d="M10.1886 7.34099C10.2323 7.49223 10.3704 7.59628 10.5274 7.59628H10.8856C11.0442 7.59628 11.1833 7.49019 11.2257 7.33695L11.8707 5.00183L12.5157 7.33695C12.558 7.49019 12.6971 7.59628 12.8557 7.59628H13.2139C13.371 7.59628 13.5091 7.49223 13.5528 7.34099L14.4423 4.26383C14.5078 4.03752 14.3384 3.81157 14.1035 3.81157H13.9225C13.7613 3.81157 13.6206 3.92108 13.5807 4.07761L12.9976 6.3621L12.384 4.07348C12.3426 3.91895 12.2029 3.81152 12.0433 3.81152H11.6987C11.5388 3.81152 11.3989 3.91926 11.3578 4.07415L10.7493 6.3621L10.1611 4.0769C10.1209 3.92068 9.98039 3.81152 9.81944 3.81152H9.63788C9.40291 3.81152 9.23358 4.03748 9.29901 4.26379L10.1886 7.34099Z" fill="var(--fill-0, #6262D9)"/>
<path id="Vector_10" d="M16.304 5.40665C16.1836 5.35727 15.9046 5.25856 15.7405 5.19269C15.5709 5.12691 15.3576 5.03913 15.3576 4.80873C15.3576 4.57833 15.5654 4.46865 15.8498 4.46865C16.0315 4.46865 16.2353 4.53571 16.4159 4.64127C16.5819 4.73825 16.7946 4.68465 16.8948 4.52029L16.9025 4.50762C17.0051 4.33918 16.9522 4.11598 16.7809 4.01869C16.5171 3.86882 16.1784 3.7666 15.8718 3.7666C15.4342 3.7666 15.0895 3.88727 14.8762 4.06829C14.6573 4.24931 14.4823 4.53451 14.4823 4.89651C14.4823 5.25305 14.6136 5.47247 14.7777 5.62602C14.9418 5.78509 15.1333 5.85638 15.2263 5.90025C15.3521 5.95509 15.6365 6.05385 15.8006 6.11416C15.9648 6.17451 16.2438 6.27322 16.2438 6.53105C16.2438 6.78336 16.0249 6.92047 15.7405 6.92047C15.5361 6.92047 15.2664 6.82505 15.0293 6.66882C14.8665 6.56158 14.6488 6.60153 14.5395 6.76318L14.5017 6.81913C14.3915 6.98202 14.4355 7.20296 14.5985 7.31265C14.8877 7.50722 15.2568 7.66096 15.6585 7.66096C16.3915 7.66096 17.1246 7.26056 17.1246 6.44327C17.1245 5.89478 16.7854 5.58216 16.304 5.40665Z" fill="var(--fill-0, #6262D9)"/>
</g>
</svg>
