<svg preserveAspectRatio="none" width="100%" height="100%" overflow="visible" style="display: block;" viewBox="0 0 36 36" fill="none" xmlns="http://www.w3.org/2000/svg">
<g id="Icon Graphic">
<rect id="Icon Background" opacity="0.1" width="36" height="36" rx="5" fill="var(--fill-0, #FC8D59)"/>
<path id="Vector" fill-rule="evenodd" clip-rule="evenodd" d="M27.5399 20.8697L28.0537 21.3846C28.137 21.4681 28.137 21.6042 28.0537 21.6876L27.9846 21.7568C27.7454 21.4533 27.4713 21.1787 27.1684 20.9389L27.2375 20.8697C27.3207 20.7863 27.4566 20.7863 27.5399 20.8697ZM8.64788 10.3669H12.7469V8.94976H8.69032C7.76013 8.94976 6.99907 9.71237 6.99907 10.6445V22.3033C6.99907 23.2354 7.76013 23.998 8.69032 23.998H14.5419V26.6905H11.9675C11.1743 26.6905 10.5253 27.2102 10.5253 27.8453V29H21.5398C20.1396 28.1316 19.2066 26.5789 19.2066 24.8078C19.2066 23.9243 19.4388 23.095 19.8453 22.3779L19.675 22.2073C19.3882 21.9199 19.3241 21.4931 19.4824 21.1433H8.4133V10.602C8.4133 10.4727 8.51886 10.3669 8.64788 10.3669ZM28.7613 23.1669C28.9122 22.9136 28.9991 22.6181 28.9991 22.3033V10.6445C28.9991 9.71237 28.238 8.94976 27.3078 8.94976H23.1642C23.2214 9.08369 23.2512 9.22914 23.2512 9.38033V10.3669H27.3503C27.4793 10.3669 27.5848 10.4727 27.5848 10.6019V20.0929C27.7585 20.1295 27.9238 20.2152 28.0585 20.3501L28.5723 20.865C28.9418 21.2352 28.9418 21.837 28.5723 22.2072L28.402 22.3779C28.5438 22.6281 28.6643 22.8919 28.7613 23.1669ZM20.4706 9.59871C20.32 9.59871 20.1833 9.53726 20.0845 9.43824C19.9857 9.33922 19.9244 9.20231 19.9244 9.05135V7H13.8394C13.6416 7 13.4803 7.16166 13.4803 7.35983V18.0052C13.4803 18.2034 13.6417 18.3651 13.8394 18.3651H22.1587C22.3564 18.3651 22.5178 18.2033 22.5178 18.0052V9.59871H20.4706ZM17.6513 8.78585H18.94C19.1424 8.78585 19.3066 8.95036 19.3066 9.15327C19.3066 9.35617 19.1424 9.52068 18.94 9.52068H17.6513C17.4488 9.52068 17.2846 9.35617 17.2846 9.15327C17.2846 8.95036 17.4488 8.78585 17.6513 8.78585ZM16.6821 15.3867L15.4914 16.4695C15.3495 16.6154 15.1142 16.6151 14.9709 16.4716L14.4745 15.9742C14.3314 15.8308 14.3314 15.5981 14.4745 15.4547C14.6177 15.3112 14.8498 15.3112 14.993 15.4547L15.2429 15.7051L16.1894 14.8443C16.3389 14.7079 16.5704 14.7189 16.7064 14.8687C16.8425 15.0184 16.8316 15.2504 16.6821 15.3867ZM14.6538 12.2692C14.5106 12.1257 14.5106 11.8931 14.6538 11.7497C14.7969 11.6062 15.0291 11.6062 15.1722 11.7497L15.5847 12.163L15.9972 11.7497C16.1404 11.6062 16.3725 11.6062 16.5157 11.7497C16.6589 11.8931 16.6589 12.1258 16.5157 12.2692L16.1032 12.6825L16.5157 13.0959C16.6589 13.2393 16.6589 13.4719 16.5157 13.6154C16.3725 13.7589 16.1404 13.7589 15.9972 13.6154L15.5847 13.2021L15.1722 13.6154C15.029 13.7589 14.7969 13.7589 14.6538 13.6154C14.5106 13.4719 14.5106 13.2393 14.6538 13.0959L15.0663 12.6825L14.6538 12.2692ZM16.6821 9.45069L15.4914 10.5335C15.3495 10.6794 15.1142 10.6791 14.9709 10.5356L14.4745 10.0382C14.3314 9.8947 14.3314 9.66209 14.4745 9.51866C14.6177 9.37518 14.8498 9.37518 14.993 9.51866L15.2429 9.769L16.1894 8.90825C16.3389 8.77189 16.5704 8.78282 16.7064 8.93263C16.8425 9.0824 16.8316 9.31438 16.6821 9.45069ZM21.2643 16.5792H17.6512C17.4487 16.5792 17.2845 16.4147 17.2845 16.2118C17.2845 16.0089 17.4487 15.8444 17.6512 15.8444H21.2643C21.4668 15.8444 21.6309 16.0089 21.6309 16.2118C21.6309 16.4147 21.4668 16.5792 21.2643 16.5792ZM21.2643 15.4829H17.6512C17.4487 15.4829 17.2845 15.3184 17.2845 15.1155C17.2845 14.9126 17.4487 14.7481 17.6512 14.7481H21.2643C21.4668 14.7481 21.6309 14.9126 21.6309 15.1155C21.6309 15.3184 21.4668 15.4829 21.2643 15.4829ZM21.2643 13.5981H17.6512C17.4487 13.5981 17.2845 13.4336 17.2845 13.2307C17.2845 13.0278 17.4487 12.8633 17.6512 12.8633H21.2643C21.4668 12.8633 21.6309 13.0278 21.6309 13.2307C21.6309 13.4336 21.4668 13.5981 21.2643 13.5981ZM21.2643 12.5018H17.6512C17.4487 12.5018 17.2845 12.3373 17.2845 12.1344C17.2845 11.9315 17.4487 11.767 17.6512 11.767H21.2643C21.4668 11.767 21.6309 11.9315 21.6309 12.1344C21.6309 12.3373 21.4668 12.5018 21.2643 12.5018ZM21.2643 10.617H17.6512C17.4487 10.617 17.2845 10.4525 17.2845 10.2496C17.2845 10.0467 17.4487 9.88216 17.6512 9.88216H21.2643C21.4668 9.88216 21.6309 10.0467 21.6309 10.2496C21.6309 10.4525 21.4668 10.617 21.2643 10.617ZM20.6577 7.36746V8.86388H22.1512L20.6577 7.36746ZM24.1236 22.1345C22.6502 22.1345 21.4558 23.3313 21.4558 24.8078C21.4558 26.2842 22.6502 27.4811 24.1236 27.4811C25.597 27.4811 26.7915 26.2842 26.7915 24.8078C26.7915 23.3313 25.597 22.1345 24.1236 22.1345ZM24.1236 25.581C23.6975 25.581 23.352 25.2348 23.352 24.8078C23.352 24.5137 23.5158 24.258 23.757 24.1272V22.9285C23.757 22.7256 23.9211 22.5611 24.1236 22.5611C24.3261 22.5611 24.4903 22.7256 24.4903 22.9285V24.1272C24.7315 24.258 24.8953 24.5137 24.8953 24.8078C24.8953 25.2349 24.5498 25.581 24.1236 25.581ZM24.1236 20.6156C21.813 20.6156 19.94 22.4925 19.94 24.8078C19.94 27.1231 21.8131 29 24.1236 29C26.4342 29 28.3073 27.1231 28.3073 24.8078C28.3073 22.4925 26.4342 20.6156 24.1236 20.6156ZM24.1236 28.2159C22.2453 28.2159 20.7224 26.6899 20.7224 24.8077C20.7224 22.9256 22.2453 21.3997 24.1236 21.3997C26.002 21.3997 27.5248 22.9256 27.5248 24.8077C27.5248 26.6899 26.0019 28.2159 24.1236 28.2159ZM24.4903 19.653V19.8944C24.3692 19.8854 24.247 19.8807 24.1236 19.8807C24.0003 19.8807 23.8781 19.8854 23.757 19.8944V19.653H23.2843C23.1392 19.653 23.0204 19.534 23.0204 19.3886V18.9153C23.0204 18.7699 23.1392 18.6509 23.2843 18.6509H24.9629C25.1081 18.6509 25.2268 18.7699 25.2268 18.9153V19.3886C25.2268 19.5341 25.108 19.653 24.9629 19.653H24.4903ZM20.1935 21.3846L20.7074 20.8697C20.7907 20.7863 20.9265 20.7863 21.0098 20.8697L21.0789 20.9389C20.776 21.1786 20.5019 21.4533 20.2627 21.7568L20.1936 21.6876C20.1103 21.6042 20.1103 21.4681 20.1935 21.3846Z" fill="var(--fill-0, #FC8D59)"/>
</g>
</svg>
