<svg preserveAspectRatio="none" width="100%" height="100%" overflow="visible" style="display: block;" viewBox="0 0 64 69.363" fill="none" xmlns="http://www.w3.org/2000/svg">
<g id="Exp-1.-O">
<path id="Vector" fill-rule="evenodd" clip-rule="evenodd" d="M41.794 37.5777C41.8045 37.3015 41.6215 37.0568 41.3535 36.9892C41.0866 36.9216 40.8093 37.0509 40.6881 37.2991C38.7501 41.2764 34.881 44.5777 31.9292 46.0542C31.6833 46.1777 31.5574 46.4551 31.6262 46.7207C31.6938 46.9864 31.9385 47.1682 32.2135 47.1577C33.5712 47.1041 35.36 47.1962 37.4542 47.6845C37.7665 47.7567 38.0788 47.5633 38.1534 47.251C38.7547 44.7094 40.4946 43.8308 41.8814 43.5184C42.0317 43.4847 42.1634 43.3914 42.2462 43.2597C42.3289 43.1281 42.3557 42.9684 42.3196 42.8181C41.8325 40.724 41.7404 38.9364 41.794 37.5777Z" fill="var(--fill-0, #CACACA)"/>
<path id="Vector_2" fill-rule="evenodd" clip-rule="evenodd" d="M13.8655 15.3965C12.8004 15.8987 10.7726 17.677 9.65969 19.6033C8.57823 21.4759 8.00836 23.6318 8.00603 25.1001C8.00603 25.4217 8.26591 25.6839 8.58755 25.6839C8.90919 25.6839 9.1714 25.424 9.1714 25.1024C9.17373 23.7867 9.70048 21.8628 10.6689 20.1859C11.6513 18.4845 13.4215 16.8939 14.362 16.4511C14.6533 16.3136 14.778 15.9663 14.6405 15.6761C14.5041 15.3848 14.1569 15.2601 13.8655 15.3965Z" fill="var(--fill-0, #CACACA)"/>
<path id="Vector_3" fill-rule="evenodd" clip-rule="evenodd" d="M9.77464 15.1407C16.5967 8.31895 27.6736 8.31895 34.4956 15.1407C41.3177 21.9625 41.3177 33.0389 34.4956 39.8606C27.6736 46.6824 16.5967 46.6824 9.77464 39.8606C4.18203 34.2683 3.17399 25.8174 6.75051 19.1937C6.90317 18.9117 6.79712 18.5574 6.51394 18.4048C6.23192 18.2521 5.87764 18.357 5.72498 18.6402C1.90956 25.7043 2.9852 34.7193 8.95072 40.6845C16.2273 47.9608 28.043 47.9608 35.3195 40.6845C42.5961 33.4083 42.5961 21.5931 35.3195 14.3168C28.043 7.04059 16.2273 7.04059 8.95072 14.3168C8.72348 14.5441 8.72348 14.9135 8.95072 15.1407C9.17797 15.368 9.54739 15.368 9.77464 15.1407Z" fill="var(--fill-0, #CACACA)"/>
<path id="Vector_4" fill-rule="evenodd" clip-rule="evenodd" d="M42.4442 32.7641C41.5399 36.2706 39.7149 39.5894 36.9705 42.3326C28.7849 50.5189 15.4916 50.5189 7.30599 42.3326C-0.880728 34.1474 -0.880728 20.8546 7.30599 12.6694C15.4916 4.48301 28.7849 4.48301 36.9705 12.6694C41.2043 16.9018 43.2483 22.5 43.1038 28.0516C43.0945 28.3732 43.3497 28.6412 43.6702 28.6494C43.9918 28.6576 44.2599 28.4035 44.268 28.0819C44.4207 22.2215 42.2636 16.3133 37.7944 11.8443C29.1532 3.20349 15.1221 3.20349 6.48091 11.8443C-2.1603 20.4852 -2.1603 34.5168 6.48091 43.1576C15.1221 51.7985 29.1532 51.7985 37.7944 43.1576C40.6915 40.2606 42.6179 36.7577 43.5723 33.0555C43.6527 32.7432 43.4651 32.4262 43.1539 32.3458C42.8416 32.2654 42.5246 32.453 42.4442 32.7641Z" fill="var(--fill-0, #CACACA)"/>
<path id="Vector_5" fill-rule="evenodd" clip-rule="evenodd" d="M62.8335 61.6037C62.8009 61.7179 62.7146 61.9941 62.5969 62.2143C62.1459 63.058 61.2229 64.228 60.0436 65.4062C58.8654 66.5855 57.6954 67.5084 56.8516 67.9594C56.6314 68.0771 56.3552 68.1633 56.241 68.1959L42.3906 54.3461C42.1633 54.1189 41.7939 54.1189 41.5667 54.3461C41.3394 54.5734 41.3394 54.9428 41.5667 55.17L55.5115 69.1142C55.7562 69.3601 56.255 69.479 56.9332 69.2086C57.8585 68.838 59.3642 67.7345 60.8675 66.2312C62.372 64.7268 63.4756 63.2212 63.845 62.2959C64.1166 61.6177 63.9965 61.119 63.7518 60.8742L46.8598 43.9829C44.5838 41.7071 40.8942 41.7071 38.6194 43.9829C36.3435 46.2576 36.3435 49.947 38.6194 52.2229C38.8467 52.4501 39.2161 52.4501 39.4434 52.2229C39.6706 51.9957 39.6706 51.6263 39.4434 51.399C37.623 49.5776 37.623 46.627 39.4434 44.8068C41.2637 42.9866 44.2144 42.9866 46.0358 44.8068L62.8335 61.6037Z" fill="var(--fill-0, #CACACA)"/>
<g id="Group">
<path id="Vector_6" fill-rule="evenodd" clip-rule="evenodd" d="M19.4134 23.832C19.3866 22.7215 19.8026 21.9104 20.4471 21.435C21.4586 20.6892 22.9689 20.7206 23.7894 21.6447C24.1425 22.0421 24.3464 22.6038 24.3522 23.3146C24.3662 25.0195 23.5668 26.0158 22.7836 27.0471C21.7301 28.4374 20.6778 29.866 20.5473 32.2514C20.5123 32.8947 21.0053 33.4436 21.6474 33.4785C22.2907 33.5135 22.8396 33.0206 22.8745 32.3785C22.9736 30.5664 23.8406 29.5106 24.6412 28.4548C25.7134 27.0413 26.7016 25.6313 26.683 23.296C26.6713 21.9232 26.2133 20.8639 25.5328 20.0972C23.942 18.3072 21.0228 18.1138 19.0638 19.5588C17.8891 20.4258 17.0349 21.8615 17.0827 23.8868C17.0978 24.53 17.6327 25.0393 18.276 25.0241C18.9181 25.009 19.4285 24.4753 19.4134 23.832Z" fill="var(--fill-0, #CACACA)"/>
<path id="Vector_7" d="M21.6006 37.8071C22.3923 37.8071 23.034 37.1654 23.034 36.3738C23.034 35.5822 22.3923 34.9404 21.6006 34.9404C20.809 34.9404 20.1672 35.5822 20.1672 36.3738C20.1672 37.1654 20.809 37.8071 21.6006 37.8071Z" fill="var(--fill-0, #CACACA)"/>
<path id="Vector_8" fill-rule="evenodd" clip-rule="evenodd" d="M42.8295 7.59091L46.3256 1.76431C46.6566 1.21311 46.4783 0.496443 45.9259 0.165492C45.3747 -0.164293 44.658 0.0140006 44.327 0.565197L40.8309 6.39179C40.4999 6.94415 40.6794 7.66083 41.2306 7.99061C41.783 8.32156 42.4985 8.14327 42.8295 7.59091Z" fill="var(--fill-0, #CACACA)"/>
<path id="Vector_9" fill-rule="evenodd" clip-rule="evenodd" d="M48.3411 11.4305L61.1602 2.10797C61.6799 1.72924 61.7953 0.999749 61.4177 0.480017C61.039 -0.0408806 60.3094 -0.155082 59.7897 0.222482L46.9706 9.54504C46.4497 9.92376 46.3355 10.6533 46.7131 11.173C47.0918 11.6939 47.8213 11.8081 48.3411 11.4305Z" fill="var(--fill-0, #CACACA)"/>
<path id="Vector_10" fill-rule="evenodd" clip-rule="evenodd" d="M50.2677 18.6102L59.5907 16.2796C60.2153 16.1235 60.5952 15.4907 60.439 14.8661C60.2829 14.2426 59.6501 13.8627 59.0254 14.0189L49.7025 16.3495C49.079 16.5057 48.6991 17.1384 48.8553 17.7631C49.0114 18.3865 49.6442 18.7664 50.2677 18.6102Z" fill="var(--fill-0, #CACACA)"/>
</g>
</g>
</svg>
