<svg preserveAspectRatio="none" width="100%" height="100%" overflow="visible" style="display: block;" viewBox="0 0 24 24.0003" fill="none" xmlns="http://www.w3.org/2000/svg">
<g id="cross">
<path id="Path 197368" d="M12 0C14.3734 0 16.6934 0.703797 18.6668 2.02239C20.6402 3.34099 22.1783 5.21516 23.0865 7.4079C23.9948 9.60064 24.2324 12.0135 23.7694 14.3413C23.3064 16.6691 22.1635 18.8073 20.4853 20.4856C18.807 22.1638 16.6689 23.3067 14.3411 23.7697C12.0133 24.2328 9.60051 23.9951 7.4078 23.0869C5.21508 22.1786 3.34094 20.6405 2.02236 18.6671C0.703788 16.6937 0 14.3736 0 12.0002C0 8.81752 1.26428 5.76523 3.51472 3.51477C5.76515 1.2643 8.8174 0 12 0Z" fill="var(--fill-0, black)" fill-opacity="0.2"/>
<g id="Union 6">
<g id="Vector">
</g>
<path id="Vector_2" d="M7.33885 17.6256C7.12325 17.6256 6.9077 17.5433 6.74325 17.3788C6.41447 17.0498 6.41459 16.5166 6.74353 16.1878L10.961 11.9723L6.7434 7.75472C6.41453 7.42586 6.41453 6.89266 6.7434 6.5638C7.07225 6.23493 7.60545 6.23493 7.9343 6.5638L12.1519 10.7814L16.3673 6.56393C16.6961 6.23499 17.2293 6.23487 17.5582 6.56366C17.8872 6.89244 17.8873 7.42565 17.5585 7.75459L13.3428 11.9724L17.5584 16.188C17.8872 16.5169 17.8872 17.0501 17.5584 17.3789C17.2295 17.7078 16.6963 17.7078 16.3675 17.3789L12.1519 13.1633L7.93417 17.3791C7.76976 17.5434 7.55428 17.6256 7.33885 17.6256Z" fill="var(--fill-0, white)"/>
</g>
</g>
</svg>
