<svg preserveAspectRatio="none" width="100%" height="100%" overflow="visible" style="display: block;" viewBox="0 0 14 14" fill="none" xmlns="http://www.w3.org/2000/svg">
<g id="calendar-04">
<path id="Vector" d="M9.33464 1.16406V3.4974M4.66797 1.16406V3.4974" stroke="var(--stroke-0, #999999)" stroke-linecap="round" stroke-linejoin="round"/>
<path id="Vector_2" d="M7.58333 2.33594H6.41667C4.21678 2.33594 3.11684 2.33594 2.43342 3.01935C1.75 3.70277 1.75 4.80271 1.75 7.0026V8.16927C1.75 10.3691 1.75 11.4691 2.43342 12.1525C3.11684 12.8359 4.21678 12.8359 6.41667 12.8359H7.58333C9.7832 12.8359 10.8832 12.8359 11.5666 12.1525C12.25 11.4691 12.25 10.3691 12.25 8.16927V7.0026C12.25 4.80271 12.25 3.70277 11.5666 3.01935C10.8832 2.33594 9.7832 2.33594 7.58333 2.33594Z" stroke="var(--stroke-0, #999999)" stroke-linecap="round" stroke-linejoin="round"/>
<path id="Vector_3" d="M1.75 5.83594H12.25" stroke="var(--stroke-0, #999999)" stroke-linecap="round" stroke-linejoin="round"/>
</g>
</svg>
