<svg preserveAspectRatio="none" width="100%" height="100%" overflow="visible" style="display: block;" viewBox="0 0 14 14" fill="none" xmlns="http://www.w3.org/2000/svg">
<g id="Frame">
<g clip-path="url(#clip0_154_19546)">
<path id="Vector" d="M4.16035 1.04291C4.43105 1.28627 4.45293 1.69916 4.20957 1.96987L2.24082 4.15737C2.12051 4.29135 1.95098 4.37065 1.77051 4.37338C1.59004 4.37612 1.41777 4.30776 1.28926 4.18198L0.192773 3.08823C-0.0615235 2.83119 -0.0615235 2.41557 0.192773 2.15854C0.44707 1.90151 0.86543 1.90151 1.11973 2.15854L1.72402 2.76284L3.23066 1.0894C3.47402 0.818695 3.88691 0.796819 4.15762 1.04018L4.16035 1.04291ZM4.16035 5.41791C4.43105 5.66127 4.45293 6.07416 4.20957 6.34487L2.24082 8.53237C2.12051 8.66635 1.95098 8.74565 1.77051 8.74838C1.59004 8.75112 1.41777 8.68276 1.28926 8.55698L0.192773 7.46323C-0.0642578 7.20619 -0.0642578 6.79057 0.192773 6.53627C0.449805 6.28198 0.86543 6.27924 1.11973 6.53627L1.72402 7.14057L3.23066 5.46713C3.47402 5.19643 3.88691 5.17455 4.15762 5.41791H4.16035ZM6.12637 2.62338C6.12637 2.1394 6.51738 1.74838 7.00137 1.74838H13.1264C13.6104 1.74838 14.0014 2.1394 14.0014 2.62338C14.0014 3.10737 13.6104 3.49838 13.1264 3.49838H7.00137C6.51738 3.49838 6.12637 3.10737 6.12637 2.62338ZM6.12637 6.99838C6.12637 6.5144 6.51738 6.12338 7.00137 6.12338H13.1264C13.6104 6.12338 14.0014 6.5144 14.0014 6.99838C14.0014 7.48237 13.6104 7.87338 13.1264 7.87338H7.00137C6.51738 7.87338 6.12637 7.48237 6.12637 6.99838ZM4.37637 11.3734C4.37637 10.8894 4.76738 10.4984 5.25137 10.4984H13.1264C13.6104 10.4984 14.0014 10.8894 14.0014 11.3734C14.0014 11.8574 13.6104 12.2484 13.1264 12.2484H5.25137C4.76738 12.2484 4.37637 11.8574 4.37637 11.3734ZM1.31387 10.0609C1.66196 10.0609 1.9958 10.1992 2.24194 10.4453C2.48809 10.6914 2.62637 11.0253 2.62637 11.3734C2.62637 11.7215 2.48809 12.0553 2.24194 12.3015C1.9958 12.5476 1.66196 12.6859 1.31387 12.6859C0.965771 12.6859 0.631931 12.5476 0.38579 12.3015C0.139648 12.0553 0.00136718 11.7215 0.00136718 11.3734C0.00136718 11.0253 0.139648 10.6914 0.38579 10.4453C0.631931 10.1992 0.965771 10.0609 1.31387 10.0609Z" fill="var(--fill-0, #9F7CE8)"/>
</g>
</g>
<defs>
<clipPath id="clip0_154_19546">
<path d="M0 0H14V14H0V0Z" fill="white"/>
</clipPath>
</defs>
</svg>
