<svg preserveAspectRatio="none" width="100%" height="100%" overflow="visible" style="display: block;" viewBox="0 0 14 14" fill="none" xmlns="http://www.w3.org/2000/svg">
<g id="Frame">
<g clip-path="url(#clip0_154_19549)">
<path id="Vector" d="M7 14C8.85652 14 10.637 13.2625 11.9497 11.9497C13.2625 10.637 14 8.85652 14 7C14 5.14348 13.2625 3.36301 11.9497 2.05025C10.637 0.737498 8.85652 0 7 0C5.14348 0 3.36301 0.737498 2.05025 2.05025C0.737498 3.36301 0 5.14348 0 7C0 8.85652 0.737498 10.637 2.05025 11.9497C3.36301 13.2625 5.14348 14 7 14ZM5.03125 6.34375H8.96875C9.33242 6.34375 9.625 6.63633 9.625 7C9.625 7.36367 9.33242 7.65625 8.96875 7.65625H5.03125C4.66758 7.65625 4.375 7.36367 4.375 7C4.375 6.63633 4.66758 6.34375 5.03125 6.34375Z" fill="var(--fill-0, #FF3A3A)"/>
</g>
</g>
<defs>
<clipPath id="clip0_154_19549">
<path d="M0 0H14V14H0V0Z" fill="white"/>
</clipPath>
</defs>
</svg>
