<svg preserveAspectRatio="none" width="100%" height="100%" overflow="visible" style="display: block;" viewBox="0 0 14 14" fill="none" xmlns="http://www.w3.org/2000/svg">
<g id="Frame">
<path d="M14 14H0V0H14V14Z" stroke="var(--stroke-0, #E5E7EB)"/>
<path id="Vector" d="M5 2.28571C5 1.57589 5.67188 1 6.5 1H7.5C8.32812 1 9 1.57589 9 2.28571V11.7143C9 12.4241 8.32812 13 7.5 13H6.5C5.67188 13 5 12.4241 5 11.7143V2.28571ZM0 7.42857C0 6.71875 0.671875 6.14286 1.5 6.14286H2.5C3.32812 6.14286 4 6.71875 4 7.42857V11.7143C4 12.4241 3.32812 13 2.5 13H1.5C0.671875 13 0 12.4241 0 11.7143V7.42857ZM11.5 2.71429H12.5C13.3281 2.71429 14 3.29018 14 4V11.7143C14 12.4241 13.3281 13 12.5 13H11.5C10.6719 13 10 12.4241 10 11.7143V4C10 3.29018 10.6719 2.71429 11.5 2.71429Z" fill="var(--fill-0, #25B7D3)"/>
</g>
</svg>
