<svg preserveAspectRatio="none" width="100%" height="100%" overflow="visible" style="display: block;" viewBox="0 0 20 20" fill="none" xmlns="http://www.w3.org/2000/svg">
<g id="layer1">
<g id="Group">
<path id="rect30394" fill-rule="evenodd" clip-rule="evenodd" d="M8.49609 2.85714C7.83551 2.85714 7.22762 3.2331 6.9322 3.82394L6.70201 4.28571H5C3.82499 4.28571 2.85714 5.25356 2.85714 6.42857V13.5714C2.85714 14.7464 3.82499 15.7143 5 15.7143H15C16.175 15.7143 17.1429 14.7464 17.1429 13.5714V6.42857C17.1429 5.25356 16.175 4.28571 15 4.28571H13.298L13.0678 3.82394C12.7724 3.2331 12.1645 2.85714 11.5039 2.85714H8.49609ZM8.49609 4.28571H11.5039C11.6264 4.28571 11.7351 4.35335 11.7899 4.46289L12.2182 5.31948C12.2775 5.43812 12.3687 5.53789 12.4816 5.60763C12.5944 5.67736 12.7245 5.71429 12.8571 5.71429H15C15.403 5.71429 15.7143 6.02562 15.7143 6.42857V13.5714C15.7143 13.9744 15.403 14.2857 15 14.2857H5C4.59705 14.2857 4.28571 13.9744 4.28571 13.5714V6.42857C4.28571 6.02562 4.59705 5.71429 5 5.71429H7.14286C7.27552 5.71429 7.40556 5.67736 7.51841 5.60763C7.63126 5.53789 7.72247 5.43812 7.78181 5.31948L8.2101 4.46289C8.26489 4.35332 8.37359 4.28571 8.49609 4.28571Z" fill="var(--fill-0, #9DA3A7)"/>
<path id="path30386" fill-rule="evenodd" clip-rule="evenodd" d="M0.714286 0C0.524851 1.89406e-05 0.343181 0.0752802 0.209231 0.209231C0.0752802 0.343181 1.89406e-05 0.524851 0 0.714286V3.57143C0 3.76087 0.0752543 3.94255 0.209209 4.07651C0.343163 4.21046 0.524845 4.28571 0.714286 4.28571C0.903726 4.28571 1.08541 4.21046 1.21936 4.07651C1.35332 3.94255 1.42857 3.76087 1.42857 3.57143V1.42857H3.57143C3.76087 1.42857 3.94255 1.35332 4.07651 1.21936C4.21046 1.08541 4.28571 0.903726 4.28571 0.714286C4.28571 0.524845 4.21046 0.343163 4.07651 0.209209C3.94255 0.0752543 3.76087 0 3.57143 0H0.714286Z" fill="var(--fill-0, #9DA3A7)"/>
<path id="path30388" fill-rule="evenodd" clip-rule="evenodd" d="M0.714286 15.7143C0.524845 15.7143 0.343163 15.7895 0.209209 15.9235C0.0752543 16.0574 0 16.2391 0 16.4286V19.2857C1.89406e-05 19.4751 0.0752802 19.6568 0.209231 19.7908C0.343181 19.9247 0.524851 20 0.714286 20H3.57143C3.76087 20 3.94255 19.9247 4.07651 19.7908C4.21046 19.6568 4.28571 19.4752 4.28571 19.2857C4.28571 19.0963 4.21046 18.9146 4.07651 18.7806C3.94255 18.6467 3.76087 18.5714 3.57143 18.5714H1.42857V16.4286C1.42857 16.2391 1.35332 16.0574 1.21936 15.9235C1.08541 15.7895 0.903726 15.7143 0.714286 15.7143Z" fill="var(--fill-0, #9DA3A7)"/>
<path id="path30390" fill-rule="evenodd" clip-rule="evenodd" d="M16.4286 0C16.2391 0 16.0574 0.0752543 15.9235 0.209209C15.7895 0.343163 15.7143 0.524845 15.7143 0.714286C15.7143 0.903726 15.7895 1.08541 15.9235 1.21936C16.0574 1.35332 16.2391 1.42857 16.4286 1.42857H18.5714V3.57143C18.5714 3.76087 18.6467 3.94255 18.7806 4.07651C18.9146 4.21046 19.0963 4.28571 19.2857 4.28571C19.4752 4.28571 19.6568 4.21046 19.7908 4.07651C19.9247 3.94255 20 3.76087 20 3.57143V0.714286C20 0.524851 19.9247 0.343181 19.7908 0.209231C19.6568 0.0752802 19.4751 1.89406e-05 19.2857 0H16.4286Z" fill="var(--fill-0, #9DA3A7)"/>
<path id="path30392" fill-rule="evenodd" clip-rule="evenodd" d="M19.2857 15.7143C19.0963 15.7143 18.9146 15.7895 18.7806 15.9235C18.6467 16.0574 18.5714 16.2391 18.5714 16.4286V18.5714H16.4286C16.2391 18.5714 16.0574 18.6467 15.9235 18.7806C15.7895 18.9146 15.7143 19.0963 15.7143 19.2857C15.7143 19.4752 15.7895 19.6568 15.9235 19.7908C16.0574 19.9247 16.2391 20 16.4286 20H19.2857C19.4751 20 19.6568 19.9247 19.7908 19.7908C19.9247 19.6568 20 19.4751 20 19.2857V16.4286C20 16.2391 19.9247 16.0574 19.7908 15.9235C19.6568 15.7895 19.4752 15.7143 19.2857 15.7143Z" fill="var(--fill-0, #9DA3A7)"/>
<path id="path30410" fill-rule="evenodd" clip-rule="evenodd" d="M10 7.14286C8.43051 7.14286 7.14286 8.43051 7.14286 10C7.14286 11.5695 8.43051 12.8571 10 12.8571C11.5695 12.8571 12.8571 11.5695 12.8571 10C12.8571 8.43051 11.5695 7.14286 10 7.14286ZM10 8.57143C10.7974 8.57143 11.4286 9.20256 11.4286 10C11.4286 10.7974 10.7974 11.4286 10 11.4286C9.20256 11.4286 8.57143 10.7974 8.57143 10C8.57143 9.20256 9.20256 8.57143 10 8.57143Z" fill="var(--fill-0, #9DA3A7)"/>
</g>
<path id="path30412" d="M13.5714 6.42897C13.382 6.42897 13.2003 6.50422 13.0664 6.63818C12.9324 6.77213 12.8571 6.95382 12.8571 7.14326C12.8571 7.3327 12.9324 7.51437 13.0664 7.64832C13.2003 7.78228 13.382 7.85754 13.5714 7.85754C13.7609 7.85754 13.9426 7.78228 14.0765 7.64832C14.2105 7.51437 14.2857 7.3327 14.2857 7.14326C14.2857 6.95382 14.2105 6.77213 14.0765 6.63818C13.9426 6.50422 13.7609 6.42897 13.5714 6.42897Z" fill="var(--fill-0, #9DA3A7)"/>
</g>
</svg>
