<svg preserveAspectRatio="none" width="100%" height="100%" overflow="visible" style="display: block;" viewBox="0 0 16 16" fill="none" xmlns="http://www.w3.org/2000/svg">
<path id="search" d="M15.5 15.5L12.5833 12.5833M12.1667 6.33333C12.1667 7.09938 12.0158 7.85792 11.7226 8.56565C11.4295 9.27339 10.9998 9.91645 10.4581 10.4581C9.91645 10.9998 9.27339 11.4295 8.56565 11.7226C7.85792 12.0158 7.09938 12.1667 6.33333 12.1667C5.56729 12.1667 4.80875 12.0158 4.10101 11.7226C3.39328 11.4295 2.75022 10.9998 2.20854 10.4581C1.66687 9.91645 1.23719 9.27339 0.944036 8.56565C0.650884 7.85792 0.5 7.09938 0.5 6.33333C0.5 4.78624 1.11458 3.30251 2.20854 2.20854C3.30251 1.11458 4.78624 0.5 6.33333 0.5C7.88043 0.5 9.36416 1.11458 10.4581 2.20854C11.5521 3.30251 12.1667 4.78624 12.1667 6.33333Z" stroke="var(--stroke-0, #515151)" stroke-linecap="round"/>
</svg>
