<svg preserveAspectRatio="none" width="100%" height="100%" overflow="visible" style="display: block;" viewBox="0 0 14 12" fill="none" xmlns="http://www.w3.org/2000/svg">
<path id="Vector" d="M14 5.4C14 5.08174 13.8659 4.77652 13.6272 4.55147C13.3885 4.32643 13.0648 4.2 12.7273 4.2H8.70545L9.31636 1.458C9.32909 1.398 9.33545 1.332 9.33545 1.266C9.33545 1.02 9.22727 0.792 9.05545 0.63L8.38091 0L4.19364 3.948C3.95818 4.17 3.81818 4.47 3.81818 4.8V10.8C3.81818 11.1183 3.95227 11.4235 4.19095 11.6485C4.42964 11.8736 4.75336 12 5.09091 12H10.8182C11.3464 12 11.7982 11.7 11.9891 11.268L13.9109 7.038C13.9682 6.9 14 6.756 14 6.6V5.4ZM0 12H2.54545V4.8H0V12Z" fill="var(--fill-0, #00A511)"/>
</svg>
