<svg preserveAspectRatio="none" width="100%" height="100%" overflow="visible" style="display: block;" viewBox="0 0 16 16" fill="none" xmlns="http://www.w3.org/2000/svg">
<g id="Group">
<path id="Vector" d="M9.06697 11.2717C8.90341 11.2869 8.73919 11.25 8.59788 11.1662C8.49463 11.0602 8.44512 10.913 8.46334 10.7662C8.46716 10.6439 8.48175 10.5222 8.50697 10.4026C8.53137 10.2652 8.56291 10.1293 8.6015 9.99528L9.03059 8.5189C9.07484 8.37318 9.10409 8.22331 9.11788 8.07162C9.11788 7.908 9.13969 7.79525 9.13969 7.72981C9.14881 7.43815 9.02428 7.15828 8.8015 6.96981C8.52747 6.75943 8.18622 6.65603 7.8415 6.6789C7.59447 6.68262 7.34934 6.72306 7.11422 6.7989C6.85725 6.8789 6.58694 6.97465 6.30331 7.08618L6.17969 7.56618C6.26331 7.53709 6.36516 7.50437 6.4815 7.468C6.5925 7.43512 6.70756 7.41797 6.82331 7.41709C6.98569 7.3995 7.14913 7.43937 7.28513 7.52981C7.3775 7.64003 7.42084 7.78322 7.40513 7.92618C7.40472 8.04847 7.39131 8.17037 7.36513 8.28981C7.33966 8.41709 7.30694 8.55162 7.26694 8.69343L6.83422 10.1771C6.79934 10.315 6.77144 10.4545 6.75059 10.5952C6.73359 10.7157 6.72509 10.8372 6.72513 10.9589C6.72334 11.2525 6.85763 11.5305 7.08875 11.7116C7.367 11.9252 7.71312 12.0312 8.06328 12.0098C8.30984 12.0148 8.55556 11.9792 8.79056 11.9043C8.99663 11.834 9.27178 11.7334 9.61603 11.6025L9.73241 11.1443C9.63916 11.183 9.54313 11.2146 9.44513 11.2388C9.32119 11.2672 9.19394 11.2782 9.06697 11.2717Z" fill="var(--fill-0, #515151)"/>
<path id="Vector_2" d="M9.52174 4.27305C9.32384 4.0913 9.06309 3.99352 8.79446 4.00033C8.52599 3.99427 8.26549 4.09196 8.06718 4.27305C7.70368 4.58649 7.66309 5.13527 7.97656 5.4988C8.00449 5.53121 8.03478 5.56149 8.06718 5.58943C8.48131 5.95983 9.10762 5.95983 9.52171 5.58943C9.88521 5.2729 9.92331 4.72165 9.60678 4.35815C9.58046 4.32786 9.55203 4.29943 9.52174 4.27305Z" fill="var(--fill-0, #515151)"/>
<path id="Vector_3" d="M8 0C3.58172 0 0 3.58172 0 8C0 12.4183 3.58172 16 8 16C12.4183 16 16 12.4183 16 8C16 3.58172 12.4183 0 8 0ZM8 15.2727C3.98338 15.2727 0.727281 12.0166 0.727281 8C0.727281 3.98338 3.98338 0.727281 8 0.727281C12.0166 0.727281 15.2727 3.98338 15.2727 8C15.2727 12.0166 12.0166 15.2727 8 15.2727Z" fill="var(--fill-0, #515151)"/>
</g>
</svg>
