<svg preserveAspectRatio="none" width="100%" height="100%" overflow="visible" style="display: block;" viewBox="0 0 14.4904 20" fill="none" xmlns="http://www.w3.org/2000/svg">
<g id="Group">
<path id="Vector" d="M4.90253 18.828C2.84542 18.828 1.17187 17.1544 1.17187 15.0973V4.90259H0V15.0973C0 17.8006 2.19925 19.9999 4.90253 19.9999C5.61877 19.9999 6.3253 19.8411 6.96889 19.5424C6.6999 19.2483 6.46549 18.922 6.27221 18.5701C5.84163 18.7403 5.3801 18.828 4.90253 18.828Z" fill="var(--fill-0, #9DA3A7)"/>
<path id="Vector_2" d="M6.92715 12.8431V4.90256H5.75528V15.0973C5.75528 15.5676 5.37267 15.9503 4.90236 15.9503C4.43204 15.9503 4.04943 15.5676 4.04943 15.0973V3.46366C4.04943 2.19995 5.07751 1.17187 6.34122 1.17187C7.60493 1.17187 8.63301 2.19995 8.63301 3.46366V11.5967C9.00238 11.4324 9.39516 11.3116 9.80488 11.2407V3.46366C9.80488 1.55378 8.2511 0 6.34122 0C4.43134 0 2.87756 1.55378 2.87756 3.46366V15.0973C2.87756 16.2138 3.78587 17.1221 4.90236 17.1221C5.19251 17.1221 5.46864 17.0608 5.71837 16.9503C5.67833 16.6959 5.65751 16.4352 5.65751 16.1697C5.65751 14.8937 6.13782 13.7277 6.92715 12.8431Z" fill="var(--fill-0, #9DA3A7)"/>
<path id="Vector_3" d="M14.4904 16.1698C14.4904 14.0578 12.7722 12.3396 10.6602 12.3396C8.54816 12.3396 6.82996 14.0578 6.82996 16.1698C6.82996 18.2818 8.5482 20 10.6602 20C12.7722 20 14.4904 18.2818 14.4904 16.1698ZM12.6936 16.7525H11.2461V18.2H10.0742V16.7525H8.62675V15.5806H10.0742V14.1331H11.2461V15.5806H12.6936V16.7525Z" fill="var(--fill-0, #9DA3A7)"/>
</g>
</svg>
