<svg preserveAspectRatio="none" width="100%" height="100%" overflow="visible" style="display: block;" viewBox="0 0 20 20" fill="none" xmlns="http://www.w3.org/2000/svg">
<g id="Group">
<path id="Vector" d="M17.031 10.1563C17.031 9.72479 16.6812 9.37503 16.2498 9.37503C15.8183 9.37503 15.4685 9.72479 15.4685 10.1563C15.4685 13.1717 13.0152 15.625 9.99977 15.625C6.98431 15.625 4.53104 13.1717 4.53104 10.1563C4.53104 9.72479 4.18127 9.37503 3.74979 9.37503C3.3183 9.37503 2.96854 9.72479 2.96854 10.1563C2.96854 13.7692 5.70783 16.754 9.21852 17.1439V18.4375H6.87478C6.4433 18.4375 6.09353 18.7873 6.09353 19.2188C6.09353 19.6502 6.4433 20 6.87478 20H13.1248C13.5562 20 13.906 19.6502 13.906 19.2188C13.906 18.7873 13.5562 18.4375 13.1248 18.4375H10.781V17.1439C14.2917 16.754 17.031 13.7692 17.031 10.1563Z" fill="var(--fill-0, #9DA3A7)"/>
<path id="Vector_2" d="M9.99942 14.0625C7.84552 14.0625 6.09318 12.3101 6.09318 10.1562V3.90624C6.09318 1.75234 7.84552 0 9.99942 0C12.1533 0 13.9057 1.75234 13.9057 3.90624V10.1562C13.9057 12.3101 12.1533 14.0625 9.99942 14.0625ZM9.99942 1.5625C8.70708 1.5625 7.65567 2.6139 7.65567 3.90624V10.1562C7.65567 11.4486 8.70708 12.5 9.99942 12.5C11.2918 12.5 12.3432 11.4486 12.3432 10.1562V3.90624C12.3432 2.6139 11.2918 1.5625 9.99942 1.5625Z" fill="var(--fill-0, #9DA3A7)"/>
<path id="Vector_3" d="M3.74979 7.81239C3.3183 7.81239 2.96854 7.46263 2.96854 7.03115V5.46865C2.96854 5.03717 3.3183 4.6874 3.74979 4.6874C4.18127 4.6874 4.53104 5.03717 4.53104 5.46865V7.03115C4.53104 7.46263 4.18127 7.81239 3.74979 7.81239Z" fill="var(--fill-0, #9DA3A7)"/>
<path id="Vector_4" d="M0.781248 9.37485C0.349765 9.37485 0 9.02508 0 8.5936V3.90611C0 3.47463 0.349765 3.12486 0.781248 3.12486C1.21273 3.12486 1.5625 3.47463 1.5625 3.90611V8.5936C1.5625 9.02508 1.21273 9.37485 0.781248 9.37485Z" fill="var(--fill-0, #9DA3A7)"/>
<path id="Vector_5" d="M16.2501 7.81239C15.8186 7.81239 15.4689 7.46263 15.4689 7.03115V5.46865C15.4689 5.03717 15.8186 4.6874 16.2501 4.6874C16.6816 4.6874 17.0314 5.03717 17.0314 5.46865V7.03115C17.0314 7.46263 16.6816 7.81239 16.2501 7.81239Z" fill="var(--fill-0, #9DA3A7)"/>
<path id="Vector_6" d="M19.2187 9.37485C18.7872 9.37485 18.4374 9.02508 18.4374 8.5936V3.90611C18.4374 3.47463 18.7872 3.12486 19.2187 3.12486C19.6501 3.12486 19.9999 3.47463 19.9999 3.90611V8.5936C19.9999 9.02508 19.6501 9.37485 19.2187 9.37485Z" fill="var(--fill-0, #9DA3A7)"/>
</g>
</svg>
