<svg preserveAspectRatio="none" width="100%" height="100%" overflow="visible" style="display: block;" viewBox="0 0 24 24" fill="none" xmlns="http://www.w3.org/2000/svg">
<g id="tag_faces_black_24dp 1" clip-path="url(#clip0_187_19322)">
<g id="Vector">
</g>
<g id="Group 1410117372">
<path id="Vector_2" d="M12 22C10.0222 22 8.08879 21.4135 6.4443 20.3147C4.79981 19.2159 3.51809 17.6541 2.76121 15.8268C2.00433 13.9996 1.8063 11.9889 2.19215 10.0491C2.578 8.10929 3.53041 6.32746 4.92894 4.92894C6.32746 3.53041 8.10929 2.578 10.0491 2.19215C11.9889 1.8063 13.9996 2.00433 15.8268 2.76121C17.6541 3.51809 19.2159 4.79981 20.3147 6.4443C21.4135 8.08879 22 10.0222 22 12C21.9971 14.6513 20.9426 17.1931 19.0678 19.0678C17.1931 20.9426 14.6513 21.9971 12 22ZM12 3.00584C10.2211 3.00584 8.4822 3.53334 7.00311 4.52163C5.52403 5.50992 4.37123 6.91462 3.69048 8.55809C3.00973 10.2016 2.83162 12.01 3.17866 13.7547C3.5257 15.4994 4.38231 17.102 5.64017 18.3598C6.89802 19.6177 8.50063 20.4743 10.2453 20.8213C11.99 21.1684 13.7985 20.9903 15.4419 20.3095C17.0854 19.6288 18.4901 18.476 19.4784 16.9969C20.4667 15.5178 20.9942 13.7789 20.9942 12C20.992 9.61526 20.0438 7.32879 18.3575 5.64252C16.6712 3.95625 14.3847 3.00797 12 3.00584Z" fill="var(--fill-0, #9DA3A7)" stroke="var(--stroke-0, #9DA3A7)" stroke-width="0.3"/>
<path id="Vector_3" d="M16.7216 13.7544C16.3496 14.7036 15.7002 15.5186 14.8581 16.0931C14.0159 16.6676 13.0201 16.9748 12.0007 16.9748C10.9813 16.9748 9.98549 16.6676 9.14334 16.0931C8.30119 15.5186 7.65177 14.7036 7.27982 13.7544C7.02937 13.1609 6.16234 13.6729 6.41179 14.2623C6.87368 15.3636 7.6506 16.3039 8.64501 16.9651C9.63942 17.6264 10.807 17.9791 12.0012 17.9791C13.1954 17.9791 14.363 17.6264 15.3574 16.9651C16.3518 16.3039 17.1287 15.3636 17.5906 14.2623C17.8391 13.6729 16.973 13.1559 16.7216 13.7544Z" fill="var(--fill-0, #9DA3A7)" stroke="var(--stroke-0, #9DA3A7)" stroke-width="0.3"/>
<path id="Vector_4" d="M8.98385 10.2529C9.67824 10.2529 10.2411 9.68996 10.2411 8.99557C10.2411 8.30119 9.67824 7.73828 8.98385 7.73828C8.28947 7.73828 7.72656 8.30119 7.72656 8.99557C7.72656 9.68996 8.28947 10.2529 8.98385 10.2529Z" fill="var(--fill-0, #9DA3A7)" stroke="var(--stroke-0, #9DA3A7)" stroke-width="0.3"/>
<path id="Vector_5" d="M15.019 10.2529C15.7134 10.2529 16.2763 9.68996 16.2763 8.99557C16.2763 8.30119 15.7134 7.73828 15.019 7.73828C14.3246 7.73828 13.7617 8.30119 13.7617 8.99557C13.7617 9.68996 14.3246 10.2529 15.019 10.2529Z" fill="var(--fill-0, #9DA3A7)" stroke="var(--stroke-0, #9DA3A7)" stroke-width="0.3"/>
</g>
</g>
<defs>
<clipPath id="clip0_187_19322">
<rect width="24" height="24" fill="white"/>
</clipPath>
</defs>
</svg>
