<svg preserveAspectRatio="none" width="100%" height="100%" overflow="visible" style="display: block;" viewBox="0 0 18 18" fill="none" xmlns="http://www.w3.org/2000/svg">
<g id="Group 34979">
<path id="Rectangle 13779" d="M18 9C18 4.02944 13.9706 0 9 0C4.02944 0 0 4.02944 0 9C0 13.9706 4.02944 18 9 18C13.9706 18 18 13.9706 18 9Z" fill="var(--fill-0, #55347B)" fill-opacity="0.1"/>
<path id="Icon metro-pin" d="M11.5159 9.37231L6.83697 9.37234C6.69839 9.369 6.56054 9.3934 6.43154 9.44411C6.30253 9.49482 6.18497 9.57082 6.08577 9.66764C5.98657 9.76446 5.90773 9.88014 5.8539 10.0079C5.80006 10.1356 5.77232 10.2728 5.77229 10.4114C5.77227 10.5501 5.79997 10.6873 5.85376 10.815C5.90755 10.9428 5.98635 11.0585 6.08552 11.1553C6.18469 11.2522 6.30223 11.3282 6.43122 11.379C6.56021 11.4297 6.69804 11.4542 6.83662 11.4509L11.5185 11.45C11.7873 11.4396 12.0416 11.3254 12.2279 11.1314C12.4143 10.9375 12.5182 10.6788 12.5179 10.4099C12.5175 10.1409 12.4129 9.88252 12.2261 9.68904C12.0392 9.49556 11.7847 9.38203 11.5159 9.37231ZM7.35645 8.85162L10.9968 8.85272L10.4325 5.73243L7.91989 5.73298L7.35645 8.85162ZM9.17626 16.6506L9.9561 11.9718L8.39634 11.9716L9.17626 16.6506ZM10.736 3.65234L7.61688 3.65258C7.51306 3.65034 7.40983 3.66884 7.31325 3.70702C7.21667 3.7452 7.12869 3.80228 7.05446 3.8749C6.98024 3.94753 6.92126 4.03425 6.88099 4.12998C6.84072 4.2257 6.81997 4.3285 6.81996 4.43235C6.81994 4.5362 6.84067 4.63901 6.88091 4.73475C6.92115 4.83048 6.98011 4.91722 7.05431 4.98987C7.12852 5.06252 7.21649 5.11962 7.31306 5.15782C7.40963 5.19602 7.51285 5.21456 7.61667 5.21234L10.7362 5.21276C10.8406 5.21594 10.9446 5.19812 11.042 5.16036C11.1394 5.1226 11.2282 5.06565 11.3032 4.99291C11.3781 4.92017 11.4377 4.83312 11.4784 4.73691C11.5191 4.6407 11.5401 4.53729 11.54 4.43283C11.54 4.32837 11.519 4.22498 11.4783 4.1288C11.4375 4.03261 11.3779 3.94559 11.3029 3.87289C11.2278 3.80019 11.139 3.7433 11.0416 3.7056C10.9442 3.66789 10.8402 3.65013 10.7357 3.65338L10.736 3.65234Z" fill="var(--fill-0, #616161)"/>
</g>
</svg>
