<svg preserveAspectRatio="none" width="100%" height="100%" overflow="visible" style="display: block;" viewBox="0 0 16.5337 17.0129" fill="none" xmlns="http://www.w3.org/2000/svg">
<g id="Group 29596">
<path id="Path 197372" d="M16.039 5.44683C16.3703 5.84151 16.546 6.34367 16.533 6.85883C16.5086 7.30464 16.3473 7.73207 16.071 8.08283C16.2364 8.44852 16.2818 8.85721 16.2006 9.25028C16.1194 9.64336 15.9158 10.0006 15.619 10.2708C14.7911 10.8592 13.7675 11.104 12.763 10.9538C12.1747 10.9255 11.5895 10.8506 11.013 10.7298C10.835 10.6978 10.647 10.6588 10.455 10.6158C10.484 11.3252 10.6345 12.0243 10.9 12.6828C11.4 14.1978 11.37 15.3578 10.808 16.1338C10.5945 16.4103 10.3199 16.6335 10.0057 16.786C9.69151 16.9385 9.34625 17.0161 8.997 17.0128C8.86675 17.0138 8.73785 16.9864 8.61934 16.9323C8.50084 16.8782 8.3956 16.7989 8.311 16.6998C8.00297 16.1902 7.89601 15.5841 8.011 14.9998C7.541 13.7408 6.225 10.6528 5.111 9.79983C5.09038 9.7851 5.07129 9.76835 5.054 9.74983C4.76445 9.44225 4.52791 9.08879 4.354 8.70383C4.13913 8.82053 3.89852 8.88172 3.654 8.88183H1.48C1.08739 8.88156 0.710946 8.72541 0.433421 8.4477C0.155896 8.16999 -8.95002e-08 7.79344 0 7.40083V1.61983C0.000264893 1.22739 0.156278 0.851098 0.433775 0.573602C0.711271 0.296105 1.08756 0.140092 1.48 0.139827H3.65C3.95439 0.140092 4.25126 0.234392 4.5 0.409827L5.336 0.309827C6.91019 0.118531 8.49534 0.0320074 10.081 0.0508274C10.5 0.0188274 10.9 0.00082739 11.272 0.00082739C11.827 -0.00716554 12.3813 0.0427715 12.926 0.149827C13.3718 0.204564 13.8004 0.355741 14.1818 0.592848C14.5633 0.829956 14.8886 1.1473 15.135 1.52283C15.3616 1.93844 15.4466 2.41659 15.377 2.88483C15.6446 3.1096 15.8566 3.39314 15.9966 3.71335C16.1366 4.03355 16.2007 4.38176 16.184 4.73083C16.1725 4.97549 16.1236 5.21696 16.039 5.44683ZM1.48 1.10083C1.34243 1.10109 1.21058 1.15586 1.1133 1.25313C1.01603 1.35041 0.961264 1.48226 0.961 1.61983V7.40083C0.961264 7.53839 1.01603 7.67025 1.1133 7.76752C1.21058 7.8648 1.34243 7.91956 1.48 7.91983H3.65C3.78757 7.91956 3.91942 7.8648 4.0167 7.76752C4.11397 7.67025 4.16874 7.53839 4.169 7.40083V1.62283C4.16926 1.55446 4.15604 1.4867 4.13009 1.42345C4.10414 1.36019 4.06596 1.30268 4.01776 1.25419C3.96955 1.20571 3.91226 1.1672 3.84915 1.14089C3.78605 1.11457 3.71837 1.10096 3.65 1.10083H1.48ZM15.128 5.86283C15.0548 5.78678 15.0088 5.68865 14.9972 5.58373C14.9857 5.47881 15.0091 5.373 15.064 5.28283C15.1597 5.09853 15.2156 4.89614 15.228 4.68883C15.2321 4.44338 15.1726 4.20105 15.0554 3.98536C14.9381 3.76967 14.7672 3.58795 14.559 3.45783C14.4782 3.39508 14.4193 3.30838 14.3907 3.21013C14.3622 3.11188 14.3654 3.00712 14.4 2.91083C14.4844 2.60323 14.4487 2.27503 14.3 1.99283C14.1157 1.74096 13.8806 1.53067 13.6097 1.37561C13.3389 1.22056 13.0385 1.12421 12.728 1.09283C11.8715 0.946725 10.9988 0.920474 10.135 1.01483H10.085C8.53978 0.997306 6.99509 1.08182 5.461 1.26783L5.1 1.30683C5.12156 1.40976 5.13228 1.51466 5.132 1.61983V7.40083C5.13137 7.55039 5.10845 7.69902 5.064 7.84183C5.18531 8.29503 5.41216 8.71309 5.726 9.06183C7.32 10.3308 8.882 14.6008 8.95 14.7878C8.97832 14.8638 8.98557 14.9461 8.971 15.0258C8.90508 15.3687 8.92084 15.7222 9.017 16.0578C9.20906 16.0582 9.39874 16.0153 9.57189 15.9322C9.74503 15.8491 9.89719 15.7279 10.017 15.5778C10.2011 15.1703 10.2927 14.7271 10.2853 14.28C10.2778 13.8329 10.1715 13.393 9.974 12.9918C9.374 11.1808 9.327 10.2278 9.8 9.80783C9.90498 9.71754 10.0322 9.65702 10.1685 9.63258C10.3048 9.60813 10.4452 9.62065 10.575 9.66883C10.792 9.71883 10.998 9.76083 11.194 9.79383L11.24 9.80483C12.332 10.0428 14.288 10.1888 14.968 9.56983C15.1365 9.40118 15.2408 9.17899 15.2629 8.94164C15.2849 8.70429 15.2235 8.46667 15.089 8.26983C15.0261 8.17375 15.0001 8.05818 15.0157 7.94443C15.0313 7.83068 15.0876 7.7264 15.174 7.65083C15.3986 7.42924 15.5384 7.13587 15.569 6.82183C15.5654 6.64025 15.5243 6.46137 15.4484 6.29637C15.3726 6.13136 15.2635 5.98378 15.128 5.86283Z" fill="var(--fill-0, #FF0000)"/>
</g>
</svg>
