<svg preserveAspectRatio="none" width="100%" height="100%" overflow="visible" style="display: block;" viewBox="0 0 19 19" fill="none" xmlns="http://www.w3.org/2000/svg">
<path id="search" d="M18.5 18.5L15 15M14.5 7.5C14.5 8.41925 14.3189 9.32951 13.9672 10.1788C13.6154 11.0281 13.0998 11.7997 12.4497 12.4497C11.7997 13.0998 11.0281 13.6154 10.1788 13.9672C9.32951 14.3189 8.41925 14.5 7.5 14.5C6.58075 14.5 5.6705 14.3189 4.82122 13.9672C3.97194 13.6154 3.20026 13.0998 2.55025 12.4497C1.90024 11.7997 1.38463 11.0281 1.03284 10.1788C0.68106 9.32951 0.5 8.41925 0.5 7.5C0.5 5.64348 1.2375 3.86301 2.55025 2.55025C3.86301 1.2375 5.64348 0.5 7.5 0.5C9.35652 0.5 11.137 1.2375 12.4497 2.55025C13.7625 3.86301 14.5 5.64348 14.5 7.5Z" stroke="var(--stroke-0, #999999)" stroke-linecap="round"/>
</svg>
