<svg preserveAspectRatio="none" width="100%" height="100%" overflow="visible" style="display: block;" viewBox="0 0 15.9999 16" fill="none" xmlns="http://www.w3.org/2000/svg">
<g id="cross">
<path id="Path 197368" d="M7.99994 0C9.58218 0 11.1289 0.469192 12.4445 1.34824C13.7601 2.22729 14.7854 3.47672 15.3909 4.93853C15.9964 6.40034 16.1548 8.00887 15.8462 9.56072C15.5375 11.1126 14.7756 12.538 13.6568 13.6569C12.5379 14.7757 11.1125 15.5376 9.56065 15.8463C8.00882 16.155 6.4003 15.9965 4.9385 15.391C3.4767 14.7855 2.22728 13.7602 1.34823 12.4446C0.469188 11.129 0 9.58225 0 8C0 5.87827 0.842849 3.84344 2.34313 2.34315C3.84341 0.842855 5.87823 0 7.99994 0Z" fill="var(--fill-0, #565656)"/>
<g id="Union 6">
<g id="Vector">
</g>
<path id="Vector_2" d="M4.89733 11.7498C4.75361 11.7498 4.60991 11.6949 4.50027 11.5853C4.28109 11.366 4.28117 11.0105 4.50046 10.7913L7.31206 7.98102L4.50037 5.16931C4.28113 4.95007 4.28113 4.59461 4.50037 4.37537C4.7196 4.15613 5.07507 4.15613 5.2943 4.37537L8.10599 7.18708L10.9163 4.37546C11.1355 4.15617 11.4909 4.15609 11.7102 4.37528C11.9295 4.59446 11.9296 4.94993 11.7104 5.16922L8.89993 7.98102L11.7103 10.7914C11.9295 11.0106 11.9295 11.3661 11.7103 11.5853C11.4911 11.8046 11.1356 11.8046 10.9164 11.5853L8.106 8.77496L5.29421 11.5854C5.18461 11.695 5.04096 11.7498 4.89733 11.7498Z" fill="var(--fill-0, white)"/>
</g>
</g>
</svg>
