<svg preserveAspectRatio="none" width="100%" height="100%" overflow="visible" style="display: block;" viewBox="0 0 22 22" fill="none" xmlns="http://www.w3.org/2000/svg">
<g id="Group 1410117870">
<rect id="Rectangle 39451" x="8" y="4" width="6" height="14" fill="var(--fill-0, white)"/>
<path id="Vector" fill-rule="evenodd" clip-rule="evenodd" d="M22 11C22 17.0753 17.0753 22 11 22C4.9247 22 0 17.0753 0 11C0 4.9247 4.9247 0 11 0C17.0753 0 22 4.9247 22 11ZM9.9 6.6C9.9 6.89174 10.0159 7.17153 10.2222 7.37782C10.4285 7.58411 10.7083 7.7 11 7.7H11.0088C11.3005 7.7 11.5803 7.58411 11.7866 7.37782C11.9929 7.17153 12.1088 6.89174 12.1088 6.6C12.1088 6.30826 11.9929 6.02847 11.7866 5.82218C11.5803 5.61589 11.3005 5.5 11.0088 5.5H11C10.7083 5.5 10.4285 5.61589 10.2222 5.82218C10.0159 6.02847 9.9 6.30826 9.9 6.6ZM11 16.5C11.2917 16.5 11.5715 16.3841 11.7778 16.1778C11.9841 15.9715 12.1 15.6917 12.1 15.4V9.9C12.1 9.60826 11.9841 9.32847 11.7778 9.12218C11.5715 8.91589 11.2917 8.8 11 8.8C10.7083 8.8 10.4285 8.91589 10.2222 9.12218C10.0159 9.32847 9.9 9.60826 9.9 9.9V15.4C9.9 15.6917 10.0159 15.9715 10.2222 16.1778C10.4285 16.3841 10.7083 16.5 11 16.5Z" fill="var(--fill-0, #FE9A00)"/>
</g>
</svg>
