<svg preserveAspectRatio="none" width="100%" height="100%" overflow="visible" style="display: block;" viewBox="0 0 14.5 17.5" fill="none" xmlns="http://www.w3.org/2000/svg">
<path id="Vector" d="M3.53571 6.97222V4.30556C3.53571 2.34111 5.19786 0.75 7.25 0.75C9.30214 0.75 10.9643 2.34111 10.9643 4.30556V6.97222M7.25 11.4167C7.49627 11.4167 7.73246 11.323 7.9066 11.1563C8.08074 10.9896 8.17857 10.7635 8.17857 10.5278C8.17857 10.292 8.08074 10.0659 7.9066 9.89924C7.73246 9.73254 7.49627 9.63889 7.25 9.63889C7.00373 9.63889 6.76754 9.73254 6.5934 9.89924C6.41926 10.0659 6.32143 10.292 6.32143 10.5278C6.32143 10.7635 6.41926 10.9896 6.5934 11.1563C6.76754 11.323 7.00373 11.4167 7.25 11.4167ZM7.25 11.4167V14.0833M2.23571 6.97222H12.2643C13.0814 6.97222 13.75 7.61222 13.75 8.39444V14.6167C13.75 15.79 12.7471 16.75 11.5214 16.75H2.97857C1.75286 16.75 0.75 15.79 0.75 14.6167V8.39444C0.75 7.61222 1.41857 6.97222 2.23571 6.97222Z" stroke="var(--stroke-0, #FE9A00)" stroke-width="1.5" stroke-miterlimit="10" stroke-linecap="round" stroke-linejoin="round"/>
</svg>
