<svg xmlns="http://www.w3.org/2000/svg" viewBox="0 0 144.0622 29.9877" fill="none">
  <!--
    Composite of Figma V2 file EM0QU7aqBCCK95WvV8Qwt5, node 1:11908 (Group 35318).
    Positions/sizes verbatim from get_metadata; viewBoxes verbatim from each
    part's SVG export. No values invented.

    Children (logo-local x,y,w,h | viewBox):
      1:11910 red flame   | x=20.4453 y=0      w=18.0832 h=29.9877 | 18.0832 x 29.9877
      1:11919 lamp base   | x=0       y=0      w=18.0813 h=29.9877 | 18.0813 x 29.9877
      1:11922 lamp neck   | x=4.2422  y=1.9219 w=9.5227  h=25.4491 | 9.5227  x 25.4491
      1:11929 wordmark    | x=42      y=4      w=102.062 h=21.995  | 102.062 x 21.995
  -->
  <svg x="20.4453" y="0" width="18.0832" height="29.9877" viewBox="0 0 18.0832 29.9877" overflow="visible">
    <g>
      <path fill-rule="evenodd" clip-rule="evenodd" d="M3.23438 6.01913C3.23438 6.01913 5.31132 6.5782 5.31132 10.3109V14.8515C5.29636 15.3363 5.38438 15.8187 5.56957 16.267C5.75476 16.7152 6.03292 17.1191 6.38568 17.452C6.73843 17.7848 7.15776 18.0391 7.616 18.198C8.07424 18.3568 8.56097 18.4167 9.04406 18.3737C9.04406 18.3737 12.7405 18.5926 12.7405 14.8515V13.8331C12.7405 13.8331 8.8577 5.00161 3.23438 6.01913Z" fill="#E02D15"/>
      <path fill-rule="evenodd" clip-rule="evenodd" d="M12.7198 13.0509C11.774 11.1135 10.5026 9.35295 8.96094 7.84591C8.96094 7.84591 10.572 4.662 14.8591 5.47731C14.8591 5.47265 12.2539 5.50806 12.7198 13.0509Z" fill="#FFCC28"/>
      <path fill-rule="evenodd" clip-rule="evenodd" d="M8.66656 7.58597C8.11681 7.06588 7.48561 6.63931 6.79801 6.32319C6.79801 6.32319 7.00211 4.45185 5.67969 3.73891C6.55804 3.56376 7.47009 3.73487 8.22524 4.21647C8.98038 4.69807 9.52016 5.4529 9.73176 6.32319C9.30317 6.67615 8.94225 7.10402 8.66656 7.58597Z" fill="#8B4083"/>
      <path fill-rule="evenodd" clip-rule="evenodd" d="M8.89062 4.24095C9.3901 4.75744 9.76551 5.3808 9.98845 6.06383C10.307 5.82458 10.6546 5.62667 11.0229 5.47484C11.0229 5.47484 10.8691 3.4311 12.0862 2.94928C11.4854 2.80491 10.8545 2.85179 10.2816 3.08335C9.70868 3.31492 9.22239 3.71963 8.89062 4.24095Z" fill="#BDB400"/>
      <path d="M0.742188 24.3066C1.31131 23.5166 2.15449 22.9671 3.10705 22.7655C3.27631 22.7392 3.44732 22.7258 3.6186 22.7254C4.45098 22.758 5.26094 23.0045 5.97043 23.441C6.92458 23.9768 7.73244 24.5228 8.44432 25.0055C10.0125 26.0659 11.2546 26.9045 12.9933 26.9622C13.0296 26.9622 13.0651 26.9622 13.1023 26.9622C13.6132 26.9648 14.1162 26.8365 14.5634 26.5895C14.9916 26.3458 15.3488 25.9944 15.5995 25.5701C15.8162 25.226 15.9343 24.829 15.9411 24.4224C15.9478 24.0158 15.8429 23.6151 15.6377 23.264C15.3472 22.8101 14.9153 22.4646 14.4087 22.2809C13.8575 22.0824 13.2743 21.9876 12.6886 22.0014C12.56 22.0014 12.4286 22.0014 12.2954 22.0107C12.1482 22.0191 12.0038 22.0238 11.8659 22.0238C11.4728 22.0704 11.0743 22.0325 10.6971 21.9124C10.3199 21.7924 9.97273 21.593 9.67895 21.3277C9.45833 21.0286 9.36275 20.6553 9.41245 20.2869C10.6992 20.2161 14.5568 19.6132 14.5568 14.8826V10.0429C14.5568 10.0429 14.4217 7.4469 15.538 6.99219C15.538 6.99219 13.3129 6.96703 13.3129 10.5647V14.9366C13.264 16.0453 12.7891 17.0924 11.9872 17.8596C11.1853 18.6269 10.1183 19.0551 9.00852 19.0551C7.89871 19.0551 6.83172 18.6269 6.02985 17.8596C5.22798 17.0924 4.75309 16.0453 4.70414 14.9366V10.5647C4.70414 6.96797 2.48276 6.99219 2.48276 6.99219C3.59438 7.4469 3.46486 10.0429 3.46486 10.0429V14.8835C3.46486 19.5061 7.15101 20.1881 8.51514 20.2823C8.46176 20.8551 8.62833 21.4267 8.98103 21.8812C9.35189 22.2606 9.80409 22.5509 10.3035 22.7301C10.8029 22.9092 11.3365 22.9726 11.864 22.9155C12.0168 22.9155 12.1789 22.9155 12.3411 22.9024C12.4594 22.8968 12.574 22.895 12.6877 22.895C13.0934 22.8409 13.5062 22.8893 13.8884 23.0357C14.2705 23.1822 14.6099 23.4222 14.8755 23.7336C14.9948 23.9478 15.0533 24.1905 15.0447 24.4354C15.0362 24.6804 14.9609 24.9185 14.8271 25.1238C14.6485 25.4198 14.3948 25.6634 14.0917 25.8298C13.7887 25.9962 13.447 26.0796 13.1014 26.0714H13.0241C11.5379 26.0211 10.4505 25.2869 8.94283 24.2647C8.21697 23.7727 7.38954 23.2164 6.40465 22.662C5.56436 22.1481 4.60496 21.8614 3.62048 21.83C3.40196 21.8304 3.18383 21.8485 2.96822 21.884C2.13259 22.0341 1.35913 22.4254 0.743119 23.0096L0.742188 24.3066Z" fill="#161615"/>
      <path d="M17.3033 28.6627C17.3033 28.8072 17.2458 28.9459 17.1436 29.0481C17.0414 29.1503 16.9027 29.2078 16.7582 29.2078V29.9867C17.1094 29.9865 17.4461 29.8469 17.6945 29.5987C17.9429 29.3505 18.0827 29.0138 18.0832 28.6627H17.3033ZM16.7582 29.2078H1.31942V29.9867H16.7554V29.2078H16.7582ZM1.31942 29.2078C1.24803 29.2082 1.17729 29.1943 1.11136 29.1669C1.04543 29.1395 0.985637 29.0993 0.935519 29.0484C0.884868 28.998 0.844709 28.938 0.817361 28.872C0.790014 28.8059 0.776021 28.7351 0.776186 28.6636H8.21968e-06C-0.000481944 28.8372 0.0332804 29.0092 0.099356 29.1698C0.165432 29.3304 0.262524 29.4763 0.385079 29.5993C0.507634 29.7223 0.653245 29.8199 0.813572 29.8865C0.973899 29.9532 1.14579 29.9866 1.31942 29.9867V29.2078ZM0.776186 28.6636V1.32686H8.21968e-06V28.6636H0.776186ZM0.776186 1.32593C0.775941 1.25439 0.789806 1.18351 0.816984 1.11733C0.844163 1.05116 0.884125 0.990991 0.934581 0.940276C0.985037 0.88956 1.045 0.849291 1.11103 0.821773C1.17707 0.794255 1.24788 0.780027 1.31942 0.779905V0C1.14567 0.00024398 0.973674 0.0347541 0.813281 0.101555C0.652887 0.168356 0.507244 0.266137 0.384688 0.389297C0.262133 0.512458 0.165074 0.658582 0.0990645 0.819303C0.0330553 0.980023 -0.000604603 1.15218 8.21968e-06 1.32593H0.776186ZM1.31942 0.779905H16.7554V0H1.31942V0.779905ZM16.7582 0.779905C16.8299 0.779782 16.9009 0.793828 16.9671 0.821236C17.0334 0.848645 17.0936 0.888875 17.1442 0.939615C17.1949 0.990355 17.235 1.0506 17.2623 1.1169C17.2896 1.1832 17.3035 1.25424 17.3033 1.32593H18.0832C18.0832 0.974434 17.9436 0.63732 17.6952 0.388686C17.4467 0.140052 17.1097 0.000247012 16.7582 0V0.779905ZM17.3033 1.32593V28.6627H18.0832V1.32686L17.3033 1.32593Z" fill="#161615"/>
    </g>
  </svg>
  <svg x="0" y="0" width="18.0813" height="29.9877" viewBox="0 0 18.0813 29.9877" overflow="visible">
    <path d="M17.3051 28.6627C17.3049 28.8068 17.2476 28.9451 17.1459 29.0472C17.0441 29.1493 16.9061 29.207 16.7619 29.2078V29.9867C16.9355 29.9866 17.1074 29.9523 17.2678 29.8856C17.4281 29.819 17.5737 29.7214 17.6962 29.5984C17.8188 29.4754 17.9159 29.3294 17.982 29.1689C18.048 29.0083 18.0818 28.8363 18.0813 28.6627H17.3051ZM16.7619 29.2078H1.32035V29.9867H16.7619V29.2078ZM1.32128 29.2078C1.24991 29.2081 1.1792 29.1941 1.11328 29.1668C1.04736 29.1394 0.987564 29.0992 0.937382 29.0484C0.836687 28.9455 0.77961 28.8076 0.778048 28.6636H5.25458e-06C-0.000362335 28.8373 0.0335422 29.0095 0.0997778 29.1701C0.166013 29.3307 0.26328 29.4767 0.386008 29.5997C0.508736 29.7227 0.654517 29.8203 0.815003 29.8868C0.97549 29.9534 1.14753 29.9877 1.32128 29.9877V29.2078ZM0.778048 28.6636V1.32686H5.25458e-06V28.6636H0.778048ZM0.778048 1.32593C0.778541 1.18116 0.835741 1.04234 0.937382 0.939241C0.987657 0.888618 1.04747 0.848469 1.11337 0.821119C1.17927 0.793769 1.24993 0.77976 1.32128 0.779905V0C1.14741 0.000121839 0.97527 0.034536 0.814717 0.101271C0.654164 0.168005 0.50835 0.265751 0.385622 0.388912C0.262894 0.512073 0.165661 0.65823 0.0994916 0.819016C0.0333224 0.979803 -0.000484908 1.15206 5.25458e-06 1.32593H0.778048ZM1.32128 0.779905H16.7619V0H1.32035V0.779905H1.32128ZM16.7619 0.779905C16.9056 0.780373 17.0433 0.837652 17.1449 0.939241C17.196 0.989769 17.2365 1.05 17.264 1.11641C17.2916 1.18281 17.3055 1.25405 17.3051 1.32593H18.0813C18.0819 1.15218 18.0483 0.980023 17.9823 0.819303C17.9162 0.658582 17.8192 0.512458 17.6966 0.389297C17.5741 0.266137 17.4284 0.168356 17.268 0.101555C17.1076 0.0347541 16.9357 0.00024398 16.7619 0V0.779905ZM17.3051 1.32593V28.6627H18.0813V1.32686L17.3051 1.32593Z" fill="#161615"/>
  </svg>
  <svg x="4.2422" y="1.9219" width="9.5227" height="25.4491" viewBox="0 0 9.5227 25.4491" overflow="visible">
    <g>
      <path fill-rule="evenodd" clip-rule="evenodd" d="M0.569305 15.0047C0.575469 14.9393 0.605465 14.8785 0.653579 14.8338C0.701692 14.7891 0.76456 14.7637 0.830204 14.7624C0.830204 14.7624 3.12333 14.5295 3.12333 17.3798V21.1069C3.08721 21.3701 3.11203 21.638 3.19588 21.8901C3.27972 22.1421 3.42035 22.3716 3.60692 22.5606C3.79348 22.7497 4.02098 22.8934 4.27188 22.9806C4.52278 23.0679 4.79037 23.0963 5.05399 23.0637C5.31468 23.0735 5.57452 23.0285 5.81671 22.9315C6.05889 22.8346 6.27803 22.6879 6.45993 22.5009C6.64183 22.3139 6.78244 22.0908 6.87267 21.846C6.9629 21.6012 7.00073 21.3402 6.98372 21.0799C6.98372 20.3233 6.9744 20.3233 6.9744 20.3233C6.9744 20.3233 6.98372 20.1453 6.72375 20.1453H6.11809C6.11809 20.1453 5.74538 20.2124 5.74538 19.6701V17.3407C5.74538 17.3407 5.71742 14.7587 7.82885 14.7587C9.15012 14.7587 9.16969 14.768 9.16969 14.768C9.2135 14.7629 9.2579 14.7674 9.29976 14.7813C9.34163 14.7952 9.37994 14.8181 9.412 14.8484C9.44407 14.8787 9.4691 14.9156 9.48536 14.9566C9.50161 14.9976 9.50868 15.0417 9.50606 15.0857C9.51445 22.9127 9.5219 21.6371 9.51445 21.8691C9.51445 21.8691 9.60763 25.4407 5.04188 25.4491C4.01691 25.4491 0.563714 25.3754 0.563714 21.434C0.559055 13.9676 0.569305 15.0047 0.569305 15.0047Z" fill="#161615"/>
      <path fill-rule="evenodd" clip-rule="evenodd" d="M0.559447 8.64844C0.559447 8.64844 0.00689614 10.7235 2.60099 12.3933C2.91739 12.5567 3.19772 12.7821 3.42532 13.056C3.65292 13.3299 3.82314 13.6467 3.92588 13.9877C4.02862 14.3287 4.06177 14.6868 4.02337 15.0409C3.98498 15.3949 3.87581 15.7377 3.70236 16.0487C3.54312 15.3668 3.12841 14.772 2.54369 14.3868C1.95897 14.0017 1.24878 13.8554 0.559447 13.9783C0.190506 13.1383 0 12.2308 0 11.3133C0 10.3959 0.190506 9.48844 0.559447 8.64844Z" fill="#E02D15"/>
      <path fill-rule="evenodd" clip-rule="evenodd" d="M5.11282 15.9525C5.11282 15.9525 8.10479 13.1395 4.51462 10.2761C4.51462 10.2761 1.2692 7.68478 2.8374 4.23438C2.10819 4.9223 1.58356 5.79858 1.32158 6.76624C1.05961 7.73389 1.0705 8.75516 1.35307 9.71701C1.82989 10.7477 2.6337 11.5921 3.63967 12.1191C4.2448 12.5335 4.70972 13.122 4.97281 13.8066C5.23589 14.4912 5.28472 15.2395 5.11282 15.9525Z" fill="#FFCC28"/>
      <path fill-rule="evenodd" clip-rule="evenodd" d="M6.76398 9.29364C6.76398 9.29364 2.07337 7.85775 3.66579 3.85946C3.88998 3.35582 4.22132 2.90714 4.63671 2.54471C5.00634 2.23468 5.30012 1.84418 5.49554 1.4031C5.69097 0.962022 5.78285 0.48207 5.76417 0C5.96766 0.617562 6.03962 1.27088 5.97543 1.91793C5.91124 2.56497 5.71231 3.19142 5.39146 3.75696C5.39146 3.75696 3.75804 7.27818 6.76398 9.29364Z" fill="#BDB400"/>
      <path fill-rule="evenodd" clip-rule="evenodd" d="M4.27344 8.67188C4.57544 9.26727 4.99783 9.79345 5.51385 10.217C6.11311 10.6823 6.55515 11.3202 6.78031 12.0447C7.00546 12.7691 7.00288 13.5452 6.77291 14.2682C6.77291 14.2682 7.05248 13.8702 9.4979 13.9979C9.4979 13.9979 9.96387 10.3391 6.85584 9.84333C5.892 9.73875 4.98699 9.32821 4.27344 8.67188Z" fill="#8B4083"/>
    </g>
  </svg>
  <svg x="42" y="4" width="102.062" height="21.995" viewBox="0 0 102.062 21.995" overflow="visible">
    <g>
      <path d="M102.042 7.38247H67.2679V7.33686C67.2679 5.06368 66.5282 3.4722 65.0859 2.60311C61.6441 0.543185 55.6184 3.67067 54.9453 4.03433L55.8144 5.66032C57.3948 4.81096 61.9708 2.88911 64.1342 4.18842C64.6112 4.54957 64.9824 5.03213 65.2092 5.58573C65.4361 6.13932 65.5101 6.74365 65.4237 7.33563V7.38124H56.146V9.23037H61.1559V13.4994L61.4259 13.7656L62.9052 15.2449L63.3897 15.3473L63.9037 15.4483L66.9967 14.1946C67.0914 15.2499 66.8405 16.3073 66.2817 17.2075C65.9397 17.6384 65.5053 17.9869 65.0104 18.2271C64.5156 18.4674 63.973 18.5933 63.4229 18.5956C62.9742 18.635 58.9974 18.7965 57.539 12.5477L55.7429 12.9681C57.3615 19.901 61.8524 20.4484 63.2331 20.4484C63.3983 20.4484 63.5166 20.4422 63.5832 20.4348C64.3975 20.4125 65.1966 20.2082 65.9218 19.8371C66.6471 19.466 67.2801 18.9373 67.7745 18.2898C68.7835 16.6026 69.1011 14.5906 68.6609 12.6747L67.417 12.0336L63.7767 13.5068L63.005 12.7314V9.22913H72.0522C71.5333 10.3819 71.1665 11.5974 70.9612 12.8448C70.6098 14.5777 70.7971 16.3767 71.4978 18.0001C72.1986 19.6235 73.3792 20.9936 74.8813 21.9264L75.9057 20.3892C74.7057 19.6555 73.761 18.5697 73.2004 17.2796C72.6399 15.9895 72.4908 14.558 72.7733 13.1801C73.0041 11.8008 73.4531 10.4671 74.1035 9.22913H81.5246V11.7772C81.0698 11.3915 80.5425 11.1004 79.9737 10.9211C79.4049 10.7418 78.806 10.6779 78.2122 10.7331C77.8011 10.7541 77.3982 10.8567 77.0272 11.035C76.6561 11.2132 76.3242 11.4636 76.0509 11.7715C75.7776 12.0793 75.5683 12.4385 75.4352 12.8281C75.3021 13.2177 75.248 13.6298 75.2758 14.0406C75.2635 14.3957 75.3221 14.7498 75.4481 15.0821C75.5742 15.4144 75.7651 15.7183 76.0099 15.9759C76.2547 16.2336 76.5484 16.4399 76.8739 16.5828C77.1993 16.7256 77.5499 16.8022 77.9053 16.8081V14.9651C77.189 14.9651 77.1249 14.1478 77.12 13.9863C77.1047 13.8139 77.1242 13.6401 77.1773 13.4753C77.2304 13.3105 77.316 13.158 77.4292 13.027C77.5423 12.8959 77.6806 12.7889 77.8359 12.7123C77.9911 12.6357 78.1602 12.591 78.333 12.581C79.1076 12.5606 79.8623 12.8277 80.4516 13.3307C81.0409 13.8338 81.4232 14.5372 81.5246 15.3054V15.4841C80.9003 15.5724 80.3116 15.8286 79.8214 16.2252C79.3311 16.6219 78.9578 17.1441 78.7411 17.7363C78.5668 18.2569 78.5385 18.8153 78.6593 19.3509C78.7802 19.8864 79.0455 20.3785 79.4265 20.7738C79.6574 21.0083 79.9331 21.1939 80.2372 21.3197C80.5413 21.4455 80.8676 21.5089 81.1967 21.5061C81.5077 21.506 81.8165 21.4556 82.1114 21.3569L81.5345 19.6027C81.4013 19.6626 81.2533 19.6814 81.1094 19.6566C80.9656 19.6318 80.8324 19.5645 80.727 19.4634C80.5893 19.309 80.4952 19.1208 80.4543 18.918C80.4133 18.7153 80.4271 18.5053 80.494 18.3096C80.6312 18.006 80.851 17.7471 81.1282 17.5625C81.4055 17.3779 81.7291 17.2749 82.0621 17.2654C84.9233 16.8229 86.0217 20.5704 86.0673 20.7319H86.0858V20.9168H87.9349V9.22913H89.1775C89.2552 9.25379 89.3378 9.27968 89.4241 9.30433C91.8218 10.0107 93.9852 10.9069 93.7387 12.6685L89.8839 15.5593L90.4608 17.2186C90.5224 17.2186 96.7034 17.1089 98.3504 20.3756L100.097 19.959V9.23406H102.062L102.042 7.38247ZM86.0808 17.0435C85.3734 16.2324 84.4217 15.673 83.3688 15.4496V9.22913H86.0808V17.0435ZM92.9608 15.5507L95.1083 13.9395L95.1403 13.8951C96.3072 13.9356 97.4134 14.4249 98.2284 15.261V17.4935C96.6573 16.4256 94.849 15.7594 92.9608 15.5507ZM98.2296 13.1431C97.4245 12.6726 96.5287 12.3784 95.6014 12.2802C95.574 11.6652 95.3975 11.066 95.0872 10.5343C94.7769 10.0026 94.342 9.55428 93.8201 9.2279H98.2296V13.1431Z" fill="#5F1414"/>
      <g>
        <path d="M15.1308 8.82895C14.9355 8.82211 14.7412 8.79819 14.5501 8.75745C14.3583 8.71597 14.1632 8.69122 13.9671 8.68348C13.788 8.71734 13.6169 8.78467 13.4629 8.88196C13.2764 8.99769 13.0652 9.06781 12.8465 9.08659C12.4234 9.05868 12.0074 8.96425 11.6137 8.80676C10.6849 10.0213 9.99658 11.402 9.58586 12.8748L9.67214 12.9365C9.73132 12.9365 9.84227 12.9513 10.0099 12.9685C10.1349 12.9869 10.2609 12.9976 10.3871 13.0006C10.8149 12.9784 11.2386 12.906 11.6495 12.7848C12.0529 12.6609 12.4696 12.5852 12.8909 12.5592C13.5072 12.5592 14.0521 13.0622 14.528 14.0681C14.9088 14.7737 15.1223 15.5574 15.1517 16.3586C15.0515 16.856 14.8614 17.331 14.5908 17.7602C13.8483 18.5632 12.8338 19.0615 11.7444 19.1581C10.3813 19.1595 9.02456 18.9737 7.71208 18.6059C6.98229 18.3951 5.71009 17.9402 3.89918 17.2499C2.92284 16.864 2.29662 16.6125 2.00076 16.4831C1.36614 16.2155 0.754317 15.8969 0.171345 15.5302C0.0593269 15.3687 -0.000471013 15.1768 2.794e-06 14.9804C2.794e-06 14.6241 0.208333 14.4466 0.62377 14.4466C0.737144 14.4464 0.848561 14.4762 0.946761 14.5329C1.75134 14.8854 2.5555 15.2462 3.35925 15.6152C4.17636 15.9695 5.01169 16.2802 5.86173 16.546C7.40109 17.0633 9.00344 17.3698 10.6251 17.457C11.1989 17.4803 11.7651 17.3196 12.2412 16.9984C12.451 16.8544 12.6207 16.6593 12.7342 16.4315C12.8476 16.2038 12.9011 15.9508 12.8896 15.6966C12.8835 15.4377 12.8082 15.1852 12.6713 14.9654C12.5345 14.7455 12.3413 14.5664 12.1118 14.4466C11.2874 14.8829 10.3706 15.1154 9.43794 15.1246C9.29617 15.1246 8.9214 15.0839 8.31735 15.0013C7.55305 14.8879 7.17461 14.5427 7.17461 13.9621C7.17461 12.9463 7.94877 11.0701 9.50327 8.34694C9.43976 8.31655 9.37474 8.28939 9.30849 8.26558C8.7239 8.3662 8.13342 8.42879 7.54073 8.45296C6.69014 8.49734 6.09101 8.54418 5.73228 8.60089C5.23779 8.40099 4.71103 8.2928 4.17778 8.28161C3.89609 8.38743 3.63403 8.53951 3.40238 8.73156C3.21624 8.75868 3.1164 8.77101 3.10161 8.77101C2.84273 8.77101 2.69233 8.38762 2.64918 7.62578C2.9291 7.58622 3.19895 7.49377 3.44431 7.35335C3.76559 7.16532 4.12979 7.06301 4.50199 7.05626C5.02846 7.15512 5.56099 7.21854 6.09596 7.2461C6.37086 7.25843 6.77273 7.28062 7.30405 7.31267C7.20208 6.89623 7.15811 6.4677 7.17337 6.03924C7.17389 5.16458 7.26061 4.29209 7.43226 3.43444C7.54405 2.54442 7.89414 1.70111 8.44556 0.993595C8.70923 0.762889 8.98985 0.552318 9.28507 0.363661C9.71776 0.304489 10.3945 0.182447 11.3129 0L11.8307 0.505427C11.5465 1.12284 11.1431 1.67795 10.6436 2.13882C10.4266 1.7579 10.2737 1.56559 10.1714 1.56559C9.76831 1.56559 9.5008 2.01801 9.37259 2.92162C9.33068 3.51087 9.28507 4.10506 9.24316 4.70047C9.22167 5.23328 9.17147 5.76455 9.09277 6.29195C9.09277 6.5385 9.09277 6.71109 9.09277 6.79861C9.09277 6.88614 9.21603 6.96257 9.41696 7.03283C9.5746 7.09377 9.74121 7.12834 9.91007 7.13515C9.88172 7.13515 10.132 7.11543 10.6633 7.07475C11.2861 7.4061 11.9551 7.64213 12.648 7.77495C12.8672 7.76632 13.0845 7.73114 13.2952 7.67017C13.5058 7.59735 13.7212 7.53927 13.9399 7.49635C13.956 7.49635 14.2 7.48895 14.6734 7.46799C15.7674 7.25651 16.8311 6.91078 17.8403 6.43865C17.963 6.52915 18.0664 6.64328 18.1443 6.77433C18.2222 6.90538 18.2731 7.0507 18.294 7.20172C18.294 7.57154 17.8564 7.94877 16.9799 8.34694C16.3988 8.62095 15.7717 8.7844 15.1308 8.82895Z" fill="#D9000D"/>
        <path d="M17.7658 8.52573C17.7815 8.40642 17.7881 8.28609 17.7855 8.16577C17.7623 8.05002 17.7022 7.94492 17.6142 7.86621C17.5008 7.74294 17.4194 7.68007 17.3775 7.68007C16.8817 7.84209 16.4158 8.08402 15.9981 8.3963C15.7443 8.13792 15.5783 7.80628 15.5234 7.44832C15.603 7.09107 15.749 6.75195 15.9537 6.44856C17.4715 6.12659 19.0165 5.94951 20.5679 5.9197C21.1694 5.9197 21.9453 5.94231 22.8953 5.98751C24.1724 6.04175 24.9491 6.07873 25.2227 6.09475C25.8345 6.08564 26.4463 6.10745 27.0558 6.16009L27.4663 6.18104C27.8894 6.128 28.2944 5.9778 28.6498 5.74219L28.9296 5.86547C29.0605 5.87832 29.187 5.92044 29.2994 5.98874C29.5016 6.08859 29.6594 6.38815 29.7753 6.89235L29.4054 7.10437L29.2106 7.06246L27.809 7.5494C26.688 7.5042 25.5671 7.47009 24.4461 7.44708C23.3327 7.43651 22.2223 7.32927 21.1275 7.12657C21.0514 7.10136 20.9722 7.08725 20.8921 7.08465C20.7277 7.08465 20.5477 7.21163 20.3521 7.46557C20.2045 7.65149 20.0461 7.82849 19.8775 7.99565C19.7481 8.43205 19.5533 9.07554 19.2956 9.92244L19.3388 10.1111L19.4041 10.2183L19.467 10.238H19.5324C19.6989 10.2451 19.8638 10.2021 20.0057 10.1148L21.9239 9.65124C22.2136 9.29867 22.4996 8.94487 22.7868 8.58984C23.0606 8.24497 23.3804 7.93928 23.7372 7.6813L24.4042 7.7639L25.2018 8.52697C25.2946 8.76998 25.3389 9.02878 25.3324 9.28881C25.3103 9.47942 25.2268 9.65767 25.0945 9.7967C24.9934 10.4065 24.7777 11.6729 24.4473 13.596L22.4873 13.3815L22.507 12.7442C22.5211 12.6029 22.5281 12.4609 22.5279 12.3189C22.568 12.1382 22.568 11.951 22.5279 11.7703C22.4996 11.5842 22.4293 11.493 22.3134 11.493C21.5859 11.8674 20.8808 12.284 20.2017 12.7405C20.0792 12.9163 19.9419 13.0812 19.7912 13.2336C19.6458 13.278 19.4214 13.3569 19.1231 13.4654C18.6216 13.4253 18.1557 13.1903 17.8255 12.8107C17.4952 12.4311 17.3269 11.9373 17.3565 11.435C17.3565 11.2205 17.3849 10.8039 17.4416 10.1801C17.4675 9.63151 17.4773 9.18033 17.4625 8.82406L17.7658 8.52573Z" fill="#D9000D"/>
        <path d="M26.7577 16.4772L23.8065 18.0674C23.4478 18.1204 23.2308 18.1513 23.1581 18.1513C22.7779 18.1335 22.4105 18.0091 22.0978 17.7921C21.7852 17.5752 21.54 17.2745 21.3903 16.9247C21.017 16.3095 20.8161 15.6052 20.8084 14.8857C20.9064 14.0885 21.3082 13.3599 21.9302 12.8517L22.0609 12.8751C22.4136 12.4151 22.8614 12.0366 23.3738 11.7656H23.9113C24.3312 11.7955 24.7221 11.9905 24.9986 12.308C25.1647 12.4478 25.2938 12.6262 25.3747 12.8277C25.4555 13.0291 25.4855 13.2473 25.4621 13.4631C25.1884 13.745 24.7569 14.1407 24.1677 14.6503C23.8571 14.8933 23.5683 15.1631 23.3047 15.4565L23.3516 15.6685C23.3753 15.8282 23.4591 15.9728 23.5858 16.0728L23.6733 16.095C23.6789 16.1014 23.6857 16.1066 23.6933 16.1102C23.701 16.1138 23.7093 16.1158 23.7177 16.116C24.417 16.0102 25.0611 15.6744 25.5484 15.1618C26.1692 14.6516 26.7263 14.0684 27.2076 13.4249C27.6245 13.4547 28.0226 13.6103 28.3492 13.8712L28.6315 14.0388C28.6735 14.1966 28.6881 14.3605 28.6746 14.5233C28.6615 15.5539 28.6261 17.0997 28.5686 19.1609C28.5623 19.4743 28.5259 19.7864 28.4601 20.0928C28.2736 20.8802 27.49 21.4012 26.1093 21.656C25.7945 21.6847 25.3129 21.734 24.6645 21.8039C24.2021 21.8995 23.7339 21.9633 23.2628 21.995C21.7577 21.998 20.2736 21.6422 18.9334 20.957C17.6148 20.2242 16.373 19.3611 15.2266 18.3806L15.7431 17.1959C16.7834 17.9178 17.8625 18.5825 18.9753 19.1868C19.9132 19.7838 20.9611 20.187 22.0572 20.3727C22.7872 20.3856 23.5143 20.2786 24.2096 20.0559C24.8568 19.7723 25.5101 19.4962 26.1746 19.2299C26.242 19.1823 26.2939 19.1158 26.3237 19.0388C26.4631 18.6247 26.5606 18.1977 26.6147 17.7642C26.6927 17.3391 26.7405 16.909 26.7577 16.4772Z" fill="#D9000D"/>
        <path d="M30.5488 6.96619C30.613 6.4072 30.7511 5.8592 30.9594 5.3365C31.2306 4.64863 31.5499 4.30469 31.9074 4.30469C32.2649 4.30469 32.5237 4.5648 32.7271 5.08748L32.6408 6.84045C33.1264 6.58975 33.6662 6.46272 34.2126 6.47063C34.7303 6.47063 34.9904 6.66047 34.9904 7.04509C34.9781 7.27574 34.8949 7.49696 34.7521 7.67854C34.6094 7.86013 34.4141 7.99322 34.1929 8.05964C33.7376 8.23794 33.3035 8.46616 32.8985 8.74012C31.9667 9.96052 31.5355 11.4904 31.6928 13.0178C31.7072 13.6414 31.7533 14.2639 31.8309 14.8829C31.9102 15.5018 31.9575 16.1243 31.9727 16.7481C31.9683 17.172 31.9022 17.5931 31.7767 17.9981C31.6475 18.1741 31.4834 18.3215 31.2946 18.4312C31.1058 18.5408 30.8964 18.6104 30.6795 18.6354C30.433 18.6354 30.1864 18.432 29.946 18.019L29.9694 15.4302C29.9694 15.0493 29.9694 14.1605 29.9904 12.765C29.9904 12.5382 30.004 12.1783 30.0323 11.6827C30.0607 11.234 30.0755 10.8789 30.0755 10.6262C30.0822 10.3811 30.1036 10.1366 30.1396 9.89397C30.1767 9.65111 30.1981 9.4061 30.2037 9.16048C30.1922 8.96754 30.1334 8.7804 30.0323 8.61561C29.2105 8.14799 28.4992 7.77816 27.8984 7.50614V6.74676C28.1853 6.27914 28.4433 6.04574 28.6726 6.04656C29.3353 6.27039 29.966 6.57953 30.5488 6.96619Z" fill="#D9000D"/>
        <path d="M49.292 7.35294C49.1775 7.57437 49.0238 7.77319 48.8383 7.93972C48.6191 8.06651 48.3777 8.15019 48.1271 8.18628C47.7387 8.30921 47.3746 8.49857 47.0509 8.74594C46.5898 9.06522 46.3531 9.29698 46.3384 9.43628V12.782C46.3636 13.9553 46.3225 15.1291 46.2151 16.2978C45.9545 17.9916 45.3575 18.838 44.4239 18.8372C43.8879 18.7578 43.3821 18.5394 42.9569 18.2036C42.6809 17.7341 42.4423 17.2436 42.2431 16.7366C42.0705 16.278 41.9005 15.8096 41.7266 15.3288C41.4406 14.5966 41.1596 14.2267 40.8834 14.2267C40.6073 14.2267 40.0489 14.6607 39.2353 15.5236C38.4216 16.3865 37.8546 16.8167 37.5242 16.8167C36.9078 16.8167 36.4603 16.4186 36.1854 15.6308C36.1016 15.3461 36.0129 15.0662 35.9303 14.7913C35.8327 14.4947 35.6946 14.213 35.5197 13.9543C35.2609 13.5734 34.9934 13.1912 34.7222 12.8091C34.4626 12.445 34.3001 12.0207 34.25 11.5763C34.25 11.0524 34.5372 10.7923 35.1129 10.7923C35.2783 10.8047 35.4429 10.8257 35.606 10.8552C36.4183 11.514 37.0615 12.3571 37.4823 13.3145C37.5821 13.582 37.719 13.7176 37.8903 13.7176C37.9779 13.7176 38.1147 13.619 38.2996 13.4218C38.7754 12.8695 39.07 12.5091 39.1835 12.3406C39.4711 11.9693 39.6369 11.518 39.6581 11.0487C39.6524 10.1146 39.2858 9.21877 38.6349 8.5487C38.3431 8.19951 37.9788 7.91797 37.5674 7.72362C37.1559 7.52927 36.707 7.42676 36.252 7.4232C35.4224 7.51423 34.6257 7.79838 33.9258 8.25284L33.7532 8.61158C33.3932 8.27257 33.1328 7.8416 33 7.36526L33.1073 7.00284C33.6157 6.59158 34.1912 6.2709 34.8085 6.05485C35.416 5.97044 36.0299 5.94115 36.6428 5.96733C36.9258 5.94797 37.2031 5.87781 37.4613 5.76023C37.7315 5.62539 38.0118 5.51164 38.2996 5.41999C38.9096 5.29372 39.5321 5.23747 40.1549 5.25233C41.9648 5.23909 43.7712 5.41552 45.5444 5.77872C45.6677 6.00308 45.8107 6.22744 45.955 6.4518C46.1818 6.82162 46.3346 7.00037 46.4061 7.00037C46.6084 6.97725 46.8051 6.91972 46.988 6.83025C47.2103 6.72851 47.4524 6.67755 47.6968 6.68109C47.9771 6.59571 48.2671 6.54601 48.5598 6.53316C49.0603 6.53316 49.3117 6.74026 49.3117 7.14953L49.292 7.35294ZM43.9431 7.69687C43.1793 7.39489 42.3726 7.21557 41.5528 7.16556H40.8206C40.0168 7.16556 39.6149 7.24199 39.6149 7.39978C39.7871 7.87395 40.0338 8.31758 40.3459 8.71389C40.8793 9.4669 41.2181 10.3401 41.3322 11.2558C41.347 11.4034 41.347 11.552 41.3322 11.6996C42.418 12.877 43.3053 14.223 43.9592 15.6851C44.0183 15.2635 44.075 14.7889 44.1342 14.2662C44.3707 12.7142 44.5213 11.1503 44.5854 9.58175C44.6118 9.24024 44.5685 8.89693 44.4581 8.57269C44.3477 8.24845 44.1725 7.95129 43.9431 7.69687Z" fill="#D9000D"/>
      </g>
      <path d="M54.3298 12.6641H49.3203V14.5123H54.3298V12.6641Z" fill="#161615"/>
    </g>
  </svg>
</svg>
