<svg preserveAspectRatio="none" width="100%" height="100%" overflow="visible" style="display: block;" viewBox="0 0 16 16" fill="none" xmlns="http://www.w3.org/2000/svg">
<g id="material-symbols:arrow-forward-ios-rounded">
<path id="Vector" d="M9.65006 8.00033L4.75006 3.10033C4.58339 2.93366 4.50273 2.73633 4.50806 2.50833C4.51339 2.28033 4.59962 2.08322 4.76673 1.91699C4.93384 1.75077 5.13117 1.66744 5.35873 1.66699C5.58628 1.66655 5.78339 1.74988 5.95006 1.91699L11.0667 7.05033C11.2001 7.18366 11.3001 7.33366 11.3667 7.50033C11.4334 7.66699 11.4667 7.83366 11.4667 8.00033C11.4667 8.16699 11.4334 8.33366 11.3667 8.50033C11.3001 8.66699 11.2001 8.81699 11.0667 8.95033L5.93339 14.0837C5.76673 14.2503 5.57228 14.331 5.35006 14.3257C5.12784 14.3203 4.93339 14.2341 4.76673 14.067C4.60006 13.8999 4.51673 13.7025 4.51673 13.475C4.51673 13.2474 4.60006 13.0503 4.76673 12.8837L9.65006 8.00033Z" fill="var(--fill-0, white)"/>
</g>
</svg>
