<svg preserveAspectRatio="none" width="100%" height="100%" overflow="visible" style="display: block;" viewBox="0 0 23.6875 23.6252" fill="none" xmlns="http://www.w3.org/2000/svg">
<g id="cross">
<path id="Path 197368" d="M11.8437 0C14.1862 0 16.4761 0.692796 18.4238 1.99078C20.3715 3.28876 21.8895 5.13364 22.7859 7.2921C23.6824 9.45057 23.9169 11.8257 23.4599 14.1171C23.0029 16.4085 21.8749 18.5133 20.2185 20.1653C18.5622 21.8174 16.4518 22.9424 14.1543 23.3982C11.8569 23.854 9.4755 23.62 7.31134 22.726C5.14718 21.8319 3.29744 20.3179 1.99603 18.3753C0.694624 16.4327 0 14.1489 0 11.8126C0 8.67969 1.24782 5.67511 3.46895 3.45982C5.69009 1.24454 8.70259 0 11.8437 0Z" fill="var(--fill-0, black)" fill-opacity="0.2"/>
<g id="Union 6">
<g id="Vector">
</g>
<path id="Vector_2" d="M7.25301 17.3502C7.04023 17.3502 6.82748 17.2692 6.66517 17.1072C6.34067 16.7834 6.34079 16.2586 6.66545 15.9349L10.828 11.7853L6.66531 7.63361C6.34073 7.30989 6.34073 6.78502 6.66531 6.4613C6.98989 6.13757 7.51614 6.13757 7.84071 6.4613L12.0034 10.613L16.1639 6.46144C16.4884 6.13763 17.0147 6.13752 17.3393 6.46116C17.664 6.78481 17.6641 7.30968 17.3396 7.63348L13.1788 11.7853L17.3395 15.9351C17.664 16.2588 17.664 16.7836 17.3395 17.1074C17.0149 17.4311 16.4886 17.4311 16.1641 17.1074L12.0034 12.9576L7.84058 17.1075C7.67831 17.2693 7.46564 17.3502 7.25301 17.3502Z" fill="var(--fill-0, white)"/>
</g>
</g>
</svg>
