<svg preserveAspectRatio="none" width="100%" height="100%" overflow="visible" style="display: block;" viewBox="0 0 16 16" fill="none" xmlns="http://www.w3.org/2000/svg">
<g id="Group 34167">
<path id="Ellipse 12006" d="M8 16C12.4183 16 16 12.4183 16 8C16 3.58172 12.4183 0 8 0C3.58172 0 0 3.58172 0 8C0 12.4183 3.58172 16 8 16Z" fill="var(--fill-0, #25B7D3)"/>
<path id="Path 197622" fill-rule="evenodd" clip-rule="evenodd" d="M9.57977 8.29587L5.29331 11.4158C5.25123 11.4464 5.20151 11.4648 5.14964 11.4689C5.09777 11.473 5.04577 11.4627 4.99938 11.4391C4.953 11.4155 4.91404 11.3796 4.88681 11.3352C4.85959 11.2909 4.84515 11.2399 4.84511 11.1879V4.94802C4.84515 4.89598 4.85959 4.84497 4.88681 4.80063C4.91404 4.75628 4.953 4.72032 4.99938 4.69673C5.04577 4.67314 5.09777 4.66284 5.14964 4.66696C5.20151 4.67108 5.25123 4.68947 5.29331 4.72008L9.57977 7.84C9.61576 7.86618 9.64507 7.9005 9.66527 7.94016C9.68546 7.97982 9.69598 8.0237 9.69598 8.06821C9.69598 8.11272 9.68546 8.1566 9.66527 8.19626C9.64507 8.23592 9.61576 8.2697 9.57977 8.29587ZM10.3025 4.66474H11.3014C11.3874 4.6656 11.4697 4.70016 11.5306 4.76102C11.5914 4.82187 11.626 4.90416 11.6268 4.99021V11.1451C11.626 11.2312 11.5914 11.3135 11.5306 11.3743C11.4697 11.4352 11.3874 11.4697 11.3014 11.4706H10.3025C10.2164 11.4697 10.1342 11.4352 10.0733 11.3743C10.0125 11.3135 9.97788 11.2312 9.97702 11.1451V4.99021C9.97788 4.90416 10.0125 4.82187 10.0733 4.76102C10.1342 4.70016 10.2164 4.6656 10.3025 4.66474Z" fill="var(--fill-0, white)"/>
</g>
</svg>
