<svg preserveAspectRatio="none" width="100%" height="100%" overflow="visible" style="display: block;" viewBox="0 0 24 24" fill="none" xmlns="http://www.w3.org/2000/svg">
<g id="Group 1410117885">
<rect id="Rectangle 21410" opacity="0.1" width="24" height="24" rx="3" fill="var(--fill-0, #F95959)"/>
<path id="Path 197624" fill-rule="evenodd" clip-rule="evenodd" d="M12 4C13.5822 4 15.129 4.46919 16.4446 5.34824C17.7602 6.22729 18.7855 7.47672 19.391 8.93853C19.9965 10.4003 20.155 12.0089 19.8463 13.5607C19.5376 15.1126 18.7757 16.538 17.6569 17.6569C16.538 18.7757 15.1126 19.5376 13.5607 19.8463C12.0089 20.155 10.4003 19.9965 8.93853 19.391C7.47672 18.7855 6.22729 17.7602 5.34824 16.4446C4.46919 15.129 4 13.5822 4 12C4.00015 9.87831 4.84305 7.84357 6.34331 6.34331C7.84357 4.84305 9.87831 4.00015 12 4ZM7.95625 14.8957L10.8519 12L7.95625 9.10376C7.87638 9.02365 7.83154 8.91514 7.83154 8.80202C7.83154 8.6889 7.87638 8.58039 7.95625 8.50028L8.50084 7.95569C8.58095 7.87582 8.68946 7.83097 8.80258 7.83097C8.9157 7.83097 9.02421 7.87582 9.10432 7.95569L12 10.8514L14.8957 7.95569C14.9758 7.87582 15.0843 7.83097 15.1974 7.83097C15.3105 7.83097 15.419 7.87582 15.4992 7.95569L16.0437 8.50028C16.1236 8.58039 16.1685 8.6889 16.1685 8.80202C16.1685 8.91514 16.1236 9.02365 16.0437 9.10376L13.1475 12L16.0432 14.8957C16.1231 14.9758 16.1679 15.0843 16.1679 15.1974C16.1679 15.3105 16.1231 15.419 16.0432 15.4992L15.4986 16.0437C15.4185 16.1236 15.31 16.1685 15.1969 16.1685C15.0837 16.1685 14.9752 16.1236 14.8951 16.0437L12 13.1475L9.10376 16.0432C9.02365 16.1231 8.91514 16.1679 8.80202 16.1679C8.6889 16.1679 8.58039 16.1231 8.50028 16.0432L7.95625 15.4975C7.8769 15.4174 7.83237 15.3093 7.83237 15.1966C7.83237 15.0839 7.8769 14.9757 7.95625 14.8957Z" fill="var(--fill-0, #F95959)"/>
</g>
</svg>
