<svg preserveAspectRatio="none" width="100%" height="100%" overflow="visible" style="display: block;" viewBox="0 0 16 16" fill="none" xmlns="http://www.w3.org/2000/svg">
<g id="Group 35928">
<g id="Group 35913">
<path id="Vector" d="M8 1.14286C9.35622 1.14286 10.682 1.54502 11.8096 2.29849C12.9373 3.05197 13.8162 4.12291 14.3352 5.37588C14.8542 6.62886 14.99 8.00761 14.7254 9.33776C14.4608 10.6679 13.8077 11.8897 12.8487 12.8487C11.8897 13.8077 10.6679 14.4608 9.33776 14.7254C8.00761 14.99 6.62887 14.8542 5.37589 14.3352C4.12291 13.8162 3.05197 12.9373 2.2985 11.8096C1.54502 10.682 1.14286 9.35621 1.14286 8C1.14286 6.18137 1.86531 4.43723 3.15127 3.15127C4.43723 1.8653 6.18138 1.14286 8 1.14286ZM8 0C6.41775 0 4.87103 0.469192 3.55544 1.34824C2.23985 2.22729 1.21447 3.47672 0.608967 4.93853C0.00346627 6.40034 -0.15496 8.00887 0.153721 9.56072C0.462403 11.1126 1.22433 12.538 2.34315 13.6569C3.46197 14.7757 4.88743 15.5376 6.43928 15.8463C7.99113 16.155 9.59966 15.9965 11.0615 15.391C12.5233 14.7855 13.7727 13.7602 14.6518 12.4446C15.5308 11.129 16 9.58225 16 8C16 5.87827 15.1571 3.84344 13.6569 2.34315C12.1566 0.842854 10.1217 0 8 0Z" fill="var(--fill-0, #2585FD)"/>
</g>
<circle id="Ellipse 12034" cx="8" cy="8" r="4" fill="var(--fill-0, #2585FD)"/>
</g>
</svg>
