<svg preserveAspectRatio="none" width="100%" height="100%" overflow="visible" style="display: block;" viewBox="0 0 15.9975 16.0027" fill="none" xmlns="http://www.w3.org/2000/svg">
<g id="Group 17480">
<path id="Path 83208" d="M5.8277 15.996H0.646353C0.474818 15.996 0.310778 15.9251 0.189485 15.7989C0.0681909 15.6727 0 15.5014 0 15.3229V9.93863C0 9.76013 0.0681909 9.58902 0.189485 9.4628C0.310778 9.33658 0.474818 9.26562 0.646353 9.26562C0.817888 9.26562 0.98298 9.33658 1.10427 9.4628C1.22557 9.58902 1.29376 9.76013 1.29376 9.93863V14.6567H5.82876C6.00029 14.6567 6.16433 14.7276 6.28562 14.8538C6.40692 14.98 6.47511 15.1512 6.47511 15.3297C6.47511 15.5082 6.40692 15.6794 6.28562 15.8056C6.16433 15.9318 6.00029 16.0027 5.82876 16.0027L5.8277 15.996Z" fill="var(--fill-0, white)"/>
<path id="Path 83299" d="M15.3511 15.9948H10.1698C9.99826 15.9948 9.83422 15.924 9.71292 15.7978C9.59163 15.6716 9.52344 15.5003 9.52344 15.3218C9.52344 15.1433 9.59163 14.9721 9.71292 14.8459C9.83422 14.7197 9.99826 14.6488 10.1698 14.6488H14.7037V9.93082C14.7037 9.75232 14.7719 9.58121 14.8932 9.45499C15.0145 9.32877 15.1796 9.25781 15.3511 9.25781C15.5227 9.25781 15.6867 9.32877 15.808 9.45499C15.9293 9.58121 15.9975 9.75232 15.9975 9.93082V15.3151C15.9983 15.4041 15.9822 15.4923 15.9501 15.5748C15.918 15.6572 15.8703 15.7321 15.8101 15.7953C15.75 15.8586 15.6785 15.9087 15.5996 15.943C15.5207 15.9772 15.4366 15.9949 15.3511 15.9948Z" fill="var(--fill-0, white)"/>
<path id="Path 83297" d="M0.646353 6.73814C0.474818 6.73814 0.310778 6.66732 0.189485 6.5411C0.0681909 6.41488 0 6.24363 0 6.06513V0.680818C0 0.502318 0.0681909 0.331208 0.189485 0.20499C0.310778 0.0787719 0.474818 0.0078125 0.646353 0.0078125H5.8277C5.99924 0.0078125 6.16328 0.0787719 6.28457 0.20499C6.40586 0.331208 6.47406 0.502318 6.47406 0.680818C6.47406 0.859317 6.40586 1.03056 6.28457 1.15678C6.16328 1.283 5.99924 1.35396 5.8277 1.35396H1.29271V6.07294C1.29072 6.24988 1.22196 6.41893 1.10112 6.54343C0.980269 6.66792 0.816402 6.73786 0.646353 6.73814Z" fill="var(--fill-0, white)"/>
<path id="Path 83298" d="M15.3511 6.73813C15.1796 6.73813 15.0145 6.66731 14.8932 6.54109C14.7719 6.41487 14.7037 6.24363 14.7037 6.06513V1.34601H10.1698C9.99826 1.34601 9.83422 1.27519 9.71292 1.14897C9.59163 1.02275 9.52344 0.851505 9.52344 0.673005C9.52344 0.494506 9.59163 0.323259 9.71292 0.197041C9.83422 0.0708225 9.99826 0 10.1698 0H15.3511C15.5227 0 15.6867 0.0708225 15.808 0.197041C15.9293 0.323259 15.9975 0.494506 15.9975 0.673005V6.05732C15.9985 6.14636 15.9822 6.23465 15.9501 6.31721C15.9181 6.39978 15.8713 6.47488 15.8112 6.53822C15.751 6.60155 15.6796 6.65192 15.6006 6.68624C15.5217 6.72055 15.4367 6.73814 15.3511 6.73813Z" fill="var(--fill-0, white)"/>
</g>
</svg>
