<svg preserveAspectRatio="none" width="100%" height="100%" overflow="visible" style="display: block;" viewBox="0 0 12 14" fill="none" xmlns="http://www.w3.org/2000/svg">
<path id="Path 198240" d="M11.5382 6.16448L1.41009 0.129287C1.2672 0.0445898 1.10508 9.5135e-06 0.940082 1.52063e-09C0.775083 -9.51046e-06 0.613037 0.0446063 0.470134 0.129287C0.327232 0.213968 0.208518 0.335782 0.125994 0.482468C0.0434707 0.629155 3.70461e-05 0.795542 0 0.964937V13.0353C3.70461e-05 13.2047 0.0434707 13.3711 0.125994 13.5178C0.208518 13.6645 0.327232 13.7863 0.470134 13.871C0.613037 13.9556 0.775083 14 0.940082 14C1.10508 14 1.2672 13.9554 1.41009 13.8707L11.5382 7.83578C11.679 7.74939 11.7956 7.62701 11.8765 7.48056C11.9574 7.3341 12 7.16851 12 7.00013C12 6.83174 11.9574 6.66616 11.8765 6.5197C11.7956 6.37324 11.679 6.25087 11.5382 6.16448Z" fill="var(--fill-0, white)"/>
</svg>
