<svg preserveAspectRatio="none" width="100%" height="100%" overflow="visible" style="display: block;" viewBox="0 0 16.9963 16" fill="none" xmlns="http://www.w3.org/2000/svg">
<g id="Group 17481">
<path id="Path 83300" d="M0 5.51358V10.517H3.44515L7.73689 13.8654V2.16406L3.44515 5.51358H0Z" fill="var(--fill-0, white)"/>
<path id="Path 83301" d="M12.913 0L11.8984 1.58751C13.736 2.37563 15.1294 5.00007 15.1294 8.00507C15.1294 10.9887 13.7585 13.5917 11.9458 14.4069L12.9311 16C15.3052 14.7908 16.9963 11.6687 16.9963 8.00619C16.9963 4.34368 15.2996 1.20245 12.913 0Z" fill="var(--fill-0, white)"/>
<path id="Path 83302" d="M10.9641 3.08594L9.97656 4.64191C10.4237 5.07961 10.7758 5.60461 11.0109 6.18418C11.2459 6.76374 11.359 7.38546 11.3429 8.01057C11.3568 8.61976 11.2495 9.22566 11.0271 9.79311C10.8048 10.3606 10.4718 10.8783 10.0476 11.3162L11.0205 12.8924C11.714 12.2756 12.2681 11.5183 12.6457 10.671C13.0233 9.8236 13.2159 8.90563 13.2105 7.97815C13.2052 7.05067 13.0021 6.13496 12.6148 5.29199C12.2274 4.44902 11.6647 3.69814 10.9641 3.08931V3.08594Z" fill="var(--fill-0, white)"/>
</g>
</svg>
