<svg preserveAspectRatio="none" width="100%" height="100%" overflow="visible" style="display: block;" viewBox="0 0 16 16" fill="none" xmlns="http://www.w3.org/2000/svg">
<g id="Group 17482">
<path id="Icon material-settings-applications" d="M6.47769 0H9.52347C9.7532 0.00252308 9.97503 0.082059 10.1516 0.22522C10.3282 0.368381 10.4488 0.566426 10.493 0.78602V0.811847L10.7305 2.45126C11.0166 2.58622 11.2914 2.74278 11.5525 2.9195L13.1514 2.29293C13.3674 2.21371 13.6051 2.2109 13.8229 2.28499C14.0408 2.35908 14.225 2.50536 14.3435 2.69829V2.70615L15.864 5.26746C15.9822 5.46255 16.0253 5.69223 15.9856 5.91543C15.9459 6.13863 15.826 6.34079 15.6473 6.48579L15.63 6.49926L14.2824 7.52783C14.2973 7.69514 14.3043 7.8501 14.3043 7.99944C14.3043 8.14878 14.2973 8.30149 14.2835 8.46094L15.6473 9.50298C15.826 9.64798 15.9459 9.85014 15.9856 10.0733C16.0253 10.2965 15.9822 10.5262 15.864 10.7213L14.3377 13.2905C14.2193 13.4834 14.0351 13.6297 13.8172 13.7038C13.5993 13.7779 13.3616 13.7751 13.1457 13.6958H13.133L11.549 13.0749C11.2875 13.2497 11.0132 13.4055 10.7282 13.5409L10.4999 15.1994C10.4608 15.4228 10.342 15.6256 10.1644 15.7721C9.98687 15.9185 9.76192 15.9993 9.52923 16H6.47769C6.24795 15.9975 6.02612 15.9179 5.84954 15.7748C5.67295 15.6316 5.55239 15.4336 5.50815 15.214V15.1882L5.26721 13.5465C4.9811 13.4115 4.70628 13.255 4.44524 13.0783L2.84857 13.7037C2.63261 13.7829 2.39493 13.7857 2.17706 13.7116C1.95918 13.6376 1.77495 13.4913 1.65654 13.2983V13.2905L0.135955 10.7303C0.0177732 10.5352 -0.0253165 10.3055 0.0143889 10.0823C0.0540943 9.85913 0.174006 9.65696 0.352687 9.51197L0.36998 9.49849L1.71764 8.46993C1.70265 8.30262 1.69574 8.14766 1.69574 7.99832C1.69574 7.84897 1.70265 7.69626 1.71649 7.53681L0.352687 6.49477C0.174006 6.34978 0.0540943 6.14761 0.0143889 5.92441C-0.0253165 5.70121 0.0177732 5.47154 0.135955 5.27644L1.65654 2.70952C1.77495 2.51659 1.95918 2.37031 2.17706 2.29622C2.39493 2.22213 2.63261 2.22494 2.84857 2.30416H2.86125L4.44524 2.92512C4.70669 2.75031 4.98104 2.59455 5.26606 2.45912L5.507 0.795003C5.54731 0.572612 5.66664 0.371112 5.84409 0.225773C6.02155 0.0804338 6.24583 0.000513392 6.47769 0ZM9.33901 1.1678H6.66444L6.36125 3.26872L6.05114 3.39785C5.63967 3.56756 5.25223 3.78794 4.89831 4.05362L4.62624 4.26023L2.59379 3.4641L1.25997 5.70987L2.98922 7.02702L2.9431 7.36389C2.91206 7.57629 2.89588 7.79051 2.89468 8.00505C2.89666 8.22445 2.91321 8.4435 2.94425 8.66082L2.98806 8.99095L1.25997 10.3014L2.59379 12.5471L4.62624 11.751L4.89831 11.9576C5.24889 12.2245 5.63469 12.4443 6.04537 12.6111L6.3601 12.7391L6.66214 14.8322H9.33671L9.6399 12.7313L9.95002 12.6021C10.3615 12.4324 10.7489 12.2121 11.1028 11.9464L11.3749 11.7398L13.4074 12.5359L14.7412 10.2901L13.0119 8.97298L13.0581 8.63611C13.0891 8.42371 13.1053 8.20949 13.1065 7.99495C13.1045 7.77555 13.0879 7.5565 13.0569 7.33918L13.0131 7.00905L14.7366 5.69303L13.4027 3.44726L11.3703 4.24339L11.0982 4.03677C10.7476 3.76989 10.3618 3.55009 9.95117 3.38326L9.63644 3.25525L9.33901 1.1678ZM8.00058 5.29665C8.54939 5.29665 9.08589 5.45517 9.54221 5.75215C9.99854 6.04914 10.3542 6.47126 10.5642 6.96513C10.7742 7.459 10.8292 8.00244 10.7221 8.52673C10.6151 9.05101 10.3508 9.53261 9.9627 9.9106C9.57463 10.2886 9.0802 10.546 8.54193 10.6503C8.00365 10.7546 7.44572 10.7011 6.93868 10.4965C6.43164 10.2919 5.99827 9.9455 5.69336 9.50103C5.38845 9.05656 5.22571 8.534 5.22571 7.99944C5.22662 7.28289 5.51927 6.59594 6.03946 6.08926C6.55965 5.58259 7.26492 5.29754 8.00058 5.29665ZM8.00058 9.53442C8.31226 9.53442 8.61695 9.4444 8.87611 9.27573C9.13527 9.10707 9.33726 8.86733 9.45654 8.58685C9.57582 8.30637 9.60702 7.99774 9.54622 7.69998C9.48541 7.40222 9.33532 7.12871 9.11492 6.91404C8.89452 6.69937 8.61372 6.55318 8.30802 6.49395C8.00232 6.43472 7.68546 6.46512 7.3975 6.5813C7.10954 6.69748 6.86341 6.89422 6.69025 7.14665C6.51708 7.39907 6.42465 7.69585 6.42465 7.99944C6.42526 8.40636 6.59149 8.79644 6.88691 9.08418C7.18232 9.37192 7.5828 9.53383 8.00058 9.53442Z" fill="var(--fill-0, white)"/>
</g>
</svg>
