<svg preserveAspectRatio="none" width="100%" height="100%" overflow="visible" style="display: block;" viewBox="0 0 14 16" fill="none" xmlns="http://www.w3.org/2000/svg">
<path id="Vector" d="M7.01671 16C6.04216 16 5.12947 15.8153 4.27863 15.446C3.42779 15.0766 2.68714 14.5773 2.05668 13.9481C1.42621 13.3189 0.925946 12.5797 0.55588 11.7305C0.185814 10.8813 0.000520846 9.97011 1.0904e-06 8.99695C-0.000518666 8.02378 0.184774 7.11287 0.55588 6.2642C0.926986 5.41553 1.42699 4.67632 2.0559 4.04657C2.6848 3.41681 3.42545 2.91752 4.27785 2.54869C5.13025 2.17987 6.0432 1.99493 7.01671 1.9939H7.13365L6.47096 1.3325C6.32803 1.18984 6.25656 1.01165 6.25656 0.79793C6.25656 0.584207 6.32803 0.399275 6.47096 0.243133C6.62689 0.0875094 6.81218 0.00658522 7.02684 0.000360286C7.2415 -0.00586465 7.42653 0.0685752 7.58194 0.22368L9.5895 2.22733C9.73243 2.36999 9.8039 2.55155 9.8039 2.77201C9.8039 2.99248 9.73243 3.17404 9.5895 3.31669L7.58194 5.32035C7.42601 5.47597 7.24098 5.55067 7.02684 5.54444C6.8127 5.53822 6.62741 5.45703 6.47096 5.30089C6.32803 5.14527 6.25656 4.9606 6.25656 4.74687C6.25656 4.53315 6.32803 4.3547 6.47096 4.21153L7.13365 3.55013H7.01671C5.49642 3.55013 4.20691 4.07873 3.14816 5.13593C2.08942 6.19313 1.55979 7.48014 1.55927 8.99695C1.55875 10.5138 2.08838 11.801 3.14816 12.8587C4.20795 13.9165 5.49746 14.4448 7.01671 14.4438C8.39406 14.4438 9.596 13.9963 10.6225 13.1015C11.649 12.2067 12.2532 11.0784 12.4352 9.71671C12.4612 9.50921 12.5521 9.33724 12.708 9.20081C12.864 9.06438 13.0459 8.99643 13.2538 8.99695C13.4617 8.99747 13.6436 9.06231 13.7995 9.19148C13.9554 9.32064 14.0204 9.48275 13.9944 9.6778C13.8125 11.4804 13.0589 12.9848 11.7335 14.1909C10.4081 15.397 8.83585 16 7.01671 16Z" fill="var(--fill-0, white)"/>
</svg>
