<svg preserveAspectRatio="none" width="100%" height="100%" overflow="visible" style="display: block;" viewBox="0 0 42 42" fill="none" xmlns="http://www.w3.org/2000/svg">
<g id="Group 35827">
<path id="Ellipse 252" opacity="0.3" d="M21 41C32.0457 41 41 32.0457 41 21C41 9.95431 32.0457 1 21 1C9.9543 1 1 9.95431 1 21C1 32.0457 9.9543 41 21 41Z" fill="var(--fill-0, black)"/>
<path id="Path 3995" d="M27.9208 20.6485L18.4992 15.0343C18.3663 14.9555 18.2155 14.9141 18.062 14.9141C17.9085 14.9141 17.7578 14.9556 17.6248 15.0343C17.4919 15.1131 17.3815 15.2264 17.3047 15.3629C17.2279 15.4993 17.1875 15.6541 17.1875 15.8117V27.0399C17.1875 27.1975 17.2279 27.3523 17.3047 27.4887C17.3815 27.6252 17.4919 27.7385 17.6248 27.8173C17.7578 27.8961 17.9085 27.9373 18.062 27.9373C18.2155 27.9373 18.3663 27.8958 18.4992 27.8171L27.9208 22.2032C28.0517 22.1228 28.1601 22.009 28.2354 21.8727C28.3107 21.7365 28.3503 21.5824 28.3503 21.4258C28.3503 21.2692 28.3107 21.1151 28.2354 20.9789C28.1601 20.8427 28.0517 20.7288 27.9208 20.6485Z" fill="var(--fill-0, white)"/>
<path id="Ellipse 11020" d="M21 41C32.0457 41 41 32.0457 41 21C41 9.95431 32.0457 1 21 1C9.9543 1 1 9.95431 1 21C1 32.0457 9.9543 41 21 41Z" stroke="var(--stroke-0, white)" stroke-width="2" stroke-miterlimit="10"/>
</g>
</svg>
