<svg preserveAspectRatio="none" width="100%" height="100%" overflow="visible" style="display: block;" viewBox="0 0 15 15.8422" fill="none" xmlns="http://www.w3.org/2000/svg">
<g id="Group">
<path id="Vector" fill-rule="evenodd" clip-rule="evenodd" d="M7.50146 5.15625C6.76862 5.15625 6.0658 5.44737 5.5476 5.96557C5.0294 6.48376 4.73828 7.18659 4.73828 7.91943C4.73828 8.65227 5.0294 9.3551 5.5476 9.8733C6.0658 10.3915 6.76862 10.6826 7.50146 10.6826C8.2343 10.6826 8.93713 10.3915 9.45533 9.8733C9.97352 9.3551 10.2646 8.65227 10.2646 7.91943C10.2646 7.18659 9.97352 6.48376 9.45533 5.96557C8.93713 5.44737 8.2343 5.15625 7.50146 5.15625ZM5.84355 7.91943C5.84355 7.47973 6.01823 7.05803 6.32914 6.74711C6.64006 6.43619 7.06176 6.26152 7.50146 6.26152C7.94117 6.26152 8.36286 6.43619 8.67378 6.74711C8.9847 7.05803 9.15937 7.47973 9.15937 7.91943C9.15937 8.35914 8.9847 8.78083 8.67378 9.09175C8.36286 9.40267 7.94117 9.57734 7.50146 9.57734C7.06176 9.57734 6.64006 9.40267 6.32914 9.09175C6.01823 8.78083 5.84355 8.35914 5.84355 7.91943Z" fill="var(--fill-0, #515151)"/>
<path id="Vector_2" fill-rule="evenodd" clip-rule="evenodd" d="M7.48158 0C7.15368 0 6.88031 -1.37249e-08 6.65631 0.014737C6.4273 0.0239596 6.20144 0.0712746 5.98799 0.154738C5.74206 0.256489 5.51859 0.405689 5.33034 0.593816C5.14209 0.781944 4.99274 1.00531 4.89082 1.25117C4.78398 1.50907 4.75524 1.7817 4.74345 2.07791C4.74213 2.18622 4.7134 2.29242 4.65992 2.38661C4.60645 2.4808 4.52998 2.55991 4.43766 2.61655C4.34248 2.66836 4.23571 2.6952 4.12734 2.69456C4.01897 2.69392 3.91253 2.66581 3.81797 2.61286C3.55565 2.47434 3.30512 2.36307 3.02807 2.32623C2.76424 2.29153 2.49615 2.30913 2.23912 2.37803C1.98209 2.44694 1.74115 2.56579 1.53006 2.72781C1.35129 2.87111 1.19764 3.04319 1.07542 3.23697C0.950155 3.42413 0.813102 3.66066 0.649521 3.94435L0.6311 3.97677C0.466783 4.26046 0.330466 4.49699 0.231728 4.69888C0.128569 4.90962 0.0475162 5.11741 0.0180423 5.34731C-0.0522529 5.88004 0.0919331 6.41888 0.418888 6.84532C0.5891 7.06711 0.810891 7.22848 1.06142 7.38617C1.15473 7.44149 1.23247 7.51959 1.28737 7.61315C1.34227 7.70671 1.37253 7.81268 1.37532 7.92112C1.37253 8.02956 1.34227 8.13553 1.28737 8.22909C1.23247 8.32265 1.15473 8.40075 1.06142 8.45607C0.810891 8.61376 0.589837 8.77513 0.418888 8.99692C0.256867 9.20801 0.138012 9.44895 0.0691081 9.70598C0.00020443 9.96301 -0.0173981 10.2311 0.0173055 10.4949C0.0475163 10.7248 0.127833 10.9326 0.230991 11.1434C0.330466 11.3453 0.466783 11.5818 0.6311 11.8655L0.649521 11.8979C0.813102 12.1816 0.950155 12.4181 1.07542 12.6053C1.20584 12.7991 1.34584 12.9737 1.53006 13.1137C1.7411 13.2758 1.98201 13.3948 2.23904 13.4639C2.49607 13.5329 2.76419 13.5506 3.02807 13.516C3.30512 13.4792 3.55565 13.3686 3.81797 13.2294C3.91244 13.1766 4.01874 13.1485 4.12697 13.1479C4.2352 13.1472 4.34183 13.174 4.43692 13.2257C4.53 13.2816 4.60714 13.3605 4.66094 13.4549C4.71475 13.5492 4.74341 13.6557 4.74419 13.7643C4.75524 14.0605 4.78398 14.3332 4.89156 14.5911C4.99331 14.837 5.14251 15.0605 5.33064 15.2487C5.51876 15.437 5.74213 15.5863 5.98799 15.6882C6.20167 15.7767 6.42273 15.8113 6.65631 15.8268C6.88031 15.8422 7.15368 15.8422 7.48158 15.8422H7.51842C7.84632 15.8422 8.11969 15.8422 8.34369 15.8275C8.57801 15.8113 8.79833 15.7767 9.01201 15.6875C9.25794 15.5858 9.48141 15.4366 9.66966 15.2484C9.85791 15.0603 10.0073 14.8369 10.1092 14.5911C10.216 14.3332 10.2448 14.0605 10.2565 13.7643C10.2577 13.6559 10.2864 13.5495 10.3399 13.4552C10.3934 13.3609 10.4699 13.2817 10.5623 13.225C10.6576 13.1733 10.7644 13.1465 10.8728 13.1473C10.9811 13.1481 11.0875 13.1763 11.182 13.2294C11.4443 13.3679 11.6949 13.4792 11.9719 13.5153C12.5047 13.5856 13.0435 13.4414 13.4699 13.1144C13.6542 12.973 13.7942 12.7991 13.9246 12.6053C14.0498 12.4181 14.1869 12.1816 14.3505 11.8979L14.3689 11.8655C14.5332 11.5818 14.6695 11.3453 14.7683 11.1434C14.8714 10.9326 14.9525 10.7241 14.982 10.4949C15.0523 9.9622 14.9081 9.42335 14.5811 8.99692C14.4109 8.77513 14.1891 8.61376 13.9386 8.45607C13.8453 8.40075 13.7675 8.32265 13.7126 8.22909C13.6577 8.13553 13.6275 8.02956 13.6247 7.92112C13.6247 7.71628 13.7367 7.51291 13.9386 7.38617C14.1891 7.22848 14.4102 7.06711 14.5811 6.84532C14.7431 6.63423 14.862 6.39328 14.9309 6.13626C14.9998 5.87923 15.0174 5.61114 14.9827 5.34731C14.948 5.1208 14.8758 4.90166 14.769 4.69888C14.6432 4.45408 14.5097 4.21326 14.3689 3.97677L14.3505 3.94435C14.2159 3.70419 14.0739 3.46829 13.9246 3.23697C13.8023 3.04345 13.6486 2.87163 13.4699 2.72855C13.2589 2.5664 13.018 2.44741 12.761 2.37838C12.5039 2.30935 12.2358 2.29163 11.9719 2.32623C11.6949 2.36307 11.4443 2.4736 11.182 2.61286C11.0876 2.66568 10.9813 2.69371 10.873 2.69436C10.7648 2.695 10.6582 2.66823 10.5631 2.61655C10.4705 2.56009 10.3937 2.48106 10.34 2.38686C10.2862 2.29265 10.2573 2.18636 10.2558 2.07791C10.2448 1.7817 10.216 1.50907 10.1084 1.25117C10.0067 1.00525 9.85749 0.781775 9.66936 0.593521C9.48124 0.405267 9.25787 0.255918 9.01201 0.154001C8.79833 0.0655795 8.57727 0.0309477 8.34369 0.0154738C8.11969 2.05873e-08 7.84632 0 7.51842 0H7.48158ZM6.41094 1.17527C6.46768 1.15169 6.55389 1.13033 6.73147 1.1178C6.91347 1.10527 7.14926 1.10527 7.5 1.10527C7.85074 1.10527 8.08653 1.10527 8.26853 1.1178C8.44611 1.13033 8.53232 1.15169 8.58906 1.17527C8.81527 1.26885 8.99433 1.44791 9.08791 1.67412C9.11738 1.74486 9.1417 1.85612 9.15128 2.11918C9.17338 2.70276 9.47475 3.26497 10.0097 3.57371C10.5447 3.88245 11.182 3.86256 11.6986 3.58993C11.9314 3.46687 12.0397 3.43224 12.1164 3.42266C12.3585 3.39067 12.6034 3.45614 12.7972 3.60466C12.8458 3.64224 12.9077 3.70635 13.0072 3.85372C13.1096 4.00551 13.2275 4.20961 13.4029 4.5132C13.5783 4.81678 13.6954 5.02162 13.7757 5.1852C13.8546 5.3451 13.8789 5.43057 13.8863 5.49173C13.9183 5.73383 13.8528 5.97873 13.7043 6.17258C13.6571 6.23374 13.5731 6.31037 13.3506 6.45037C12.8554 6.76132 12.5194 7.30364 12.5194 7.92112C12.5194 8.5386 12.8554 9.08092 13.3506 9.39187C13.5731 9.53187 13.6571 9.6085 13.7043 9.66966C13.8531 9.86345 13.9179 10.1081 13.8863 10.3505C13.8789 10.4117 13.8538 10.4979 13.7757 10.657C13.6954 10.8214 13.5783 11.0255 13.4029 11.329C13.2275 11.6326 13.1089 11.8367 13.0072 11.9885C12.9077 12.1359 12.8458 12.2 12.7972 12.2376C12.6034 12.3861 12.3585 12.4516 12.1164 12.4196C12.0397 12.41 11.9321 12.3754 11.6986 12.2523C11.1828 11.9797 10.5447 11.959 10.0097 12.2678C9.47475 12.5765 9.17338 13.1395 9.15128 13.7231C9.1417 13.9861 9.11738 14.0974 9.08791 14.1681C9.04162 14.28 8.97373 14.3816 8.88814 14.4672C8.80254 14.5528 8.70091 14.6207 8.58906 14.667C8.53232 14.6905 8.44611 14.7119 8.26853 14.7244C8.08653 14.737 7.85074 14.737 7.5 14.737C7.14926 14.737 6.91347 14.737 6.73147 14.7244C6.55389 14.7119 6.46768 14.6905 6.41094 14.667C6.29909 14.6207 6.19746 14.5528 6.11186 14.4672C6.02627 14.3816 5.95838 14.28 5.91209 14.1681C5.88262 14.0974 5.8583 13.9861 5.84872 13.7231C5.82662 13.1395 5.52525 12.5773 4.99029 12.2685C4.45534 11.9598 3.81797 11.9797 3.30144 12.2523C3.06859 12.3754 2.96028 12.41 2.88365 12.4196C2.64154 12.4516 2.39664 12.3861 2.2028 12.2376C2.15417 12.2 2.09227 12.1359 1.9928 11.9885C1.85418 11.7728 1.72222 11.5529 1.59711 11.329C1.42174 11.0255 1.30458 10.8206 1.22426 10.657C1.14542 10.4971 1.1211 10.4117 1.11374 10.3505C1.08174 10.1084 1.14721 9.86351 1.29574 9.66966C1.3429 9.6085 1.4269 9.53187 1.64942 9.39187C2.14459 9.08092 2.48059 8.5386 2.48059 7.92112C2.48059 7.30364 2.14459 6.76132 1.64942 6.45037C1.4269 6.31037 1.3429 6.23374 1.29574 6.17258C1.14721 5.97873 1.08174 5.73383 1.11374 5.49173C1.1211 5.43057 1.14616 5.34436 1.22426 5.1852C1.30458 5.02088 1.42174 4.81678 1.59711 4.5132C1.77248 4.20961 1.89111 4.00551 1.9928 3.85372C2.09227 3.70635 2.15417 3.64224 2.2028 3.60466C2.39664 3.45614 2.64154 3.39067 2.88365 3.42266C2.96028 3.43224 3.06786 3.46687 3.30144 3.58993C3.81723 3.86256 4.45534 3.88319 4.99029 3.57371C5.52525 3.26497 5.82662 2.70276 5.84872 2.11918C5.8583 1.85612 5.88262 1.74486 5.91209 1.67412C6.00567 1.44791 6.18473 1.26885 6.41094 1.17527Z" fill="var(--fill-0, #515151)"/>
</g>
</svg>
