<svg preserveAspectRatio="none" width="100%" height="100%" overflow="visible" style="display: block;" viewBox="0 0 10.6445 12.9499" fill="none" xmlns="http://www.w3.org/2000/svg">
<g id="Icon Container">
<path id="Path 198235" d="M9.43838 3.53125C9.36103 3.53125 9.28444 3.54649 9.21297 3.57609C9.14151 3.60569 9.07658 3.64907 9.02189 3.70377C8.9672 3.75846 8.92381 3.82339 8.89421 3.89485C8.86461 3.96631 8.84937 4.04291 8.84937 4.12025V10.7073C8.83258 11.0049 8.69881 11.2839 8.47722 11.4834C8.25563 11.6829 7.96418 11.7867 7.66638 11.7723H2.96938C2.67157 11.7867 2.38012 11.6829 2.15853 11.4834C1.93694 11.2839 1.80317 11.0049 1.78638 10.7073V4.12025C1.78011 3.96837 1.71537 3.82479 1.60569 3.71954C1.49601 3.61429 1.34989 3.55552 1.19788 3.55552C1.04586 3.55552 0.899738 3.61429 0.790058 3.71954C0.680378 3.82479 0.615637 3.96837 0.609375 4.12025V10.7073C0.626135 11.3171 0.883912 11.8955 1.32625 12.3158C1.76859 12.736 2.35943 12.9638 2.96938 12.9493H7.66938C8.27932 12.9638 8.87017 12.736 9.3125 12.3158C9.75484 11.8955 10.0126 11.3171 10.0294 10.7073V4.12025C10.0294 4.04274 10.0141 3.96598 9.98435 3.89439C9.95462 3.8228 9.91106 3.75778 9.85615 3.70306C9.80125 3.64834 9.73608 3.605 9.66439 3.57551C9.5927 3.54603 9.51589 3.53099 9.43838 3.53125Z" fill="var(--fill-0, #616161)"/>
<path id="Path 198236" d="M10.0313 1.766H7.67626V0.589C7.67626 0.432961 7.61435 0.283298 7.5041 0.172867C7.39386 0.0624371 7.2443 0.000264923 7.08826 0H3.55626C3.40005 0 3.25024 0.0620552 3.13978 0.172514C3.02932 0.282973 2.96726 0.432787 2.96726 0.589V1.766H0.613264C0.53394 1.76273 0.454774 1.77553 0.380522 1.80363C0.30627 1.83173 0.238466 1.87455 0.181183 1.92952C0.1239 1.98449 0.0783214 2.05047 0.0471857 2.12351C0.0160499 2.19654 0 2.27511 0 2.3545C0 2.43389 0.0160499 2.51246 0.0471857 2.58549C0.0783214 2.65853 0.1239 2.72451 0.181183 2.77948C0.238466 2.83445 0.30627 2.87727 0.380522 2.90537C0.454774 2.93347 0.53394 2.94627 0.613264 2.943H10.0313C10.1106 2.94627 10.1898 2.93347 10.264 2.90537C10.3383 2.87727 10.4061 2.83445 10.4633 2.77948C10.5206 2.72451 10.5662 2.65853 10.5973 2.58549C10.6285 2.51246 10.6445 2.43389 10.6445 2.3545C10.6445 2.27511 10.6285 2.19654 10.5973 2.12351C10.5662 2.05047 10.5206 1.98449 10.4633 1.92952C10.4061 1.87455 10.3383 1.83173 10.264 1.80363C10.1898 1.77553 10.1106 1.76273 10.0313 1.766ZM4.14526 1.766V1.177H6.49926V1.766H4.14526Z" fill="var(--fill-0, #616161)"/>
<path id="Path 198237" d="M4.73169 9.41911V5.29911C4.72543 5.14723 4.66068 5.00365 4.551 4.8984C4.44132 4.79315 4.2952 4.73438 4.14319 4.73438C3.99118 4.73438 3.84505 4.79315 3.73537 4.8984C3.62569 5.00365 3.56095 5.14723 3.55469 5.29911V9.41911C3.56095 9.57099 3.62569 9.71457 3.73537 9.81982C3.84505 9.92508 3.99118 9.98385 4.14319 9.98385C4.2952 9.98385 4.44132 9.92508 4.551 9.81982C4.66068 9.71457 4.72543 9.57099 4.73169 9.41911Z" fill="var(--fill-0, #616161)"/>
<path id="Path 198238" d="M7.08375 9.42076V5.30076C7.08702 5.22144 7.07422 5.14227 7.04612 5.06802C7.01802 4.99377 6.9752 4.92597 6.92023 4.86868C6.86526 4.8114 6.79928 4.76582 6.72624 4.73469C6.65321 4.70355 6.57464 4.6875 6.49525 4.6875C6.41586 4.6875 6.33729 4.70355 6.26426 4.73469C6.19122 4.76582 6.12524 4.8114 6.07027 4.86868C6.0153 4.92597 5.97248 4.99377 5.94438 5.06802C5.91628 5.14227 5.90348 5.22144 5.90675 5.30076V9.42076C5.90348 9.50009 5.91628 9.57925 5.94438 9.65351C5.97248 9.72776 6.0153 9.79556 6.07027 9.85285C6.12524 9.91013 6.19122 9.95571 6.26426 9.98684C6.33729 10.018 6.41586 10.034 6.49525 10.034C6.57464 10.034 6.65321 10.018 6.72624 9.98684C6.79928 9.95571 6.86526 9.91013 6.92023 9.85285C6.9752 9.79556 7.01802 9.72776 7.04612 9.65351C7.07422 9.57925 7.08702 9.50009 7.08375 9.42076Z" fill="var(--fill-0, #616161)"/>
</g>
</svg>
