<svg preserveAspectRatio="none" width="100%" height="100%" overflow="visible" style="display: block;" viewBox="0 0 17.0002 16" fill="none" xmlns="http://www.w3.org/2000/svg">
<g id="Video Controls Icon Container">
<path id="Path 83300" d="M0 5.51358V10.517H3.44515L7.73689 13.8654V2.16406L3.44515 5.51358H0Z" fill="var(--fill-0, white)"/>
<path id="Path 83301" d="M12.9168 0L11.9022 1.58751C13.7397 2.37563 15.1331 5.00007 15.1331 8.00507C15.1331 10.9887 13.7623 13.5917 11.9495 14.4069L12.9348 16C15.309 14.7908 17 11.6687 17 8.00619C17 4.34368 15.3033 1.20245 12.9168 0Z" fill="var(--fill-0, white)"/>
<path id="Path 83302" d="M10.968 3.08594L9.98047 4.64191C10.4276 5.07961 10.7797 5.60461 11.0148 6.18418C11.2499 6.76374 11.3629 7.38546 11.3468 8.01057C11.3608 8.61976 11.2534 9.22566 11.0311 9.79311C10.8087 10.3606 10.4757 10.8783 10.0515 11.3162L11.0244 12.8924C11.7179 12.2756 12.272 11.5183 12.6496 10.671C13.0272 9.8236 13.2198 8.90563 13.2144 7.97815C13.2091 7.05067 13.006 6.13496 12.6187 5.29199C12.2313 4.44902 11.6686 3.69814 10.968 3.08931V3.08594Z" fill="var(--fill-0, white)"/>
</g>
</svg>
