<svg preserveAspectRatio="none" width="100%" height="100%" overflow="visible" style="display: block;" viewBox="0 0 21.5938 15.2956" fill="none" xmlns="http://www.w3.org/2000/svg">
<g id="Download Icon Container">
<path id="Icon awesome-cloud-download-alt" d="M7.37891 0.667969C8.42045 0.386644 9.52474 0.460179 10.5205 0.878906C11.5164 1.2977 12.3488 2.03841 12.8877 2.98633L13.1553 3.45703L13.6035 3.15332C14.0526 2.84854 14.5805 2.68615 15.1201 2.68652C15.564 2.68706 16.0013 2.79701 16.3945 3.00684C16.7878 3.21669 17.1257 3.52055 17.3779 3.89258C17.6301 4.26456 17.7897 4.69377 17.8418 5.14258C17.8939 5.5914 17.837 6.0463 17.6768 6.46777L18.0928 6.62598L18.041 7.13477C18.966 7.32688 19.7897 7.85982 20.3506 8.63184C20.9115 9.40398 21.1695 10.3605 21.0742 11.3154C20.9788 12.2703 20.5365 13.1544 19.835 13.7969C19.1337 14.4389 18.223 14.7946 17.2793 14.7959H4.86133C3.83368 14.7959 2.83766 14.4284 2.05078 13.7568C1.2638 13.0852 0.736276 12.1521 0.5625 11.123C0.388752 10.0938 0.580717 9.03585 1.10352 8.13672C1.62617 7.23785 2.44523 6.55616 3.41504 6.21094L3.77246 6.08398L3.74707 5.70508C3.74208 5.63262 3.74121 5.55808 3.74121 5.46289C3.74116 4.36843 4.09886 3.30542 4.75684 2.43848C5.41492 1.57151 6.33717 0.949435 7.37891 0.667969ZM11.5693 4.91699C11.5688 4.64192 11.4605 4.37701 11.2666 4.18066C11.0724 3.98416 10.8075 3.87173 10.5303 3.87109H8.90918C8.63196 3.87172 8.3671 3.98416 8.17285 4.18066C7.97898 4.377 7.87065 4.64191 7.87012 4.91699V8.24121H6.16406C5.95716 8.24093 5.75522 8.30251 5.58398 8.41797C5.41276 8.53344 5.28027 8.69723 5.20215 8.8877C5.12406 9.07826 5.10374 9.28831 5.14355 9.49023C5.17345 9.64151 5.23645 9.78368 5.32715 9.90723L5.42676 10.0244L8.98535 13.623L8.9873 13.625C9.18198 13.8196 9.4465 13.9297 9.72266 13.9297C9.99862 13.9296 10.2624 13.8194 10.457 13.625L10.459 13.6221L14.0137 10.0234C14.1588 9.87683 14.2572 9.69113 14.2969 9.48926C14.3366 9.28715 14.3166 9.07736 14.2383 8.88672C14.1599 8.69617 14.027 8.53232 13.8555 8.41699C13.6842 8.30188 13.4821 8.24072 13.2754 8.24121H11.5693V4.91699Z" fill="var(--fill-0, #616161)" stroke="var(--stroke-0, #616161)"/>
</g>
</svg>
