<svg preserveAspectRatio="none" width="100%" height="100%" overflow="visible" style="display: block;" viewBox="0 0 18.5033 16.5" fill="none" xmlns="http://www.w3.org/2000/svg">
<g id="Doubt Icon Container">
<path id="Path 197717" d="M0.25 5.79729V2.1944C0.250186 1.679 0.462558 1.18475 0.840476 0.820178C1.21839 0.45561 1.73096 0.250539 2.2656 0.25H16.237C16.7714 0.250538 17.2838 0.455424 17.6617 0.819698C18.0396 1.18397 18.2521 1.67788 18.2526 2.19304V7.53438C18.2526 7.7322 18.0861 12.4997 17.8809 12.4997C17.6757 12.4997 17.5091 7.7322 17.5091 7.53438V2.1944C17.5087 1.86946 17.3747 1.55794 17.1363 1.32818C16.898 1.09841 16.5748 0.969175 16.2378 0.968817H2.2656C1.92853 0.969175 1.60538 1.09841 1.36703 1.32818C1.12869 1.55794 0.994626 1.86946 0.994254 2.1944V11.6996C0.994626 12.0245 1.12869 12.336 1.36703 12.5658C1.60538 12.7956 1.92853 12.9248 2.2656 12.9252H10.3139C10.4168 12.9249 10.5187 12.9442 10.6138 12.9821C10.7088 13.02 10.7952 13.0757 10.8677 13.146L13.3331 15.5227C13.3385 15.5279 13.3454 15.5315 13.3529 15.5329C13.3605 15.5344 13.3683 15.5336 13.3753 15.5308C13.3824 15.528 13.3885 15.5232 13.3927 15.517C13.397 15.5109 13.3992 15.5036 13.3992 15.4962V13.6826C13.3994 13.4825 13.4819 13.2906 13.6287 13.1491C13.7755 13.0076 13.9745 12.9281 14.1821 12.9279H16.2363C16.4036 12.9279 16.5692 12.8961 16.7237 12.8344C16.8782 12.7726 17.0186 12.6821 17.1368 12.568C17.255 12.454 17.3487 12.3185 17.4126 12.1695C17.4765 12.0205 17.5093 11.8608 17.5091 11.6996V8.97066C17.5091 8.77283 17.6447 1.88207 17.8507 1.88207C18.0566 1.88207 18.2533 8.77283 18.2533 8.97066V11.6996C18.2528 12.2147 18.0403 12.7087 17.6624 13.0729C17.2845 13.4372 16.7721 13.6421 16.2378 13.6426H14.1828C14.1725 13.6426 14.1627 13.6466 14.1555 13.6535C14.1482 13.6605 14.1441 13.67 14.1441 13.6799V15.4962C14.1439 15.6453 14.098 15.7909 14.012 15.9148C13.9261 16.0387 13.804 16.1353 13.6612 16.1924C13.5183 16.2495 13.3612 16.2646 13.2095 16.2357C13.0578 16.2068 12.9184 16.1353 12.8088 16.0301C12.8088 16.0301 11.5298 14.7483 10.8565 14.1521C10.1832 13.5559 10.1122 13.6447 10.1122 13.6447H2.2656C1.73084 13.6441 1.21816 13.439 0.840227 13.0742C0.46229 12.7095 0.25 12.2151 0.25 11.6996L0.25 5.79729Z" fill="var(--fill-0, #FC5A5A)" stroke="var(--stroke-0, #FC5A5A)" stroke-width="0.5"/>
<g id="Path 197719">
<mask id="path-2-inside-1_187_19277" fill="white">
<path d="M8.05469 10.9174C8.05469 11.1451 8.12476 11.3678 8.25604 11.5572C8.38732 11.7466 8.57391 11.8943 8.79222 11.9814C9.01053 12.0686 9.25076 12.0914 9.48252 12.047C9.71427 12.0025 9.92715 11.8928 10.0942 11.7318C10.2613 11.5707 10.3751 11.3655 10.4212 11.142C10.4673 10.9186 10.4437 10.6871 10.3532 10.4766C10.2628 10.2662 10.1097 10.0863 9.91319 9.95973C9.71672 9.83317 9.48572 9.76563 9.24943 9.76563C8.93256 9.76563 8.62868 9.88697 8.40462 10.103C8.18057 10.319 8.05469 10.6119 8.05469 10.9174ZM9.69851 10.9174C9.69851 11.0031 9.67213 11.087 9.62271 11.1583C9.57329 11.2296 9.50304 11.2851 9.42086 11.318C9.33867 11.3508 9.24823 11.3593 9.16098 11.3426C9.07373 11.3259 8.99359 11.2846 8.93069 11.224C8.86778 11.1633 8.82494 11.0861 8.80759 11.002C8.79023 10.9178 8.79914 10.8307 8.83319 10.7514C8.86723 10.6722 8.92488 10.6045 8.99885 10.5568C9.07281 10.5092 9.15977 10.4838 9.24873 10.4838C9.36796 10.4839 9.48226 10.5297 9.56657 10.611C9.65088 10.6922 9.69833 10.8024 9.69851 10.9174Z"/>
</mask>
<path d="M8.05469 10.9174C8.05469 11.1451 8.12476 11.3678 8.25604 11.5572C8.38732 11.7466 8.57391 11.8943 8.79222 11.9814C9.01053 12.0686 9.25076 12.0914 9.48252 12.047C9.71427 12.0025 9.92715 11.8928 10.0942 11.7318C10.2613 11.5707 10.3751 11.3655 10.4212 11.142C10.4673 10.9186 10.4437 10.6871 10.3532 10.4766C10.2628 10.2662 10.1097 10.0863 9.91319 9.95973C9.71672 9.83317 9.48572 9.76563 9.24943 9.76563C8.93256 9.76563 8.62868 9.88697 8.40462 10.103C8.18057 10.319 8.05469 10.6119 8.05469 10.9174ZM9.69851 10.9174C9.69851 11.0031 9.67213 11.087 9.62271 11.1583C9.57329 11.2296 9.50304 11.2851 9.42086 11.318C9.33867 11.3508 9.24823 11.3593 9.16098 11.3426C9.07373 11.3259 8.99359 11.2846 8.93069 11.224C8.86778 11.1633 8.82494 11.0861 8.80759 11.002C8.79023 10.9178 8.79914 10.8307 8.83319 10.7514C8.86723 10.6722 8.92488 10.6045 8.99885 10.5568C9.07281 10.5092 9.15977 10.4838 9.24873 10.4838C9.36796 10.4839 9.48226 10.5297 9.56657 10.611C9.65088 10.6922 9.69833 10.8024 9.69851 10.9174Z" fill="var(--fill-0, #FC5A5A)"/>
<path d="M8.05469 10.9174H7.05469H8.05469ZM9.69851 10.9174H10.6985L10.6985 10.9157L9.69851 10.9174ZM9.24873 10.4838L9.25023 9.48376H9.24873V10.4838ZM8.05469 10.9174H7.05469C7.05469 11.3513 7.18834 11.7722 7.43416 12.1269L8.25604 11.5572L9.07791 10.9876C9.06117 10.9634 9.05469 10.939 9.05469 10.9174H8.05469ZM8.25604 11.5572L7.43416 12.1269C7.67964 12.4811 8.02463 12.7517 8.42139 12.9101L8.79222 11.9814L9.16305 11.0527C9.12319 11.0368 9.09499 11.0122 9.07791 10.9876L8.25604 11.5572ZM8.79222 11.9814L8.42139 12.9101C8.81788 13.0684 9.25219 13.1093 9.67084 13.0291L9.48252 12.047L9.2942 11.0649C9.24933 11.0735 9.20318 11.0687 9.16305 11.0527L8.79222 11.9814ZM9.48252 12.047L9.67084 13.0291C10.0896 12.9488 10.4791 12.7497 10.7883 12.4517L10.0942 11.7318L9.40021 11.0118C9.37517 11.036 9.33892 11.0563 9.2942 11.0649L9.48252 12.047ZM10.0942 11.7318L10.7883 12.4517C11.0978 12.1533 11.313 11.7686 11.4006 11.3441L10.4212 11.142L9.44185 10.94C9.43724 10.9623 9.42485 10.9881 9.40021 11.0118L10.0942 11.7318ZM10.4212 11.142L11.4006 11.3441C11.4882 10.9194 11.4429 10.4795 11.272 10.0818L10.3532 10.4766L9.43445 10.8714C9.44443 10.8946 9.4464 10.9179 9.44185 10.94L10.4212 11.142ZM10.3532 10.4766L11.272 10.0818C11.1013 9.6846 10.8149 9.35104 10.4547 9.11903L9.91319 9.95973L9.37168 10.8004C9.40444 10.8215 9.42428 10.8477 9.43445 10.8714L10.3532 10.4766ZM9.91319 9.95973L10.4547 9.11903C10.0949 8.88726 9.67551 8.76563 9.24943 8.76563V9.76563V10.7656C9.29594 10.7656 9.33856 10.7791 9.37168 10.8004L9.91319 9.95973ZM9.24943 9.76563V8.76563C8.67892 8.76563 8.12476 8.98377 7.71059 9.38302L8.40462 10.103L9.09865 10.8229C9.13261 10.7902 9.18621 10.7656 9.24943 10.7656V9.76563ZM8.40462 10.103L7.71059 9.38302C7.29519 9.78347 7.05469 10.3346 7.05469 10.9174H8.05469H9.05469C9.05469 10.8892 9.06595 10.8544 9.09865 10.8229L8.40462 10.103ZM9.69851 10.9174H8.69851C8.69851 10.797 8.73573 10.6825 8.80083 10.5886L9.62271 11.1583L10.4446 11.7279C10.6085 11.4914 10.6985 11.2092 10.6985 10.9174H9.69851ZM9.62271 11.1583L8.80083 10.5886C8.8656 10.4952 8.95374 10.4277 9.05002 10.3893L9.42086 11.318L9.79169 12.2467C10.0523 12.1426 10.281 11.964 10.4446 11.7279L9.62271 11.1583ZM9.42086 11.318L9.05002 10.3893C9.14608 10.3509 9.24973 10.3414 9.3493 10.3605L9.16098 11.3426L8.97266 12.3247C9.24673 12.3773 9.53126 12.3506 9.79169 12.2467L9.42086 11.318ZM9.16098 11.3426L9.3493 10.3605C9.4491 10.3796 9.54558 10.4277 9.62472 10.504L8.93069 11.224L8.23666 11.9439C8.4416 12.1415 8.69835 12.2721 8.97266 12.3247L9.16098 11.3426ZM8.93069 11.224L9.62472 10.504C9.70424 10.5807 9.76282 10.6829 9.78696 10.7999L8.80759 11.002L7.82822 11.204C7.88707 11.4892 8.03132 11.746 8.23666 11.9439L8.93069 11.224ZM8.80759 11.002L9.78696 10.7999C9.81115 10.9171 9.79836 11.0382 9.75196 11.1462L8.83319 10.7514L7.91441 10.3566C7.79992 10.6231 7.76932 10.9186 7.82822 11.204L8.80759 11.002ZM8.83319 10.7514L9.75196 11.1462C9.70574 11.2538 9.63009 11.3397 9.54036 11.3975L8.99885 10.5568L8.45733 9.71615C8.21967 9.86923 8.02872 10.0906 7.91441 10.3566L8.83319 10.7514ZM8.99885 10.5568L9.54036 11.3975C9.451 11.4551 9.3496 11.4838 9.24873 11.4838V10.4838V9.48376C8.96994 9.48376 8.69462 9.5633 8.45733 9.71615L8.99885 10.5568ZM9.24873 10.4838L9.24723 11.4838C9.11334 11.4836 8.97796 11.4325 8.87254 11.3309L9.56657 10.611L10.2606 9.89101C9.98656 9.62684 9.62259 9.48432 9.25023 9.48376L9.24873 10.4838ZM9.56657 10.611L8.87254 11.3309C8.76588 11.2281 8.69878 11.0808 8.69852 10.919L9.69851 10.9174L10.6985 10.9157C10.6979 10.5241 10.5359 10.1564 10.2606 9.89101L9.56657 10.611Z" fill="var(--stroke-0, #FC5A5A)" mask="url(#path-2-inside-1_187_19277)"/>
</g>
<g id="Path 197720">
<mask id="path-4-inside-2_187_19277" fill="white">
<path d="M10.446 7.0456C10.9076 6.8392 11.3032 6.51693 11.5913 6.11255C11.8793 5.70817 12.0493 5.23656 12.0834 4.74711C12.1175 4.25766 12.0144 3.76837 11.785 3.33049C11.5556 2.89262 11.2083 2.52227 10.7794 2.25822C10.3505 1.99418 9.85591 1.84616 9.34732 1.82967C8.83874 1.81318 8.33491 1.92882 7.88861 2.16449C7.4423 2.40015 7.06994 2.74717 6.81052 3.16919C6.5511 3.59121 6.41417 4.07272 6.41406 4.56327C6.41406 4.86873 6.53994 5.16168 6.76399 5.37767C6.98805 5.59366 7.29194 5.71501 7.6088 5.71501C7.92567 5.71501 8.22956 5.59366 8.45362 5.37767C8.67767 5.16168 8.80355 4.86873 8.80355 4.56327C8.80264 4.50388 8.81468 4.44497 8.83889 4.39035C8.86311 4.33573 8.89895 4.28662 8.9441 4.24621C8.98962 4.20541 9.0434 4.17413 9.10205 4.15431C9.16071 4.13449 9.22298 4.12656 9.28496 4.13103C9.39147 4.1407 9.49113 4.18594 9.56671 4.25893C9.64229 4.33191 9.68905 4.42806 9.6989 4.53076C9.70574 4.62259 9.68221 4.71415 9.63171 4.79229C9.5812 4.87044 9.5063 4.93115 9.41778 4.9657C9.01218 5.1265 8.66561 5.40035 8.42246 5.75218C8.17931 6.10402 8.05066 6.51783 8.05297 6.94059V7.73257C8.05297 7.88382 8.08387 8.03359 8.14391 8.17332C8.20395 8.31306 8.29196 8.44002 8.4029 8.54697C8.51384 8.65392 8.64555 8.73876 8.7905 8.79664C8.93545 8.85452 9.09082 8.88431 9.24771 8.88431C9.40461 8.88431 9.55996 8.85452 9.70492 8.79664C9.84987 8.73876 9.98157 8.65392 10.0925 8.54697C10.2035 8.44002 10.2915 8.31306 10.3515 8.17332C10.4115 8.03359 10.4425 7.88382 10.4425 7.73257V7.0456H10.446ZM10.0468 6.43112C9.94298 6.473 9.85461 6.54394 9.79309 6.63477C9.73157 6.7256 9.69974 6.83213 9.70171 6.94059V7.73257C9.70171 7.84757 9.65432 7.95786 9.56997 8.03917C9.48562 8.12048 9.37122 8.16617 9.25193 8.16617C9.13264 8.16617 9.01823 8.12048 8.93388 8.03917C8.84953 7.95786 8.80214 7.84757 8.80214 7.73257V6.94059C8.8002 6.66015 8.88509 6.38553 9.04597 6.15188C9.20685 5.91822 9.4364 5.73615 9.70523 5.62896C9.93788 5.53688 10.1344 5.37638 10.2669 5.17031C10.3994 4.96424 10.4611 4.72312 10.4431 4.4813C10.4194 4.20633 10.2953 3.94838 10.0929 3.75327C9.89049 3.55817 9.6229 3.43853 9.33766 3.4156C9.30908 3.4156 9.28097 3.4156 9.25333 3.4156C8.93647 3.4156 8.63258 3.53695 8.40852 3.75294C8.18447 3.96893 8.05859 4.26188 8.05859 4.56734C8.05859 4.68233 8.0112 4.79262 7.92685 4.87394C7.8425 4.95525 7.72809 5.00093 7.6088 5.00093C7.48951 5.00093 7.37511 4.95525 7.29076 4.87394C7.20641 4.79262 7.15902 4.68233 7.15902 4.56734C7.15902 4.20158 7.26214 3.8427 7.45733 3.52906C7.65253 3.21541 7.93247 2.9588 8.26724 2.78665C8.602 2.6145 8.979 2.53328 9.35794 2.55168C9.73688 2.57008 10.1035 2.6874 10.4186 2.89111C10.7338 3.09481 10.9855 3.37724 11.1471 3.7082C11.3086 4.03916 11.3738 4.40622 11.3356 4.77013C11.2975 5.13404 11.1575 5.48112 10.9306 5.77428C10.7038 6.06743 10.3985 6.29564 10.0475 6.4345L10.0468 6.43112Z"/>
</mask>
<path d="M10.446 7.0456C10.9076 6.8392 11.3032 6.51693 11.5913 6.11255C11.8793 5.70817 12.0493 5.23656 12.0834 4.74711C12.1175 4.25766 12.0144 3.76837 11.785 3.33049C11.5556 2.89262 11.2083 2.52227 10.7794 2.25822C10.3505 1.99418 9.85591 1.84616 9.34732 1.82967C8.83874 1.81318 8.33491 1.92882 7.88861 2.16449C7.4423 2.40015 7.06994 2.74717 6.81052 3.16919C6.5511 3.59121 6.41417 4.07272 6.41406 4.56327C6.41406 4.86873 6.53994 5.16168 6.76399 5.37767C6.98805 5.59366 7.29194 5.71501 7.6088 5.71501C7.92567 5.71501 8.22956 5.59366 8.45362 5.37767C8.67767 5.16168 8.80355 4.86873 8.80355 4.56327C8.80264 4.50388 8.81468 4.44497 8.83889 4.39035C8.86311 4.33573 8.89895 4.28662 8.9441 4.24621C8.98962 4.20541 9.0434 4.17413 9.10205 4.15431C9.16071 4.13449 9.22298 4.12656 9.28496 4.13103C9.39147 4.1407 9.49113 4.18594 9.56671 4.25893C9.64229 4.33191 9.68905 4.42806 9.6989 4.53076C9.70574 4.62259 9.68221 4.71415 9.63171 4.79229C9.5812 4.87044 9.5063 4.93115 9.41778 4.9657C9.01218 5.1265 8.66561 5.40035 8.42246 5.75218C8.17931 6.10402 8.05066 6.51783 8.05297 6.94059V7.73257C8.05297 7.88382 8.08387 8.03359 8.14391 8.17332C8.20395 8.31306 8.29196 8.44002 8.4029 8.54697C8.51384 8.65392 8.64555 8.73876 8.7905 8.79664C8.93545 8.85452 9.09082 8.88431 9.24771 8.88431C9.40461 8.88431 9.55996 8.85452 9.70492 8.79664C9.84987 8.73876 9.98157 8.65392 10.0925 8.54697C10.2035 8.44002 10.2915 8.31306 10.3515 8.17332C10.4115 8.03359 10.4425 7.88382 10.4425 7.73257V7.0456H10.446ZM10.0468 6.43112C9.94298 6.473 9.85461 6.54394 9.79309 6.63477C9.73157 6.7256 9.69974 6.83213 9.70171 6.94059V7.73257C9.70171 7.84757 9.65432 7.95786 9.56997 8.03917C9.48562 8.12048 9.37122 8.16617 9.25193 8.16617C9.13264 8.16617 9.01823 8.12048 8.93388 8.03917C8.84953 7.95786 8.80214 7.84757 8.80214 7.73257V6.94059C8.8002 6.66015 8.88509 6.38553 9.04597 6.15188C9.20685 5.91822 9.4364 5.73615 9.70523 5.62896C9.93788 5.53688 10.1344 5.37638 10.2669 5.17031C10.3994 4.96424 10.4611 4.72312 10.4431 4.4813C10.4194 4.20633 10.2953 3.94838 10.0929 3.75327C9.89049 3.55817 9.6229 3.43853 9.33766 3.4156C9.30908 3.4156 9.28097 3.4156 9.25333 3.4156C8.93647 3.4156 8.63258 3.53695 8.40852 3.75294C8.18447 3.96893 8.05859 4.26188 8.05859 4.56734C8.05859 4.68233 8.0112 4.79262 7.92685 4.87394C7.8425 4.95525 7.72809 5.00093 7.6088 5.00093C7.48951 5.00093 7.37511 4.95525 7.29076 4.87394C7.20641 4.79262 7.15902 4.68233 7.15902 4.56734C7.15902 4.20158 7.26214 3.8427 7.45733 3.52906C7.65253 3.21541 7.93247 2.9588 8.26724 2.78665C8.602 2.6145 8.979 2.53328 9.35794 2.55168C9.73688 2.57008 10.1035 2.6874 10.4186 2.89111C10.7338 3.09481 10.9855 3.37724 11.1471 3.7082C11.3086 4.03916 11.3738 4.40622 11.3356 4.77013C11.2975 5.13404 11.1575 5.48112 10.9306 5.77428C10.7038 6.06743 10.3985 6.29564 10.0475 6.4345L10.0468 6.43112Z" fill="var(--fill-0, #FC5A5A)"/>
<path d="M10.446 7.0456V8.0456H10.6593L10.8541 7.95851L10.446 7.0456ZM6.41406 4.56327L5.41406 4.56306V4.56327H6.41406ZM8.80355 4.56327H9.80355V4.55562L9.80343 4.54796L8.80355 4.56327ZM8.9441 4.24621L9.61102 4.99134L9.61148 4.99093L8.9441 4.24621ZM9.28496 4.13103L9.37537 3.13513L9.36613 3.13429L9.35688 3.13362L9.28496 4.13103ZM9.6989 4.53076L10.6961 4.45654L10.6954 4.4459L10.6943 4.43528L9.6989 4.53076ZM9.41778 4.9657L9.05412 4.03416L9.04925 4.03609L9.41778 4.9657ZM8.05297 6.94059H9.05298L9.05295 6.93512L8.05297 6.94059ZM8.05297 7.73258H9.05297V7.73258H8.05297ZM9.24771 8.88431V7.88431V8.88431ZM10.4425 7.73258H9.44245V7.73258H10.4425ZM10.4425 7.0456V6.0456H9.44245V7.0456H10.4425ZM10.0468 6.43112L11.0256 6.22649L10.781 5.05652L9.6726 5.50376L10.0468 6.43112ZM9.70171 6.94059H10.7017V6.93149L10.7015 6.92239L9.70171 6.94059ZM9.70171 7.73258H8.70171H9.70171ZM8.80214 6.94059H9.80217L9.80212 6.93365L8.80214 6.94059ZM9.70523 5.62896L9.33722 4.69914L9.33488 4.70007L9.70523 5.62896ZM10.4431 4.4813L11.4405 4.40724L11.4394 4.39515L10.4431 4.4813ZM9.33766 3.4156L9.41776 2.41882L9.37778 2.4156H9.33766V3.4156ZM8.05859 4.56734H7.05859H8.05859ZM7.15902 4.56734L6.15902 4.56732V4.56734H7.15902ZM10.0475 6.4345L9.06865 6.63913L9.31155 7.80106L10.4154 7.36438L10.0475 6.4345ZM10.446 7.0456L10.8541 7.95851C11.4753 7.68079 12.0123 7.24505 12.4057 6.69277L11.5913 6.11255L10.7768 5.53233C10.5941 5.78881 10.3399 5.9976 10.0378 6.13269L10.446 7.0456ZM11.5913 6.11255L12.4057 6.69277C12.7994 6.14018 13.0339 5.49223 13.081 4.81659L12.0834 4.74711L11.0858 4.67763C11.0647 4.98089 10.9593 5.27617 10.7768 5.53233L11.5913 6.11255ZM12.0834 4.74711L13.081 4.81659C13.1281 4.14089 12.9855 3.46704 12.6708 2.8664L11.785 3.33049L10.8992 3.79458C11.0434 4.0697 11.107 4.37442 11.0858 4.67763L12.0834 4.74711ZM11.785 3.33049L12.6708 2.8664C12.3563 2.2661 11.8827 1.76315 11.3037 1.40667L10.7794 2.25822L10.2551 3.10977C10.5339 3.28139 10.7549 3.51914 10.8992 3.79458L11.785 3.33049ZM10.7794 2.25822L11.3037 1.40667C10.7249 1.05035 10.0605 0.85227 9.37973 0.830197L9.34732 1.82967L9.31492 2.82915C9.65136 2.84006 9.97615 2.93801 10.2551 3.10977L10.7794 2.25822ZM9.34732 1.82967L9.37973 0.830197C8.69902 0.808124 8.02292 0.962717 7.42167 1.28019L7.88861 2.16449L8.35554 3.04878C8.64691 2.89493 8.97846 2.81824 9.31492 2.82915L9.34732 1.82967ZM7.88861 2.16449L7.42167 1.28019C6.8202 1.59779 6.3136 2.06801 5.9586 2.64551L6.81052 3.16919L7.66243 3.69287C7.82628 3.42632 8.06439 3.20251 8.35554 3.04878L7.88861 2.16449ZM6.81052 3.16919L5.9586 2.64551C5.6034 3.22335 5.41421 3.88578 5.41406 4.56306L6.41406 4.56327L7.41406 4.56349C7.41413 4.25966 7.4988 3.95908 7.66243 3.69287L6.81052 3.16919ZM6.41406 4.56327H5.41406C5.41406 5.14602 5.65454 5.69715 6.06996 6.09762L6.76399 5.37767L7.45802 4.65772C7.42533 4.62621 7.41406 4.59144 7.41406 4.56327H6.41406ZM6.76399 5.37767L6.06996 6.09762C6.48414 6.49688 7.03831 6.71501 7.6088 6.71501V5.71501V4.71501C7.54556 4.71501 7.49197 4.69045 7.45802 4.65772L6.76399 5.37767ZM7.6088 5.71501V6.71501C8.17929 6.71501 8.73347 6.49688 9.14765 6.09762L8.45362 5.37767L7.75959 4.65772C7.72565 4.69044 7.67204 4.71501 7.6088 4.71501V5.71501ZM8.45362 5.37767L9.14765 6.09762C9.56307 5.69715 9.80355 5.14602 9.80355 4.56327H8.80355H7.80355C7.80355 4.59144 7.79228 4.62621 7.75959 4.65772L8.45362 5.37767ZM8.80355 4.56327L9.80343 4.54796C9.80475 4.63419 9.78719 4.7187 9.75309 4.79562L8.83889 4.39035L7.9247 3.98508C7.84217 4.17124 7.80052 4.37358 7.80366 4.57859L8.80355 4.56327ZM8.83889 4.39035L9.75309 4.79562C9.71906 4.87239 9.66991 4.93863 9.61102 4.99134L8.9441 4.24621L8.27719 3.50107C8.12799 3.63461 8.00715 3.79907 7.9247 3.98508L8.83889 4.39035ZM8.9441 4.24621L9.61148 4.99093C9.55481 5.04171 9.49007 5.07875 9.42217 5.10169L9.10205 4.15431L8.78194 3.20693C8.59673 3.26951 8.42444 3.36912 8.27673 3.50148L8.9441 4.24621ZM9.10205 4.15431L9.42217 5.10169C9.35432 5.12461 9.28328 5.13351 9.21303 5.12844L9.28496 4.13103L9.35688 3.13362C9.16267 3.11962 8.96709 3.14437 8.78194 3.20693L9.10205 4.15431ZM9.28496 4.13103L9.19454 5.12694C9.07843 5.1164 8.96365 5.06672 8.87207 4.97828L9.56671 4.25893L10.2614 3.53957C10.0186 3.30517 9.7045 3.16501 9.37537 3.13513L9.28496 4.13103ZM9.56671 4.25893L8.87207 4.97828C8.77974 4.88913 8.71682 4.76545 8.70347 4.62624L9.6989 4.53076L10.6943 4.43528C10.6613 4.09068 10.5048 3.7747 10.2614 3.53957L9.56671 4.25893ZM9.6989 4.53076L8.70166 4.60498C8.69214 4.47705 8.72539 4.35232 8.79185 4.24948L9.63171 4.79229L10.4716 5.33511C10.639 5.07599 10.7193 4.76813 10.6961 4.45654L9.6989 4.53076ZM9.63171 4.79229L8.79185 4.24948C8.85793 4.14724 8.95155 4.07421 9.05412 4.03417L9.41778 4.9657L9.78144 5.89724C10.0611 5.78808 10.3045 5.59363 10.4716 5.33511L9.63171 4.79229ZM9.41778 4.9657L9.04925 4.03609C8.46386 4.26816 7.95771 4.66577 7.5998 5.18365L8.42246 5.75218L9.24513 6.32072C9.37352 6.13493 9.56051 5.98484 9.78631 5.89532L9.41778 4.9657ZM8.42246 5.75218L7.5998 5.18365C7.24156 5.70203 7.04954 6.31578 7.05298 6.94606L8.05297 6.94059L9.05295 6.93512C9.05178 6.71988 9.11707 6.50601 9.24513 6.32072L8.42246 5.75218ZM8.05297 6.94059H7.05297V7.73258H8.05297H9.05297V6.94059H8.05297ZM8.05297 7.73258L7.05297 7.73257C7.05297 8.02033 7.11181 8.30436 7.22513 8.5681L8.14391 8.17332L9.06269 7.77854C9.05593 7.76282 9.05297 7.74731 9.05297 7.73258H8.05297ZM8.14391 8.17332L7.22513 8.5681C7.33842 8.83175 7.50342 9.06887 7.70887 9.26692L8.4029 8.54697L9.09693 7.82703C9.08049 7.81118 9.06948 7.79437 9.06269 7.77854L8.14391 8.17332ZM8.4029 8.54697L7.70887 9.26692C7.91424 9.46489 8.15607 9.62008 8.41967 9.72534L8.7905 8.79664L9.16133 7.86794C9.13502 7.85743 9.11344 7.84295 9.09693 7.82703L8.4029 8.54697ZM8.7905 8.79664L8.41967 9.72534C8.68322 9.83058 8.96449 9.88431 9.24771 9.88431V8.88431V7.88431C9.21714 7.88431 9.18769 7.87846 9.16133 7.86794L8.7905 8.79664ZM9.24771 8.88431V9.88431C9.53094 9.88431 9.8122 9.83057 10.0758 9.72534L9.70492 8.79664L9.33409 7.86794C9.30773 7.87846 9.27828 7.88431 9.24771 7.88431V8.88431ZM9.70492 8.79664L10.0758 9.72534C10.3394 9.62008 10.5812 9.46489 10.7865 9.26692L10.0925 8.54697L9.39849 7.82703C9.38196 7.84296 9.36038 7.85744 9.33409 7.86794L9.70492 8.79664ZM10.0925 8.54697L10.7865 9.26692C10.992 9.06887 11.157 8.83175 11.2703 8.5681L10.3515 8.17332L9.43273 7.77854C9.42593 7.79437 9.41492 7.81118 9.39849 7.82703L10.0925 8.54697ZM10.3515 8.17332L11.2703 8.5681C11.3836 8.30438 11.4425 8.02036 11.4425 7.73257L10.4425 7.73258H9.44245C9.44245 7.74729 9.4395 7.76279 9.43273 7.77854L10.3515 8.17332ZM10.4425 7.73258H11.4425V7.0456H10.4425H9.44245V7.73258H10.4425ZM10.4425 7.0456V8.0456H10.446V7.0456V6.0456H10.4425V7.0456ZM10.0468 6.43112L9.6726 5.50376C9.38845 5.61841 9.1405 5.81506 8.96513 6.07399L9.79309 6.63477L10.621 7.19555C10.5687 7.27282 10.4975 7.32759 10.421 7.35848L10.0468 6.43112ZM9.79309 6.63477L8.96513 6.07399C8.78942 6.33341 8.69611 6.64175 8.70188 6.95879L9.70171 6.94059L10.7015 6.92239C10.7034 7.02252 10.6737 7.11779 10.621 7.19555L9.79309 6.63477ZM9.70171 6.94059H8.70171V7.73258H9.70171H10.7017V6.94059H9.70171ZM9.70171 7.73258H8.70171C8.70171 7.57026 8.76894 7.42237 8.87594 7.31922L9.56997 8.03917L10.264 8.75912C10.5397 8.49334 10.7017 8.12488 10.7017 7.73258H9.70171ZM9.56997 8.03917L8.87594 7.31922C8.98169 7.21728 9.11757 7.16617 9.25193 7.16617V8.16617V9.16617C9.62486 9.16617 9.98955 9.02369 10.264 8.75912L9.56997 8.03917ZM9.25193 8.16617V7.16617C9.38627 7.16617 9.52215 7.21727 9.62791 7.31922L8.93388 8.03917L8.23985 8.75912C8.51431 9.0237 8.87901 9.16617 9.25193 9.16617V8.16617ZM8.93388 8.03917L9.62791 7.31922C9.73493 7.42239 9.80214 7.57029 9.80214 7.73258H8.80214H7.80214C7.80214 8.12485 7.96412 8.49332 8.23985 8.75912L8.93388 8.03917ZM8.80214 7.73258H9.80214V6.94059H8.80214H7.80214V7.73258H8.80214ZM8.80214 6.94059L9.80212 6.93365C9.80161 6.86062 9.8235 6.78596 9.86962 6.71898L9.04597 6.15188L8.22232 5.58477C7.94668 5.98511 7.79878 6.45968 7.80217 6.94752L8.80214 6.94059ZM9.04597 6.15188L9.86962 6.71898C9.91608 6.65151 9.98633 6.59344 10.0756 6.55786L9.70523 5.62896L9.33488 4.70007C8.88647 4.87885 8.49763 5.18493 8.22232 5.58477L9.04597 6.15188ZM9.70523 5.62896L10.0732 6.55879C10.496 6.39148 10.8599 6.09714 11.1081 5.71114L10.2669 5.17031L9.42582 4.62948C9.40901 4.65562 9.37979 4.68229 9.33722 4.69914L9.70523 5.62896ZM10.2669 5.17031L11.1081 5.71114C11.3567 5.32452 11.4746 4.86793 11.4404 4.40724L10.4431 4.4813L9.44589 4.55535C9.4476 4.57831 9.44222 4.60397 9.42582 4.62948L10.2669 5.17031ZM10.4431 4.4813L11.4394 4.39515C11.3944 3.87446 11.1598 3.39281 10.7869 3.03333L10.0929 3.75327L9.39885 4.47322C9.43073 4.50396 9.44434 4.53819 9.44687 4.56745L10.4431 4.4813ZM10.0929 3.75327L10.7869 3.03333C10.4148 2.67463 9.92899 2.4599 9.41776 2.41882L9.33766 3.4156L9.25756 4.41239C9.31681 4.41715 9.36616 4.44171 9.39885 4.47322L10.0929 3.75327ZM9.33766 3.4156V2.4156C9.33761 2.4156 9.33755 2.4156 9.3375 2.4156C9.33744 2.4156 9.33738 2.4156 9.33733 2.4156C9.33727 2.4156 9.33722 2.4156 9.33716 2.4156C9.3371 2.4156 9.33705 2.4156 9.33699 2.4156C9.33694 2.4156 9.33688 2.4156 9.33683 2.4156C9.33677 2.4156 9.33671 2.4156 9.33666 2.4156C9.3366 2.4156 9.33655 2.4156 9.33649 2.4156C9.33644 2.4156 9.33638 2.4156 9.33632 2.4156C9.33627 2.4156 9.33621 2.4156 9.33616 2.4156C9.3361 2.4156 9.33604 2.4156 9.33599 2.4156C9.33593 2.4156 9.33588 2.4156 9.33582 2.4156C9.33577 2.4156 9.33571 2.4156 9.33565 2.4156C9.3356 2.4156 9.33554 2.4156 9.33549 2.4156C9.33543 2.4156 9.33538 2.4156 9.33532 2.4156C9.33526 2.4156 9.33521 2.4156 9.33515 2.4156C9.3351 2.4156 9.33504 2.4156 9.33498 2.4156C9.33493 2.4156 9.33487 2.4156 9.33482 2.4156C9.33476 2.4156 9.33471 2.4156 9.33465 2.4156C9.33459 2.4156 9.33454 2.4156 9.33448 2.4156C9.33443 2.4156 9.33437 2.4156 9.33432 2.4156C9.33426 2.4156 9.3342 2.4156 9.33415 2.4156C9.33409 2.4156 9.33404 2.4156 9.33398 2.4156C9.33393 2.4156 9.33387 2.4156 9.33381 2.4156C9.33376 2.4156 9.3337 2.4156 9.33365 2.4156C9.33359 2.4156 9.33354 2.4156 9.33348 2.4156C9.33342 2.4156 9.33337 2.4156 9.33331 2.4156C9.33326 2.4156 9.3332 2.4156 9.33315 2.4156C9.33309 2.4156 9.33303 2.4156 9.33298 2.4156C9.33292 2.4156 9.33287 2.4156 9.33281 2.4156C9.33276 2.4156 9.3327 2.4156 9.33264 2.4156C9.33259 2.4156 9.33253 2.4156 9.33248 2.4156C9.33242 2.4156 9.33237 2.4156 9.33231 2.4156C9.33225 2.4156 9.3322 2.4156 9.33214 2.4156C9.33209 2.4156 9.33203 2.4156 9.33198 2.4156C9.33192 2.4156 9.33186 2.4156 9.33181 2.4156C9.33175 2.4156 9.3317 2.4156 9.33164 2.4156C9.33159 2.4156 9.33153 2.4156 9.33147 2.4156C9.33142 2.4156 9.33136 2.4156 9.33131 2.4156C9.33125 2.4156 9.3312 2.4156 9.33114 2.4156C9.33108 2.4156 9.33103 2.4156 9.33097 2.4156C9.33092 2.4156 9.33086 2.4156 9.33081 2.4156C9.33075 2.4156 9.33069 2.4156 9.33064 2.4156C9.33058 2.4156 9.33053 2.4156 9.33047 2.4156C9.33042 2.4156 9.33036 2.4156 9.3303 2.4156C9.33025 2.4156 9.33019 2.4156 9.33014 2.4156C9.33008 2.4156 9.33003 2.4156 9.32997 2.4156C9.32992 2.4156 9.32986 2.4156 9.3298 2.4156C9.32975 2.4156 9.32969 2.4156 9.32964 2.4156C9.32958 2.4156 9.32953 2.4156 9.32947 2.4156C9.32941 2.4156 9.32936 2.4156 9.3293 2.4156C9.32925 2.4156 9.32919 2.4156 9.32914 2.4156C9.32908 2.4156 9.32903 2.4156 9.32897 2.4156C9.32891 2.4156 9.32886 2.4156 9.3288 2.4156C9.32875 2.4156 9.32869 2.4156 9.32864 2.4156C9.32858 2.4156 9.32852 2.4156 9.32847 2.4156C9.32841 2.4156 9.32836 2.4156 9.3283 2.4156C9.32825 2.4156 9.32819 2.4156 9.32814 2.4156C9.32808 2.4156 9.32802 2.4156 9.32797 2.4156C9.32791 2.4156 9.32786 2.4156 9.3278 2.4156C9.32775 2.4156 9.32769 2.4156 9.32763 2.4156C9.32758 2.4156 9.32752 2.4156 9.32747 2.4156C9.32741 2.4156 9.32736 2.4156 9.3273 2.4156C9.32725 2.4156 9.32719 2.4156 9.32713 2.4156C9.32708 2.4156 9.32702 2.4156 9.32697 2.4156C9.32691 2.4156 9.32686 2.4156 9.3268 2.4156C9.32675 2.4156 9.32669 2.4156 9.32663 2.4156C9.32658 2.4156 9.32652 2.4156 9.32647 2.4156C9.32641 2.4156 9.32636 2.4156 9.3263 2.4156C9.32624 2.4156 9.32619 2.4156 9.32613 2.4156C9.32608 2.4156 9.32602 2.4156 9.32597 2.4156C9.32591 2.4156 9.32586 2.4156 9.3258 2.4156C9.32574 2.4156 9.32569 2.4156 9.32563 2.4156C9.32558 2.4156 9.32552 2.4156 9.32547 2.4156C9.32541 2.4156 9.32536 2.4156 9.3253 2.4156C9.32524 2.4156 9.32519 2.4156 9.32513 2.4156C9.32508 2.4156 9.32502 2.4156 9.32497 2.4156C9.32491 2.4156 9.32486 2.4156 9.3248 2.4156C9.32474 2.4156 9.32469 2.4156 9.32463 2.4156C9.32458 2.4156 9.32452 2.4156 9.32447 2.4156C9.32441 2.4156 9.32436 2.4156 9.3243 2.4156C9.32424 2.4156 9.32419 2.4156 9.32413 2.4156C9.32408 2.4156 9.32402 2.4156 9.32397 2.4156C9.32391 2.4156 9.32386 2.4156 9.3238 2.4156C9.32375 2.4156 9.32369 2.4156 9.32363 2.4156C9.32358 2.4156 9.32352 2.4156 9.32347 2.4156C9.32341 2.4156 9.32336 2.4156 9.3233 2.4156C9.32325 2.4156 9.32319 2.4156 9.32313 2.4156C9.32308 2.4156 9.32302 2.4156 9.32297 2.4156C9.32291 2.4156 9.32286 2.4156 9.3228 2.4156C9.32275 2.4156 9.32269 2.4156 9.32263 2.4156C9.32258 2.4156 9.32252 2.4156 9.32247 2.4156C9.32241 2.4156 9.32236 2.4156 9.3223 2.4156C9.32225 2.4156 9.32219 2.4156 9.32214 2.4156C9.32208 2.4156 9.32202 2.4156 9.32197 2.4156C9.32191 2.4156 9.32186 2.4156 9.3218 2.4156C9.32175 2.4156 9.32169 2.4156 9.32164 2.4156C9.32158 2.4156 9.32153 2.4156 9.32147 2.4156C9.32141 2.4156 9.32136 2.4156 9.3213 2.4156C9.32125 2.4156 9.32119 2.4156 9.32114 2.4156C9.32108 2.4156 9.32103 2.4156 9.32097 2.4156C9.32091 2.4156 9.32086 2.4156 9.3208 2.4156C9.32075 2.4156 9.32069 2.4156 9.32064 2.4156C9.32058 2.4156 9.32053 2.4156 9.32047 2.4156C9.32042 2.4156 9.32036 2.4156 9.32031 2.4156C9.32025 2.4156 9.32019 2.4156 9.32014 2.4156C9.32008 2.4156 9.32003 2.4156 9.31997 2.4156C9.31992 2.4156 9.31986 2.4156 9.31981 2.4156C9.31975 2.4156 9.3197 2.4156 9.31964 2.4156C9.31958 2.4156 9.31953 2.4156 9.31947 2.4156C9.31942 2.4156 9.31936 2.4156 9.31931 2.4156C9.31925 2.4156 9.3192 2.4156 9.31914 2.4156C9.31909 2.4156 9.31903 2.4156 9.31897 2.4156C9.31892 2.4156 9.31886 2.4156 9.31881 2.4156C9.31875 2.4156 9.3187 2.4156 9.31864 2.4156C9.31859 2.4156 9.31853 2.4156 9.31848 2.4156C9.31842 2.4156 9.31837 2.4156 9.31831 2.4156C9.31825 2.4156 9.3182 2.4156 9.31814 2.4156C9.31809 2.4156 9.31803 2.4156 9.31798 2.4156C9.31792 2.4156 9.31787 2.4156 9.31781 2.4156C9.31776 2.4156 9.3177 2.4156 9.31765 2.4156C9.31759 2.4156 9.31753 2.4156 9.31748 2.4156C9.31742 2.4156 9.31737 2.4156 9.31731 2.4156C9.31726 2.4156 9.3172 2.4156 9.31715 2.4156C9.31709 2.4156 9.31704 2.4156 9.31698 2.4156C9.31693 2.4156 9.31687 2.4156 9.31681 2.4156C9.31676 2.4156 9.3167 2.4156 9.31665 2.4156C9.31659 2.4156 9.31654 2.4156 9.31648 2.4156C9.31643 2.4156 9.31637 2.4156 9.31632 2.4156C9.31626 2.4156 9.31621 2.4156 9.31615 2.4156C9.31609 2.4156 9.31604 2.4156 9.31598 2.4156C9.31593 2.4156 9.31587 2.4156 9.31582 2.4156C9.31576 2.4156 9.31571 2.4156 9.31565 2.4156C9.3156 2.4156 9.31554 2.4156 9.31549 2.4156C9.31543 2.4156 9.31538 2.4156 9.31532 2.4156C9.31526 2.4156 9.31521 2.4156 9.31515 2.4156C9.3151 2.4156 9.31504 2.4156 9.31499 2.4156C9.31493 2.4156 9.31488 2.4156 9.31482 2.4156C9.31477 2.4156 9.31471 2.4156 9.31466 2.4156C9.3146 2.4156 9.31455 2.4156 9.31449 2.4156C9.31443 2.4156 9.31438 2.4156 9.31432 2.4156C9.31427 2.4156 9.31421 2.4156 9.31416 2.4156C9.3141 2.4156 9.31405 2.4156 9.31399 2.4156C9.31394 2.4156 9.31388 2.4156 9.31383 2.4156C9.31377 2.4156 9.31372 2.4156 9.31366 2.4156C9.3136 2.4156 9.31355 2.4156 9.31349 2.4156C9.31344 2.4156 9.31338 2.4156 9.31333 2.4156C9.31327 2.4156 9.31322 2.4156 9.31316 2.4156C9.31311 2.4156 9.31305 2.4156 9.313 2.4156C9.31294 2.4156 9.31289 2.4156 9.31283 2.4156C9.31278 2.4156 9.31272 2.4156 9.31266 2.4156C9.31261 2.4156 9.31255 2.4156 9.3125 2.4156C9.31244 2.4156 9.31239 2.4156 9.31233 2.4156C9.31228 2.4156 9.31222 2.4156 9.31217 2.4156C9.31211 2.4156 9.31206 2.4156 9.312 2.4156C9.31195 2.4156 9.31189 2.4156 9.31184 2.4156C9.31178 2.4156 9.31173 2.4156 9.31167 2.4156C9.31161 2.4156 9.31156 2.4156 9.3115 2.4156C9.31145 2.4156 9.31139 2.4156 9.31134 2.4156C9.31128 2.4156 9.31123 2.4156 9.31117 2.4156C9.31112 2.4156 9.31106 2.4156 9.31101 2.4156C9.31095 2.4156 9.3109 2.4156 9.31084 2.4156C9.31079 2.4156 9.31073 2.4156 9.31068 2.4156C9.31062 2.4156 9.31056 2.4156 9.31051 2.4156C9.31045 2.4156 9.3104 2.4156 9.31034 2.4156C9.31029 2.4156 9.31023 2.4156 9.31018 2.4156C9.31012 2.4156 9.31007 2.4156 9.31001 2.4156C9.30996 2.4156 9.3099 2.4156 9.30985 2.4156C9.30979 2.4156 9.30974 2.4156 9.30968 2.4156C9.30963 2.4156 9.30957 2.4156 9.30952 2.4156C9.30946 2.4156 9.30941 2.4156 9.30935 2.4156C9.30929 2.4156 9.30924 2.4156 9.30918 2.4156C9.30913 2.4156 9.30907 2.4156 9.30902 2.4156C9.30896 2.4156 9.30891 2.4156 9.30885 2.4156C9.3088 2.4156 9.30874 2.4156 9.30869 2.4156C9.30863 2.4156 9.30858 2.4156 9.30852 2.4156C9.30847 2.4156 9.30841 2.4156 9.30836 2.4156C9.3083 2.4156 9.30825 2.4156 9.30819 2.4156C9.30814 2.4156 9.30808 2.4156 9.30803 2.4156C9.30797 2.4156 9.30791 2.4156 9.30786 2.4156C9.3078 2.4156 9.30775 2.4156 9.30769 2.4156C9.30764 2.4156 9.30758 2.4156 9.30753 2.4156C9.30747 2.4156 9.30742 2.4156 9.30736 2.4156C9.30731 2.4156 9.30725 2.4156 9.3072 2.4156C9.30714 2.4156 9.30709 2.4156 9.30703 2.4156C9.30698 2.4156 9.30692 2.4156 9.30687 2.4156C9.30681 2.4156 9.30676 2.4156 9.3067 2.4156C9.30665 2.4156 9.30659 2.4156 9.30654 2.4156C9.30648 2.4156 9.30643 2.4156 9.30637 2.4156C9.30632 2.4156 9.30626 2.4156 9.30621 2.4156C9.30615 2.4156 9.30609 2.4156 9.30604 2.4156C9.30598 2.4156 9.30593 2.4156 9.30587 2.4156C9.30582 2.4156 9.30576 2.4156 9.30571 2.4156C9.30565 2.4156 9.3056 2.4156 9.30554 2.4156C9.30549 2.4156 9.30543 2.4156 9.30538 2.4156C9.30532 2.4156 9.30527 2.4156 9.30521 2.4156C9.30516 2.4156 9.3051 2.4156 9.30505 2.4156C9.30499 2.4156 9.30494 2.4156 9.30488 2.4156C9.30483 2.4156 9.30477 2.4156 9.30472 2.4156C9.30466 2.4156 9.30461 2.4156 9.30455 2.4156C9.3045 2.4156 9.30444 2.4156 9.30439 2.4156C9.30433 2.4156 9.30428 2.4156 9.30422 2.4156C9.30417 2.4156 9.30411 2.4156 9.30406 2.4156C9.304 2.4156 9.30395 2.4156 9.30389 2.4156C9.30384 2.4156 9.30378 2.4156 9.30373 2.4156C9.30367 2.4156 9.30361 2.4156 9.30356 2.4156C9.3035 2.4156 9.30345 2.4156 9.30339 2.4156C9.30334 2.4156 9.30328 2.4156 9.30323 2.4156C9.30317 2.4156 9.30312 2.4156 9.30306 2.4156C9.30301 2.4156 9.30295 2.4156 9.3029 2.4156C9.30284 2.4156 9.30279 2.4156 9.30273 2.4156C9.30268 2.4156 9.30262 2.4156 9.30257 2.4156C9.30251 2.4156 9.30246 2.4156 9.3024 2.4156C9.30235 2.4156 9.30229 2.4156 9.30224 2.4156C9.30218 2.4156 9.30213 2.4156 9.30207 2.4156C9.30202 2.4156 9.30196 2.4156 9.30191 2.4156C9.30185 2.4156 9.3018 2.4156 9.30174 2.4156C9.30169 2.4156 9.30163 2.4156 9.30158 2.4156C9.30152 2.4156 9.30147 2.4156 9.30141 2.4156C9.30136 2.4156 9.3013 2.4156 9.30125 2.4156C9.30119 2.4156 9.30114 2.4156 9.30108 2.4156C9.30103 2.4156 9.30097 2.4156 9.30092 2.4156C9.30086 2.4156 9.30081 2.4156 9.30075 2.4156C9.3007 2.4156 9.30064 2.4156 9.30059 2.4156C9.30053 2.4156 9.30048 2.4156 9.30042 2.4156C9.30037 2.4156 9.30031 2.4156 9.30026 2.4156C9.3002 2.4156 9.30015 2.4156 9.30009 2.4156C9.30004 2.4156 9.29998 2.4156 9.29993 2.4156C9.29987 2.4156 9.29982 2.4156 9.29976 2.4156C9.29971 2.4156 9.29965 2.4156 9.2996 2.4156C9.29954 2.4156 9.29949 2.4156 9.29943 2.4156C9.29938 2.4156 9.29932 2.4156 9.29927 2.4156C9.29921 2.4156 9.29916 2.4156 9.2991 2.4156C9.29905 2.4156 9.29899 2.4156 9.29894 2.4156C9.29888 2.4156 9.29883 2.4156 9.29877 2.4156C9.29872 2.4156 9.29866 2.4156 9.29861 2.4156C9.29855 2.4156 9.2985 2.4156 9.29844 2.4156C9.29839 2.4156 9.29833 2.4156 9.29828 2.4156C9.29822 2.4156 9.29817 2.4156 9.29811 2.4156C9.29806 2.4156 9.298 2.4156 9.29795 2.4156C9.29789 2.4156 9.29784 2.4156 9.29778 2.4156C9.29773 2.4156 9.29767 2.4156 9.29762 2.4156C9.29756 2.4156 9.29751 2.4156 9.29745 2.4156C9.2974 2.4156 9.29734 2.4156 9.29729 2.4156C9.29723 2.4156 9.29718 2.4156 9.29712 2.4156C9.29707 2.4156 9.29701 2.4156 9.29696 2.4156C9.2969 2.4156 9.29685 2.4156 9.29679 2.4156C9.29674 2.4156 9.29668 2.4156 9.29663 2.4156C9.29657 2.4156 9.29652 2.4156 9.29646 2.4156C9.29641 2.4156 9.29635 2.4156 9.2963 2.4156C9.29624 2.4156 9.29619 2.4156 9.29613 2.4156C9.29608 2.4156 9.29602 2.4156 9.29597 2.4156C9.29591 2.4156 9.29586 2.4156 9.2958 2.4156C9.29575 2.4156 9.29569 2.4156 9.29564 2.4156C9.29558 2.4156 9.29553 2.4156 9.29548 2.4156C9.29542 2.4156 9.29537 2.4156 9.29531 2.4156C9.29526 2.4156 9.2952 2.4156 9.29515 2.4156C9.29509 2.4156 9.29504 2.4156 9.29498 2.4156C9.29493 2.4156 9.29487 2.4156 9.29482 2.4156C9.29476 2.4156 9.29471 2.4156 9.29465 2.4156C9.2946 2.4156 9.29454 2.4156 9.29449 2.4156C9.29443 2.4156 9.29438 2.4156 9.29432 2.4156C9.29427 2.4156 9.29421 2.4156 9.29416 2.4156C9.2941 2.4156 9.29405 2.4156 9.29399 2.4156C9.29394 2.4156 9.29388 2.4156 9.29383 2.4156C9.29377 2.4156 9.29372 2.4156 9.29366 2.4156C9.29361 2.4156 9.29355 2.4156 9.2935 2.4156C9.29344 2.4156 9.29339 2.4156 9.29333 2.4156C9.29328 2.4156 9.29322 2.4156 9.29317 2.4156C9.29312 2.4156 9.29306 2.4156 9.29301 2.4156C9.29295 2.4156 9.2929 2.4156 9.29284 2.4156C9.29279 2.4156 9.29273 2.4156 9.29268 2.4156C9.29262 2.4156 9.29257 2.4156 9.29251 2.4156C9.29246 2.4156 9.2924 2.4156 9.29235 2.4156C9.29229 2.4156 9.29224 2.4156 9.29218 2.4156C9.29213 2.4156 9.29207 2.4156 9.29202 2.4156C9.29196 2.4156 9.29191 2.4156 9.29185 2.4156C9.2918 2.4156 9.29174 2.4156 9.29169 2.4156C9.29163 2.4156 9.29158 2.4156 9.29152 2.4156C9.29147 2.4156 9.29142 2.4156 9.29136 2.4156C9.29131 2.4156 9.29125 2.4156 9.2912 2.4156C9.29114 2.4156 9.29109 2.4156 9.29103 2.4156C9.29098 2.4156 9.29092 2.4156 9.29087 2.4156C9.29081 2.4156 9.29076 2.4156 9.2907 2.4156C9.29065 2.4156 9.29059 2.4156 9.29054 2.4156C9.29048 2.4156 9.29043 2.4156 9.29037 2.4156C9.29032 2.4156 9.29026 2.4156 9.29021 2.4156C9.29015 2.4156 9.2901 2.4156 9.29005 2.4156C9.28999 2.4156 9.28994 2.4156 9.28988 2.4156C9.28983 2.4156 9.28977 2.4156 9.28972 2.4156C9.28966 2.4156 9.28961 2.4156 9.28955 2.4156C9.2895 2.4156 9.28944 2.4156 9.28939 2.4156C9.28933 2.4156 9.28928 2.4156 9.28922 2.4156C9.28917 2.4156 9.28911 2.4156 9.28906 2.4156C9.289 2.4156 9.28895 2.4156 9.28889 2.4156C9.28884 2.4156 9.28878 2.4156 9.28873 2.4156C9.28868 2.4156 9.28862 2.4156 9.28857 2.4156C9.28851 2.4156 9.28846 2.4156 9.2884 2.4156C9.28835 2.4156 9.28829 2.4156 9.28824 2.4156C9.28818 2.4156 9.28813 2.4156 9.28807 2.4156C9.28802 2.4156 9.28796 2.4156 9.28791 2.4156C9.28785 2.4156 9.2878 2.4156 9.28774 2.4156C9.28769 2.4156 9.28764 2.4156 9.28758 2.4156C9.28753 2.4156 9.28747 2.4156 9.28742 2.4156C9.28736 2.4156 9.28731 2.4156 9.28725 2.4156C9.2872 2.4156 9.28714 2.4156 9.28709 2.4156C9.28703 2.4156 9.28698 2.4156 9.28692 2.4156C9.28687 2.4156 9.28681 2.4156 9.28676 2.4156C9.28671 2.4156 9.28665 2.4156 9.2866 2.4156C9.28654 2.4156 9.28649 2.4156 9.28643 2.4156C9.28638 2.4156 9.28632 2.4156 9.28627 2.4156C9.28621 2.4156 9.28616 2.4156 9.2861 2.4156C9.28605 2.4156 9.28599 2.4156 9.28594 2.4156C9.28588 2.4156 9.28583 2.4156 9.28577 2.4156C9.28572 2.4156 9.28567 2.4156 9.28561 2.4156C9.28556 2.4156 9.2855 2.4156 9.28545 2.4156C9.28539 2.4156 9.28534 2.4156 9.28528 2.4156C9.28523 2.4156 9.28517 2.4156 9.28512 2.4156C9.28506 2.4156 9.28501 2.4156 9.28495 2.4156C9.2849 2.4156 9.28485 2.4156 9.28479 2.4156C9.28474 2.4156 9.28468 2.4156 9.28463 2.4156C9.28457 2.4156 9.28452 2.4156 9.28446 2.4156C9.28441 2.4156 9.28435 2.4156 9.2843 2.4156C9.28424 2.4156 9.28419 2.4156 9.28413 2.4156C9.28408 2.4156 9.28403 2.4156 9.28397 2.4156C9.28392 2.4156 9.28386 2.4156 9.28381 2.4156C9.28375 2.4156 9.2837 2.4156 9.28364 2.4156C9.28359 2.4156 9.28353 2.4156 9.28348 2.4156C9.28342 2.4156 9.28337 2.4156 9.28331 2.4156C9.28326 2.4156 9.28321 2.4156 9.28315 2.4156C9.2831 2.4156 9.28304 2.4156 9.28299 2.4156C9.28293 2.4156 9.28288 2.4156 9.28282 2.4156C9.28277 2.4156 9.28271 2.4156 9.28266 2.4156C9.2826 2.4156 9.28255 2.4156 9.2825 2.4156C9.28244 2.4156 9.28239 2.4156 9.28233 2.4156C9.28228 2.4156 9.28222 2.4156 9.28217 2.4156C9.28211 2.4156 9.28206 2.4156 9.282 2.4156C9.28195 2.4156 9.28189 2.4156 9.28184 2.4156C9.28179 2.4156 9.28173 2.4156 9.28168 2.4156C9.28162 2.4156 9.28157 2.4156 9.28151 2.4156C9.28146 2.4156 9.2814 2.4156 9.28135 2.4156C9.28129 2.4156 9.28124 2.4156 9.28118 2.4156C9.28113 2.4156 9.28108 2.4156 9.28102 2.4156C9.28097 2.4156 9.28091 2.4156 9.28086 2.4156C9.2808 2.4156 9.28075 2.4156 9.28069 2.4156C9.28064 2.4156 9.28058 2.4156 9.28053 2.4156C9.28047 2.4156 9.28042 2.4156 9.28037 2.4156C9.28031 2.4156 9.28026 2.4156 9.2802 2.4156C9.28015 2.4156 9.28009 2.4156 9.28004 2.4156C9.27998 2.4156 9.27993 2.4156 9.27987 2.4156C9.27982 2.4156 9.27977 2.4156 9.27971 2.4156C9.27966 2.4156 9.2796 2.4156 9.27955 2.4156C9.27949 2.4156 9.27944 2.4156 9.27938 2.4156C9.27933 2.4156 9.27927 2.4156 9.27922 2.4156C9.27917 2.4156 9.27911 2.4156 9.27906 2.4156C9.279 2.4156 9.27895 2.4156 9.27889 2.4156C9.27884 2.4156 9.27878 2.4156 9.27873 2.4156C9.27867 2.4156 9.27862 2.4156 9.27856 2.4156C9.27851 2.4156 9.27846 2.4156 9.2784 2.4156C9.27835 2.4156 9.27829 2.4156 9.27824 2.4156C9.27818 2.4156 9.27813 2.4156 9.27807 2.4156C9.27802 2.4156 9.27797 2.4156 9.27791 2.4156C9.27786 2.4156 9.2778 2.4156 9.27775 2.4156C9.27769 2.4156 9.27764 2.4156 9.27758 2.4156C9.27753 2.4156 9.27747 2.4156 9.27742 2.4156C9.27737 2.4156 9.27731 2.4156 9.27726 2.4156C9.2772 2.4156 9.27715 2.4156 9.27709 2.4156C9.27704 2.4156 9.27698 2.4156 9.27693 2.4156C9.27687 2.4156 9.27682 2.4156 9.27677 2.4156C9.27671 2.4156 9.27666 2.4156 9.2766 2.4156C9.27655 2.4156 9.27649 2.4156 9.27644 2.4156C9.27638 2.4156 9.27633 2.4156 9.27628 2.4156C9.27622 2.4156 9.27617 2.4156 9.27611 2.4156C9.27606 2.4156 9.276 2.4156 9.27595 2.4156C9.27589 2.4156 9.27584 2.4156 9.27578 2.4156C9.27573 2.4156 9.27568 2.4156 9.27562 2.4156C9.27557 2.4156 9.27551 2.4156 9.27546 2.4156C9.2754 2.4156 9.27535 2.4156 9.27529 2.4156C9.27524 2.4156 9.27519 2.4156 9.27513 2.4156C9.27508 2.4156 9.27502 2.4156 9.27497 2.4156C9.27491 2.4156 9.27486 2.4156 9.2748 2.4156C9.27475 2.4156 9.2747 2.4156 9.27464 2.4156C9.27459 2.4156 9.27453 2.4156 9.27448 2.4156C9.27442 2.4156 9.27437 2.4156 9.27431 2.4156C9.27426 2.4156 9.27421 2.4156 9.27415 2.4156C9.2741 2.4156 9.27404 2.4156 9.27399 2.4156C9.27393 2.4156 9.27388 2.4156 9.27382 2.4156C9.27377 2.4156 9.27372 2.4156 9.27366 2.4156C9.27361 2.4156 9.27355 2.4156 9.2735 2.4156C9.27344 2.4156 9.27339 2.4156 9.27333 2.4156C9.27328 2.4156 9.27323 2.4156 9.27317 2.4156C9.27312 2.4156 9.27306 2.4156 9.27301 2.4156C9.27295 2.4156 9.2729 2.4156 9.27284 2.4156C9.27279 2.4156 9.27274 2.4156 9.27268 2.4156C9.27263 2.4156 9.27257 2.4156 9.27252 2.4156C9.27246 2.4156 9.27241 2.4156 9.27236 2.4156C9.2723 2.4156 9.27225 2.4156 9.27219 2.4156C9.27214 2.4156 9.27208 2.4156 9.27203 2.4156C9.27197 2.4156 9.27192 2.4156 9.27187 2.4156C9.27181 2.4156 9.27176 2.4156 9.2717 2.4156C9.27165 2.4156 9.27159 2.4156 9.27154 2.4156C9.27148 2.4156 9.27143 2.4156 9.27138 2.4156C9.27132 2.4156 9.27127 2.4156 9.27121 2.4156C9.27116 2.4156 9.2711 2.4156 9.27105 2.4156C9.271 2.4156 9.27094 2.4156 9.27089 2.4156C9.27083 2.4156 9.27078 2.4156 9.27072 2.4156C9.27067 2.4156 9.27061 2.4156 9.27056 2.4156C9.27051 2.4156 9.27045 2.4156 9.2704 2.4156C9.27034 2.4156 9.27029 2.4156 9.27023 2.4156C9.27018 2.4156 9.27013 2.4156 9.27007 2.4156C9.27002 2.4156 9.26996 2.4156 9.26991 2.4156C9.26985 2.4156 9.2698 2.4156 9.26974 2.4156C9.26969 2.4156 9.26964 2.4156 9.26958 2.4156C9.26953 2.4156 9.26947 2.4156 9.26942 2.4156C9.26936 2.4156 9.26931 2.4156 9.26926 2.4156C9.2692 2.4156 9.26915 2.4156 9.26909 2.4156C9.26904 2.4156 9.26898 2.4156 9.26893 2.4156C9.26888 2.4156 9.26882 2.4156 9.26877 2.4156C9.26871 2.4156 9.26866 2.4156 9.2686 2.4156C9.26855 2.4156 9.2685 2.4156 9.26844 2.4156C9.26839 2.4156 9.26833 2.4156 9.26828 2.4156C9.26822 2.4156 9.26817 2.4156 9.26812 2.4156C9.26806 2.4156 9.26801 2.4156 9.26795 2.4156C9.2679 2.4156 9.26784 2.4156 9.26779 2.4156C9.26773 2.4156 9.26768 2.4156 9.26763 2.4156C9.26757 2.4156 9.26752 2.4156 9.26746 2.4156C9.26741 2.4156 9.26735 2.4156 9.2673 2.4156C9.26725 2.4156 9.26719 2.4156 9.26714 2.4156C9.26708 2.4156 9.26703 2.4156 9.26697 2.4156C9.26692 2.4156 9.26687 2.4156 9.26681 2.4156C9.26676 2.4156 9.2667 2.4156 9.26665 2.4156C9.26659 2.4156 9.26654 2.4156 9.26649 2.4156C9.26643 2.4156 9.26638 2.4156 9.26632 2.4156C9.26627 2.4156 9.26621 2.4156 9.26616 2.4156C9.26611 2.4156 9.26605 2.4156 9.266 2.4156C9.26594 2.4156 9.26589 2.4156 9.26583 2.4156C9.26578 2.4156 9.26573 2.4156 9.26567 2.4156C9.26562 2.4156 9.26556 2.4156 9.26551 2.4156C9.26546 2.4156 9.2654 2.4156 9.26535 2.4156C9.26529 2.4156 9.26524 2.4156 9.26518 2.4156C9.26513 2.4156 9.26508 2.4156 9.26502 2.4156C9.26497 2.4156 9.26491 2.4156 9.26486 2.4156C9.2648 2.4156 9.26475 2.4156 9.2647 2.4156C9.26464 2.4156 9.26459 2.4156 9.26453 2.4156C9.26448 2.4156 9.26442 2.4156 9.26437 2.4156C9.26432 2.4156 9.26426 2.4156 9.26421 2.4156C9.26415 2.4156 9.2641 2.4156 9.26404 2.4156C9.26399 2.4156 9.26394 2.4156 9.26388 2.4156C9.26383 2.4156 9.26377 2.4156 9.26372 2.4156C9.26367 2.4156 9.26361 2.4156 9.26356 2.4156C9.2635 2.4156 9.26345 2.4156 9.26339 2.4156C9.26334 2.4156 9.26329 2.4156 9.26323 2.4156C9.26318 2.4156 9.26312 2.4156 9.26307 2.4156C9.26301 2.4156 9.26296 2.4156 9.26291 2.4156C9.26285 2.4156 9.2628 2.4156 9.26274 2.4156C9.26269 2.4156 9.26264 2.4156 9.26258 2.4156C9.26253 2.4156 9.26247 2.4156 9.26242 2.4156C9.26236 2.4156 9.26231 2.4156 9.26226 2.4156C9.2622 2.4156 9.26215 2.4156 9.26209 2.4156C9.26204 2.4156 9.26199 2.4156 9.26193 2.4156C9.26188 2.4156 9.26182 2.4156 9.26177 2.4156C9.26171 2.4156 9.26166 2.4156 9.26161 2.4156C9.26155 2.4156 9.2615 2.4156 9.26144 2.4156C9.26139 2.4156 9.26133 2.4156 9.26128 2.4156C9.26123 2.4156 9.26117 2.4156 9.26112 2.4156C9.26106 2.4156 9.26101 2.4156 9.26096 2.4156C9.2609 2.4156 9.26085 2.4156 9.26079 2.4156C9.26074 2.4156 9.26068 2.4156 9.26063 2.4156C9.26058 2.4156 9.26052 2.4156 9.26047 2.4156C9.26041 2.4156 9.26036 2.4156 9.26031 2.4156C9.26025 2.4156 9.2602 2.4156 9.26014 2.4156C9.26009 2.4156 9.26004 2.4156 9.25998 2.4156C9.25993 2.4156 9.25987 2.4156 9.25982 2.4156C9.25976 2.4156 9.25971 2.4156 9.25966 2.4156C9.2596 2.4156 9.25955 2.4156 9.25949 2.4156C9.25944 2.4156 9.25939 2.4156 9.25933 2.4156C9.25928 2.4156 9.25922 2.4156 9.25917 2.4156C9.25912 2.4156 9.25906 2.4156 9.25901 2.4156C9.25895 2.4156 9.2589 2.4156 9.25884 2.4156C9.25879 2.4156 9.25874 2.4156 9.25868 2.4156C9.25863 2.4156 9.25857 2.4156 9.25852 2.4156C9.25847 2.4156 9.25841 2.4156 9.25836 2.4156C9.2583 2.4156 9.25825 2.4156 9.2582 2.4156C9.25814 2.4156 9.25809 2.4156 9.25803 2.4156C9.25798 2.4156 9.25792 2.4156 9.25787 2.4156C9.25782 2.4156 9.25776 2.4156 9.25771 2.4156C9.25765 2.4156 9.2576 2.4156 9.25755 2.4156C9.25749 2.4156 9.25744 2.4156 9.25738 2.4156C9.25733 2.4156 9.25728 2.4156 9.25722 2.4156C9.25717 2.4156 9.25711 2.4156 9.25706 2.4156C9.25701 2.4156 9.25695 2.4156 9.2569 2.4156C9.25684 2.4156 9.25679 2.4156 9.25674 2.4156C9.25668 2.4156 9.25663 2.4156 9.25657 2.4156C9.25652 2.4156 9.25646 2.4156 9.25641 2.4156C9.25636 2.4156 9.2563 2.4156 9.25625 2.4156C9.25619 2.4156 9.25614 2.4156 9.25609 2.4156C9.25603 2.4156 9.25598 2.4156 9.25592 2.4156C9.25587 2.4156 9.25582 2.4156 9.25576 2.4156C9.25571 2.4156 9.25565 2.4156 9.2556 2.4156C9.25555 2.4156 9.25549 2.4156 9.25544 2.4156C9.25538 2.4156 9.25533 2.4156 9.25528 2.4156C9.25522 2.4156 9.25517 2.4156 9.25511 2.4156C9.25506 2.4156 9.25501 2.4156 9.25495 2.4156C9.2549 2.4156 9.25484 2.4156 9.25479 2.4156C9.25474 2.4156 9.25468 2.4156 9.25463 2.4156C9.25457 2.4156 9.25452 2.4156 9.25447 2.4156C9.25441 2.4156 9.25436 2.4156 9.2543 2.4156C9.25425 2.4156 9.2542 2.4156 9.25414 2.4156C9.25409 2.4156 9.25403 2.4156 9.25398 2.4156C9.25393 2.4156 9.25387 2.4156 9.25382 2.4156C9.25376 2.4156 9.25371 2.4156 9.25366 2.4156C9.2536 2.4156 9.25355 2.4156 9.25349 2.4156C9.25344 2.4156 9.25339 2.4156 9.25333 2.4156V3.4156V4.4156C9.25339 4.4156 9.25344 4.4156 9.25349 4.4156C9.25355 4.4156 9.2536 4.4156 9.25366 4.4156C9.25371 4.4156 9.25376 4.4156 9.25382 4.4156C9.25387 4.4156 9.25393 4.4156 9.25398 4.4156C9.25403 4.4156 9.25409 4.4156 9.25414 4.4156C9.2542 4.4156 9.25425 4.4156 9.2543 4.4156C9.25436 4.4156 9.25441 4.4156 9.25447 4.4156C9.25452 4.4156 9.25457 4.4156 9.25463 4.4156C9.25468 4.4156 9.25474 4.4156 9.25479 4.4156C9.25484 4.4156 9.2549 4.4156 9.25495 4.4156C9.25501 4.4156 9.25506 4.4156 9.25511 4.4156C9.25517 4.4156 9.25522 4.4156 9.25528 4.4156C9.25533 4.4156 9.25538 4.4156 9.25544 4.4156C9.25549 4.4156 9.25555 4.4156 9.2556 4.4156C9.25565 4.4156 9.25571 4.4156 9.25576 4.4156C9.25582 4.4156 9.25587 4.4156 9.25592 4.4156C9.25598 4.4156 9.25603 4.4156 9.25609 4.4156C9.25614 4.4156 9.25619 4.4156 9.25625 4.4156C9.2563 4.4156 9.25636 4.4156 9.25641 4.4156C9.25646 4.4156 9.25652 4.4156 9.25657 4.4156C9.25663 4.4156 9.25668 4.4156 9.25674 4.4156C9.25679 4.4156 9.25684 4.4156 9.2569 4.4156C9.25695 4.4156 9.25701 4.4156 9.25706 4.4156C9.25711 4.4156 9.25717 4.4156 9.25722 4.4156C9.25728 4.4156 9.25733 4.4156 9.25738 4.4156C9.25744 4.4156 9.25749 4.4156 9.25755 4.4156C9.2576 4.4156 9.25765 4.4156 9.25771 4.4156C9.25776 4.4156 9.25782 4.4156 9.25787 4.4156C9.25792 4.4156 9.25798 4.4156 9.25803 4.4156C9.25809 4.4156 9.25814 4.4156 9.2582 4.4156C9.25825 4.4156 9.2583 4.4156 9.25836 4.4156C9.25841 4.4156 9.25847 4.4156 9.25852 4.4156C9.25857 4.4156 9.25863 4.4156 9.25868 4.4156C9.25874 4.4156 9.25879 4.4156 9.25884 4.4156C9.2589 4.4156 9.25895 4.4156 9.25901 4.4156C9.25906 4.4156 9.25912 4.4156 9.25917 4.4156C9.25922 4.4156 9.25928 4.4156 9.25933 4.4156C9.25939 4.4156 9.25944 4.4156 9.25949 4.4156C9.25955 4.4156 9.2596 4.4156 9.25966 4.4156C9.25971 4.4156 9.25976 4.4156 9.25982 4.4156C9.25987 4.4156 9.25993 4.4156 9.25998 4.4156C9.26004 4.4156 9.26009 4.4156 9.26014 4.4156C9.2602 4.4156 9.26025 4.4156 9.26031 4.4156C9.26036 4.4156 9.26041 4.4156 9.26047 4.4156C9.26052 4.4156 9.26058 4.4156 9.26063 4.4156C9.26068 4.4156 9.26074 4.4156 9.26079 4.4156C9.26085 4.4156 9.2609 4.4156 9.26096 4.4156C9.26101 4.4156 9.26106 4.4156 9.26112 4.4156C9.26117 4.4156 9.26123 4.4156 9.26128 4.4156C9.26133 4.4156 9.26139 4.4156 9.26144 4.4156C9.2615 4.4156 9.26155 4.4156 9.26161 4.4156C9.26166 4.4156 9.26171 4.4156 9.26177 4.4156C9.26182 4.4156 9.26188 4.4156 9.26193 4.4156C9.26199 4.4156 9.26204 4.4156 9.26209 4.4156C9.26215 4.4156 9.2622 4.4156 9.26226 4.4156C9.26231 4.4156 9.26236 4.4156 9.26242 4.4156C9.26247 4.4156 9.26253 4.4156 9.26258 4.4156C9.26264 4.4156 9.26269 4.4156 9.26274 4.4156C9.2628 4.4156 9.26285 4.4156 9.26291 4.4156C9.26296 4.4156 9.26301 4.4156 9.26307 4.4156C9.26312 4.4156 9.26318 4.4156 9.26323 4.4156C9.26329 4.4156 9.26334 4.4156 9.26339 4.4156C9.26345 4.4156 9.2635 4.4156 9.26356 4.4156C9.26361 4.4156 9.26367 4.4156 9.26372 4.4156C9.26377 4.4156 9.26383 4.4156 9.26388 4.4156C9.26394 4.4156 9.26399 4.4156 9.26404 4.4156C9.2641 4.4156 9.26415 4.4156 9.26421 4.4156C9.26426 4.4156 9.26432 4.4156 9.26437 4.4156C9.26442 4.4156 9.26448 4.4156 9.26453 4.4156C9.26459 4.4156 9.26464 4.4156 9.2647 4.4156C9.26475 4.4156 9.2648 4.4156 9.26486 4.4156C9.26491 4.4156 9.26497 4.4156 9.26502 4.4156C9.26508 4.4156 9.26513 4.4156 9.26518 4.4156C9.26524 4.4156 9.26529 4.4156 9.26535 4.4156C9.2654 4.4156 9.26546 4.4156 9.26551 4.4156C9.26556 4.4156 9.26562 4.4156 9.26567 4.4156C9.26573 4.4156 9.26578 4.4156 9.26583 4.4156C9.26589 4.4156 9.26594 4.4156 9.266 4.4156C9.26605 4.4156 9.26611 4.4156 9.26616 4.4156C9.26621 4.4156 9.26627 4.4156 9.26632 4.4156C9.26638 4.4156 9.26643 4.4156 9.26649 4.4156C9.26654 4.4156 9.26659 4.4156 9.26665 4.4156C9.2667 4.4156 9.26676 4.4156 9.26681 4.4156C9.26687 4.4156 9.26692 4.4156 9.26697 4.4156C9.26703 4.4156 9.26708 4.4156 9.26714 4.4156C9.26719 4.4156 9.26725 4.4156 9.2673 4.4156C9.26735 4.4156 9.26741 4.4156 9.26746 4.4156C9.26752 4.4156 9.26757 4.4156 9.26763 4.4156C9.26768 4.4156 9.26773 4.4156 9.26779 4.4156C9.26784 4.4156 9.2679 4.4156 9.26795 4.4156C9.26801 4.4156 9.26806 4.4156 9.26812 4.4156C9.26817 4.4156 9.26822 4.4156 9.26828 4.4156C9.26833 4.4156 9.26839 4.4156 9.26844 4.4156C9.2685 4.4156 9.26855 4.4156 9.2686 4.4156C9.26866 4.4156 9.26871 4.4156 9.26877 4.4156C9.26882 4.4156 9.26888 4.4156 9.26893 4.4156C9.26898 4.4156 9.26904 4.4156 9.26909 4.4156C9.26915 4.4156 9.2692 4.4156 9.26926 4.4156C9.26931 4.4156 9.26936 4.4156 9.26942 4.4156C9.26947 4.4156 9.26953 4.4156 9.26958 4.4156C9.26964 4.4156 9.26969 4.4156 9.26974 4.4156C9.2698 4.4156 9.26985 4.4156 9.26991 4.4156C9.26996 4.4156 9.27002 4.4156 9.27007 4.4156C9.27013 4.4156 9.27018 4.4156 9.27023 4.4156C9.27029 4.4156 9.27034 4.4156 9.2704 4.4156C9.27045 4.4156 9.27051 4.4156 9.27056 4.4156C9.27061 4.4156 9.27067 4.4156 9.27072 4.4156C9.27078 4.4156 9.27083 4.4156 9.27089 4.4156C9.27094 4.4156 9.271 4.4156 9.27105 4.4156C9.2711 4.4156 9.27116 4.4156 9.27121 4.4156C9.27127 4.4156 9.27132 4.4156 9.27138 4.4156C9.27143 4.4156 9.27148 4.4156 9.27154 4.4156C9.27159 4.4156 9.27165 4.4156 9.2717 4.4156C9.27176 4.4156 9.27181 4.4156 9.27187 4.4156C9.27192 4.4156 9.27197 4.4156 9.27203 4.4156C9.27208 4.4156 9.27214 4.4156 9.27219 4.4156C9.27225 4.4156 9.2723 4.4156 9.27236 4.4156C9.27241 4.4156 9.27246 4.4156 9.27252 4.4156C9.27257 4.4156 9.27263 4.4156 9.27268 4.4156C9.27274 4.4156 9.27279 4.4156 9.27284 4.4156C9.2729 4.4156 9.27295 4.4156 9.27301 4.4156C9.27306 4.4156 9.27312 4.4156 9.27317 4.4156C9.27323 4.4156 9.27328 4.4156 9.27333 4.4156C9.27339 4.4156 9.27344 4.4156 9.2735 4.4156C9.27355 4.4156 9.27361 4.4156 9.27366 4.4156C9.27372 4.4156 9.27377 4.4156 9.27382 4.4156C9.27388 4.4156 9.27393 4.4156 9.27399 4.4156C9.27404 4.4156 9.2741 4.4156 9.27415 4.4156C9.27421 4.4156 9.27426 4.4156 9.27431 4.4156C9.27437 4.4156 9.27442 4.4156 9.27448 4.4156C9.27453 4.4156 9.27459 4.4156 9.27464 4.4156C9.2747 4.4156 9.27475 4.4156 9.2748 4.4156C9.27486 4.4156 9.27491 4.4156 9.27497 4.4156C9.27502 4.4156 9.27508 4.4156 9.27513 4.4156C9.27519 4.4156 9.27524 4.4156 9.27529 4.4156C9.27535 4.4156 9.2754 4.4156 9.27546 4.4156C9.27551 4.4156 9.27557 4.4156 9.27562 4.4156C9.27568 4.4156 9.27573 4.4156 9.27578 4.4156C9.27584 4.4156 9.27589 4.4156 9.27595 4.4156C9.276 4.4156 9.27606 4.4156 9.27611 4.4156C9.27617 4.4156 9.27622 4.4156 9.27628 4.4156C9.27633 4.4156 9.27638 4.4156 9.27644 4.4156C9.27649 4.4156 9.27655 4.4156 9.2766 4.4156C9.27666 4.4156 9.27671 4.4156 9.27677 4.4156C9.27682 4.4156 9.27687 4.4156 9.27693 4.4156C9.27698 4.4156 9.27704 4.4156 9.27709 4.4156C9.27715 4.4156 9.2772 4.4156 9.27726 4.4156C9.27731 4.4156 9.27737 4.4156 9.27742 4.4156C9.27747 4.4156 9.27753 4.4156 9.27758 4.4156C9.27764 4.4156 9.27769 4.4156 9.27775 4.4156C9.2778 4.4156 9.27786 4.4156 9.27791 4.4156C9.27797 4.4156 9.27802 4.4156 9.27807 4.4156C9.27813 4.4156 9.27818 4.4156 9.27824 4.4156C9.27829 4.4156 9.27835 4.4156 9.2784 4.4156C9.27846 4.4156 9.27851 4.4156 9.27856 4.4156C9.27862 4.4156 9.27867 4.4156 9.27873 4.4156C9.27878 4.4156 9.27884 4.4156 9.27889 4.4156C9.27895 4.4156 9.279 4.4156 9.27906 4.4156C9.27911 4.4156 9.27917 4.4156 9.27922 4.4156C9.27927 4.4156 9.27933 4.4156 9.27938 4.4156C9.27944 4.4156 9.27949 4.4156 9.27955 4.4156C9.2796 4.4156 9.27966 4.4156 9.27971 4.4156C9.27977 4.4156 9.27982 4.4156 9.27987 4.4156C9.27993 4.4156 9.27998 4.4156 9.28004 4.4156C9.28009 4.4156 9.28015 4.4156 9.2802 4.4156C9.28026 4.4156 9.28031 4.4156 9.28037 4.4156C9.28042 4.4156 9.28047 4.4156 9.28053 4.4156C9.28058 4.4156 9.28064 4.4156 9.28069 4.4156C9.28075 4.4156 9.2808 4.4156 9.28086 4.4156C9.28091 4.4156 9.28097 4.4156 9.28102 4.4156C9.28108 4.4156 9.28113 4.4156 9.28118 4.4156C9.28124 4.4156 9.28129 4.4156 9.28135 4.4156C9.2814 4.4156 9.28146 4.4156 9.28151 4.4156C9.28157 4.4156 9.28162 4.4156 9.28168 4.4156C9.28173 4.4156 9.28179 4.4156 9.28184 4.4156C9.28189 4.4156 9.28195 4.4156 9.282 4.4156C9.28206 4.4156 9.28211 4.4156 9.28217 4.4156C9.28222 4.4156 9.28228 4.4156 9.28233 4.4156C9.28239 4.4156 9.28244 4.4156 9.2825 4.4156C9.28255 4.4156 9.2826 4.4156 9.28266 4.4156C9.28271 4.4156 9.28277 4.4156 9.28282 4.4156C9.28288 4.4156 9.28293 4.4156 9.28299 4.4156C9.28304 4.4156 9.2831 4.4156 9.28315 4.4156C9.28321 4.4156 9.28326 4.4156 9.28331 4.4156C9.28337 4.4156 9.28342 4.4156 9.28348 4.4156C9.28353 4.4156 9.28359 4.4156 9.28364 4.4156C9.2837 4.4156 9.28375 4.4156 9.28381 4.4156C9.28386 4.4156 9.28392 4.4156 9.28397 4.4156C9.28403 4.4156 9.28408 4.4156 9.28413 4.4156C9.28419 4.4156 9.28424 4.4156 9.2843 4.4156C9.28435 4.4156 9.28441 4.4156 9.28446 4.4156C9.28452 4.4156 9.28457 4.4156 9.28463 4.4156C9.28468 4.4156 9.28474 4.4156 9.28479 4.4156C9.28485 4.4156 9.2849 4.4156 9.28495 4.4156C9.28501 4.4156 9.28506 4.4156 9.28512 4.4156C9.28517 4.4156 9.28523 4.4156 9.28528 4.4156C9.28534 4.4156 9.28539 4.4156 9.28545 4.4156C9.2855 4.4156 9.28556 4.4156 9.28561 4.4156C9.28567 4.4156 9.28572 4.4156 9.28577 4.4156C9.28583 4.4156 9.28588 4.4156 9.28594 4.4156C9.28599 4.4156 9.28605 4.4156 9.2861 4.4156C9.28616 4.4156 9.28621 4.4156 9.28627 4.4156C9.28632 4.4156 9.28638 4.4156 9.28643 4.4156C9.28649 4.4156 9.28654 4.4156 9.2866 4.4156C9.28665 4.4156 9.28671 4.4156 9.28676 4.4156C9.28681 4.4156 9.28687 4.4156 9.28692 4.4156C9.28698 4.4156 9.28703 4.4156 9.28709 4.4156C9.28714 4.4156 9.2872 4.4156 9.28725 4.4156C9.28731 4.4156 9.28736 4.4156 9.28742 4.4156C9.28747 4.4156 9.28753 4.4156 9.28758 4.4156C9.28764 4.4156 9.28769 4.4156 9.28774 4.4156C9.2878 4.4156 9.28785 4.4156 9.28791 4.4156C9.28796 4.4156 9.28802 4.4156 9.28807 4.4156C9.28813 4.4156 9.28818 4.4156 9.28824 4.4156C9.28829 4.4156 9.28835 4.4156 9.2884 4.4156C9.28846 4.4156 9.28851 4.4156 9.28857 4.4156C9.28862 4.4156 9.28868 4.4156 9.28873 4.4156C9.28878 4.4156 9.28884 4.4156 9.28889 4.4156C9.28895 4.4156 9.289 4.4156 9.28906 4.4156C9.28911 4.4156 9.28917 4.4156 9.28922 4.4156C9.28928 4.4156 9.28933 4.4156 9.28939 4.4156C9.28944 4.4156 9.2895 4.4156 9.28955 4.4156C9.28961 4.4156 9.28966 4.4156 9.28972 4.4156C9.28977 4.4156 9.28983 4.4156 9.28988 4.4156C9.28994 4.4156 9.28999 4.4156 9.29005 4.4156C9.2901 4.4156 9.29015 4.4156 9.29021 4.4156C9.29026 4.4156 9.29032 4.4156 9.29037 4.4156C9.29043 4.4156 9.29048 4.4156 9.29054 4.4156C9.29059 4.4156 9.29065 4.4156 9.2907 4.4156C9.29076 4.4156 9.29081 4.4156 9.29087 4.4156C9.29092 4.4156 9.29098 4.4156 9.29103 4.4156C9.29109 4.4156 9.29114 4.4156 9.2912 4.4156C9.29125 4.4156 9.29131 4.4156 9.29136 4.4156C9.29142 4.4156 9.29147 4.4156 9.29152 4.4156C9.29158 4.4156 9.29163 4.4156 9.29169 4.4156C9.29174 4.4156 9.2918 4.4156 9.29185 4.4156C9.29191 4.4156 9.29196 4.4156 9.29202 4.4156C9.29207 4.4156 9.29213 4.4156 9.29218 4.4156C9.29224 4.4156 9.29229 4.4156 9.29235 4.4156C9.2924 4.4156 9.29246 4.4156 9.29251 4.4156C9.29257 4.4156 9.29262 4.4156 9.29268 4.4156C9.29273 4.4156 9.29279 4.4156 9.29284 4.4156C9.2929 4.4156 9.29295 4.4156 9.29301 4.4156C9.29306 4.4156 9.29312 4.4156 9.29317 4.4156C9.29322 4.4156 9.29328 4.4156 9.29333 4.4156C9.29339 4.4156 9.29344 4.4156 9.2935 4.4156C9.29355 4.4156 9.29361 4.4156 9.29366 4.4156C9.29372 4.4156 9.29377 4.4156 9.29383 4.4156C9.29388 4.4156 9.29394 4.4156 9.29399 4.4156C9.29405 4.4156 9.2941 4.4156 9.29416 4.4156C9.29421 4.4156 9.29427 4.4156 9.29432 4.4156C9.29438 4.4156 9.29443 4.4156 9.29449 4.4156C9.29454 4.4156 9.2946 4.4156 9.29465 4.4156C9.29471 4.4156 9.29476 4.4156 9.29482 4.4156C9.29487 4.4156 9.29493 4.4156 9.29498 4.4156C9.29504 4.4156 9.29509 4.4156 9.29515 4.4156C9.2952 4.4156 9.29526 4.4156 9.29531 4.4156C9.29537 4.4156 9.29542 4.4156 9.29548 4.4156C9.29553 4.4156 9.29558 4.4156 9.29564 4.4156C9.29569 4.4156 9.29575 4.4156 9.2958 4.4156C9.29586 4.4156 9.29591 4.4156 9.29597 4.4156C9.29602 4.4156 9.29608 4.4156 9.29613 4.4156C9.29619 4.4156 9.29624 4.4156 9.2963 4.4156C9.29635 4.4156 9.29641 4.4156 9.29646 4.4156C9.29652 4.4156 9.29657 4.4156 9.29663 4.4156C9.29668 4.4156 9.29674 4.4156 9.29679 4.4156C9.29685 4.4156 9.2969 4.4156 9.29696 4.4156C9.29701 4.4156 9.29707 4.4156 9.29712 4.4156C9.29718 4.4156 9.29723 4.4156 9.29729 4.4156C9.29734 4.4156 9.2974 4.4156 9.29745 4.4156C9.29751 4.4156 9.29756 4.4156 9.29762 4.4156C9.29767 4.4156 9.29773 4.4156 9.29778 4.4156C9.29784 4.4156 9.29789 4.4156 9.29795 4.4156C9.298 4.4156 9.29806 4.4156 9.29811 4.4156C9.29817 4.4156 9.29822 4.4156 9.29828 4.4156C9.29833 4.4156 9.29839 4.4156 9.29844 4.4156C9.2985 4.4156 9.29855 4.4156 9.29861 4.4156C9.29866 4.4156 9.29872 4.4156 9.29877 4.4156C9.29883 4.4156 9.29888 4.4156 9.29894 4.4156C9.29899 4.4156 9.29905 4.4156 9.2991 4.4156C9.29916 4.4156 9.29921 4.4156 9.29927 4.4156C9.29932 4.4156 9.29938 4.4156 9.29943 4.4156C9.29949 4.4156 9.29954 4.4156 9.2996 4.4156C9.29965 4.4156 9.29971 4.4156 9.29976 4.4156C9.29982 4.4156 9.29987 4.4156 9.29993 4.4156C9.29998 4.4156 9.30004 4.4156 9.30009 4.4156C9.30015 4.4156 9.3002 4.4156 9.30026 4.4156C9.30031 4.4156 9.30037 4.4156 9.30042 4.4156C9.30048 4.4156 9.30053 4.4156 9.30059 4.4156C9.30064 4.4156 9.3007 4.4156 9.30075 4.4156C9.30081 4.4156 9.30086 4.4156 9.30092 4.4156C9.30097 4.4156 9.30103 4.4156 9.30108 4.4156C9.30114 4.4156 9.30119 4.4156 9.30125 4.4156C9.3013 4.4156 9.30136 4.4156 9.30141 4.4156C9.30147 4.4156 9.30152 4.4156 9.30158 4.4156C9.30163 4.4156 9.30169 4.4156 9.30174 4.4156C9.3018 4.4156 9.30185 4.4156 9.30191 4.4156C9.30196 4.4156 9.30202 4.4156 9.30207 4.4156C9.30213 4.4156 9.30218 4.4156 9.30224 4.4156C9.30229 4.4156 9.30235 4.4156 9.3024 4.4156C9.30246 4.4156 9.30251 4.4156 9.30257 4.4156C9.30262 4.4156 9.30268 4.4156 9.30273 4.4156C9.30279 4.4156 9.30284 4.4156 9.3029 4.4156C9.30295 4.4156 9.30301 4.4156 9.30306 4.4156C9.30312 4.4156 9.30317 4.4156 9.30323 4.4156C9.30328 4.4156 9.30334 4.4156 9.30339 4.4156C9.30345 4.4156 9.3035 4.4156 9.30356 4.4156C9.30361 4.4156 9.30367 4.4156 9.30373 4.4156C9.30378 4.4156 9.30384 4.4156 9.30389 4.4156C9.30395 4.4156 9.304 4.4156 9.30406 4.4156C9.30411 4.4156 9.30417 4.4156 9.30422 4.4156C9.30428 4.4156 9.30433 4.4156 9.30439 4.4156C9.30444 4.4156 9.3045 4.4156 9.30455 4.4156C9.30461 4.4156 9.30466 4.4156 9.30472 4.4156C9.30477 4.4156 9.30483 4.4156 9.30488 4.4156C9.30494 4.4156 9.30499 4.4156 9.30505 4.4156C9.3051 4.4156 9.30516 4.4156 9.30521 4.4156C9.30527 4.4156 9.30532 4.4156 9.30538 4.4156C9.30543 4.4156 9.30549 4.4156 9.30554 4.4156C9.3056 4.4156 9.30565 4.4156 9.30571 4.4156C9.30576 4.4156 9.30582 4.4156 9.30587 4.4156C9.30593 4.4156 9.30598 4.4156 9.30604 4.4156C9.30609 4.4156 9.30615 4.4156 9.30621 4.4156C9.30626 4.4156 9.30632 4.4156 9.30637 4.4156C9.30643 4.4156 9.30648 4.4156 9.30654 4.4156C9.30659 4.4156 9.30665 4.4156 9.3067 4.4156C9.30676 4.4156 9.30681 4.4156 9.30687 4.4156C9.30692 4.4156 9.30698 4.4156 9.30703 4.4156C9.30709 4.4156 9.30714 4.4156 9.3072 4.4156C9.30725 4.4156 9.30731 4.4156 9.30736 4.4156C9.30742 4.4156 9.30747 4.4156 9.30753 4.4156C9.30758 4.4156 9.30764 4.4156 9.30769 4.4156C9.30775 4.4156 9.3078 4.4156 9.30786 4.4156C9.30791 4.4156 9.30797 4.4156 9.30803 4.4156C9.30808 4.4156 9.30814 4.4156 9.30819 4.4156C9.30825 4.4156 9.3083 4.4156 9.30836 4.4156C9.30841 4.4156 9.30847 4.4156 9.30852 4.4156C9.30858 4.4156 9.30863 4.4156 9.30869 4.4156C9.30874 4.4156 9.3088 4.4156 9.30885 4.4156C9.30891 4.4156 9.30896 4.4156 9.30902 4.4156C9.30907 4.4156 9.30913 4.4156 9.30918 4.4156C9.30924 4.4156 9.30929 4.4156 9.30935 4.4156C9.30941 4.4156 9.30946 4.4156 9.30952 4.4156C9.30957 4.4156 9.30963 4.4156 9.30968 4.4156C9.30974 4.4156 9.30979 4.4156 9.30985 4.4156C9.3099 4.4156 9.30996 4.4156 9.31001 4.4156C9.31007 4.4156 9.31012 4.4156 9.31018 4.4156C9.31023 4.4156 9.31029 4.4156 9.31034 4.4156C9.3104 4.4156 9.31045 4.4156 9.31051 4.4156C9.31056 4.4156 9.31062 4.4156 9.31068 4.4156C9.31073 4.4156 9.31079 4.4156 9.31084 4.4156C9.3109 4.4156 9.31095 4.4156 9.31101 4.4156C9.31106 4.4156 9.31112 4.4156 9.31117 4.4156C9.31123 4.4156 9.31128 4.4156 9.31134 4.4156C9.31139 4.4156 9.31145 4.4156 9.3115 4.4156C9.31156 4.4156 9.31161 4.4156 9.31167 4.4156C9.31173 4.4156 9.31178 4.4156 9.31184 4.4156C9.31189 4.4156 9.31195 4.4156 9.312 4.4156C9.31206 4.4156 9.31211 4.4156 9.31217 4.4156C9.31222 4.4156 9.31228 4.4156 9.31233 4.4156C9.31239 4.4156 9.31244 4.4156 9.3125 4.4156C9.31255 4.4156 9.31261 4.4156 9.31266 4.4156C9.31272 4.4156 9.31278 4.4156 9.31283 4.4156C9.31289 4.4156 9.31294 4.4156 9.313 4.4156C9.31305 4.4156 9.31311 4.4156 9.31316 4.4156C9.31322 4.4156 9.31327 4.4156 9.31333 4.4156C9.31338 4.4156 9.31344 4.4156 9.31349 4.4156C9.31355 4.4156 9.3136 4.4156 9.31366 4.4156C9.31372 4.4156 9.31377 4.4156 9.31383 4.4156C9.31388 4.4156 9.31394 4.4156 9.31399 4.4156C9.31405 4.4156 9.3141 4.4156 9.31416 4.4156C9.31421 4.4156 9.31427 4.4156 9.31432 4.4156C9.31438 4.4156 9.31443 4.4156 9.31449 4.4156C9.31455 4.4156 9.3146 4.4156 9.31466 4.4156C9.31471 4.4156 9.31477 4.4156 9.31482 4.4156C9.31488 4.4156 9.31493 4.4156 9.31499 4.4156C9.31504 4.4156 9.3151 4.4156 9.31515 4.4156C9.31521 4.4156 9.31526 4.4156 9.31532 4.4156C9.31538 4.4156 9.31543 4.4156 9.31549 4.4156C9.31554 4.4156 9.3156 4.4156 9.31565 4.4156C9.31571 4.4156 9.31576 4.4156 9.31582 4.4156C9.31587 4.4156 9.31593 4.4156 9.31598 4.4156C9.31604 4.4156 9.31609 4.4156 9.31615 4.4156C9.31621 4.4156 9.31626 4.4156 9.31632 4.4156C9.31637 4.4156 9.31643 4.4156 9.31648 4.4156C9.31654 4.4156 9.31659 4.4156 9.31665 4.4156C9.3167 4.4156 9.31676 4.4156 9.31681 4.4156C9.31687 4.4156 9.31693 4.4156 9.31698 4.4156C9.31704 4.4156 9.31709 4.4156 9.31715 4.4156C9.3172 4.4156 9.31726 4.4156 9.31731 4.4156C9.31737 4.4156 9.31742 4.4156 9.31748 4.4156C9.31753 4.4156 9.31759 4.4156 9.31765 4.4156C9.3177 4.4156 9.31776 4.4156 9.31781 4.4156C9.31787 4.4156 9.31792 4.4156 9.31798 4.4156C9.31803 4.4156 9.31809 4.4156 9.31814 4.4156C9.3182 4.4156 9.31825 4.4156 9.31831 4.4156C9.31837 4.4156 9.31842 4.4156 9.31848 4.4156C9.31853 4.4156 9.31859 4.4156 9.31864 4.4156C9.3187 4.4156 9.31875 4.4156 9.31881 4.4156C9.31886 4.4156 9.31892 4.4156 9.31897 4.4156C9.31903 4.4156 9.31909 4.4156 9.31914 4.4156C9.3192 4.4156 9.31925 4.4156 9.31931 4.4156C9.31936 4.4156 9.31942 4.4156 9.31947 4.4156C9.31953 4.4156 9.31958 4.4156 9.31964 4.4156C9.3197 4.4156 9.31975 4.4156 9.31981 4.4156C9.31986 4.4156 9.31992 4.4156 9.31997 4.4156C9.32003 4.4156 9.32008 4.4156 9.32014 4.4156C9.32019 4.4156 9.32025 4.4156 9.32031 4.4156C9.32036 4.4156 9.32042 4.4156 9.32047 4.4156C9.32053 4.4156 9.32058 4.4156 9.32064 4.4156C9.32069 4.4156 9.32075 4.4156 9.3208 4.4156C9.32086 4.4156 9.32091 4.4156 9.32097 4.4156C9.32103 4.4156 9.32108 4.4156 9.32114 4.4156C9.32119 4.4156 9.32125 4.4156 9.3213 4.4156C9.32136 4.4156 9.32141 4.4156 9.32147 4.4156C9.32153 4.4156 9.32158 4.4156 9.32164 4.4156C9.32169 4.4156 9.32175 4.4156 9.3218 4.4156C9.32186 4.4156 9.32191 4.4156 9.32197 4.4156C9.32202 4.4156 9.32208 4.4156 9.32214 4.4156C9.32219 4.4156 9.32225 4.4156 9.3223 4.4156C9.32236 4.4156 9.32241 4.4156 9.32247 4.4156C9.32252 4.4156 9.32258 4.4156 9.32263 4.4156C9.32269 4.4156 9.32275 4.4156 9.3228 4.4156C9.32286 4.4156 9.32291 4.4156 9.32297 4.4156C9.32302 4.4156 9.32308 4.4156 9.32313 4.4156C9.32319 4.4156 9.32325 4.4156 9.3233 4.4156C9.32336 4.4156 9.32341 4.4156 9.32347 4.4156C9.32352 4.4156 9.32358 4.4156 9.32363 4.4156C9.32369 4.4156 9.32375 4.4156 9.3238 4.4156C9.32386 4.4156 9.32391 4.4156 9.32397 4.4156C9.32402 4.4156 9.32408 4.4156 9.32413 4.4156C9.32419 4.4156 9.32424 4.4156 9.3243 4.4156C9.32436 4.4156 9.32441 4.4156 9.32447 4.4156C9.32452 4.4156 9.32458 4.4156 9.32463 4.4156C9.32469 4.4156 9.32474 4.4156 9.3248 4.4156C9.32486 4.4156 9.32491 4.4156 9.32497 4.4156C9.32502 4.4156 9.32508 4.4156 9.32513 4.4156C9.32519 4.4156 9.32524 4.4156 9.3253 4.4156C9.32536 4.4156 9.32541 4.4156 9.32547 4.4156C9.32552 4.4156 9.32558 4.4156 9.32563 4.4156C9.32569 4.4156 9.32574 4.4156 9.3258 4.4156C9.32586 4.4156 9.32591 4.4156 9.32597 4.4156C9.32602 4.4156 9.32608 4.4156 9.32613 4.4156C9.32619 4.4156 9.32624 4.4156 9.3263 4.4156C9.32636 4.4156 9.32641 4.4156 9.32647 4.4156C9.32652 4.4156 9.32658 4.4156 9.32663 4.4156C9.32669 4.4156 9.32675 4.4156 9.3268 4.4156C9.32686 4.4156 9.32691 4.4156 9.32697 4.4156C9.32702 4.4156 9.32708 4.4156 9.32713 4.4156C9.32719 4.4156 9.32725 4.4156 9.3273 4.4156C9.32736 4.4156 9.32741 4.4156 9.32747 4.4156C9.32752 4.4156 9.32758 4.4156 9.32763 4.4156C9.32769 4.4156 9.32775 4.4156 9.3278 4.4156C9.32786 4.4156 9.32791 4.4156 9.32797 4.4156C9.32802 4.4156 9.32808 4.4156 9.32814 4.4156C9.32819 4.4156 9.32825 4.4156 9.3283 4.4156C9.32836 4.4156 9.32841 4.4156 9.32847 4.4156C9.32852 4.4156 9.32858 4.4156 9.32864 4.4156C9.32869 4.4156 9.32875 4.4156 9.3288 4.4156C9.32886 4.4156 9.32891 4.4156 9.32897 4.4156C9.32903 4.4156 9.32908 4.4156 9.32914 4.4156C9.32919 4.4156 9.32925 4.4156 9.3293 4.4156C9.32936 4.4156 9.32941 4.4156 9.32947 4.4156C9.32953 4.4156 9.32958 4.4156 9.32964 4.4156C9.32969 4.4156 9.32975 4.4156 9.3298 4.4156C9.32986 4.4156 9.32992 4.4156 9.32997 4.4156C9.33003 4.4156 9.33008 4.4156 9.33014 4.4156C9.33019 4.4156 9.33025 4.4156 9.3303 4.4156C9.33036 4.4156 9.33042 4.4156 9.33047 4.4156C9.33053 4.4156 9.33058 4.4156 9.33064 4.4156C9.33069 4.4156 9.33075 4.4156 9.33081 4.4156C9.33086 4.4156 9.33092 4.4156 9.33097 4.4156C9.33103 4.4156 9.33108 4.4156 9.33114 4.4156C9.3312 4.4156 9.33125 4.4156 9.33131 4.4156C9.33136 4.4156 9.33142 4.4156 9.33147 4.4156C9.33153 4.4156 9.33159 4.4156 9.33164 4.4156C9.3317 4.4156 9.33175 4.4156 9.33181 4.4156C9.33186 4.4156 9.33192 4.4156 9.33198 4.4156C9.33203 4.4156 9.33209 4.4156 9.33214 4.4156C9.3322 4.4156 9.33225 4.4156 9.33231 4.4156C9.33237 4.4156 9.33242 4.4156 9.33248 4.4156C9.33253 4.4156 9.33259 4.4156 9.33264 4.4156C9.3327 4.4156 9.33276 4.4156 9.33281 4.4156C9.33287 4.4156 9.33292 4.4156 9.33298 4.4156C9.33303 4.4156 9.33309 4.4156 9.33315 4.4156C9.3332 4.4156 9.33326 4.4156 9.33331 4.4156C9.33337 4.4156 9.33342 4.4156 9.33348 4.4156C9.33354 4.4156 9.33359 4.4156 9.33365 4.4156C9.3337 4.4156 9.33376 4.4156 9.33381 4.4156C9.33387 4.4156 9.33393 4.4156 9.33398 4.4156C9.33404 4.4156 9.33409 4.4156 9.33415 4.4156C9.3342 4.4156 9.33426 4.4156 9.33432 4.4156C9.33437 4.4156 9.33443 4.4156 9.33448 4.4156C9.33454 4.4156 9.33459 4.4156 9.33465 4.4156C9.33471 4.4156 9.33476 4.4156 9.33482 4.4156C9.33487 4.4156 9.33493 4.4156 9.33498 4.4156C9.33504 4.4156 9.3351 4.4156 9.33515 4.4156C9.33521 4.4156 9.33526 4.4156 9.33532 4.4156C9.33538 4.4156 9.33543 4.4156 9.33549 4.4156C9.33554 4.4156 9.3356 4.4156 9.33565 4.4156C9.33571 4.4156 9.33577 4.4156 9.33582 4.4156C9.33588 4.4156 9.33593 4.4156 9.33599 4.4156C9.33604 4.4156 9.3361 4.4156 9.33616 4.4156C9.33621 4.4156 9.33627 4.4156 9.33632 4.4156C9.33638 4.4156 9.33644 4.4156 9.33649 4.4156C9.33655 4.4156 9.3366 4.4156 9.33666 4.4156C9.33671 4.4156 9.33677 4.4156 9.33683 4.4156C9.33688 4.4156 9.33694 4.4156 9.33699 4.4156C9.33705 4.4156 9.3371 4.4156 9.33716 4.4156C9.33722 4.4156 9.33727 4.4156 9.33733 4.4156C9.33738 4.4156 9.33744 4.4156 9.3375 4.4156C9.33755 4.4156 9.33761 4.4156 9.33766 4.4156V3.4156ZM9.25333 3.4156V2.4156C8.68284 2.4156 8.12867 2.63373 7.71449 3.03299L8.40852 3.75294L9.10255 4.47288C9.13649 4.44016 9.19009 4.4156 9.25333 4.4156V3.4156ZM8.40852 3.75294L7.71449 3.03299C7.29908 3.43345 7.05859 3.98457 7.05859 4.56734H8.05859H9.05859C9.05859 4.53918 9.06985 4.50441 9.10255 4.47288L8.40852 3.75294ZM8.05859 4.56734H7.05859C7.05859 4.40507 7.12579 4.25717 7.23282 4.15399L7.92685 4.87394L8.62088 5.59388C8.89661 5.32808 9.05859 4.9596 9.05859 4.56734H8.05859ZM7.92685 4.87394L7.23282 4.15399C7.33858 4.05204 7.47446 4.00093 7.6088 4.00093V5.00093V6.00093C7.98172 6.00093 8.34642 5.85847 8.62088 5.59388L7.92685 4.87394ZM7.6088 5.00093V4.00093C7.74316 4.00093 7.87903 4.05204 7.98479 4.15399L7.29076 4.87394L6.59673 5.59388C6.87118 5.85846 7.23587 6.00093 7.6088 6.00093V5.00093ZM7.29076 4.87394L7.98479 4.15399C8.0918 4.25715 8.15902 4.40504 8.15902 4.56734H7.15902H6.15902C6.15902 4.95963 6.32102 5.3281 6.59673 5.59388L7.29076 4.87394ZM7.15902 4.56734L8.15902 4.56735C8.15902 4.39034 8.20878 4.2142 8.30634 4.05744L7.45733 3.52906L6.60833 3.00067C6.3155 3.4712 6.15903 4.01282 6.15902 4.56732L7.15902 4.56734ZM7.45733 3.52906L8.30634 4.05744C8.40412 3.90033 8.54737 3.76707 8.72456 3.67595L8.26724 2.78665L7.80992 1.89735C7.31757 2.15053 6.90095 2.53049 6.60833 3.00067L7.45733 3.52906ZM8.26724 2.78665L8.72456 3.67595C8.90197 3.58472 9.10436 3.54054 9.30944 3.5505L9.35794 2.55168L9.40644 1.55286C8.85365 1.52602 8.30203 1.64428 7.80992 1.89735L8.26724 2.78665ZM9.35794 2.55168L9.30944 3.5505C9.5145 3.56046 9.71026 3.62393 9.87576 3.73092L10.4186 2.89111L10.9615 2.05129C10.4968 1.75087 9.95925 1.5797 9.40644 1.55286L9.35794 2.55168ZM10.4186 2.89111L9.87576 3.73092C10.041 3.83774 10.1683 3.9827 10.2484 4.14679L11.1471 3.7082L12.0458 3.26962C11.8028 2.77178 11.4265 2.35188 10.9615 2.05129L10.4186 2.89111ZM11.1471 3.7082L10.2484 4.14679C10.3283 4.31052 10.3596 4.48963 10.3411 4.66596L11.3356 4.77013L12.3302 4.87431C12.388 4.32281 12.2889 3.76781 12.0458 3.26962L11.1471 3.7082ZM11.3356 4.77013L10.3411 4.66596C10.3226 4.84238 10.2545 5.01408 10.1398 5.16222L10.9306 5.77428L11.7215 6.38634C12.0606 5.94816 12.2724 5.4257 12.3302 4.87431L11.3356 4.77013ZM10.9306 5.77428L10.1398 5.16222C10.0249 5.31069 9.86687 5.43055 9.67962 5.50463L10.0475 6.4345L10.4154 7.36438C10.9301 7.16073 11.3826 6.82418 11.7215 6.38634L10.9306 5.77428ZM10.0475 6.4345L11.0263 6.22987L11.0256 6.22649L10.0468 6.43112L9.06794 6.63575L9.06865 6.63913L10.0475 6.4345Z" fill="var(--stroke-0, #FC5A5A)" mask="url(#path-4-inside-2_187_19277)"/>
</g>
</g>
</svg>
