<svg preserveAspectRatio="none" width="100%" height="100%" overflow="visible" style="display: block;" viewBox="0 0 16.0016 20" fill="none" xmlns="http://www.w3.org/2000/svg">
<g id="Notes Icon Container">
<path id="path3683" d="M1.99902 0.5H14.0029C14.3887 0.5 14.7668 0.663665 15.0508 0.967773C15.3359 1.27316 15.502 1.69494 15.502 2.14062V17.8555C15.5024 18.0758 15.4615 18.294 15.3838 18.4961C15.3061 18.6979 15.1926 18.879 15.0518 19.0303C14.9109 19.1815 14.7459 19.3001 14.5664 19.3799C14.3869 19.4597 14.195 19.5 14.0029 19.5H1.99805C1.80606 19.5 1.61499 19.4596 1.43555 19.3799C1.25593 19.3001 1.09011 19.1815 0.949219 19.0303C0.808437 18.8791 0.694871 18.6979 0.617188 18.4961C0.539436 18.294 0.499525 18.0758 0.5 17.8555V2.14062C0.5 1.92053 0.540133 1.70265 0.618164 1.50098C0.69617 1.29942 0.810201 1.11867 0.951172 0.967773C1.09213 0.816908 1.25798 0.698657 1.4375 0.619141C1.61667 0.539864 1.80743 0.499882 1.99902 0.5ZM15.1709 2.1377C15.1692 1.82744 15.0524 1.52442 14.8379 1.2959C14.6222 1.06622 14.3228 0.929682 14.0029 0.929688H2.5V0.922852L1.99805 0.924805C1.67754 0.925991 1.37801 1.0637 1.16309 1.29492C0.949273 1.525 0.834671 1.8297 0.834961 2.14062V17.8545L0.839844 17.9707C0.864503 18.2404 0.976015 18.4989 1.16309 18.7002C1.378 18.9314 1.67756 19.0691 1.99805 19.0703H14.0029V19.0693C14.1611 19.0694 14.3169 19.0365 14.4609 18.9727C14.6051 18.9088 14.7341 18.8165 14.8408 18.7021C14.9475 18.5878 15.03 18.4536 15.0859 18.3086C15.1419 18.1637 15.171 18.0095 15.1709 17.8545V2.1377Z" fill="var(--fill-0, #FF9900)" stroke="var(--stroke-0, #FF9900)"/>
<path id="path3679" d="M10.333 5.5L10.3857 5.51172C10.4041 5.51984 10.423 5.53225 10.4404 5.55078C10.4756 5.58824 10.5005 5.64568 10.502 5.71191C10.5012 5.77903 10.4759 5.83699 10.4404 5.875C10.4058 5.91213 10.3664 5.9265 10.333 5.92676H5.66992C5.63648 5.92659 5.5963 5.91225 5.56152 5.875C5.52612 5.83699 5.50078 5.77895 5.5 5.71191C5.50144 5.64568 5.52737 5.58824 5.5625 5.55078C5.57973 5.53252 5.598 5.5198 5.61621 5.51172L5.66992 5.5H10.333Z" fill="var(--fill-0, #FF9900)" stroke="var(--stroke-0, #FF9900)"/>
<path id="path3675" d="M10.333 9.78125L10.3857 9.79297C10.4042 9.80114 10.423 9.81432 10.4404 9.83301C10.4673 9.86185 10.4881 9.90213 10.4971 9.94922L10.502 9.99805C10.5006 10.0642 10.4755 10.1216 10.4404 10.1592C10.4058 10.1962 10.3663 10.2097 10.333 10.21H5.66992C5.6365 10.2098 5.59629 10.1964 5.56152 10.1592C5.52646 10.1216 5.50135 10.0642 5.5 9.99805C5.50029 9.93022 5.52582 9.8714 5.56152 9.83301C5.57894 9.81435 5.59777 9.80115 5.61621 9.79297L5.66992 9.78125H10.333Z" fill="var(--fill-0, #FF9900)" stroke="var(--stroke-0, #FF9900)"/>
<path id="path3671" d="M10.333 14.0703L10.3867 14.082C10.4051 14.0902 10.424 14.1035 10.4414 14.1221C10.4763 14.1596 10.5015 14.2164 10.5029 14.2822C10.5021 14.3493 10.4768 14.4073 10.4414 14.4453C10.4066 14.4824 10.3664 14.4969 10.333 14.4971H5.66992C5.63653 14.4969 5.59726 14.4824 5.5625 14.4453C5.52689 14.4073 5.50079 14.3496 5.5 14.2822C5.50143 14.2164 5.52666 14.1596 5.56152 14.1221C5.57894 14.1034 5.59777 14.0902 5.61621 14.082L5.66992 14.0703H10.333Z" fill="var(--fill-0, #FF9900)" stroke="var(--stroke-0, #FF9900)"/>
</g>
</svg>
