<svg preserveAspectRatio="none" width="100%" height="100%" overflow="visible" style="display: block;" viewBox="0 0 16.5 20.5" fill="none" xmlns="http://www.w3.org/2000/svg">
<g id="Quiz Icon Container">
<path id="Path 197704" d="M15.0315 0.25H1.46848C1.14545 0.250415 0.835768 0.377142 0.607351 0.60239C0.378935 0.827638 0.250425 1.13302 0.250004 1.45157V19.0437C0.249586 19.2019 0.280782 19.3585 0.341809 19.5047C0.402837 19.651 0.492497 19.7839 0.605664 19.8959C0.71883 20.008 0.853282 20.0969 1.00133 20.1577C1.14938 20.2184 1.30812 20.2498 1.46848 20.25H15.0315C15.3546 20.2496 15.6642 20.1229 15.8927 19.8976C16.1211 19.6724 16.2496 19.367 16.25 19.0484V1.45157C16.2496 1.13302 16.1211 0.827638 15.8927 0.60239C15.6642 0.377142 15.3546 0.250415 15.0315 0.25ZM15.4578 19.0445C15.4576 19.1559 15.4126 19.2627 15.3327 19.3415C15.2528 19.4203 15.1445 19.4647 15.0315 19.4649H1.46848C1.35603 19.4639 1.24853 19.4191 1.16932 19.3404C1.0901 19.2617 1.04556 19.1554 1.04535 19.0445V1.45157C1.04639 1.34122 1.0913 1.23569 1.17043 1.15766C1.24956 1.07963 1.35658 1.03534 1.46848 1.03431H15.0315C15.1445 1.03452 15.2528 1.07888 15.3327 1.15767C15.4126 1.23647 15.4576 1.34327 15.4578 1.45471V19.0445Z" fill="var(--fill-0, #289B91)" stroke="var(--stroke-0, #289B91)" stroke-width="0.5"/>
<path id="Path 197705" d="M13.7187 5.79688H7.85861C7.75314 5.79688 7.652 5.8382 7.57742 5.91174C7.50284 5.98528 7.46094 6.08503 7.46094 6.18903C7.46094 6.29304 7.50284 6.39278 7.57742 6.46632C7.652 6.53987 7.75314 6.58119 7.85861 6.58119H13.7203C13.8258 6.58119 13.9269 6.53987 14.0015 6.46632C14.0761 6.39278 14.118 6.29304 14.118 6.18903C14.118 6.08503 14.0761 5.98528 14.0015 5.91174C13.9269 5.8382 13.8258 5.79688 13.7203 5.79688H13.7187Z" fill="var(--fill-0, #289B91)" stroke="var(--stroke-0, #289B91)" stroke-width="0.5"/>
<path id="Path 197706" d="M7.85861 4.08119H10.4833C10.5887 4.08119 10.6899 4.03987 10.7645 3.96633C10.839 3.89279 10.8809 3.79304 10.8809 3.68903C10.8809 3.58503 10.839 3.48528 10.7645 3.41173C10.6899 3.33819 10.5887 3.29688 10.4833 3.29688H7.85861C7.75314 3.29688 7.652 3.33819 7.57742 3.41173C7.50284 3.48528 7.46094 3.58503 7.46094 3.68903C7.46094 3.79304 7.50284 3.89279 7.57742 3.96633C7.652 4.03987 7.75314 4.08119 7.85861 4.08119Z" fill="var(--fill-0, #289B91)" stroke="var(--stroke-0, #289B91)" stroke-width="0.5"/>
<path id="Path 197707" d="M13.7165 3.29688H12.3039C12.1985 3.29688 12.0973 3.33819 12.0227 3.41173C11.9482 3.48528 11.9062 3.58503 11.9062 3.68903C11.9062 3.79304 11.9482 3.89279 12.0227 3.96633C12.0973 4.03987 12.1985 4.08119 12.3039 4.08119H13.7165C13.8219 4.08119 13.9231 4.03987 13.9977 3.96633C14.0722 3.89279 14.1141 3.79304 14.1141 3.68903C14.1141 3.58503 14.0722 3.48528 13.9977 3.41173C13.9231 3.33819 13.8219 3.29688 13.7165 3.29688Z" fill="var(--fill-0, #289B91)" stroke="var(--stroke-0, #289B91)" stroke-width="0.5"/>
<path id="Path 197708" d="M13.7187 11.1094H7.85861C7.75314 11.1094 7.652 11.1507 7.57742 11.2242C7.50284 11.2978 7.46094 11.3975 7.46094 11.5015C7.46094 11.6055 7.50284 11.7053 7.57742 11.7788C7.652 11.8524 7.75314 11.8937 7.85861 11.8937H13.7203C13.8258 11.8937 13.9269 11.8524 14.0015 11.7788C14.0761 11.7053 14.118 11.6055 14.118 11.5015C14.118 11.3975 14.0761 11.2978 14.0015 11.2242C13.9269 11.1507 13.8258 11.1094 13.7203 11.1094H13.7187Z" fill="var(--fill-0, #289B91)" stroke="var(--stroke-0, #289B91)" stroke-width="0.5"/>
<path id="Path 197709" d="M7.85861 9.38588H10.4833C10.5887 9.38588 10.6899 9.34455 10.7645 9.27101C10.839 9.19747 10.8809 9.09773 10.8809 8.99372C10.8809 8.88971 10.839 8.78997 10.7645 8.71643C10.6899 8.64288 10.5887 8.60156 10.4833 8.60156H7.85861C7.75314 8.60156 7.652 8.64288 7.57742 8.71643C7.50284 8.78997 7.46094 8.88971 7.46094 8.99372C7.46094 9.09773 7.50284 9.19747 7.57742 9.27101C7.652 9.34455 7.75314 9.38588 7.85861 9.38588Z" fill="var(--fill-0, #289B91)" stroke="var(--stroke-0, #289B91)" stroke-width="0.5"/>
<path id="Path 197710" d="M13.7165 8.60156H12.3039C12.1985 8.60156 12.0973 8.64288 12.0227 8.71643C11.9482 8.78997 11.9062 8.88971 11.9062 8.99372C11.9062 9.09773 11.9482 9.19747 12.0227 9.27101C12.0973 9.34455 12.1985 9.38588 12.3039 9.38588H13.7165C13.8219 9.38588 13.9231 9.34455 13.9977 9.27101C14.0722 9.19747 14.1141 9.09773 14.1141 8.99372C14.1141 8.88971 14.0722 8.78997 13.9977 8.71643C13.9231 8.64288 13.8219 8.60156 13.7165 8.60156Z" fill="var(--fill-0, #289B91)" stroke="var(--stroke-0, #289B91)" stroke-width="0.5"/>
<path id="Path 197711" d="M13.7187 16.4219H7.85861C7.75314 16.4219 7.652 16.4632 7.57742 16.5367C7.50284 16.6103 7.46094 16.71 7.46094 16.814C7.46094 16.918 7.50284 17.0178 7.57742 17.0913C7.652 17.1649 7.75314 17.2062 7.85861 17.2062H13.7203C13.8258 17.2062 13.9269 17.1649 14.0015 17.0913C14.0761 17.0178 14.118 16.918 14.118 16.814C14.118 16.71 14.0761 16.6103 14.0015 16.5367C13.9269 16.4632 13.8258 16.4219 13.7203 16.4219H13.7187Z" fill="var(--fill-0, #289B91)" stroke="var(--stroke-0, #289B91)" stroke-width="0.5"/>
<path id="Path 197712" d="M7.85861 14.6984H10.4833C10.5887 14.6984 10.6899 14.6571 10.7645 14.5835C10.839 14.51 10.8809 14.4102 10.8809 14.3062C10.8809 14.2022 10.839 14.1025 10.7645 14.0289C10.6899 13.9554 10.5887 13.9141 10.4833 13.9141H7.85861C7.75314 13.9141 7.652 13.9554 7.57742 14.0289C7.50284 14.1025 7.46094 14.2022 7.46094 14.3062C7.46094 14.4102 7.50284 14.51 7.57742 14.5835C7.652 14.6571 7.75314 14.6984 7.85861 14.6984Z" fill="var(--fill-0, #289B91)" stroke="var(--stroke-0, #289B91)" stroke-width="0.5"/>
<path id="Path 197713" d="M13.7165 13.9141H12.3039C12.1985 13.9141 12.0973 13.9554 12.0227 14.0289C11.9482 14.1025 11.9062 14.2022 11.9062 14.3062C11.9062 14.4102 11.9482 14.51 12.0227 14.5835C12.0973 14.6571 12.1985 14.6984 12.3039 14.6984H13.7165C13.8219 14.6984 13.9231 14.6571 13.9977 14.5835C14.0722 14.51 14.1141 14.4102 14.1141 14.3062C14.1141 14.2022 14.0722 14.1025 13.9977 14.0289C13.9231 13.9554 13.8219 13.9141 13.7165 13.9141Z" fill="var(--fill-0, #289B91)" stroke="var(--stroke-0, #289B91)" stroke-width="0.5"/>
<path id="Path 197714" d="M5.04002 4.22639L3.61396 5.63267L3.06596 5.09227C2.98938 5.03564 2.89466 5.00814 2.79917 5.01483C2.70369 5.02152 2.61385 5.06195 2.54616 5.1287C2.47847 5.19545 2.43747 5.28404 2.43069 5.3782C2.4239 5.47236 2.45179 5.56577 2.50922 5.64129L3.33798 6.45855C3.41231 6.5304 3.51225 6.57065 3.61635 6.57065C3.72044 6.57065 3.82038 6.5304 3.89472 6.45855L5.60074 4.7762C5.64632 4.74248 5.68402 4.69951 5.71129 4.65018C5.73856 4.60085 5.75477 4.54631 5.7588 4.49027C5.76284 4.43423 5.75463 4.37798 5.7347 4.32534C5.71478 4.27271 5.68362 4.2249 5.64333 4.18517C5.60304 4.14544 5.55457 4.11471 5.50119 4.09507C5.44781 4.07542 5.39077 4.06732 5.33394 4.0713C5.27711 4.07528 5.22181 4.09126 5.17178 4.11815C5.12176 4.14505 5.07818 4.18223 5.04399 4.22718L5.04002 4.22639Z" fill="var(--fill-0, #289B91)" stroke="var(--stroke-0, #289B91)" stroke-width="0.5"/>
<path id="Path 197715" d="M5.59676 8.71366C5.52242 8.64181 5.42248 8.60156 5.31839 8.60156C5.2143 8.60156 5.11435 8.64181 5.04001 8.71366L4.05299 9.687L3.06596 8.71366C2.98938 8.65703 2.89465 8.62953 2.79917 8.63622C2.70368 8.64291 2.61385 8.68334 2.54616 8.75009C2.47847 8.81684 2.43747 8.90544 2.43069 8.9996C2.4239 9.09376 2.45179 9.18716 2.50922 9.26268L3.49625 10.236L2.50922 11.2094C2.45179 11.2849 2.4239 11.3783 2.43069 11.4724C2.43747 11.5666 2.47847 11.6552 2.54616 11.7219C2.61385 11.7887 2.70368 11.8291 2.79917 11.8358C2.89465 11.8425 2.98938 11.815 3.06596 11.7584L4.05299 10.785L5.04001 11.7584C5.1166 11.815 5.21132 11.8425 5.30681 11.8358C5.40229 11.8291 5.49213 11.7887 5.55982 11.7219C5.6275 11.6552 5.66851 11.5666 5.67529 11.4724C5.68208 11.3783 5.65419 11.2849 5.59676 11.2094L4.60973 10.236L5.59676 9.26268C5.66962 9.18938 5.71044 9.09083 5.71044 8.98818C5.71044 8.88553 5.66962 8.78697 5.59676 8.71366Z" fill="var(--fill-0, #289B91)" stroke="var(--stroke-0, #289B91)" stroke-width="0.5"/>
<path id="Path 197716" d="M5.59036 14.0319C5.51602 13.96 5.41608 13.9198 5.31199 13.9198C5.20789 13.9198 5.10795 13.96 5.03361 14.0319L4.04659 15.0052L3.05956 14.0319C3.02538 13.9869 2.9818 13.9497 2.93177 13.9228C2.88175 13.8959 2.82645 13.88 2.76961 13.876C2.71278 13.872 2.65575 13.8801 2.60237 13.8998C2.54899 13.9194 2.50051 13.9501 2.46022 13.9898C2.41994 14.0296 2.38878 14.0774 2.36886 14.13C2.34893 14.1827 2.34071 14.2389 2.34475 14.295C2.34879 14.351 2.36499 14.4055 2.39227 14.4549C2.41954 14.5042 2.45724 14.5472 2.50282 14.5809L3.48985 15.5542L2.50282 16.5275C2.45724 16.5613 2.41954 16.6042 2.39227 16.6536C2.36499 16.7029 2.34879 16.7574 2.34475 16.8135C2.34071 16.8695 2.34893 16.9258 2.36886 16.9784C2.38878 17.031 2.41994 17.0788 2.46022 17.1186C2.50051 17.1583 2.54899 17.189 2.60237 17.2087C2.65575 17.2283 2.71278 17.2364 2.76961 17.2324C2.82645 17.2285 2.88175 17.2125 2.93177 17.1856C2.9818 17.1587 3.02538 17.1215 3.05956 17.0766L4.04659 16.1032L5.03361 17.0766C5.11019 17.1332 5.20492 17.1607 5.30041 17.154C5.39589 17.1473 5.48573 17.1069 5.55341 17.0401C5.6211 16.9734 5.66211 16.8848 5.66889 16.7906C5.67568 16.6965 5.64779 16.6031 5.59036 16.5275L4.60333 15.5542L5.59036 14.5809C5.66322 14.5076 5.70403 14.409 5.70403 14.3064C5.70403 14.2037 5.66322 14.1052 5.59036 14.0319Z" fill="var(--fill-0, #289B91)" stroke="var(--stroke-0, #289B91)" stroke-width="0.5"/>
</g>
</svg>
