<svg preserveAspectRatio="none" width="100%" height="100%" overflow="visible" style="display: block;" viewBox="0 0 14 13" fill="none" xmlns="http://www.w3.org/2000/svg">
<path id="Path 197755" d="M13.7663 6.85081C13.3294 5.67737 12.5136 4.66579 11.436 3.96101C10.3584 3.25623 9.07427 2.89442 7.76755 2.92743V0.23389C7.76596 0.172334 7.73958 0.113716 7.69386 0.0701767C7.64815 0.0266371 7.5866 0.00150992 7.52197 0C7.46909 0.00139329 7.41784 0.0176703 7.37465 0.046778L0.100778 5.0605C0.074304 5.07832 0.0519096 5.10111 0.0349955 5.12746C0.0180814 5.1538 0.00700097 5.18316 0.00240411 5.21372C-0.00219275 5.24429 -0.000179584 5.27543 0.00829018 5.30524C0.0167599 5.33505 0.0315171 5.3629 0.0516727 5.38709L0.100778 5.43387L7.37465 10.4161C7.42745 10.4514 7.49238 10.4663 7.55625 10.4576C7.62012 10.4489 7.67814 10.4173 7.71844 10.3693C7.749 10.3282 7.76609 10.2794 7.76755 10.229V7.55077C8.53219 7.4976 9.29652 7.65774 9.96714 8.01164C10.6378 8.36553 11.1857 8.89783 11.5438 9.5435C11.7455 10.0836 11.7608 10.6711 11.5873 11.22C11.4138 11.769 11.0607 12.2508 10.5794 12.5951C10.5552 12.6152 10.5355 12.6397 10.5216 12.6672C10.5076 12.6947 10.4996 12.7246 10.4981 12.7551C10.4966 12.7857 10.5016 12.8161 10.5129 12.8448C10.5241 12.8734 10.5412 12.8996 10.5633 12.9217C10.61 12.9688 10.674 12.9969 10.7419 12.9999H10.9384C10.9866 13.0011 11.0333 12.9843 11.0688 12.9532C13.4726 11.4435 14.5021 9.09273 13.7663 6.85081Z" fill="var(--fill-0, white)"/>
</svg>
