<svg preserveAspectRatio="none" width="100%" height="100%" overflow="visible" style="display: block;" viewBox="0 0 119 115.412" fill="none" xmlns="http://www.w3.org/2000/svg">
<g id="Union">
<mask id="path-1-outside-1_187_19250" maskUnits="userSpaceOnUse" x="0" y="0" width="119" height="116" fill="black">
<rect fill="white" width="119" height="116"/>
<path d="M108 1C113.523 1 118 5.47715 118 11V93.0898C118 98.6125 113.523 103.09 108 103.09H71.1592L60.249 114L49.2676 103.09H11C5.47726 103.09 1.00017 98.6125 1 93.0898V11C1 5.47715 5.47715 1 11 1H108Z"/>
</mask>
<path d="M108 1C113.523 1 118 5.47715 118 11V93.0898C118 98.6125 113.523 103.09 108 103.09H71.1592L60.249 114L49.2676 103.09H11C5.47726 103.09 1.00017 98.6125 1 93.0898V11C1 5.47715 5.47715 1 11 1H108Z" fill="var(--fill-0, white)"/>
<path d="M108 1V0V0V1ZM118 93.0898L119 93.0899V93.0898H118ZM71.1592 103.09V102.09H70.745L70.4521 102.383L71.1592 103.09ZM60.249 114L59.5442 114.709L60.2513 115.412L60.9561 114.707L60.249 114ZM49.2676 103.09L49.9724 102.38L49.6799 102.09H49.2676V103.09ZM11 103.09V104.09V104.09V103.09ZM1 93.0898H0V93.0899L1 93.0898ZM1 11H0H1ZM108 1V2C112.971 2 117 6.02944 117 11H118H119C119 4.92487 114.075 1.78814e-07 108 0V1ZM118 11H117V93.0898H118H119V11H118ZM118 93.0898L117 93.0898C117 98.0603 112.97 102.09 108 102.09V103.09V104.09C114.075 104.09 119 99.1648 119 93.0899L118 93.0898ZM108 103.09V102.09H71.1592V103.09V104.09H108V103.09ZM71.1592 103.09L70.4521 102.383L59.5419 113.293L60.249 114L60.9561 114.707L71.8663 103.797L71.1592 103.09ZM60.249 114L60.9538 113.291L49.9724 102.38L49.2676 103.09L48.5628 103.799L59.5442 114.709L60.249 114ZM49.2676 103.09V102.09H11V103.09V104.09H49.2676V103.09ZM11 103.09V102.09C6.02957 102.09 2.00015 98.0603 2 93.0898L1 93.0898L0 93.0899C0.000187814 99.1648 4.92494 104.09 11 104.09V103.09ZM1 93.0898H2V11H1H0V93.0898H1ZM1 11H2C2 6.02944 6.02944 2 11 2V1V0C4.92487 0 5.96046e-08 4.92487 0 11H1ZM11 1V2H108V1V0H11V1Z" fill="var(--stroke-0, #DEDEDE)" mask="url(#path-1-outside-1_187_19250)"/>
</g>
</svg>
