<svg preserveAspectRatio="none" width="100%" height="100%" overflow="visible" style="display: block;" viewBox="0 0 18 18.0034" fill="none" xmlns="http://www.w3.org/2000/svg">
<g id="Layer 2">
<path id="Path 197690" d="M12.3984 14.3047C12.741 14.3048 13.0744 14.4157 13.3486 14.6211C13.6229 14.8267 13.8235 15.1161 13.9199 15.4453L14.0254 15.8047H16.6992L16.7373 15.8125C16.7492 15.8175 16.7602 15.8247 16.7695 15.834C16.7883 15.8527 16.7988 15.8786 16.7988 15.9053C16.7988 15.9319 16.7883 15.9578 16.7695 15.9766C16.7509 15.9952 16.7254 16.0057 16.6992 16.0059H14.0264L13.9209 16.3643C13.8242 16.6931 13.6239 16.9822 13.3496 17.1875C13.0754 17.3927 12.7418 17.5029 12.3994 17.5029C12.0573 17.5029 11.7243 17.3925 11.4502 17.1875C11.1759 16.9822 10.9746 16.6931 10.8779 16.3643L10.7725 16.0059H0.599609C0.586619 16.0058 0.573541 16.003 0.561523 15.998C0.549531 15.9931 0.538517 15.9858 0.529297 15.9766C0.520012 15.9673 0.512853 15.9555 0.507812 15.9434C0.502842 15.9313 0.5 15.9184 0.5 15.9053C0.500005 15.8922 0.502829 15.8793 0.507812 15.8672C0.512851 15.855 0.52001 15.8433 0.529297 15.834C0.538519 15.8248 0.549542 15.8175 0.561523 15.8125C0.573541 15.8075 0.586619 15.8047 0.599609 15.8047H10.7705L10.876 15.4453C10.9724 15.1161 11.1729 14.8267 11.4473 14.6211C11.7216 14.4155 12.0557 14.3047 12.3984 14.3047ZM12.9365 14.6113C12.6807 14.5053 12.3985 14.4782 12.127 14.5322C11.8555 14.5863 11.6058 14.7193 11.4102 14.915C11.2145 15.1108 11.0814 15.3604 11.0273 15.6318C10.9734 15.9034 11.0015 16.1856 11.1074 16.4414C11.2134 16.6971 11.393 16.9155 11.623 17.0693C11.8532 17.2231 12.1236 17.3057 12.4004 17.3057C12.7713 17.3054 13.1273 17.1577 13.3896 16.8955C13.652 16.633 13.7995 16.2764 13.7998 15.9053C13.7998 15.6285 13.7181 15.3581 13.5645 15.1279C13.4107 14.8977 13.1923 14.7174 12.9365 14.6113Z" fill="var(--fill-0, #2496C1)" stroke="var(--stroke-0, #2496C1)"/>
<path id="Path 197691" d="M16.1152 0.5L16.252 0.506836C16.5687 0.538684 16.8666 0.679 17.0938 0.90625C17.321 1.13358 17.4613 1.43181 17.4932 1.74902L17.5 1.88574V11.3223C17.4992 11.6893 17.3531 12.0413 17.0938 12.3008C16.8342 12.5604 16.4821 12.7064 16.1152 12.707H1.88477C1.51788 12.7064 1.16578 12.5604 0.90625 12.3008C0.67906 12.0735 0.538674 11.7752 0.506836 11.458L0.5 11.3213V1.88574C0.500589 1.5184 0.646706 1.16593 0.90625 0.90625C1.13341 0.679 1.43126 0.538684 1.74805 0.506836L1.88477 0.5H16.1152ZM1.88379 0.702148C1.57031 0.702148 1.26944 0.827129 1.04785 1.04883C0.8263 1.27051 0.702148 1.57138 0.702148 1.88477V11.3223C0.702148 11.6357 0.826272 11.9365 1.04785 12.1582C1.26944 12.3799 1.57031 12.5039 1.88379 12.5039H16.1162C16.4297 12.5039 16.7306 12.3799 16.9521 12.1582C17.1737 11.9365 17.2979 11.6357 17.2979 11.3223V1.88477C17.2979 1.57138 17.1737 1.27052 16.9521 1.04883C16.7306 0.827128 16.4297 0.702148 16.1162 0.702148H1.88379Z" fill="var(--fill-0, #2496C1)" stroke="var(--stroke-0, #2496C1)"/>
<path id="Path 197692" d="M7.2041 3.50781C7.22183 3.50829 7.23882 3.51402 7.25391 3.52344H7.25488L12.0537 6.52441L12.0605 6.52832C12.0725 6.53684 12.0836 6.54666 12.0908 6.55957C12.0991 6.57449 12.1035 6.59226 12.1035 6.60938C12.1034 6.62632 12.0991 6.64342 12.0908 6.6582C12.0825 6.67297 12.07 6.68545 12.0557 6.69434L12.0537 6.69531L7.25488 9.69727H7.25391C7.23889 9.70657 7.22172 9.71144 7.2041 9.71191C7.18645 9.71238 7.16882 9.70871 7.15332 9.7002C7.13773 9.69155 7.12431 9.67851 7.11523 9.66309C7.10621 9.64774 7.1016 9.63014 7.10156 9.6123V3.6084C7.10155 3.59046 7.10616 3.57207 7.11523 3.55664C7.1243 3.54132 7.13782 3.52911 7.15332 3.52051C7.16888 3.5119 7.18636 3.50734 7.2041 3.50781ZM7.30176 9.43457L8.06641 8.95508L11.1338 7.03418L11.8105 6.61035L11.1338 6.18652L8.06641 4.26562L7.30176 3.78613V9.43457Z" fill="var(--fill-0, #2496C1)" stroke="var(--stroke-0, #2496C1)"/>
</g>
</svg>
