<svg preserveAspectRatio="none" width="100%" height="100%" overflow="visible" style="display: block;" viewBox="0 0 96 66" fill="none" xmlns="http://www.w3.org/2000/svg">
<g id="Group 35653">
<path id="Path 198240" d="M46.2471 0C29.0553 0.0366553 12.5212 6.70779 0 18.6597L5.7456 24.5271C11.464 19.118 18.1783 14.907 25.5038 12.1354C32.8292 9.36384 40.6218 8.08615 48.4348 8.37559C56.2478 8.66502 63.9277 10.5159 71.0344 13.8221C78.1411 17.1284 84.5349 21.825 89.8493 27.6428L96 22.2155C89.6674 15.2292 81.9777 9.64861 73.4151 5.82525C64.8524 2.00189 55.6023 0.0185123 46.2471 0Z" fill="var(--fill-0, #C1C1C1)"/>
<path id="Path 198241" d="M46.2584 15.7195C33.1542 15.7514 20.5398 20.7757 10.9141 29.7972L17.4997 36.5179C25.7841 28.9078 36.6703 24.8811 47.8385 25.2958C59.0067 25.7105 69.5737 30.5339 77.2876 38.7381L84.3349 32.5179C79.4537 27.2302 73.5575 23.012 67.0091 20.1231C60.4608 17.2341 53.399 15.7355 46.2584 15.7195Z" fill="var(--fill-0, #C1C1C1)"/>
<path id="Path 198242" d="M70.9198 44.352C64.7539 37.9113 56.3765 34.1324 47.5328 33.8025C38.689 33.4726 30.0607 36.6171 23.4453 42.5811L30.452 49.732C35.1298 45.7745 41.0846 43.7114 47.1712 43.9395C53.2577 44.1675 59.0463 46.6705 63.4238 50.9672L70.9198 44.352Z" fill="var(--fill-0, #C1C1C1)"/>
<path id="Path 198243" d="M46.3877 53.0711C43.0862 53.0833 39.9129 54.3693 37.5117 56.6682L41.8704 61.2441L46.3916 66L51.2665 61.5969L55.9462 57.3496C54.7303 56.0068 53.2538 54.9336 51.6096 54.1973C49.9654 53.461 48.1889 53.0776 46.3916 53.0711" fill="var(--fill-0, #C1C1C1)"/>
</g>
</svg>
