<svg preserveAspectRatio="none" width="100%" height="100%" overflow="visible" style="display: block;" viewBox="0 0 25 25" fill="none" xmlns="http://www.w3.org/2000/svg">
<g id="Group 35654">
<path id="Path 198244" d="M0 12.5C0 10.0277 0.73311 7.611 2.10663 5.55538C3.48015 3.49977 5.43239 1.89761 7.71646 0.951512C10.0005 0.00541631 12.5139 -0.242126 14.9386 0.24019C17.3634 0.722505 19.5907 1.91302 21.3389 3.66118C23.087 5.40933 24.2775 7.63662 24.7598 10.0614C25.2421 12.4861 24.9946 14.9995 24.0485 17.2836C23.1024 19.5676 21.5002 21.5199 19.4446 22.8934C17.389 24.2669 14.9723 25 12.5 25C9.18479 25 6.00536 23.6831 3.66115 21.3389C1.31694 18.9947 0 15.8152 0 12.5Z" fill="var(--fill-0, #FF4E4E)"/>
<path id="Path 198245" d="M8.24517 5.22169L5.22265 8.24417L9.47544 12.4969L5.22169 16.7556L8.24414 19.7781L12.4969 15.5253L16.7497 19.7781L19.7722 16.7556L15.5234 12.4999L19.7761 8.24712L16.7497 5.22169L12.4969 9.47444L8.24517 5.22169Z" fill="var(--fill-0, white)"/>
</g>
</svg>
