<svg preserveAspectRatio="none" width="100%" height="100%" overflow="visible" style="display: block;" viewBox="0 0 50 40" fill="none" xmlns="http://www.w3.org/2000/svg">
<g id="Image Placeholder">
<path id="Rectangle 4 (Stroke)" fill-rule="evenodd" clip-rule="evenodd" d="M0 4.90566C0 2.19634 2.27355 0 5.07813 0H44.9219C47.7264 0 50 2.19634 50 4.90566V35.0943C50 37.8037 47.7264 40 44.9219 40H5.07813C2.27356 40 0 37.8037 0 35.0943V4.90566ZM5.07813 2.26415C3.56797 2.26415 2.34375 3.4468 2.34375 4.90566V35.0943C2.34375 36.5532 3.56797 37.7358 5.07813 37.7358H44.9219C46.432 37.7358 47.6563 36.5532 47.6563 35.0943V4.90566C47.6563 3.4468 46.432 2.26415 44.9219 2.26415H5.07813Z" fill="var(--fill-0, #B2B9C4)"/>
<ellipse id="Ellipse 1" cx="11.7188" cy="10.5658" rx="5.07813" ry="4.90566" fill="var(--fill-0, #B2B9C4)"/>
<path id="Vector 2" d="M6.64062 31.5426V29.0109C6.64062 28.5589 6.82422 28.1263 7.14931 27.8122L13.7396 21.4458C14.3635 20.843 15.3455 20.8197 15.9973 21.3922L18.0032 23.1538C18.6483 23.7203 19.6182 23.7041 20.244 23.1164L32.0459 12.032C32.6939 11.4234 33.7055 11.4305 34.3449 12.0481L43.6319 21.0197C43.957 21.3338 44.1406 21.7664 44.1406 22.2184V31.5426C44.1406 32.4631 43.3944 33.2093 42.474 33.2093H8.30729C7.38682 33.2093 6.64062 32.4631 6.64062 31.5426Z" fill="var(--fill-0, #B2B9C4)"/>
</g>
</svg>
