<svg preserveAspectRatio="none" width="100%" height="100%" overflow="visible" style="display: block;" viewBox="0 0 19.3467 32.086" fill="none" xmlns="http://www.w3.org/2000/svg">
<g id="Group 17561">
<path id="Path 174516" d="M18.5162 30.6683C18.5159 30.8226 18.4546 30.9705 18.3457 31.0797C18.2369 31.189 18.0892 31.2508 17.9349 31.2515V32.085C18.1207 32.0849 18.3046 32.0481 18.4762 31.9768C18.6477 31.9055 18.8035 31.8011 18.9346 31.6695C19.0658 31.5379 19.1697 31.3817 19.2404 31.2099C19.3111 31.0381 19.3472 30.8541 19.3467 30.6683H18.5162ZM17.9349 31.2515H1.41285V32.085H17.9349V31.2515ZM1.41285 31.2515C1.33649 31.2519 1.26182 31.237 1.19129 31.2077C1.12076 31.1784 1.05678 31.1354 1.00309 31.0811C0.895346 30.9709 0.834276 30.8234 0.832604 30.6693H0.000119029C-0.000274283 30.8552 0.0360027 31.0394 0.106873 31.2112C0.177743 31.3831 0.281816 31.5393 0.413132 31.6709C0.544448 31.8025 0.700429 31.9069 0.872146 31.9781C1.04386 32.0494 1.22794 32.086 1.41385 32.086L1.41285 31.2515ZM0.832604 30.6693V1.41971H0.000119029V30.6693H0.832604ZM0.832604 1.41971C0.833132 1.26481 0.894334 1.11528 1.00309 1.00496C1.05688 0.950798 1.12088 0.90784 1.19139 0.878576C1.2619 0.849312 1.33751 0.834323 1.41385 0.834478V0C1.22781 0.000130365 1.04363 0.0369526 0.87184 0.108357C0.700052 0.179762 0.544035 0.284347 0.412719 0.416126C0.281403 0.547904 0.177366 0.704289 0.106567 0.876326C0.0357675 1.04836 -0.000405432 1.23368 0.000119029 1.41971H0.832604ZM1.41385 0.834478H17.9349V0H1.41385V0.834478ZM17.9349 0.834478C18.0887 0.834979 18.236 0.896266 18.3447 1.00496C18.3994 1.05903 18.4427 1.12348 18.4722 1.19453C18.5016 1.26558 18.5166 1.3418 18.5162 1.41871H19.3467C19.3473 1.23281 19.3113 1.0486 19.2407 0.876633C19.17 0.704666 19.0662 0.548317 18.935 0.416538C18.8039 0.284759 18.6481 0.180137 18.4765 0.108661C18.3048 0.037186 18.1208 0.000261052 17.9349 0V0.834478ZM18.5162 1.41871V30.6683H19.3467V1.41871H18.5162Z" fill="var(--fill-0, white)"/>
</g>
</svg>
