<svg preserveAspectRatio="none" width="100%" height="100%" overflow="visible" style="display: block;" viewBox="0 0 19.4794 32.3064" fill="none" xmlns="http://www.w3.org/2000/svg">
<g id="Footer Icon Shape Background Shape">
<path id="Path 174516" d="M18.6432 30.8789C18.6429 31.0343 18.5813 31.1832 18.4716 31.2932C18.362 31.4032 18.2133 31.4654 18.058 31.4662V32.3054C18.245 32.3053 18.4302 32.2682 18.6029 32.1964C18.7757 32.1246 18.9325 32.0195 19.0646 31.887C19.1966 31.7545 19.3012 31.5973 19.3724 31.4243C19.4436 31.2513 19.4799 31.066 19.4794 30.8789H18.6432ZM18.058 31.4662H1.42244V32.3054H18.058V31.4662ZM1.42344 31.4662C1.34656 31.4665 1.27038 31.4515 1.19936 31.422C1.12835 31.3925 1.06392 31.3492 1.00986 31.2945C0.901381 31.1836 0.839892 31.0351 0.838208 30.8799H5.66087e-06C-0.000390352 31.0671 0.0361358 31.2525 0.107493 31.4256C0.17885 31.5986 0.283637 31.7559 0.415855 31.8884C0.548073 32.0209 0.705126 32.126 0.878022 32.1978C1.05092 32.2695 1.23626 32.3064 1.42344 32.3064V31.4662ZM0.838208 30.8799V1.42946H5.66087e-06V30.8799H0.838208ZM0.838208 1.42846C0.83874 1.27249 0.900362 1.12294 1.00986 1.01187C1.06403 0.957328 1.12847 0.914075 1.19946 0.88461C1.27045 0.855145 1.34658 0.840053 1.42344 0.840209V0C1.23613 0.00013126 1.05068 0.0372064 0.877713 0.109101C0.704746 0.180996 0.547657 0.286299 0.415439 0.418983C0.283222 0.551667 0.17847 0.709126 0.107185 0.882345C0.035899 1.05556 -0.000522402 1.24114 5.66087e-06 1.42846H0.838208ZM1.42344 0.840209H18.058V0H1.42244V0.840209H1.42344ZM18.058 0.840209C18.2128 0.840714 18.3611 0.902422 18.4706 1.01187C18.5256 1.0663 18.5693 1.13119 18.5989 1.20273C18.6286 1.27427 18.6436 1.35102 18.6432 1.42846H19.4794C19.4801 1.24127 19.4438 1.0558 19.3727 0.882653C19.3016 0.709505 19.197 0.552083 19.065 0.419399C18.9329 0.286715 18.776 0.181374 18.6032 0.109408C18.4304 0.0374414 18.2452 0.000262845 18.058 0V0.840209ZM18.6432 1.42846V30.8789H19.4794V1.42946L18.6432 1.42846Z" fill="var(--fill-0, #161615)"/>
</g>
</svg>
