<svg preserveAspectRatio="none" width="100%" height="100%" overflow="visible" style="display: block;" viewBox="0 0 19.3485 32.086" fill="none" xmlns="http://www.w3.org/2000/svg">
<g id="Group 17559">
<path id="Path 174510" fill-rule="evenodd" clip-rule="evenodd" d="M3.45801 6.43793C3.45801 6.43793 5.68028 7.03612 5.68028 11.03V15.8884C5.66428 16.4071 5.75846 16.9232 5.95661 17.4029C6.15476 17.8825 6.45239 18.3146 6.82982 18.6708C7.20726 19.0269 7.65593 19.299 8.14623 19.469C8.63654 19.639 9.15733 19.703 9.67422 19.657C9.67422 19.657 13.6293 19.8913 13.6293 15.8884V14.7987C13.6293 14.7987 9.47483 5.34922 3.45801 6.43793Z" fill="var(--fill-0, #E02D15)"/>
<path id="Path 174511" fill-rule="evenodd" clip-rule="evenodd" d="M13.6093 13.9647C12.5974 11.8918 11.237 10.008 9.58747 8.39549C9.58747 8.39549 11.3113 4.98879 15.8984 5.86115C15.8984 5.85617 13.1108 5.89405 13.6093 13.9647Z" fill="var(--fill-0, #FFCC28)"/>
<path id="Path 174512" fill-rule="evenodd" clip-rule="evenodd" d="M9.27249 8.11782C8.68427 7.56133 8.0089 7.10491 7.27319 6.76667C7.27319 6.76667 7.49157 4.76439 6.07661 4.00157C7.01642 3.81416 7.9923 3.99724 8.80028 4.51254C9.60826 5.02784 10.1858 5.83549 10.4122 6.76667C9.95364 7.14433 9.56746 7.60214 9.27249 8.11782Z" fill="var(--fill-0, #8B4083)"/>
<path id="Path 174513" fill-rule="evenodd" clip-rule="evenodd" d="M9.51182 4.53851C10.0462 5.09113 10.4479 5.75811 10.6865 6.48893C11.0273 6.23294 11.3992 6.02118 11.7933 5.85873C11.7933 5.85873 11.6288 3.67198 12.931 3.15645C12.2882 3.00198 11.6131 3.05213 11.0001 3.2999C10.3871 3.54768 9.8668 3.9807 9.51182 4.53851Z" fill="var(--fill-0, #BDB400)"/>
<path id="Path 174514" d="M0.792857 26.0094C1.4018 25.1641 2.30399 24.5761 3.3232 24.3604C3.5043 24.3322 3.68727 24.3179 3.87055 24.3175C4.76117 24.3524 5.6278 24.6161 6.38694 25.0832C7.40786 25.6565 8.27224 26.2407 9.03394 26.7571C10.7119 27.8917 12.0409 28.789 13.9012 28.8508C13.9401 28.8508 13.978 28.8508 14.0179 28.8508C14.5645 28.8536 15.1027 28.7163 15.5812 28.452C16.0394 28.1912 16.4216 27.8152 16.6898 27.3613C16.9216 26.9931 17.0481 26.5683 17.0553 26.1332C17.0625 25.6982 16.9502 25.2695 16.7307 24.8938C16.4199 24.4082 15.9577 24.0385 15.4157 23.8419C14.8259 23.6295 14.2019 23.5281 13.5752 23.5428C13.4376 23.5428 13.2971 23.5428 13.1545 23.5528C12.997 23.5618 12.8424 23.5668 12.6949 23.5668C12.2743 23.6167 11.8479 23.5761 11.4443 23.4476C11.0407 23.3192 10.6693 23.1059 10.355 22.822C10.1189 22.5019 10.0166 22.1025 10.0698 21.7084C11.4467 21.6326 15.5742 20.9876 15.5742 15.9259V10.7475C15.5742 10.7475 15.4296 7.96991 16.624 7.48338C16.624 7.48338 14.2432 7.45646 14.2432 11.3058V15.9837C14.1908 17.17 13.6827 18.2903 12.8247 19.1113C11.9668 19.9322 10.8251 20.3904 9.63762 20.3904C8.45015 20.3904 7.3085 19.9322 6.45052 19.1113C5.59254 18.2903 5.08442 17.17 5.03204 15.9837V11.3058C5.03204 7.45746 2.65522 7.48338 2.65522 7.48338C3.84463 7.96991 3.70605 10.7475 3.70605 10.7475V15.9269C3.70605 20.8729 7.65013 21.6027 9.10972 21.7034C9.0526 22.3163 9.23082 22.928 9.60821 23.4142C10.005 23.8202 10.4889 24.1308 11.0232 24.3225C11.5576 24.5142 12.1285 24.582 12.6929 24.5209C12.8564 24.5209 13.0299 24.5209 13.2033 24.5069C13.33 24.5009 13.4526 24.499 13.5742 24.499C14.0083 24.441 14.45 24.4928 14.8589 24.6496C15.2679 24.8063 15.631 25.063 15.9152 25.3962C16.0427 25.6254 16.1054 25.8851 16.0962 26.1472C16.0871 26.4093 16.0065 26.664 15.8633 26.8837C15.6722 27.2005 15.4008 27.4611 15.0765 27.6392C14.7523 27.8172 14.3867 27.9064 14.0169 27.8977H13.9341C12.3439 27.8438 11.1805 27.0582 9.56733 25.9645C8.79068 25.4381 7.90536 24.8429 6.85154 24.2497C5.95246 23.6998 4.92592 23.393 3.87255 23.3594C3.63875 23.3599 3.40535 23.3792 3.17465 23.4172C2.28055 23.5778 1.45297 23.9965 0.793854 24.6216L0.792857 26.0094Z" fill="var(--fill-0, #161615)"/>
<g id="Group 17558">
<path id="Path 174515" d="M18.5141 30.6683C18.5141 30.823 18.4526 30.9713 18.3432 31.0807C18.2338 31.1901 18.0855 31.2515 17.9308 31.2515V32.085C18.3066 32.0848 18.6669 31.9355 18.9327 31.6699C19.1984 31.4042 19.348 31.0441 19.3485 30.6683H18.5141ZM17.9308 31.2515H1.41174V32.085H17.9278V31.2515H17.9308ZM1.41174 31.2515C1.33536 31.252 1.25967 31.2371 1.18913 31.2078C1.11858 31.1786 1.05461 31.1355 1.00098 31.0811C0.946786 31.0271 0.903817 30.9629 0.874555 30.8922C0.845294 30.8216 0.830322 30.7458 0.830499 30.6693H8.79485e-06C-0.000515667 30.8551 0.0356092 31.0391 0.106308 31.2109C0.177007 31.3827 0.280894 31.5389 0.412025 31.6705C0.543156 31.8021 0.698956 31.9065 0.870501 31.9778C1.04205 32.0491 1.22597 32.0849 1.41174 32.085V31.2515ZM0.830499 30.6693V1.41971H8.79485e-06V30.6693H0.830499ZM0.830499 1.41871C0.830237 1.34217 0.845072 1.26632 0.874152 1.19552C0.903233 1.12471 0.945991 1.06033 0.999977 1.00607C1.05396 0.951806 1.11812 0.908719 1.18878 0.879276C1.25943 0.849832 1.3352 0.834608 1.41174 0.834478V0C1.22584 0.000261052 1.04181 0.037186 0.870189 0.108661C0.698573 0.180137 0.542737 0.284759 0.411607 0.416538C0.280476 0.548317 0.176625 0.704665 0.105996 0.876632C0.0353683 1.0486 -0.00064691 1.23281 8.79485e-06 1.41871H0.830499ZM1.41174 0.834478H17.9278V0H1.41174V0.834478ZM17.9308 0.834478C18.0075 0.834346 18.0835 0.849375 18.1544 0.878701C18.2253 0.908028 18.2897 0.951073 18.3439 1.00536C18.3981 1.05965 18.441 1.12412 18.4702 1.19506C18.4994 1.26599 18.5143 1.342 18.5141 1.41871H19.3485C19.3485 1.04262 19.1992 0.681915 18.9334 0.415884C18.6675 0.149853 18.3069 0.000264296 17.9308 0V0.834478ZM18.5141 1.41871V30.6683H19.3485V1.41971L18.5141 1.41871Z" fill="var(--fill-0, white)"/>
</g>
</g>
</svg>
