<svg preserveAspectRatio="none" width="100%" height="100%" overflow="visible" style="display: block;" viewBox="0 0 10.1885 27.2324" fill="none" xmlns="http://www.w3.org/2000/svg">
<g id="Group 17562">
<path id="Path 174517" fill-rule="evenodd" clip-rule="evenodd" d="M0.60665 16.0572C0.613245 15.9873 0.64534 15.9222 0.69682 15.8744C0.7483 15.8266 0.815567 15.7994 0.885805 15.798C0.885805 15.798 3.33939 15.5487 3.33939 18.5985V22.5865C3.30075 22.868 3.3273 23.1547 3.41702 23.4244C3.50673 23.6941 3.6572 23.9396 3.85681 24.1419C4.05643 24.3442 4.29986 24.4979 4.56831 24.5913C4.83677 24.6846 5.12308 24.715 5.40515 24.6801C5.68408 24.6906 5.9621 24.6425 6.22123 24.5387C6.48037 24.435 6.71483 24.278 6.90946 24.0779C7.10409 23.8778 7.25454 23.6391 7.35109 23.3772C7.44763 23.1153 7.48811 22.8361 7.46991 22.5576C7.46991 21.748 7.45994 21.748 7.45994 21.748C7.45994 21.748 7.46991 21.5576 7.19175 21.5576H6.5437C6.5437 21.5576 6.14491 21.6294 6.14491 21.0491V18.5566C6.14491 18.5566 6.115 15.794 8.37417 15.794C9.7879 15.794 9.80884 15.804 9.80884 15.804C9.85571 15.7985 9.90322 15.8034 9.94801 15.8182C9.99281 15.8331 10.0338 15.8576 10.0681 15.89C10.1024 15.9224 10.1292 15.9619 10.1466 16.0058C10.164 16.0497 10.1715 16.0968 10.1687 16.1439C10.1777 24.5186 10.1857 23.1538 10.1777 23.402C10.1777 23.402 10.2774 27.2234 5.39219 27.2324C4.2955 27.2324 0.600668 27.1537 0.600668 22.9364C0.595683 14.9476 0.60665 16.0572 0.60665 16.0572Z" fill="var(--fill-0, #161615)"/>
<path id="Path 174518" fill-rule="evenodd" clip-rule="evenodd" d="M0.598594 9.25239C0.598594 9.25239 0.00737869 11.4727 2.78299 13.2593C3.12153 13.4342 3.42148 13.6753 3.665 13.9683C3.90852 14.2614 4.09066 14.6004 4.20059 14.9653C4.31051 15.3301 4.34599 15.7133 4.3049 16.0921C4.26382 16.471 4.14701 16.8377 3.96143 17.1705C3.79105 16.4409 3.34732 15.8045 2.72169 15.3923C2.09605 14.9802 1.33616 14.8237 0.598594 14.9552C0.203836 14.0564 0 13.0854 0 12.1038C0 11.1221 0.203836 10.1512 0.598594 9.25239Z" fill="var(--fill-0, #E02D15)"/>
<path id="Path 174519" fill-rule="evenodd" clip-rule="evenodd" d="M5.46694 17.0693C5.46694 17.0693 8.66827 14.0594 4.82688 10.9956C4.82688 10.9956 1.35437 8.22299 3.0323 4.53115C2.25206 5.2672 1.69072 6.20481 1.41041 7.24017C1.13011 8.27554 1.14176 9.36827 1.4441 10.3974C1.95429 11.5002 2.81435 12.4038 3.8907 12.9676C4.53818 13.411 5.03563 14.0407 5.31713 14.7732C5.59862 15.5056 5.65087 16.3064 5.46694 17.0693Z" fill="var(--fill-0, #FFCC28)"/>
<path id="Path 174520" fill-rule="evenodd" clip-rule="evenodd" d="M7.23503 9.94395C7.23503 9.94395 2.2162 8.40759 3.92005 4.12952C4.15992 3.59064 4.51445 3.11057 4.95891 2.72277C5.3544 2.39105 5.66874 1.97322 5.87783 1.50128C6.08693 1.02934 6.18525 0.515802 6.16527 0C6.38299 0.660776 6.45999 1.35981 6.3913 2.05213C6.32262 2.74445 6.10978 3.41473 5.76647 4.01985C5.76647 4.01985 4.01875 7.78747 7.23503 9.94395Z" fill="var(--fill-0, #BDB400)"/>
<path id="Path 174521" fill-rule="evenodd" clip-rule="evenodd" d="M4.57188 9.27954C4.89501 9.9166 5.34697 10.4796 5.89909 10.9328C6.54028 11.4306 7.01325 12.1132 7.25417 12.8883C7.49508 13.6635 7.49232 14.4939 7.24625 15.2675C7.24625 15.2675 7.54539 14.8417 10.1619 14.9783C10.1619 14.9783 10.6605 11.0635 7.33499 10.533C6.3037 10.4211 5.33537 9.9818 4.57188 9.27954Z" fill="var(--fill-0, #8B4083)"/>
</g>
</svg>
