<svg preserveAspectRatio="none" width="100%" height="100%" overflow="visible" style="display: block;" viewBox="0 0 89.9639 19.388" fill="none" xmlns="http://www.w3.org/2000/svg">
<g id="Footer Background">
<path id="Path 174532" d="M89.9465 6.50683H59.2936V6.46663C59.2936 4.46287 58.6417 3.06003 57.3703 2.29395C54.3364 0.478182 49.0249 3.23497 48.4316 3.55553L49.1977 4.9888C50.5908 4.24011 54.6244 2.54605 56.5314 3.69136C56.9519 4.00971 57.2791 4.43507 57.479 4.92305C57.679 5.41103 57.7442 5.94373 57.668 6.46554V6.50575H49.49V8.1357H53.9061V11.8987L54.1441 12.1334L55.448 13.4374L55.8751 13.5276L56.3282 13.6167L59.0546 12.5116C59.1381 13.4418 58.9169 14.3739 58.4244 15.1673C58.1229 15.5471 57.74 15.8543 57.3038 16.0661C56.8676 16.2779 56.3893 16.3889 55.9044 16.3909C55.5089 16.4256 52.0034 16.568 50.7179 11.0598L49.1347 11.4304C50.5614 17.5416 54.52 18.0241 55.7371 18.0241C55.8827 18.0241 55.987 18.0186 56.0457 18.0121C56.7635 17.9924 57.4679 17.8124 58.1072 17.4853C58.7464 17.1581 59.3044 16.6921 59.7403 16.1214C60.6297 14.6341 60.9096 12.8606 60.5216 11.1718L59.4251 10.6067L56.2163 11.9052L55.5361 11.2217V8.13461H63.5109C63.0535 9.15078 62.7302 10.2221 62.5492 11.3217C62.2395 12.8492 62.4045 14.435 63.0222 15.866C63.6399 17.2969 64.6807 18.5047 66.0047 19.327L66.9077 17.9719C65.8499 17.3252 65.0172 16.368 64.523 15.2309C64.0289 14.0937 63.8975 12.8319 64.1466 11.6173C64.35 10.4015 64.7458 9.22587 65.3191 8.13461H71.8606V10.3807C71.4597 10.0406 70.9949 9.78408 70.4935 9.62604C69.9921 9.46799 69.4642 9.41164 68.9408 9.46031C68.5784 9.4788 68.2233 9.56926 67.8962 9.72641C67.5691 9.88355 67.2766 10.1042 67.0357 10.3756C66.7947 10.647 66.6102 10.9636 66.4929 11.307C66.3756 11.6504 66.3279 12.0137 66.3524 12.3758C66.3416 12.6888 66.3932 13.001 66.5043 13.2939C66.6154 13.5868 66.7838 13.8546 66.9995 14.0817C67.2153 14.3089 67.4742 14.4907 67.7611 14.6166C68.0479 14.7426 68.357 14.8101 68.6702 14.8152V13.1907C68.0389 13.1907 67.9824 12.4703 67.978 12.3279C67.9645 12.1759 67.9817 12.0227 68.0285 11.8775C68.0753 11.7322 68.1508 11.5978 68.2506 11.4823C68.3503 11.3668 68.4722 11.2725 68.609 11.2049C68.7459 11.1374 68.8949 11.098 69.0473 11.0892C69.7301 11.0712 70.3953 11.3066 70.9148 11.7501C71.4342 12.1935 71.7712 12.8135 71.8606 13.4906V13.6482C71.3102 13.7261 70.7913 13.9519 70.3592 14.3015C69.9271 14.6511 69.598 15.1115 69.407 15.6335C69.2533 16.0924 69.2284 16.5846 69.3349 17.0566C69.4414 17.5287 69.6753 17.9625 70.0111 18.311C70.2147 18.5176 70.4577 18.6812 70.7258 18.7921C70.9939 18.903 71.2815 18.9589 71.5716 18.9564C71.8456 18.9563 72.1179 18.9119 72.3778 18.8249L71.8693 17.2787C71.7519 17.3315 71.6214 17.348 71.4946 17.3261C71.3678 17.3042 71.2504 17.245 71.1575 17.1559C71.0362 17.0198 70.9532 16.8539 70.9171 16.6751C70.881 16.4964 70.8931 16.3113 70.9522 16.1388C71.0731 15.8712 71.2668 15.643 71.5112 15.4803C71.7556 15.3175 72.0409 15.2268 72.3344 15.2184C74.8564 14.8283 75.8246 18.1317 75.8648 18.274H75.8811V18.437H77.5111V8.13461H78.6064C78.6749 8.15635 78.7477 8.17917 78.8237 8.2009C80.9372 8.82354 82.8443 9.61353 82.627 11.1663L79.2291 13.7145L79.7376 15.1771C79.7919 15.1771 85.2403 15.0804 86.6921 17.96L88.2318 17.5927V8.13896H89.9639L89.9465 6.50683ZM75.8768 15.0228C75.2532 14.3078 74.4142 13.8147 73.4862 13.6178V8.13461H75.8768V15.0228ZM81.9413 13.7069L83.8342 12.2866L83.8625 12.2475C84.891 12.2832 85.8661 12.7145 86.5845 13.4515V15.4194C85.1997 14.4781 83.6056 13.8908 81.9413 13.7069ZM86.5856 11.5847C85.8759 11.1699 85.0863 10.9106 84.2689 10.824C84.2447 10.2819 84.0892 9.75379 83.8157 9.2851C83.5421 8.81642 83.1588 8.42122 82.6987 8.13353H86.5856V11.5847Z" fill="var(--fill-0, #5F1414)"/>
<g id="Footer Icon Container">
<path id="Path 174533" d="M13.3374 7.78248C13.1653 7.77646 12.994 7.75537 12.8256 7.71946C12.6564 7.68289 12.4845 7.66108 12.3116 7.65426C12.1538 7.6841 12.003 7.74345 11.8672 7.82921C11.7028 7.93123 11.5166 7.99303 11.3238 8.00959C10.9509 7.98499 10.5842 7.90174 10.2372 7.76292C9.41844 8.83348 8.81172 10.0506 8.44968 11.3488L8.52574 11.4032C8.5779 11.4032 8.6757 11.4162 8.82348 11.4314C8.93363 11.4476 9.04468 11.4571 9.15599 11.4597C9.53306 11.4401 9.90653 11.3763 10.2687 11.2695C10.6243 11.1602 10.9916 11.0935 11.363 11.0706C11.9063 11.0706 12.3866 11.514 12.806 12.4007C13.1417 13.0226 13.3299 13.7134 13.3558 14.4196C13.2675 14.8581 13.1 15.2768 12.8614 15.6552C12.2069 16.363 11.3126 16.8022 10.3524 16.8874C9.15088 16.8886 7.95491 16.7248 6.79799 16.4006C6.1547 16.2148 5.03329 15.8138 3.43702 15.2053C2.57641 14.8652 2.02441 14.6435 1.76361 14.5294C1.20422 14.2936 0.664911 14.0127 0.151036 13.6894C0.052295 13.5471 -0.000415185 13.378 2.46284e-06 13.2048C2.46284e-06 12.8908 0.18364 12.7343 0.549836 12.7343C0.649773 12.7342 0.747984 12.7604 0.834544 12.8103C1.54376 13.1211 2.2526 13.4391 2.96109 13.7644C3.68135 14.0767 4.41767 14.3506 5.16696 14.5848C6.52387 15.0408 7.93629 15.311 9.36572 15.3878C9.87153 15.4084 10.3707 15.2668 10.7903 14.9836C10.9753 14.8567 11.1248 14.6848 11.2248 14.484C11.3248 14.2832 11.372 14.0602 11.3619 13.8361C11.3565 13.6079 11.29 13.3854 11.1695 13.1916C11.0489 12.9978 10.8785 12.8399 10.6762 12.7343C9.94957 13.1189 9.14139 13.3238 8.31929 13.3319C8.19433 13.3319 7.86398 13.2961 7.33153 13.2233C6.65781 13.1233 6.32423 12.819 6.32423 12.3072C6.32423 11.4118 7.00663 9.75799 8.37688 7.35761C8.3209 7.33082 8.26359 7.30688 8.20518 7.28589C7.68989 7.37458 7.16939 7.42975 6.64696 7.45106C5.89718 7.49018 5.36906 7.53147 5.05285 7.58145C4.61697 7.40525 4.15265 7.30988 3.6826 7.30002C3.4343 7.3933 3.2033 7.52735 2.99911 7.69664C2.83503 7.72055 2.74702 7.73141 2.73398 7.73141C2.50579 7.73141 2.37322 7.39347 2.33518 6.72193C2.58193 6.68705 2.81979 6.60556 3.03607 6.48178C3.31927 6.31604 3.6403 6.22586 3.96839 6.2199C4.43246 6.30705 4.90187 6.36295 5.37342 6.38724C5.61574 6.39811 5.96998 6.41767 6.43832 6.44592C6.34844 6.07884 6.30968 5.70111 6.32314 5.32343C6.32359 4.55244 6.40003 3.78337 6.55134 3.02737C6.64988 2.24284 6.95848 1.49948 7.44454 0.875828C7.67695 0.672466 7.92431 0.486854 8.18454 0.320558C8.56595 0.268399 9.16252 0.160822 9.97206 0L10.4284 0.44552C10.178 0.989751 9.82235 1.47907 9.38202 1.88531C9.19077 1.54954 9.05603 1.38003 8.96584 1.38003C8.61051 1.38003 8.3747 1.77882 8.26169 2.57533C8.22474 3.09474 8.18454 3.6185 8.1476 4.14334C8.12865 4.613 8.08441 5.0813 8.01503 5.54619C8.01503 5.76352 8.01503 5.91564 8.01503 5.9928C8.01503 6.06995 8.12368 6.13732 8.3008 6.19925C8.43976 6.25297 8.58661 6.28344 8.73547 6.28945C8.71047 6.28945 8.93105 6.27206 9.39939 6.2362C9.9484 6.52828 10.5381 6.73634 11.1489 6.85341C11.3421 6.84581 11.5336 6.81479 11.7194 6.76105C11.905 6.69687 12.0949 6.64567 12.2877 6.60783C12.3018 6.60783 12.517 6.60131 12.9342 6.58284C13.8985 6.39642 14.8362 6.09167 15.7258 5.6755C15.8339 5.75527 15.925 5.85588 15.9937 5.97139C16.0624 6.08691 16.1073 6.215 16.1257 6.34812C16.1257 6.67412 15.7399 7.00663 14.9673 7.35761C14.4551 7.59914 13.9023 7.74322 13.3374 7.78248Z" fill="var(--fill-0, #D9000D)"/>
<path id="Path 174534" d="M15.6582 7.52003C15.6721 7.41486 15.6779 7.30878 15.6756 7.20273C15.6551 7.1007 15.6022 7.00806 15.5246 6.93868C15.4246 6.83002 15.3529 6.7746 15.3159 6.7746C14.8789 6.91741 14.4682 7.13067 14.1 7.40593C13.8763 7.17818 13.73 6.88585 13.6816 6.57031C13.7518 6.25541 13.8804 5.95648 14.0609 5.68905C15.3988 5.40525 16.7607 5.24916 18.1282 5.22288C18.6584 5.22288 19.3423 5.2428 20.1797 5.28265C21.3055 5.33046 21.9901 5.36306 22.2313 5.37718C22.7705 5.36915 23.3098 5.38837 23.8471 5.43478L24.209 5.45325C24.5819 5.40649 24.9389 5.27409 25.2521 5.06641L25.4988 5.17507C25.6142 5.1864 25.7257 5.22353 25.8248 5.28373C26.003 5.37175 26.1421 5.63581 26.2442 6.08024L25.9183 6.26714L25.7465 6.23019L24.5111 6.65941C23.5229 6.61957 22.5348 6.58951 21.5467 6.56922C20.5653 6.55991 19.5865 6.46538 18.6215 6.2867C18.5544 6.26448 18.4845 6.25204 18.4139 6.24975C18.2691 6.24975 18.1104 6.36168 17.938 6.58553C17.8079 6.74941 17.6682 6.90543 17.5197 7.05278C17.4056 7.43744 17.2338 8.00467 17.0067 8.75119L17.0448 8.91745L17.1024 9.01198L17.1578 9.02937H17.2154C17.3622 9.03557 17.5075 8.99773 17.6327 8.9207L19.3235 8.51213C19.5788 8.20135 19.8309 7.88949 20.0841 7.57654C20.3254 7.27254 20.6073 7.00308 20.9219 6.77569L21.5098 6.84849L22.2128 7.52112C22.2946 7.73532 22.3337 7.96345 22.328 8.19266C22.3085 8.36068 22.2349 8.5178 22.1183 8.64035C22.0292 9.17787 21.839 10.2942 21.5478 11.9894L19.8201 11.8003L19.8374 11.2385C19.8499 11.1139 19.8561 10.9888 19.8559 10.8636C19.8912 10.7044 19.8912 10.5393 19.8559 10.3801C19.8309 10.216 19.769 10.1356 19.6668 10.1356C19.0255 10.4656 18.404 10.8328 17.8054 11.2352C17.6974 11.3902 17.5764 11.5356 17.4436 11.6699C17.3154 11.709 17.1176 11.7786 16.8546 11.8742C16.4126 11.8388 16.0019 11.6317 15.7108 11.2971C15.4197 10.9625 15.2713 10.5272 15.2975 10.0845C15.2975 9.89541 15.3225 9.52813 15.3724 8.9783C15.3953 8.49474 15.404 8.09703 15.3909 7.783L15.6582 7.52003Z" fill="var(--fill-0, #D9000D)"/>
<path id="Path 174535" d="M23.5843 14.5242L20.9829 15.926C20.6667 15.9727 20.4754 15.9999 20.4113 15.9999C20.0762 15.9842 19.7524 15.8745 19.4768 15.6833C19.2012 15.4921 18.985 15.2271 18.8531 14.9187C18.5241 14.3764 18.3469 13.7556 18.3402 13.1214C18.4265 12.4187 18.7808 11.7764 19.329 11.3284L19.4442 11.3491C19.7551 10.9436 20.1498 10.61 20.6015 10.3711H21.0753C21.4454 10.3974 21.79 10.5694 22.0337 10.8492C22.1801 10.9724 22.2939 11.1297 22.3652 11.3072C22.4365 11.4848 22.4629 11.6772 22.4422 11.8674C22.201 12.1159 21.8207 12.4647 21.3013 12.9138C21.0275 13.128 20.7729 13.3658 20.5406 13.6245L20.5819 13.8114C20.6028 13.9522 20.6767 14.0796 20.7884 14.1678L20.8655 14.1873C20.8704 14.193 20.8764 14.1976 20.8831 14.2007C20.8899 14.2039 20.8972 14.2057 20.9047 14.2058C21.5211 14.1125 22.0888 13.8166 22.5183 13.3648C23.0656 12.915 23.5567 12.401 23.9809 11.8337C24.3484 11.86 24.6993 11.9971 24.9871 12.2271L25.236 12.3748C25.2731 12.514 25.2859 12.6584 25.274 12.8019C25.2624 13.7103 25.2313 15.073 25.1806 16.8898C25.175 17.1661 25.1429 17.4412 25.0849 17.7113C24.9205 18.4053 24.2298 18.8646 23.0127 19.0892C22.7353 19.1145 22.3107 19.158 21.7392 19.2196C21.3317 19.3038 20.9189 19.3601 20.5037 19.388C19.177 19.3907 17.8687 19.077 16.6874 18.473C15.5251 17.8271 14.4305 17.0663 13.4199 16.202L13.8752 15.1577C14.7923 15.7941 15.7434 16.3799 16.7244 16.9126C17.551 17.4389 18.4747 17.7943 19.441 17.958C20.0844 17.9694 20.7253 17.875 21.3382 17.6787C21.9087 17.4288 22.4846 17.1854 23.0703 16.9507C23.1297 16.9087 23.1755 16.8501 23.2018 16.7822C23.3246 16.4172 23.4105 16.0408 23.4582 15.6587C23.527 15.284 23.5691 14.9049 23.5843 14.5242Z" fill="var(--fill-0, #D9000D)"/>
<path id="Path 174536" d="M26.9281 6.14292C26.9846 5.65019 27.1063 5.16714 27.2899 4.70639C27.529 4.10005 27.8104 3.79688 28.1256 3.79688C28.4407 3.79688 28.6688 4.02615 28.8481 4.48689L28.7721 6.03208C29.2001 5.8111 29.6759 5.69912 30.1576 5.70609C30.6139 5.70609 30.8432 5.87343 30.8432 6.21246C30.8323 6.41577 30.759 6.61078 30.6332 6.77084C30.5073 6.9309 30.3352 7.04822 30.1402 7.10677C29.7389 7.26393 29.3562 7.4651 28.9992 7.70659C28.1778 8.78234 27.7978 10.1309 27.9365 11.4772C27.9491 12.0269 27.9898 12.5757 28.0582 13.1213C28.128 13.6668 28.1697 14.2156 28.1831 14.7654C28.1792 15.1391 28.121 15.5103 28.0103 15.8672C27.8965 16.0224 27.7518 16.1523 27.5854 16.249C27.419 16.3457 27.2344 16.407 27.0433 16.429C26.8259 16.429 26.6086 16.2497 26.3967 15.8857L26.4173 13.6038C26.4173 13.268 26.4173 12.4845 26.4358 11.2545C26.4358 11.0545 26.4478 10.7372 26.4728 10.3004C26.4978 9.90485 26.5108 9.5919 26.5108 9.36914C26.5167 9.15305 26.5356 8.93751 26.5673 8.72368C26.6 8.5096 26.6189 8.29364 26.6238 8.07713C26.6137 7.90705 26.5618 7.74209 26.4728 7.59684C25.7484 7.18464 25.1214 6.85865 24.5918 6.61887V5.9495C24.8446 5.5373 25.0721 5.33156 25.2742 5.33229C25.8583 5.52959 26.4143 5.80209 26.9281 6.14292Z" fill="var(--fill-0, #D9000D)"/>
<path id="Path 174537" d="M43.4469 6.48259C43.346 6.67778 43.2105 6.85303 43.047 6.99983C42.8538 7.11158 42.641 7.18535 42.42 7.21715C42.0777 7.32552 41.7567 7.49243 41.4714 7.71049C41.065 7.99192 40.8564 8.19621 40.8433 8.319V11.2681C40.8656 12.3024 40.8293 13.3371 40.7347 14.3672C40.505 15.8602 39.9787 16.6064 39.1558 16.6057C38.6834 16.5357 38.2375 16.3431 37.8627 16.0472C37.6194 15.6333 37.409 15.2009 37.2335 14.7541C37.0814 14.3498 36.9315 13.9369 36.7782 13.5131C36.5261 12.8677 36.2784 12.5417 36.035 12.5417C35.7916 12.5417 35.2993 12.9242 34.5822 13.6848C33.865 14.4455 33.3651 14.8247 33.0739 14.8247C32.5306 14.8247 32.1361 14.4737 31.8938 13.7793C31.8199 13.5283 31.7417 13.2817 31.6689 13.0393C31.5829 12.7779 31.4611 12.5296 31.307 12.3015C31.0788 11.9658 30.843 11.6289 30.604 11.292C30.3751 10.9711 30.2319 10.5971 30.1878 10.2054C30.1878 9.74358 30.441 9.5143 30.9484 9.5143C31.0942 9.52525 31.2393 9.54375 31.3831 9.56972C32.0991 10.1504 32.666 10.8936 33.0369 11.7376C33.1249 11.9734 33.2456 12.0929 33.3966 12.0929C33.4738 12.0929 33.5944 12.006 33.7574 11.8321C34.1768 11.3453 34.4365 11.0276 34.5365 10.8791C34.7901 10.5518 34.9362 10.154 34.9549 9.74032C34.9499 8.91689 34.6267 8.12727 34.053 7.53662C33.7958 7.22882 33.4746 6.98065 33.1119 6.80934C32.7492 6.63803 32.3536 6.54767 31.9525 6.54453C31.2212 6.62477 30.519 6.87523 29.902 7.27583L29.7499 7.59205C29.4325 7.29322 29.203 6.91333 29.0859 6.49346L29.1805 6.17399C29.6287 5.81147 30.1359 5.5288 30.68 5.33836C31.2156 5.26396 31.7567 5.23813 32.2969 5.26121C32.5464 5.24414 32.7909 5.18231 33.0185 5.07866C33.2567 4.9598 33.5037 4.85953 33.7574 4.77875C34.2951 4.66744 34.8438 4.61786 35.3928 4.63096C36.9882 4.61929 38.5805 4.77481 40.1435 5.09496C40.2522 5.29272 40.3783 5.49049 40.5054 5.68826C40.7053 6.01425 40.8401 6.17181 40.9031 6.17181C41.0814 6.15143 41.2548 6.10072 41.416 6.02186C41.6119 5.93217 41.8254 5.88725 42.0408 5.89037C42.2879 5.81512 42.5434 5.77131 42.8015 5.75998C43.2426 5.75998 43.4643 5.94253 43.4643 6.30329L43.4469 6.48259ZM38.732 6.78576C38.0588 6.51957 37.3476 6.3615 36.625 6.31742H35.9795C35.2711 6.31742 34.9168 6.38479 34.9168 6.52388C35.0686 6.94185 35.2861 7.3329 35.5612 7.68224C36.0313 8.34599 36.33 9.11573 36.4305 9.92287C36.4436 10.0529 36.4436 10.184 36.4305 10.3141C37.3877 11.3519 38.1698 12.5384 38.7461 13.8272C38.7983 13.4555 38.8483 13.0372 38.9004 12.5764C39.1089 11.2084 39.2417 9.8299 39.2981 8.44723C39.3214 8.1462 39.2833 7.84358 39.1859 7.55777C39.0886 7.27196 38.9342 7.01002 38.732 6.78576Z" fill="var(--fill-0, #D9000D)"/>
</g>
<path id="Rectangle 5586" d="M47.8884 11.1602H43.4727V12.7893H47.8884V11.1602Z" fill="var(--fill-0, #161615)"/>
</g>
</svg>
