<svg preserveAspectRatio="none" width="100%" height="100%" overflow="visible" style="display: block;" viewBox="0 0 89.3414 19.2543" fill="none" xmlns="http://www.w3.org/2000/svg">
<g id="Group 17567">
<path id="Path 174532" d="M89.3241 6.46222H58.8836V6.4223C58.8836 4.43243 58.2362 3.0393 56.9736 2.27853C53.9608 0.475342 48.6861 3.21303 48.0969 3.53137L48.8576 4.95471C50.2411 4.21121 54.2467 2.52888 56.1406 3.66626C56.5581 3.9824 56.883 4.40482 57.0816 4.88941C57.2801 5.37401 57.345 5.90302 57.2693 6.42122V6.46115H49.1479V8.0798H53.5334V11.8168L53.7697 12.0498L55.0647 13.3448L55.4888 13.4343L55.9387 13.5228L58.6462 12.4254C58.7292 13.3491 58.5095 14.2747 58.0204 15.0627C57.721 15.4399 57.3407 15.7449 56.9075 15.9553C56.4744 16.1656 55.9994 16.2758 55.5179 16.2778C55.1251 16.3123 51.6439 16.4537 50.3673 10.9837L48.7951 11.3517C50.2119 17.4206 54.1431 17.8997 55.3517 17.8997C55.4963 17.8997 55.5999 17.8943 55.6582 17.8878C56.371 17.8682 57.0705 17.6895 57.7054 17.3646C58.3402 17.0397 58.8943 16.5769 59.3272 16.0102C60.2104 14.5332 60.4884 12.772 60.103 11.0948L59.0142 10.5337L55.8276 11.8232L55.1521 11.1445V8.07873H63.0717C62.6174 9.08785 62.2964 10.1518 62.1166 11.2437C61.809 12.7607 61.973 14.3354 62.5864 15.7565C63.1998 17.1776 64.2333 18.3769 65.5482 19.1935L66.4449 17.8479C65.3944 17.2056 64.5675 16.2551 64.0768 15.1258C63.5861 13.9965 63.4556 12.7434 63.7029 11.5373C63.9049 10.3299 64.298 9.16243 64.8673 8.07873H71.3635V10.3092C70.9654 9.97155 70.5038 9.71676 70.0059 9.55981C69.508 9.40286 68.9837 9.34691 68.4639 9.39523C68.104 9.4136 67.7514 9.50343 67.4266 9.65949C67.1018 9.81555 66.8113 10.0347 66.572 10.3042C66.3328 10.5737 66.1495 10.8881 66.033 11.2291C65.9166 11.5701 65.8691 11.9309 65.8935 12.2905C65.8827 12.6014 65.934 12.9114 66.0443 13.2022C66.1547 13.4931 66.3219 13.7591 66.5361 13.9846C66.7504 14.2102 67.0075 14.3908 67.2924 14.5158C67.5772 14.6409 67.8842 14.708 68.1952 14.7131V13.0998C67.5683 13.0998 67.5122 12.3844 67.5079 12.243C67.4945 12.092 67.5115 11.9399 67.558 11.7957C67.6045 11.6514 67.6795 11.518 67.7785 11.4032C67.8775 11.2885 67.9986 11.1948 68.1345 11.1278C68.2704 11.0607 68.4184 11.0216 68.5697 11.0128C69.2477 10.995 69.9084 11.2288 70.4242 11.6691C70.9401 12.1095 71.2747 12.7252 71.3635 13.3976V13.5541C70.817 13.6314 70.3016 13.8557 69.8725 14.2029C69.4434 14.5501 69.1166 15.0073 68.9269 15.5256C68.7743 15.9813 68.7495 16.4702 68.8553 16.9389C68.9611 17.4077 69.1934 17.8385 69.5269 18.1846C69.729 18.3898 69.9704 18.5523 70.2366 18.6624C70.5028 18.7725 70.7884 18.828 71.0765 18.8255C71.3487 18.8255 71.619 18.7814 71.8771 18.695L71.3721 17.1594C71.2556 17.2119 71.126 17.2283 71.0001 17.2066C70.8741 17.1848 70.7576 17.1259 70.6653 17.0375C70.5448 16.9023 70.4624 16.7376 70.4266 16.5601C70.3907 16.3826 70.4027 16.1987 70.4614 16.0274C70.5815 15.7617 70.7738 15.5351 71.0165 15.3735C71.2592 15.2119 71.5425 15.1217 71.834 15.1134C74.3386 14.726 75.3001 18.0065 75.34 18.1479H75.3562V18.3097H76.9748V8.07873H78.0626C78.1306 8.10031 78.2029 8.12297 78.2784 8.14455C80.3773 8.76288 82.2711 9.54739 82.0553 11.0894L78.6809 13.6199L79.1859 15.0724C79.2399 15.0724 84.6505 14.9764 86.0922 17.836L87.6213 17.4713V8.08304H89.3414L89.3241 6.46222ZM75.3519 14.9192C74.7326 14.2091 73.8995 13.7195 72.9778 13.5239V8.07873H75.3519V14.9192ZM81.3744 13.6124L83.2542 12.202L83.2822 12.1631C84.3037 12.1986 85.272 12.6269 85.9854 13.3588V15.3131C84.6102 14.3782 83.0272 13.7951 81.3744 13.6124ZM85.9865 11.5049C85.2817 11.093 84.4976 10.8355 83.6858 10.7495C83.6618 10.2111 83.5074 9.68668 83.2358 9.22124C82.9641 8.75581 82.5834 8.36335 82.1265 8.07765H85.9865V11.5049Z" fill="var(--fill-0, white)"/>
<g id="Group 17566">
<path id="Path 174533" d="M13.245 7.72859C13.074 7.7226 12.904 7.70166 12.7367 7.666C12.5687 7.62969 12.398 7.60802 12.2263 7.60125C12.0695 7.63089 11.9198 7.68983 11.7849 7.77499C11.6217 7.8763 11.4368 7.93767 11.2454 7.95412C10.875 7.92969 10.5109 7.84702 10.1663 7.70916C9.35318 8.7723 8.75067 9.98098 8.39114 11.2702L8.46667 11.3242C8.51846 11.3242 8.61558 11.3371 8.76234 11.3522C8.87173 11.3683 8.98201 11.3777 9.09255 11.3803C9.46701 11.3608 9.83789 11.2975 10.1976 11.1914C10.5507 11.0829 10.9155 11.0166 11.2842 10.994C11.8238 10.994 12.3007 11.4342 12.7173 12.3148C13.0507 12.9324 13.2375 13.6184 13.2633 14.3198C13.1756 14.7552 13.0092 15.171 12.7723 15.5467C12.1224 16.2497 11.2343 16.6858 10.2806 16.7704C9.08747 16.7716 7.8998 16.609 6.75089 16.287C6.11206 16.1025 4.99842 15.7043 3.41321 15.1C2.55856 14.7622 2.01038 14.5421 1.75139 14.4288C1.19588 14.1946 0.660304 13.9156 0.14999 13.5946C0.0519327 13.4533 -0.000412309 13.2853 2.44578e-06 13.1133C2.44578e-06 12.8015 0.182368 12.6461 0.546027 12.6461C0.645271 12.646 0.742801 12.672 0.828762 12.7216C1.53306 13.0302 2.237 13.3461 2.94057 13.6691C3.65584 13.9792 4.38707 14.2512 5.13116 14.4838C6.47867 14.9367 7.88131 15.2049 9.30083 15.2813C9.80313 15.3017 10.2988 15.161 10.7155 14.8798C10.8992 14.7538 11.0477 14.583 11.1471 14.3836C11.2464 14.1842 11.2932 13.9628 11.2831 13.7403C11.2778 13.5137 11.2118 13.2927 11.0921 13.1002C10.9723 12.9078 10.8032 12.751 10.6022 12.6461C9.88064 13.028 9.07805 13.2315 8.26165 13.2396C8.13755 13.2396 7.80949 13.204 7.28073 13.1317C6.61168 13.0324 6.28041 12.7302 6.28041 12.222C6.28041 11.3328 6.95808 9.6904 8.31884 7.30666C8.26324 7.28005 8.20633 7.25628 8.14833 7.23543C7.63661 7.32351 7.11972 7.3783 6.6009 7.39946C5.85632 7.43831 5.33186 7.47931 5.01784 7.52895C4.58498 7.35396 4.12388 7.25926 3.65709 7.24946C3.41051 7.3421 3.18111 7.47522 2.97833 7.64334C2.81539 7.66708 2.72799 7.67787 2.71504 7.67787C2.48843 7.67787 2.35677 7.34226 2.31901 6.67538C2.56404 6.64074 2.80025 6.55981 3.01503 6.4369C3.29627 6.2723 3.61508 6.18275 3.94089 6.17683C4.40175 6.26337 4.8679 6.31889 5.33619 6.34301C5.57683 6.3538 5.92862 6.37323 6.39371 6.40129C6.30446 6.03675 6.26596 5.66163 6.27932 5.28657C6.27978 4.52092 6.35569 3.75718 6.50594 3.00642C6.60381 2.22732 6.91026 1.48912 7.39296 0.869784C7.62376 0.667831 7.86941 0.483505 8.12783 0.318361C8.5066 0.266564 9.09903 0.159732 9.90297 2.41499e-05L10.3562 0.442458C10.1075 0.982918 9.75429 1.46885 9.31701 1.87227C9.12709 1.53883 8.99328 1.37049 8.90372 1.37049C8.55085 1.37049 8.31667 1.76652 8.20445 2.55751C8.16776 3.07332 8.12784 3.59345 8.09115 4.11466C8.07233 4.58106 8.02839 5.04611 7.9595 5.50779C7.9595 5.72361 7.9595 5.87468 7.9595 5.9513C7.9595 6.02791 8.0674 6.09482 8.24329 6.15633C8.38128 6.20967 8.52712 6.23993 8.67494 6.24589C8.65012 6.24589 8.86917 6.22863 9.33427 6.19302C9.87947 6.48307 10.4651 6.68969 11.0716 6.80595C11.2635 6.7984 11.4537 6.7676 11.6382 6.71423C11.8225 6.65049 12.0111 6.59965 12.2025 6.56207C12.2166 6.56207 12.4302 6.5556 12.8446 6.53725C13.8022 6.35213 14.7334 6.04949 15.6168 5.6362C15.7242 5.71542 15.8147 5.81533 15.8829 5.93004C15.9511 6.04476 15.9957 6.17197 16.0139 6.30417C16.0139 6.6279 15.6309 6.95811 14.8636 7.30666C14.3549 7.54651 13.806 7.68959 13.245 7.72859Z" fill="var(--fill-0, white)"/>
<path id="Path 174534" d="M15.5525 7.46436C15.5662 7.35991 15.5719 7.25458 15.5697 7.14926C15.5494 7.04794 15.4968 6.95593 15.4197 6.88704C15.3205 6.77912 15.2492 6.72409 15.2125 6.72409C14.7786 6.86592 14.3707 7.07769 14.005 7.35105C13.7829 7.12488 13.6376 6.83457 13.5896 6.52122C13.6592 6.2085 13.787 5.91164 13.9662 5.64606C15.2948 5.36423 16.6473 5.20922 18.0053 5.18313C18.5319 5.18313 19.211 5.20291 20.0426 5.24248C21.1606 5.28996 21.8404 5.32233 22.08 5.33636C22.6155 5.32838 23.151 5.34747 23.6846 5.39355L24.044 5.4119C24.4143 5.36546 24.7688 5.23398 25.0799 5.02773L25.3248 5.13565C25.4395 5.1469 25.5501 5.18377 25.6486 5.24356C25.8256 5.33096 25.9637 5.59319 26.0651 6.03454L25.7414 6.22015L25.5709 6.18346L24.3439 6.6097C23.3627 6.57014 22.3814 6.54028 21.4001 6.52014C20.4255 6.51089 19.4535 6.41701 18.4952 6.23957C18.4286 6.21751 18.3592 6.20515 18.2891 6.20288C18.1452 6.20288 17.9876 6.31403 17.8164 6.53633C17.6872 6.69907 17.5485 6.85401 17.401 7.00034C17.2877 7.38234 17.1172 7.94564 16.8916 8.68699L16.9294 8.85209L16.9866 8.94597L17.0416 8.96324H17.0988C17.2446 8.9694 17.3889 8.93182 17.5132 8.85533L19.1923 8.44958C19.4459 8.14096 19.6962 7.83126 19.9477 7.52047C20.1873 7.21859 20.4673 6.95099 20.7796 6.72517L21.3635 6.79747L22.0616 7.46544C22.1429 7.67816 22.1817 7.9047 22.176 8.13233C22.1566 8.29918 22.0835 8.45522 21.9678 8.57692C21.8793 9.11072 21.6904 10.2193 21.4012 11.9027L19.6855 11.715L19.7027 11.1571C19.7151 11.0334 19.7212 10.9091 19.7211 10.7848C19.7561 10.6266 19.7561 10.4627 19.7211 10.3046C19.6962 10.1416 19.6347 10.0618 19.5333 10.0618C18.8964 10.3896 18.2792 10.7542 17.6848 11.1538C17.5775 11.3077 17.4573 11.4521 17.3254 11.5855C17.1981 11.6243 17.0017 11.6934 16.7406 11.7883C16.3016 11.7532 15.8938 11.5475 15.6047 11.2153C15.3156 10.883 15.1682 10.4507 15.1942 10.011C15.1942 9.82328 15.219 9.45855 15.2687 8.91252C15.2913 8.43232 15.2999 8.03736 15.287 7.7255L15.5525 7.46436Z" fill="var(--fill-0, white)"/>
<path id="Path 174535" d="M23.4236 14.4242L20.8402 15.8162C20.5262 15.8626 20.3363 15.8896 20.2726 15.8896C19.9399 15.8741 19.6182 15.7651 19.3445 15.5752C19.0708 15.3853 18.8562 15.1222 18.7252 14.8159C18.3984 14.2774 18.2225 13.6609 18.2158 13.0311C18.3016 12.3332 18.6533 11.6954 19.1978 11.2505L19.3122 11.271C19.6209 10.8684 20.0129 10.5371 20.4614 10.2998H20.9319C21.2995 10.326 21.6417 10.4967 21.8837 10.7747C22.0291 10.897 22.1422 11.0532 22.2129 11.2295C22.2837 11.4058 22.31 11.5969 22.2894 11.7858C22.0499 12.0325 21.6722 12.3789 21.1564 12.825C20.8845 13.0377 20.6317 13.2738 20.401 13.5307L20.442 13.7163C20.4628 13.8561 20.5361 13.9827 20.647 14.0702L20.7237 14.0897C20.7285 14.0953 20.7345 14.0998 20.7412 14.103C20.7478 14.1061 20.7551 14.1078 20.7625 14.108C21.3746 14.0154 21.9385 13.7215 22.365 13.2728C22.9085 12.8261 23.3961 12.3156 23.8175 11.7523C24.1824 11.7784 24.5308 11.9146 24.8167 12.143L25.0638 12.2897C25.1007 12.4279 25.1134 12.5713 25.1016 12.7138C25.0901 13.6159 25.0592 14.9691 25.0088 16.7734C25.0033 17.0478 24.9714 17.3209 24.9138 17.5892C24.7505 18.2784 24.0646 18.7345 22.856 18.9575C22.5805 18.9827 22.1589 19.0259 21.5913 19.087C21.1866 19.1707 20.7766 19.2265 20.3643 19.2543C19.0468 19.2569 17.7476 18.9454 16.5745 18.3457C15.4202 17.7042 14.3332 16.9487 13.3296 16.0903L13.7818 15.0533C14.6925 15.6853 15.637 16.2671 16.6112 16.7961C17.4321 17.3187 18.3494 17.6717 19.309 17.8342C19.9479 17.8455 20.5845 17.7518 21.1931 17.5568C21.7596 17.3086 22.3315 17.0669 22.9132 16.8338C22.9722 16.7921 23.0176 16.7339 23.0437 16.6666C23.1657 16.3041 23.251 15.9303 23.2984 15.5508C23.3667 15.1787 23.4085 14.8022 23.4236 14.4242Z" fill="var(--fill-0, white)"/>
<path id="Path 174536" d="M26.7409 6.09672C26.7971 5.6074 26.918 5.12769 27.1003 4.67014C27.3377 4.068 27.6172 3.76693 27.9301 3.76693C28.2431 3.76693 28.4697 3.99462 28.6477 4.45216L28.5722 5.98665C28.9972 5.76719 29.4698 5.656 29.9481 5.66292C30.4013 5.66292 30.629 5.8291 30.629 6.16578C30.6182 6.36768 30.5453 6.56133 30.4204 6.72029C30.2954 6.87924 30.1244 6.99574 29.9308 7.05389C29.5323 7.20997 29.1522 7.40974 28.7977 7.64955C27.9821 8.71785 27.6046 10.057 27.7424 11.3941C27.7549 11.94 27.7953 12.4849 27.8632 13.0267C27.9326 13.5685 27.974 14.1134 27.9873 14.6594C27.9834 15.0306 27.9257 15.3992 27.8157 15.7536C27.7026 15.9077 27.559 16.0368 27.3937 16.1328C27.2285 16.2288 27.0452 16.2896 26.8553 16.3115C26.6395 16.3115 26.4237 16.1335 26.2133 15.772L26.2338 13.5059C26.2338 13.1724 26.2338 12.3944 26.2521 11.1728C26.2521 10.9743 26.264 10.6592 26.2888 10.2254C26.3136 9.83259 26.3266 9.5218 26.3266 9.30058C26.3324 9.08599 26.3512 8.87195 26.3827 8.6596C26.4152 8.447 26.4339 8.23253 26.4388 8.01753C26.4287 7.84863 26.3773 7.68481 26.2888 7.54057C25.5694 7.13122 24.9467 6.80749 24.4209 6.56937V5.90464C24.6719 5.4953 24.8978 5.29098 25.0985 5.2917C25.6786 5.48764 26.2307 5.75825 26.7409 6.09672Z" fill="var(--fill-0, white)"/>
<path id="Path 174537" d="M43.1495 6.43796C43.0493 6.6318 42.9147 6.80583 42.7524 6.95161C42.5605 7.06259 42.3491 7.13585 42.1297 7.16744C41.7897 7.27505 41.471 7.44081 41.1877 7.65735C40.7841 7.93684 40.5769 8.13971 40.5639 8.26165V11.1903C40.5861 12.2174 40.55 13.2449 40.456 14.268C40.228 15.7506 39.7053 16.4916 38.8881 16.4909C38.4189 16.4214 37.9762 16.2302 37.6039 15.9363C37.3624 15.5252 37.1534 15.0959 36.9791 14.6521C36.8281 14.2507 36.6792 13.8406 36.527 13.4198C36.2767 12.7788 36.0306 12.4551 35.7889 12.4551C35.5472 12.4551 35.0583 12.8349 34.3461 13.5903C33.6339 14.3457 33.1375 14.7223 32.8483 14.7223C32.3088 14.7223 31.917 14.3737 31.6764 13.6842C31.603 13.4349 31.5254 13.1899 31.4531 12.9493C31.3677 12.6896 31.2468 12.443 31.0937 12.2166C30.8671 11.8831 30.6329 11.5486 30.3955 11.2141C30.1683 10.8954 30.026 10.524 29.9822 10.135C29.9822 9.67636 30.2336 9.44867 30.7376 9.44867C30.8823 9.45954 31.0264 9.47791 31.1692 9.5037C31.8802 10.0804 32.4433 10.8184 32.8116 11.6565C32.899 11.8907 33.0188 12.0094 33.1688 12.0094C33.2454 12.0094 33.3652 11.9231 33.5271 11.7504C33.9436 11.267 34.2015 10.9515 34.3008 10.804C34.5526 10.4789 34.6978 10.0839 34.7163 9.67312C34.7113 8.85539 34.3904 8.07125 33.8206 7.48469C33.5652 7.17902 33.2463 6.93257 32.8861 6.76245C32.5259 6.59232 32.133 6.50259 31.7347 6.49947C31.0085 6.57915 30.3111 6.82788 29.6984 7.22571L29.5473 7.53973C29.2322 7.24298 29.0042 6.86572 28.888 6.44875L28.9819 6.1315C29.427 5.77149 29.9307 5.49078 30.4711 5.30166C31.0029 5.22777 31.5403 5.20213 32.0767 5.22505C32.3245 5.2081 32.5672 5.14669 32.7933 5.04376C33.0298 4.92572 33.2752 4.82615 33.5271 4.74592C34.0611 4.63539 34.6059 4.58615 35.1511 4.59916C36.7355 4.58757 38.3168 4.74201 39.869 5.05994C39.9769 5.25634 40.1021 5.45273 40.2283 5.64913C40.4269 5.97286 40.5607 6.12933 40.6233 6.12933C40.8003 6.1091 40.9726 6.05874 41.1326 5.98042C41.3272 5.89135 41.5391 5.84675 41.7531 5.84985C41.9985 5.77511 42.2523 5.73161 42.5085 5.72036C42.9466 5.72036 43.1667 5.90164 43.1667 6.25991L43.1495 6.43796ZM38.4672 6.73903C37.7987 6.47468 37.0924 6.31771 36.3748 6.27394H35.7338C35.0303 6.27394 34.6785 6.34084 34.6785 6.47897C34.8292 6.89404 35.0452 7.28238 35.3184 7.6293C35.7853 8.28845 36.0818 9.05286 36.1817 9.85441C36.1947 9.98358 36.1947 10.1137 36.1817 10.2429C37.1322 11.2735 37.9089 12.4518 38.4813 13.7316C38.5331 13.3626 38.5827 12.9471 38.6345 12.4896C38.8415 11.131 38.9734 9.76208 39.0295 8.38898C39.0526 8.09004 39.0147 7.78952 38.918 7.50569C38.8214 7.22186 38.668 6.96173 38.4672 6.73903Z" fill="var(--fill-0, white)"/>
</g>
<path id="Rectangle 5586" d="M47.5591 11.0877H43.1739V12.7056H47.5591V11.0877Z" fill="var(--fill-0, white)"/>
</g>
</svg>
