<svg preserveAspectRatio="none" width="100%" height="100%" overflow="visible" style="display: block;" viewBox="0 0 10.2587 27.4125" fill="none" xmlns="http://www.w3.org/2000/svg">
<g id="Footer Icon Shape Background">
<path id="Path 174517" fill-rule="evenodd" clip-rule="evenodd" d="M0.6128 16.1605C0.619441 16.0901 0.651756 16.0245 0.70359 15.9764C0.755424 15.9283 0.823152 15.9009 0.893873 15.8995C0.893873 15.8995 3.36431 15.6485 3.36431 18.7193V22.7346C3.3254 23.0181 3.35214 23.3068 3.44247 23.5783C3.5328 23.8498 3.6843 24.097 3.88529 24.3007C4.08627 24.5044 4.33137 24.6592 4.60167 24.7532C4.87197 24.8471 5.16025 24.8777 5.44425 24.8426C5.7251 24.8532 6.00503 24.8047 6.26595 24.7003C6.52686 24.5958 6.76294 24.4377 6.9589 24.2363C7.15486 24.0348 7.30635 23.7945 7.40356 23.5308C7.50076 23.2671 7.54152 22.9859 7.52319 22.7055C7.52319 21.8904 7.51316 21.8904 7.51316 21.8904C7.51316 21.8904 7.52319 21.6986 7.24312 21.6986H6.59063C6.59063 21.6986 6.1891 21.7709 6.1891 21.1867V18.6771C6.1891 18.6771 6.15898 15.8955 8.43367 15.8955C9.85711 15.8955 9.87819 15.9055 9.87819 15.9055C9.92539 15.9 9.97322 15.9049 10.0183 15.9199C10.0634 15.9348 10.1047 15.9595 10.1392 15.9921C10.1738 16.0247 10.2008 16.0646 10.2183 16.1087C10.2358 16.1529 10.2434 16.2004 10.2406 16.2478C10.2496 24.68 10.2576 23.3058 10.2496 23.5557C10.2496 23.5557 10.35 27.4034 5.4312 27.4125C4.32699 27.4125 0.606777 27.3332 0.606777 23.0869C0.601758 15.0432 0.6128 16.1605 0.6128 16.1605Z" fill="var(--fill-0, #161615)"/>
<path id="Path 174518" fill-rule="evenodd" clip-rule="evenodd" d="M0.602705 9.3125C0.602705 9.3125 0.00742936 11.548 2.8021 13.3469C3.14297 13.523 3.44498 13.7658 3.69017 14.0609C3.93537 14.3559 4.11876 14.6973 4.22944 15.0646C4.34012 15.432 4.37584 15.8178 4.33447 16.1992C4.2931 16.5807 4.17549 16.9499 3.98863 17.285C3.81708 16.5504 3.37031 15.9096 2.74038 15.4946C2.11044 15.0796 1.34534 14.9221 0.602705 15.0544C0.205236 14.1495 0 13.1719 0 12.1835C0 11.1951 0.205236 10.2175 0.602705 9.3125Z" fill="var(--fill-0, #E02D15)"/>
<path id="Path 174519" fill-rule="evenodd" clip-rule="evenodd" d="M5.50846 17.1828C5.50846 17.1828 8.73177 14.1522 4.864 11.0675C4.864 11.0675 1.36764 8.27579 3.05709 4.55859C2.2715 5.29971 1.7063 6.24375 1.42407 7.28622C1.14184 8.3287 1.15357 9.42894 1.45799 10.4652C1.97168 11.5756 2.83764 12.4853 3.92139 13.053C4.57332 13.4994 5.07419 14.1334 5.35762 14.8709C5.64104 15.6085 5.69365 16.4147 5.50846 17.1828Z" fill="var(--fill-0, #FFCC28)"/>
<path id="Path 174520" fill-rule="evenodd" clip-rule="evenodd" d="M7.28686 10.0122C7.28686 10.0122 2.23356 8.46534 3.94911 4.15788C4.19063 3.6153 4.54759 3.13193 4.99511 2.74147C5.39331 2.40748 5.7098 1.98677 5.92034 1.51159C6.13088 1.03641 6.22987 0.519345 6.20975 0C6.42896 0.665314 6.50649 1.36915 6.43734 2.06623C6.36818 2.7633 6.15387 3.43819 5.80821 4.04746C5.80821 4.04746 4.04849 7.84095 7.28686 10.0122Z" fill="var(--fill-0, #BDB400)"/>
<path id="Path 174521" fill-rule="evenodd" clip-rule="evenodd" d="M4.60352 9.33594C4.92887 9.97737 5.38393 10.5442 5.93984 11.0006C6.58543 11.5018 7.06166 12.189 7.30422 12.9695C7.54679 13.75 7.54401 14.5861 7.29625 15.365C7.29625 15.365 7.59744 14.9363 10.2319 15.0738C10.2319 15.0738 10.7339 11.1321 7.3856 10.598C6.34723 10.4853 5.37224 10.043 4.60352 9.33594Z" fill="var(--fill-0, #8B4083)"/>
</g>
</svg>
