<svg preserveAspectRatio="none" width="100%" height="100%" overflow="visible" style="display: block;" viewBox="0 0 19.4814 32.3064" fill="none" xmlns="http://www.w3.org/2000/svg">
<g id="Footer Icon Shape Background Shape Container Shape">
<path id="Path 174510" fill-rule="evenodd" clip-rule="evenodd" d="M3.48633 6.48637C3.48633 6.48637 5.72386 7.08867 5.72386 11.11V16.0017C5.70775 16.524 5.80257 17.0437 6.00209 17.5266C6.2016 18.0095 6.50127 18.4446 6.8813 18.8032C7.26133 19.1618 7.71308 19.4357 8.20675 19.6069C8.70042 19.7781 9.22479 19.8426 9.74523 19.7962C9.74523 19.7962 13.7274 20.0321 13.7274 16.0017V14.9045C13.7274 14.9045 9.54447 5.39019 3.48633 6.48637Z" fill="var(--fill-0, #E02D15)"/>
<path id="Path 174511" fill-rule="evenodd" clip-rule="evenodd" d="M13.7038 14.0609C12.6849 11.9737 11.3151 10.077 9.6543 8.45345C9.6543 8.45345 11.3899 5.02334 16.0086 5.9017C16.0086 5.89668 13.2019 5.93483 13.7038 14.0609Z" fill="var(--fill-0, #FFCC28)"/>
<path id="Path 174512" fill-rule="evenodd" clip-rule="evenodd" d="M9.33697 8.16987C8.74471 7.60956 8.0647 7.15001 7.32394 6.80944C7.32394 6.80944 7.54382 4.79341 6.11914 4.02535C7.06541 3.83665 8.04799 4.02099 8.86152 4.53983C9.67505 5.05867 10.2566 5.87186 10.4845 6.80944C10.0228 7.1897 9.63397 7.65065 9.33697 8.16987Z" fill="var(--fill-0, #8B4083)"/>
<path id="Path 174513" fill-rule="evenodd" clip-rule="evenodd" d="M9.57813 4.56593C10.1162 5.12235 10.5207 5.79391 10.7608 6.52975C11.104 6.272 11.4785 6.05879 11.8753 5.89522C11.8753 5.89522 11.7096 3.69345 13.0208 3.17438C12.3735 3.01885 11.6938 3.06934 11.0766 3.31882C10.4594 3.56829 9.93554 4.00429 9.57813 4.56593Z" fill="var(--fill-0, #BDB400)"/>
<path id="Path 174514" d="M0.802734 26.1884C1.41586 25.3373 2.32424 24.7453 3.35046 24.5281C3.5328 24.4997 3.71703 24.4853 3.90156 24.4849C4.79831 24.5201 5.67089 24.7856 6.43524 25.2558C7.46317 25.833 8.33349 26.4213 9.10042 26.9413C10.7899 28.0836 12.128 28.9871 14.0011 29.0493C14.0403 29.0493 14.0784 29.0493 14.1186 29.0493C14.6689 29.0521 15.2108 28.9139 15.6926 28.6478C16.154 28.3852 16.5388 28.0066 16.8089 27.5496C17.0423 27.1789 17.1696 26.7512 17.1768 26.3131C17.1841 25.8751 17.071 25.4434 16.85 25.0651C16.5371 24.5762 16.0717 24.204 15.526 24.0061C14.9322 23.7922 14.3039 23.6901 13.6729 23.7049C13.5344 23.7049 13.3928 23.7049 13.2493 23.715C13.0907 23.724 12.9351 23.729 12.7865 23.729C12.363 23.7793 11.9337 23.7384 11.5274 23.6091C11.121 23.4797 10.747 23.265 10.4305 22.9791C10.1928 22.6569 10.0899 22.2547 10.1434 21.8579C11.5297 21.7816 15.6856 21.1321 15.6856 16.0356V10.8217C15.6856 10.8217 15.54 8.02503 16.7426 7.53516C16.7426 7.53516 14.3455 7.50806 14.3455 11.3839V16.0939C14.2927 17.2883 13.7811 18.4163 12.9172 19.2429C12.0534 20.0695 10.9039 20.5308 9.70824 20.5308C8.51262 20.5308 7.36312 20.0695 6.49925 19.2429C5.63538 18.4163 5.12377 17.2883 5.07104 16.0939V11.3839C5.07104 7.50906 2.67789 7.53516 2.67789 7.53516C3.87547 8.02503 3.73593 10.8217 3.73593 10.8217V16.0366C3.73593 21.0167 7.7071 21.7515 9.17671 21.8528C9.11921 22.4699 9.29865 23.0858 9.67863 23.5754C10.0782 23.9842 10.5653 24.2969 11.1034 24.4899C11.6414 24.683 12.2162 24.7513 12.7845 24.6897C12.9491 24.6897 13.1238 24.6897 13.2985 24.6756C13.4259 24.6696 13.5494 24.6676 13.6719 24.6676C14.109 24.6093 14.5537 24.6614 14.9654 24.8192C15.3771 24.9771 15.7428 25.2355 16.0289 25.5711C16.1574 25.8018 16.2204 26.0632 16.2112 26.3272C16.202 26.5911 16.1209 26.8475 15.9767 27.0688C15.7843 27.3877 15.511 27.6501 15.1845 27.8294C14.858 28.0086 14.4899 28.0984 14.1176 28.0897H14.0343C12.4332 28.0355 11.2617 27.2444 9.63747 26.1432C8.85549 25.6132 7.96408 25.0139 6.90303 24.4166C5.99777 23.863 4.96418 23.5541 3.90358 23.5202C3.66817 23.5207 3.43317 23.5402 3.20089 23.5784C2.30065 23.7401 1.46738 24.1617 0.803738 24.7911L0.802734 26.1884Z" fill="var(--fill-0, #161615)"/>
<g id="Footer Icon Shape Background Shape Container Shape Background">
<path id="Path 174515" d="M18.6412 30.8789C18.6412 31.0347 18.5793 31.1841 18.4692 31.2942C18.3591 31.4043 18.2097 31.4662 18.054 31.4662V32.3054C18.4323 32.3051 18.7951 32.1548 19.0627 31.8874C19.3303 31.6199 19.4809 31.2573 19.4814 30.8789H18.6412ZM18.054 31.4662H1.42144V32.3054H18.0509V31.4662H18.054ZM1.42144 31.4662C1.34453 31.4666 1.26832 31.4517 1.19729 31.4222C1.12626 31.3927 1.06185 31.3493 1.00786 31.2945C0.953288 31.2402 0.910024 31.1756 0.880562 31.1044C0.8511 31.0332 0.836025 30.957 0.836203 30.8799H8.85525e-06C-0.000519209 31.067 0.0358537 31.2523 0.107038 31.4253C0.178223 31.5983 0.282823 31.7555 0.414855 31.888C0.546886 32.0205 0.703756 32.1257 0.87648 32.1974C1.0492 32.2692 1.23439 32.3053 1.42144 32.3054V31.4662ZM0.836203 30.8799V1.42946H8.85525e-06V30.8799H0.836203ZM0.836203 1.42846C0.835939 1.35139 0.850876 1.27502 0.880156 1.20373C0.909436 1.13244 0.952488 1.06762 1.00685 1.01298C1.0612 0.958343 1.1258 0.91496 1.19694 0.885315C1.26808 0.855669 1.34437 0.84034 1.42144 0.840209V0C1.23426 0.000262845 1.04896 0.0374414 0.876166 0.109408C0.70337 0.181374 0.546465 0.286715 0.414434 0.419399C0.282402 0.552083 0.177838 0.709505 0.106724 0.882653C0.0356112 1.0558 -0.000651353 1.24127 8.85525e-06 1.42846H0.836203ZM1.42144 0.840209H18.0509V0H1.42144V0.840209ZM18.054 0.840209C18.1312 0.840076 18.2077 0.855209 18.2791 0.884736C18.3505 0.914264 18.4153 0.957605 18.4699 1.01227C18.5244 1.06693 18.5677 1.13184 18.5971 1.20326C18.6265 1.27469 18.6415 1.35122 18.6412 1.42846H19.4814C19.4814 1.04978 19.3311 0.686599 19.0634 0.41874C18.7957 0.150882 18.4326 0.000266111 18.054 0V0.840209ZM18.6412 1.42846V30.8789H19.4814V1.42946L18.6412 1.42846Z" fill="var(--fill-0, #161615)"/>
</g>
</g>
</svg>
