<svg preserveAspectRatio="none" width="100%" height="100%" overflow="visible" style="display: block;" viewBox="0 0 10.2102 13.7165" fill="none" xmlns="http://www.w3.org/2000/svg">
<path id="Icon awesome-map-marker-alt" d="M4.58059 13.4373C0.716821 7.76518 0 7.18744 0 5.09835C0.0188661 3.73963 0.565022 2.44303 1.52036 1.48895C2.4757 0.534874 3.76343 0 5.10508 0C6.44673 0 7.73446 0.534874 8.6898 1.48895C9.64513 2.44303 10.1913 3.73963 10.2102 5.09835C10.2102 7.18335 9.49334 7.76518 5.62957 13.4383C5.57085 13.5242 5.49246 13.5943 5.40111 13.6428C5.30977 13.6912 5.20819 13.7165 5.10508 13.7165C5.00197 13.7165 4.90039 13.6912 4.80904 13.6428C4.7177 13.5943 4.63931 13.5242 4.58059 13.4383V13.4373ZM5.10558 7.25186C5.52636 7.25186 5.93768 7.12547 6.28752 6.88868C6.63737 6.6519 6.91002 6.31534 7.071 5.9216C7.23197 5.52785 7.27404 5.09459 7.19188 4.67663C7.10972 4.25866 6.90702 3.87476 6.60941 3.57349C6.31181 3.27221 5.93268 3.0671 5.51997 2.98408C5.10726 2.90106 4.67951 2.94387 4.29082 3.1071C3.90214 3.27033 3.56998 3.54664 3.33636 3.90108C3.10273 4.25553 2.97814 4.67218 2.97834 5.09835C2.97834 5.66977 3.20246 6.21778 3.6014 6.62183C4.00033 7.02589 4.5414 7.25186 5.10558 7.25186Z" fill="var(--fill-0, #159BE1)"/>
</svg>
