<svg preserveAspectRatio="none" width="100%" height="100%" overflow="visible" style="display: block;" viewBox="0 0 42.001 42.0017" fill="none" xmlns="http://www.w3.org/2000/svg">
<g id="Icon">
<path id="Path 197965" d="M31.0963 32.4298C30.947 32.5738 30.7672 32.6838 30.5696 32.7519L30.3623 32.8132C30.3623 32.8132 2.44565 43.8645 0.275477 41.7274C-1.8947 39.5904 9.46995 12.2406 9.46995 12.2406L9.53243 12.0382C9.60273 11.8449 9.71548 11.6691 9.86272 11.5233C11.5995 9.82615 17.7608 13.13 23.6237 18.9029C29.4865 24.6757 32.832 30.7326 31.0963 32.4298Z" fill="url(#paint0_linear_187_19508)"/>
<path id="Path 197966" d="M29.36 33.1997C27.8911 33.771 24.9492 34.9028 21.4758 36.1689C19.3512 36.9474 17.0273 37.7687 14.7203 38.5473C12.7038 39.2285 10.6993 39.8718 8.85248 40.4158C7.5839 39.3696 6.32226 38.2349 5.08344 37.0184C3.84461 35.802 2.69605 34.5602 1.63477 33.3117C2.19516 31.5016 2.8597 29.5377 3.55995 27.5612C4.36137 25.3006 5.21039 23.0234 6.00784 20.9437C7.31114 17.5377 8.47557 14.6581 9.06275 13.2188C13.302 15.55 17.1803 18.4632 20.5801 21.8702C24.0415 25.2174 26.998 29.0324 29.36 33.1997Z" fill="url(#paint1_linear_187_19508)"/>
<path id="Path 197967" d="M31.0973 32.4243C30.9481 32.5687 30.7683 32.679 30.5706 32.7474L30.3643 32.8077C30.3643 32.8077 30.0033 32.9508 29.3605 33.197C27.8916 33.7683 24.9498 34.9 21.4763 36.1661C19.3518 36.9447 17.0279 37.766 14.7208 38.5445C10.5061 35.4019 6.75211 31.7052 3.56445 27.5585C4.36587 25.2969 5.2149 23.0206 6.01235 20.941C7.31564 17.5349 8.48007 14.6553 9.06725 13.216C9.32414 12.5864 9.47094 12.2331 9.47094 12.2331L9.53342 12.0307C9.604 11.8373 9.71711 11.6616 9.8647 11.5159C11.6014 9.81771 17.7618 13.1226 23.6257 18.8954C29.4895 24.6682 32.834 30.7261 31.0973 32.4224V32.4243Z" fill="url(#paint2_linear_187_19508)"/>
<path id="Path 197968" d="M31.0967 32.4272C30.9475 32.5716 30.7676 32.682 30.57 32.7503L30.3637 32.8107C30.3637 32.8107 30.0026 32.9537 29.3599 33.1999C27.891 33.7712 24.9492 34.903 21.4757 36.169C15.3554 32.1344 10.1015 26.9606 6.01172 20.941C7.31501 17.5349 8.47945 14.6553 9.06663 13.216C9.32351 12.5864 9.47031 12.2331 9.47031 12.2331L9.5328 12.0307C9.60338 11.8373 9.71648 11.6616 9.86408 11.5159C11.6008 9.81771 17.7612 13.1226 23.625 18.8954C29.4889 24.6682 32.8334 30.7261 31.0967 32.4224V32.4272Z" fill="url(#paint3_linear_187_19508)"/>
<path id="Path 197969" d="M31.0996 32.4296C29.3629 34.1277 23.2015 30.8238 17.3386 25.05C11.4758 19.2763 8.13029 13.2193 9.86702 11.5231C11.6038 9.82685 17.7651 13.1288 23.628 18.9026C29.4908 24.6763 32.8343 30.7314 31.0996 32.4296Z" fill="url(#paint4_linear_187_19508)"/>
<path id="Path 197970" d="M30.0138 30.8686C28.7304 32.123 23.534 29.0469 18.4091 23.9981C13.2842 18.9493 10.1659 13.8392 11.4483 12.5848C12.7308 11.3304 17.9281 14.4066 23.053 19.4554C28.1779 24.5041 31.2963 29.6142 30.0138 30.8686Z" fill="url(#paint5_linear_187_19508)"/>
<path id="Path 197971" d="M31.0953 32.426C32.832 30.7288 29.4865 24.6709 23.6237 18.899C20.8362 16.0101 17.5663 13.6095 13.9551 11.8008C14.0623 11.9947 14.1802 12.1828 14.3082 12.3642C14.5224 12.666 14.7717 12.9423 15.0511 13.1875L16.5389 14.658C16.3673 14.7349 16.2096 14.7952 16.0767 14.8409C15.962 14.8808 15.8658 14.9599 15.8058 15.0638C15.7459 15.1677 15.7261 15.2893 15.7503 15.4064L16.277 17.9736C16.2989 18.0805 16.3481 18.1802 16.4201 18.2633C16.4922 18.3464 16.5846 18.4101 16.6886 18.4485L30.9822 32.5243C31.0218 32.4937 31.0596 32.4609 31.0953 32.426Z" fill="url(#paint6_linear_187_19508)"/>
<path id="Path 197972" d="M21.5948 24.4512L23.0568 26.1659L29.8678 32.8729C30.3212 32.887 30.7625 32.728 31.0987 32.4292C32.6162 30.9451 30.2536 26.1328 25.7209 21.0898C24.2934 21.6744 22.9483 22.4365 21.7188 23.3573C21.6355 23.4198 21.5661 23.4982 21.5145 23.5877C21.463 23.6772 21.4304 23.7761 21.4188 23.8783C21.4072 23.9805 21.4169 24.0839 21.4471 24.1824C21.4773 24.2808 21.5276 24.3723 21.5948 24.4512Z" fill="url(#paint7_linear_187_19508)"/>
<path id="Path 197973" d="M23.0568 26.1583L21.5948 24.4436C21.5276 24.3647 21.4773 24.2733 21.4471 24.1748C21.4169 24.0764 21.4072 23.9729 21.4188 23.8707C21.4304 23.7685 21.463 23.6697 21.5145 23.5802C21.5661 23.4906 21.6355 23.4123 21.7188 23.3498C24.5359 21.2407 27.9234 19.9917 31.4591 19.7586C34.9947 19.5255 38.522 20.3186 41.6014 22.0389C41.6927 22.09 41.7725 22.1588 41.8359 22.241C41.8994 22.3232 41.9451 22.4172 41.9704 22.5173C41.9957 22.6174 42.0001 22.7215 41.9832 22.8232C41.9663 22.925 41.9286 23.0224 41.8722 23.1094L40.6562 25.0003C40.55 25.1651 40.3834 25.2837 40.1907 25.3315C39.998 25.3793 39.794 25.3527 39.6207 25.2572C37.2138 23.9348 34.4669 23.3274 31.7145 23.509C28.9621 23.6906 26.3229 24.6533 24.1181 26.28C23.959 26.397 23.7602 26.4497 23.5626 26.4271C23.3651 26.4044 23.1841 26.3082 23.0568 26.1583Z" fill="url(#paint8_linear_187_19508)"/>
<path id="Path 197974" d="M10.4197 8.35908L9.09258 7.01903C8.79684 6.71455 8.5984 6.3318 8.52174 5.91798C8.44507 5.50416 8.49352 5.07738 8.66112 4.69025C8.74383 4.49234 8.87221 4.31595 9.03616 4.17496C9.2001 4.03397 9.39515 3.93221 9.60596 3.8777C9.81677 3.82318 10.0376 3.81739 10.2511 3.86078C10.4646 3.90417 10.6649 3.99557 10.8363 4.12777C11.177 4.38392 11.4338 4.73245 11.5748 5.13025C11.7158 5.52806 11.7349 5.9577 11.6297 6.36604L11.1477 8.17418C11.1282 8.24681 11.0894 8.31305 11.0352 8.36614C10.9811 8.41924 10.9135 8.45727 10.8395 8.47637C10.7655 8.49547 10.6876 8.49495 10.6138 8.47485C10.5401 8.45476 10.4731 8.41582 10.4197 8.362V8.35908Z" fill="url(#paint9_linear_187_19508)"/>
<path id="Path 197975" d="M8.07307 9.81461L6.18855 9.54601C5.76556 9.48088 5.37121 9.29585 5.05401 9.01367C4.73681 8.7315 4.5106 8.36449 4.40322 7.95781C4.3459 7.75171 4.33804 7.53537 4.38024 7.32578C4.42245 7.11618 4.51357 6.91903 4.64647 6.74979C4.77936 6.58056 4.95042 6.44383 5.14621 6.35035C5.34201 6.25686 5.55721 6.20917 5.77495 6.21099C6.20323 6.2102 6.62239 6.33231 6.98084 6.56228C7.33929 6.79225 7.62138 7.12003 7.79238 7.50529L8.53329 9.22682C8.56379 9.29621 8.57485 9.37232 8.56533 9.4473C8.55581 9.52229 8.52606 9.59341 8.47914 9.65334C8.43223 9.71326 8.36985 9.7598 8.29846 9.78815C8.22707 9.81651 8.14926 9.82564 8.07307 9.81461Z" fill="url(#paint10_linear_187_19508)"/>
<path id="Path 197976" d="M33.3121 31.3081L35.2095 31.1398C35.6367 31.106 36.0646 31.1956 36.4406 31.3976C36.8165 31.5996 37.124 31.9051 37.3251 32.2764C37.4298 32.4641 37.4887 32.6731 37.4971 32.8869C37.5055 33.1007 37.4633 33.3135 37.3737 33.5085C37.2841 33.7036 37.1496 33.8756 36.9808 34.011C36.8119 34.1465 36.6133 34.2416 36.4007 34.2889C35.9838 34.3873 35.5466 34.3639 35.1432 34.2214C34.7397 34.0789 34.3876 33.8236 34.1303 33.487L33.0016 31.9816C32.9563 31.9209 32.9282 31.8495 32.9203 31.7747C32.9124 31.6999 32.9248 31.6244 32.9564 31.5559C32.988 31.4874 33.0376 31.4283 33.1001 31.3848C33.1626 31.3413 33.2357 31.3148 33.3121 31.3081Z" fill="url(#paint11_linear_187_19508)"/>
<path id="Path 197977" d="M33.6362 28.6029L35.0357 27.3378C35.3531 27.0561 35.7476 26.8716 36.1705 26.8069C36.5934 26.7423 37.0264 26.8003 37.4161 26.9739C37.6157 27.06 37.7921 27.1904 37.9316 27.3548C38.0711 27.5192 38.1698 27.7131 38.22 27.9213C38.2702 28.1294 38.2704 28.3462 38.2208 28.5544C38.1711 28.7627 38.0729 28.9569 37.9339 29.1216C37.6646 29.4488 37.3036 29.6915 36.8954 29.8198C36.4872 29.9481 36.0497 29.9564 35.6368 29.8437L33.8068 29.325C33.7328 29.3041 33.6658 29.2641 33.6128 29.2093C33.5598 29.1545 33.5227 29.0867 33.5053 29.0131C33.4879 28.9395 33.4909 28.8627 33.5139 28.7905C33.5369 28.7184 33.5791 28.6537 33.6362 28.6029Z" fill="url(#paint12_linear_187_19508)"/>
<path id="Path 197978" d="M17.1192 18.4588C17.0315 18.4861 16.9389 18.495 16.8474 18.4848C16.7559 18.4747 16.6676 18.4457 16.5884 18.3997C16.5091 18.3538 16.4405 18.292 16.3873 18.2183C16.334 18.1447 16.2971 18.0608 16.2791 17.9722L15.7525 15.405C15.7283 15.288 15.748 15.1664 15.8079 15.0625C15.8679 14.9586 15.9641 14.8794 16.0788 14.8396C16.4492 14.7117 16.8049 14.546 17.1401 14.3452C16.0008 14.0057 15.0064 13.309 14.3093 12.3619C13.718 11.6275 13.3754 10.73 13.3295 9.79507C13.2836 8.86016 13.5367 7.93455 14.0534 7.14772C14.5767 6.40026 15.3168 5.82432 16.1778 5.49462C17.0387 5.16491 17.9808 5.09666 18.8818 5.29871C20.8913 5.75415 22.3027 7.47957 22.6577 9.91345C22.6723 10.0147 22.6855 10.1155 22.6974 10.2161C23.1553 9.96849 23.5464 9.61717 23.8381 9.19137C24.154 8.61643 24.332 7.9783 24.3585 7.32563C24.3849 6.67296 24.2592 6.02298 23.9908 5.42522C23.7203 4.68997 23.2039 4.06632 22.5258 3.65601C22.3962 3.58913 22.2929 3.48195 22.2321 3.35128C22.1712 3.22061 22.1563 3.07382 22.1896 2.93392L22.7936 0.492256C22.8152 0.403849 22.8556 0.320944 22.9123 0.249036C22.9689 0.177127 23.0405 0.11786 23.1223 0.0751616C23.2041 0.0324635 23.2942 0.00731072 23.3866 0.00137085C23.4791 -0.00456902 23.5718 0.00883972 23.6585 0.0407081C24.5476 0.405686 25.3507 0.946279 26.0177 1.62885C26.6847 2.31142 27.2014 3.12137 27.5357 4.0083C28.0335 5.15656 28.2518 6.40283 28.1733 7.64828C28.0948 8.89373 27.7216 10.1041 27.0834 11.1834C25.8948 12.8746 24.0859 14.0493 22.0349 14.462C21.5323 15.4818 20.7894 16.3695 19.8677 17.0516C19.0386 17.6689 18.1095 18.1446 17.1192 18.4588ZM17.8691 8.9471C17.744 8.94619 17.6203 8.97364 17.5078 9.02732C17.3953 9.081 17.297 9.15946 17.2204 9.25657C17.027 9.53684 17.2839 9.98255 17.4545 10.2239C17.8373 10.6246 18.3593 10.8701 18.9175 10.9119C18.9076 10.7621 18.891 10.6083 18.8679 10.4506C18.7459 9.61177 18.4285 9.0561 18.0199 8.96365C17.9704 8.95227 17.9198 8.94736 17.8691 8.9471Z" fill="url(#paint13_radial_187_19508)"/>
<path id="Path 197979" d="M25.4392 12.9242L22.6997 10.2227C22.7946 11.6686 22.5685 13.1176 22.0371 14.4695C23.2682 14.1919 24.4268 13.6655 25.4392 12.9242Z" fill="url(#paint14_linear_187_19508)"/>
<path id="Path 197980" d="M17.4562 10.225C17.2951 10.0166 17.1925 9.77026 17.1587 9.51072L13.3262 9.50391C13.3544 10.5337 13.7003 11.531 14.318 12.364C15.0151 13.3112 16.0095 14.0079 17.1488 14.3473C17.1488 14.3473 19.1136 13.7634 18.9262 10.9131C18.3655 10.8729 17.8408 10.6273 17.4562 10.225Z" fill="url(#paint15_linear_187_19508)"/>
<path id="Path 197981" d="M25.5819 18.7728C24.6914 19.3424 23.9336 20.0903 23.3581 20.9673C23.3281 21.0129 23.2869 21.0504 23.2383 21.0763C23.1897 21.1023 23.1352 21.1159 23.0799 21.1159C23.0246 21.1159 22.9701 21.1023 22.9215 21.0763C22.8729 21.0504 22.8317 21.0129 22.8017 20.9673C22.2296 20.0879 21.4745 19.3371 20.5859 18.764C20.5403 18.7344 20.5029 18.6941 20.477 18.6468C20.4511 18.5996 20.4375 18.5467 20.4375 18.493C20.4375 18.4393 20.4511 18.3865 20.477 18.3392C20.5029 18.2919 20.5403 18.2516 20.5859 18.222C21.4764 17.6523 22.2342 16.9045 22.8096 16.0275C22.8397 15.9819 22.8809 15.9444 22.9295 15.9185C22.9781 15.8925 23.0325 15.8789 23.0878 15.8789C23.1432 15.8789 23.1976 15.8925 23.2462 15.9185C23.2948 15.9444 23.336 15.9819 23.3661 16.0275C23.9382 16.9069 24.6933 17.6577 25.5819 18.2307C25.6273 18.2605 25.6645 18.3008 25.6903 18.3481C25.716 18.3954 25.7295 18.4482 25.7295 18.5018C25.7295 18.5554 25.716 18.6081 25.6903 18.6554C25.6645 18.7027 25.6273 18.743 25.5819 18.7728Z" fill="url(#paint16_linear_187_19508)"/>
<path id="Path 197982" d="M41.8533 17.6274C40.9628 18.1971 40.205 18.9449 39.6296 19.8219C39.5996 19.8675 39.5584 19.905 39.5098 19.931C39.4612 19.9569 39.4067 19.9705 39.3514 19.9705C39.2961 19.9705 39.2416 19.9569 39.193 19.931C39.1444 19.905 39.1032 19.8675 39.0732 19.8219C38.501 18.9426 37.746 18.1917 36.8574 17.6187C36.8118 17.5891 36.7743 17.5488 36.7484 17.5015C36.7225 17.4542 36.709 17.4013 36.709 17.3477C36.709 17.294 36.7225 17.2411 36.7484 17.1938C36.7743 17.1465 36.8118 17.1063 36.8574 17.0766C37.7479 16.507 38.5057 15.7592 39.0811 14.8822C39.1113 14.8368 39.1526 14.7995 39.2011 14.7737C39.2497 14.7479 39.3041 14.7344 39.3593 14.7344C39.4146 14.7344 39.4689 14.7479 39.5175 14.7737C39.5661 14.7995 39.6073 14.8368 39.6375 14.8822C40.2097 15.7615 40.9648 16.5124 41.8533 17.0854C41.8988 17.1152 41.936 17.1555 41.9617 17.2028C41.9875 17.25 42.001 17.3028 42.001 17.3564C42.001 17.41 41.9875 17.4628 41.9617 17.5101C41.936 17.5573 41.8988 17.5977 41.8533 17.6274Z" fill="url(#paint17_linear_187_19508)"/>
<path id="Path 197983" d="M34.2334 4.87826C33.3429 5.44792 32.5852 6.19575 32.0097 7.07274C31.9797 7.11833 31.9385 7.15582 31.8899 7.18177C31.8413 7.20773 31.7868 7.22133 31.7315 7.22133C31.6761 7.22133 31.6217 7.20773 31.5731 7.18177C31.5245 7.15582 31.4833 7.11833 31.4533 7.07274C30.8811 6.19335 30.126 5.44253 29.2375 4.8695C29.192 4.83971 29.1548 4.79939 29.1291 4.75212C29.1033 4.70485 29.0898 4.65207 29.0898 4.59847C29.0898 4.54487 29.1033 4.4921 29.1291 4.44482C29.1548 4.39755 29.192 4.35723 29.2375 4.32745C30.128 3.75778 30.8858 3.00996 31.4612 2.13296C31.4912 2.08737 31.5324 2.04988 31.581 2.02393C31.6296 1.99797 31.6841 1.98438 31.7394 1.98438C31.7947 1.98438 31.8492 1.99797 31.8978 2.02393C31.9464 2.04988 31.9876 2.08737 32.0176 2.13296C32.5898 3.01233 33.3449 3.76314 34.2334 4.33621C34.279 4.36584 34.3165 4.4061 34.3424 4.4534C34.3683 4.50069 34.3818 4.55354 34.3818 4.60723C34.3818 4.66092 34.3683 4.71377 34.3424 4.76106C34.3165 4.80836 34.279 4.84862 34.2334 4.87826Z" fill="url(#paint18_linear_187_19508)"/>
<path id="Path 197984" d="M33.409 13.6752C32.7599 14.0905 32.2076 14.6357 31.7883 15.275C31.7663 15.3082 31.7362 15.3354 31.7008 15.3542C31.6654 15.3731 31.6257 15.383 31.5854 15.383C31.5451 15.383 31.5055 15.3731 31.4701 15.3542C31.4347 15.3354 31.4046 15.3082 31.3826 15.275C30.9657 14.6342 30.4154 14.087 29.7679 13.6693C29.7347 13.6476 29.7076 13.6182 29.6888 13.5838C29.67 13.5493 29.6602 13.5108 29.6602 13.4718C29.6602 13.4327 29.67 13.3942 29.6888 13.3597C29.7076 13.3253 29.7347 13.2959 29.7679 13.2742C30.4169 12.8588 30.9692 12.3137 31.3886 11.6743C31.4106 11.6412 31.4406 11.614 31.476 11.5951C31.5114 11.5763 31.5511 11.5664 31.5914 11.5664C31.6317 11.5664 31.6713 11.5763 31.7068 11.5951C31.7422 11.614 31.7723 11.6412 31.7942 11.6743C32.2112 12.3152 32.7615 12.8623 33.409 13.28C33.4421 13.3017 33.4693 13.3311 33.4881 13.3656C33.5069 13.4 33.5167 13.4385 33.5167 13.4776C33.5167 13.5167 33.5069 13.5552 33.4881 13.5896C33.4693 13.6241 33.4421 13.6535 33.409 13.6752Z" fill="url(#paint19_linear_187_19508)"/>
<path id="Path 197985" d="M36.0496 8.73082C35.4006 9.1462 34.8483 9.69139 34.4289 10.3307C34.4069 10.3638 34.3769 10.3911 34.3415 10.4099C34.306 10.4287 34.2664 10.4386 34.2261 10.4386C34.1858 10.4386 34.1461 10.4287 34.1107 10.4099C34.0753 10.3911 34.0452 10.3638 34.0232 10.3307C33.6063 9.68982 33.056 9.14262 32.4085 8.72497C32.3754 8.70329 32.3482 8.67391 32.3294 8.63945C32.3106 8.60499 32.3008 8.56651 32.3008 8.52742C32.3008 8.48834 32.3106 8.44986 32.3294 8.41539C32.3482 8.38093 32.3754 8.35155 32.4085 8.32987C33.0573 7.91412 33.6092 7.36859 34.0282 6.72902C34.0502 6.69588 34.0803 6.66866 34.1157 6.64981C34.1511 6.63097 34.1907 6.62109 34.231 6.62109C34.2713 6.62109 34.311 6.63097 34.3464 6.64981C34.3818 6.66866 34.4119 6.69588 34.4339 6.72902C34.8509 7.36984 35.4011 7.91701 36.0486 8.33473C36.082 8.3563 36.1095 8.38566 36.1285 8.42017C36.1475 8.45468 36.1575 8.49328 36.1576 8.53251C36.1577 8.57174 36.1479 8.6104 36.129 8.645C36.1102 8.67961 36.0829 8.70909 36.0496 8.73082Z" fill="url(#paint20_linear_187_19508)"/>
</g>
<defs>
<linearGradient id="paint0_linear_187_19508" x1="88.006" y1="-36.7916" x2="109.404" y2="-32.8685" gradientUnits="userSpaceOnUse">
<stop stop-color="#FFE548"/>
<stop offset="0.176" stop-color="#FFDE50"/>
<stop offset="0.445" stop-color="#FFCA65"/>
<stop offset="0.771" stop-color="#FFAA87"/>
<stop offset="1" stop-color="#FF90A4"/>
</linearGradient>
<linearGradient id="paint1_linear_187_19508" x1="15.4697" y1="34.2148" x2="13.1689" y2="42.5331" gradientUnits="userSpaceOnUse">
<stop stop-color="#FBA5C2" stop-opacity="0"/>
<stop offset="0.386" stop-color="#FCA0BA" stop-opacity="0.384"/>
<stop offset="0.974" stop-color="#FF91A5" stop-opacity="0.973"/>
<stop offset="1" stop-color="#FF90A4"/>
</linearGradient>
<linearGradient id="paint2_linear_187_19508" x1="17.8682" y1="29.2857" x2="15.0294" y2="39.7531" gradientUnits="userSpaceOnUse">
<stop stop-color="#FBA5C2" stop-opacity="0"/>
<stop offset="0.386" stop-color="#FCA0BA" stop-opacity="0.384"/>
<stop offset="0.974" stop-color="#FF91A5" stop-opacity="0.973"/>
<stop offset="1" stop-color="#FF90A4"/>
</linearGradient>
<linearGradient id="paint3_linear_187_19508" x1="19.8309" y1="23.5946" x2="16.2693" y2="35.5262" gradientUnits="userSpaceOnUse">
<stop stop-color="#FBA5C2" stop-opacity="0"/>
<stop offset="0.386" stop-color="#FCA0BA" stop-opacity="0.384"/>
<stop offset="0.974" stop-color="#FF91A5" stop-opacity="0.973"/>
<stop offset="1" stop-color="#FF90A4"/>
</linearGradient>
<linearGradient id="paint4_linear_187_19508" x1="21.9227" y1="19.2302" x2="18.1278" y2="27.9505" gradientUnits="userSpaceOnUse">
<stop stop-color="#FFE548"/>
<stop offset="0.176" stop-color="#FFDE50"/>
<stop offset="0.445" stop-color="#FFCA65"/>
<stop offset="0.771" stop-color="#FFAA87"/>
<stop offset="1" stop-color="#FF90A4"/>
</linearGradient>
<linearGradient id="paint5_linear_187_19508" x1="18.2426" y1="25.7782" x2="23.6348" y2="17.353" gradientUnits="userSpaceOnUse">
<stop stop-color="#FFD00D" stop-opacity="0"/>
<stop offset="1" stop-color="#DB722B"/>
</linearGradient>
<linearGradient id="paint6_linear_187_19508" x1="23.3706" y1="22.1211" x2="18.7551" y2="12.194" gradientUnits="userSpaceOnUse">
<stop stop-color="#FFD00D" stop-opacity="0"/>
<stop offset="1" stop-color="#DB722B"/>
</linearGradient>
<linearGradient id="paint7_linear_187_19508" x1="27.5001" y1="27.8656" x2="24.1158" y2="23.8482" gradientUnits="userSpaceOnUse">
<stop stop-color="#A34A9E" stop-opacity="0"/>
<stop offset="1" stop-color="#343168"/>
</linearGradient>
<linearGradient id="paint8_linear_187_19508" x1="68.1495" y1="8.60799" x2="67.9554" y2="1.91479" gradientUnits="userSpaceOnUse">
<stop stop-color="#A34A9E"/>
<stop offset="1" stop-color="#343168"/>
</linearGradient>
<linearGradient id="paint9_linear_187_19508" x1="-30.5869" y1="24.6872" x2="-29.097" y2="25.2357" gradientUnits="userSpaceOnUse">
<stop stop-color="#3FA9F5"/>
<stop offset="1" stop-color="#666AD6"/>
</linearGradient>
<linearGradient id="paint10_linear_187_19508" x1="-86.6344" y1="-34.0423" x2="-85.501" y2="-32.8452" gradientUnits="userSpaceOnUse">
<stop stop-color="#A34A9E"/>
<stop offset="1" stop-color="#343168"/>
</linearGradient>
<linearGradient id="paint11_linear_187_19508" x1="35.8356" y1="32.2809" x2="33.0117" y2="35.672" gradientUnits="userSpaceOnUse">
<stop stop-color="#FF4974"/>
<stop offset="0.45" stop-color="#FE4773"/>
<stop offset="0.629" stop-color="#FC406D"/>
<stop offset="0.761" stop-color="#F73464"/>
<stop offset="0.868" stop-color="#F12257"/>
<stop offset="0.961" stop-color="#E80C46"/>
<stop offset="1" stop-color="#E4003D"/>
</linearGradient>
<linearGradient id="paint12_linear_187_19508" x1="36.5429" y1="27.3875" x2="35.7042" y2="32.8243" gradientUnits="userSpaceOnUse">
<stop stop-color="#C4F8B6"/>
<stop offset="1" stop-color="#3B8EAC"/>
</linearGradient>
<radialGradient id="paint13_radial_187_19508" cx="0" cy="0" r="1" gradientTransform="matrix(16.8505 0.0260773 -0.0505395 16.5291 57.494 3.3885)" gradientUnits="userSpaceOnUse">
<stop stop-color="#FF4974"/>
<stop offset="0.45" stop-color="#FE4773"/>
<stop offset="0.629" stop-color="#FC406D"/>
<stop offset="0.761" stop-color="#F73464"/>
<stop offset="0.868" stop-color="#F12257"/>
<stop offset="0.961" stop-color="#E80C46"/>
<stop offset="1" stop-color="#E4003D"/>
</radialGradient>
<linearGradient id="paint14_linear_187_19508" x1="26.1366" y1="14.7668" x2="19.481" y2="11.7458" gradientUnits="userSpaceOnUse">
<stop stop-color="#E4003D" stop-opacity="0"/>
<stop offset="0.343" stop-color="#CD0E2D" stop-opacity="0.341"/>
<stop offset="1" stop-color="#972E07"/>
</linearGradient>
<linearGradient id="paint15_linear_187_19508" x1="16.9239" y1="11.7077" x2="18.3648" y2="13.4656" gradientUnits="userSpaceOnUse">
<stop stop-color="#E4003D" stop-opacity="0"/>
<stop offset="0.343" stop-color="#CD0E2D" stop-opacity="0.341"/>
<stop offset="1" stop-color="#972E07"/>
</linearGradient>
<linearGradient id="paint16_linear_187_19508" x1="22.459" y1="17.2824" x2="25.2266" y2="20.9813" gradientUnits="userSpaceOnUse">
<stop stop-color="#3FA9F5"/>
<stop offset="1" stop-color="#666AD6"/>
</linearGradient>
<linearGradient id="paint17_linear_187_19508" x1="38.7252" y1="16.1062" x2="41.4975" y2="19.8051" gradientUnits="userSpaceOnUse">
<stop stop-color="#3FA9F5"/>
<stop offset="1" stop-color="#666AD6"/>
</linearGradient>
<linearGradient id="paint18_linear_187_19508" x1="31.0849" y1="3.37217" x2="33.8525" y2="7.0711" gradientUnits="userSpaceOnUse">
<stop stop-color="#A34A9E"/>
<stop offset="1" stop-color="#343168"/>
</linearGradient>
<linearGradient id="paint19_linear_187_19508" x1="31.1874" y1="12.5511" x2="33.2043" y2="15.2467" gradientUnits="userSpaceOnUse">
<stop stop-color="#C4F8B6"/>
<stop offset="1" stop-color="#3B8EAC"/>
</linearGradient>
<linearGradient id="paint20_linear_187_19508" x1="33.8204" y1="7.59838" x2="35.8379" y2="10.2981" gradientUnits="userSpaceOnUse">
<stop stop-color="#FFE548"/>
<stop offset="0.176" stop-color="#FFDE50"/>
<stop offset="0.445" stop-color="#FFCA65"/>
<stop offset="0.771" stop-color="#FFAA87"/>
<stop offset="1" stop-color="#FF90A4"/>
</linearGradient>
</defs>
</svg>
