<svg preserveAspectRatio="none" width="100%" height="100%" overflow="visible" style="display: block;" viewBox="0 0 150 150" fill="none" xmlns="http://www.w3.org/2000/svg">
<g id="QR Code">
<g id="QR Code Background">
</g>
<path id="Icon metro-qrcode" d="M52.1253 21.6308H21.625V52.1303H52.1253V21.6308ZM59.7503 14.0059V59.7561H14.002V14.0089L59.7503 14.0059ZM29.2511 29.2576H44.5002V44.5064H29.2511V29.2576ZM128.372 21.6308H97.8717V52.1303H128.372V21.6308ZM135.997 14.0059V59.7561H90.2486V14.0089H135.997V14.0059ZM105.497 29.2547H120.746V44.5064H105.498L105.497 29.2547ZM52.1253 97.8785H21.625V128.378H52.1253V97.8785ZM59.7503 90.2537V136.001H14.002V90.2537H59.7503ZM29.2511 105.502H44.5002V120.751H29.2511V105.502ZM67.3744 14.0039H74.9995V21.6308H67.3744V14.0039ZM74.9995 21.6308H82.6235V29.2556H74.9985L74.9995 21.6308ZM67.3734 29.2556H74.9985V36.8805H67.3744L67.3734 29.2556ZM74.9985 36.8805H82.6235V44.5054H74.9985V36.8805ZM67.3734 44.5054H74.9985V52.1303H67.3744L67.3734 44.5054ZM74.9985 52.1303H82.6235V59.7551H74.9985V52.1303ZM67.3734 59.7551H74.9985V67.38H67.3744L67.3734 59.7551ZM67.3734 75.0039H74.9985V82.6298H67.3744L67.3734 75.0039ZM74.9985 82.6298H82.6235V90.2547H74.9985V82.6298ZM67.3734 90.2547H74.9985V97.8795H67.3744L67.3734 90.2547ZM74.9985 97.8795H82.6235V105.504H74.9985V97.8795ZM67.3734 105.504H74.9985V113.129H67.3744L67.3734 105.504ZM74.9985 113.129H82.6235V120.754H74.9985V113.129ZM67.3734 120.754H74.9985V128.379H67.3744L67.3734 120.754ZM74.9985 128.379H82.6235V136.004H74.9985V128.379ZM128.372 75.0049H135.997V82.6298H128.372V75.0049ZM21.627 75.0049H29.2511V82.6298H21.626L21.627 75.0049ZM29.2511 67.38H36.8761V75.0049H29.2511V67.38ZM14.002 67.38H21.627V75.0049H14.002V67.38ZM44.5022 67.38H52.1273V75.0049H44.5002L44.5022 67.38ZM52.1273 75.0049H59.7523V82.6298H52.1253L52.1273 75.0049ZM59.7523 67.38H67.3774V75.0049H59.7493L59.7523 67.38ZM82.6265 75.0049H90.2516V82.6298H82.6235L82.6265 75.0049ZM90.2516 67.38H97.8766V75.0049H90.2486L90.2516 67.38ZM97.8766 75.0049H105.502V82.6298H97.8727L97.8766 75.0049ZM105.502 67.38H113.127V75.0049H105.498L105.502 67.38ZM113.127 75.0049H120.752V82.6298H113.127V75.0049ZM120.752 67.38H128.377V75.0049H120.752V67.38ZM128.377 90.2537H136.002V97.8785H128.372L128.377 90.2537ZM82.6285 90.2537H90.2536V97.8785L82.6235 97.8795L82.6285 90.2537ZM90.2486 82.6298H97.8727L97.8737 90.2547H90.2486V82.6298ZM97.8737 90.2547H105.499V97.8795H97.8727L97.8737 90.2547ZM113.123 90.2547H120.748V97.8795H113.123V90.2547ZM120.747 82.6298H128.372V90.2547H120.748L120.747 82.6298ZM128.372 105.503H135.997V113.129H128.372V105.503ZM82.6235 105.504L90.2486 105.503V113.129H82.6235V105.504ZM90.2486 97.8785H97.8737V105.503H90.2486V97.8785ZM105.498 97.8785L113.123 97.8795V105.503H105.498V97.8785ZM113.123 105.503H120.748V113.129H113.123V105.503ZM120.748 97.8795L128.372 97.8785V105.503H120.748V97.8795ZM128.373 120.752H135.998V128.377H128.372L128.373 120.752ZM90.2486 113.129H97.8737V120.754H90.2486V113.129ZM97.8737 120.754H105.499V128.379H97.8727L97.8737 120.754ZM105.499 113.129H113.123L113.124 120.754H105.499V113.129ZM113.124 120.754H120.749V128.379H113.124V120.754ZM90.2496 128.379H97.8746V136.004H90.2486L90.2496 128.379ZM105.499 128.379H113.124V136.004H105.498L105.499 128.379ZM120.749 128.379H128.373V136.004H120.748L120.749 128.379Z" fill="var(--fill-0, black)"/>
</g>
</svg>
