<svg preserveAspectRatio="none" width="100%" height="100%" overflow="visible" style="display: block;" viewBox="0 0 18.9989 16.2869" fill="none" xmlns="http://www.w3.org/2000/svg">
<g id="Icon ionic-ios-eye-off">
<path id="Path 17104" d="M2.38866 0.176598C2.27559 0.0635243 2.12223 0 1.96232 0C1.80241 0 1.64905 0.0635243 1.53597 0.176598C1.4229 0.289672 1.35938 0.443034 1.35938 0.602944C1.35938 0.762855 1.4229 0.916216 1.53597 1.02929L16.6141 16.1127C16.6888 16.1871 16.7819 16.2404 16.8839 16.2672C16.9859 16.294 17.0932 16.2934 17.1948 16.2653C17.2977 16.2385 17.3914 16.1842 17.466 16.1083C17.578 15.9956 17.6409 15.8431 17.6409 15.6842C17.6409 15.5252 17.578 15.3727 17.466 15.26L2.38866 0.176598Z" fill="var(--fill-0, #B9B9B9)"/>
<g id="Group 9951">
<path id="Path 17105" d="M9.6766 11.9539C9.01845 11.9854 8.36336 11.8459 7.77522 11.5488C7.18707 11.2518 6.68595 10.8074 6.32072 10.259C5.95549 9.71054 5.73862 9.07683 5.69126 8.41963C5.6439 7.76243 5.76766 7.10418 6.05048 6.50906L3.78361 4.24219C2.48627 5.2882 1.27913 6.44139 0.174929 7.68957C0.0623834 7.81306 0 7.97412 0 8.1412C0 8.30828 0.0623834 8.46934 0.174929 8.59283C2.92743 11.6331 5.35298 14.2495 9.49176 14.2495C10.7002 14.2395 11.8913 13.9614 12.9793 13.4352L11.1352 11.5886C10.6777 11.805 10.1821 11.9291 9.6766 11.9539Z" fill="var(--fill-0, #B9B9B9)"/>
<path id="Path 17106" d="M18.8228 8.57026C18.9323 8.45143 18.9949 8.29679 18.9987 8.13522C19.0026 7.97365 18.9475 7.8162 18.8437 7.69229C16.6257 4.99907 13.5514 2.03906 9.49287 2.03906C8.28758 2.04058 7.09848 2.31669 6.01584 2.84642L7.86857 4.70002C8.32373 4.48154 8.81845 4.35757 9.32285 4.33558C9.981 4.30404 10.6361 4.4436 11.2242 4.74065C11.8124 5.0377 12.3135 5.48211 12.6787 6.03052C13.044 6.57894 13.2608 7.21265 13.3082 7.86985C13.3556 8.52705 13.2318 9.1853 12.949 9.78042L15.2158 12.0473C16.5195 10.9982 17.7266 9.83453 18.8228 8.57026Z" fill="var(--fill-0, #B9B9B9)"/>
<path id="Path 17107" d="M6.79687 8.35505C6.84865 9.00027 7.12845 9.60598 7.58615 10.0637C8.04386 10.5214 8.64957 10.8012 9.29478 10.853C9.62949 10.8795 9.96619 10.8422 10.287 10.7431L6.90324 7.35938C6.80768 7.68207 6.77164 8.01945 6.79687 8.35505Z" fill="var(--fill-0, #B9B9B9)"/>
<path id="Path 17108" d="M12.2079 8.15003C12.2079 8.0951 12.2079 8.04017 12.2079 7.98438C11.9654 8.09355 11.7024 8.15001 11.4363 8.15003C11.3893 8.15003 11.3492 8.15003 11.3047 8.15003L12.0894 8.94344C12.168 8.68631 12.208 8.41892 12.2079 8.15003Z" fill="var(--fill-0, #B9B9B9)"/>
<path id="Path 17109" d="M9.50344 6.15418C9.50289 5.90922 9.54752 5.66627 9.63509 5.4375C9.59237 5.4375 9.5479 5.4375 9.50344 5.4375C9.23744 5.43791 8.97299 5.47787 8.71875 5.55607L9.51215 6.34948C9.50344 6.28147 9.50344 6.21783 9.50344 6.15418Z" fill="var(--fill-0, #B9B9B9)"/>
</g>
</g>
</svg>
