<svg preserveAspectRatio="none" width="100%" height="100%" overflow="visible" style="display: block;" viewBox="0 0 19 12.2124" fill="none" xmlns="http://www.w3.org/2000/svg">
<g id="Icon ionic-ios-eye">
<path id="Path 17110" d="M9.48676 0C6.0771 0 3.3893 2.14553 0.174918 5.65284C0.0623792 5.77632 0 5.93737 0 6.10444C0 6.27151 0.0623792 6.43256 0.174918 6.55604C2.92723 9.59606 5.35262 12.2124 9.49112 12.2124C13.5791 12.2124 16.6444 8.91779 18.8239 6.52989C18.9334 6.41107 18.996 6.25643 18.9998 6.09487C19.0037 5.93331 18.9486 5.77587 18.8448 5.65197C16.6191 2.95981 13.5451 0 9.48676 0ZM9.67333 9.91863C8.90427 9.95455 8.14234 9.75701 7.48761 9.35194C6.83289 8.94688 6.316 8.35324 6.00486 7.64902C5.69371 6.9448 5.60286 6.16293 5.74424 5.40613C5.88562 4.64932 6.25261 3.95298 6.79701 3.40858C7.34141 2.86419 8.03775 2.49719 8.79455 2.35581C9.55135 2.21444 10.3332 2.30529 11.0374 2.61643C11.7417 2.92758 12.3353 3.44446 12.7404 4.09919C13.1454 4.75391 13.343 5.51585 13.3071 6.28491C13.2623 7.23421 12.8651 8.13269 12.1931 8.80469C11.5211 9.47669 10.6226 9.87389 9.67333 9.91863Z" fill="var(--fill-0, #B9B9B9)"/>
<path id="Path 17111" d="M9.49521 4.11507C9.49466 3.87013 9.53929 3.62719 9.62685 3.39844C9.58413 3.39844 9.53967 3.39844 9.49521 3.39844C8.95844 3.39844 8.43372 3.55761 7.98741 3.85582C7.54111 4.15404 7.19325 4.5779 6.98784 5.07381C6.78243 5.56972 6.72868 6.11541 6.8334 6.64186C6.93812 7.16832 7.1966 7.6519 7.57615 8.03145C7.9557 8.41101 8.43929 8.66948 8.96574 8.7742C9.4922 8.87892 10.0379 8.82518 10.5338 8.61976C11.0297 8.41435 11.4536 8.0665 11.7518 7.62019C12.05 7.17388 12.2092 6.64916 12.2092 6.11239C12.2092 6.05747 12.2092 6.00255 12.2092 5.94675C11.9666 6.05591 11.7036 6.11237 11.4376 6.11239C11.1789 6.10898 10.9233 6.05459 10.6856 5.95234C10.4479 5.85008 10.2327 5.70196 10.0523 5.51645C9.8719 5.33094 9.72983 5.11168 9.63424 4.87122C9.53865 4.63076 9.4914 4.37381 9.49521 4.11507Z" fill="var(--fill-0, #B9B9B9)"/>
</g>
</svg>
